<svg xmlns="http://www.w3.org/2000/svg" xmlns:xlink="http://www.w3.org/1999/xlink" version="1.1" baseProfile="full" viewBox="0 0 200 200" width="200" height="200">
<g fill="black">
<path d="M 13.6 188.5 L 12.3 187.4 L 16.5 180.3 L 20.3 172.7 L 23.6 164.6 L 26.5 155.8 L 28.8 146.4 L 30.7 136.2 L 32.1 125.3 L 32.9 113.6 L 33.2 101.2 L 33 88 L 33 25 L 45 31 L 45 31.1 L 50.5 30.2 L 61.8 28.4 L 72.8 26.8 L 83.6 25.1 L 94.2 23.3 L 104.4 21.5 L 114.4 19.6 L 124.1 17.6 L 133.5 15.5 L 141.7 13.5 L 142.7 13.3 L 143 14.5 L 153.6 23.3 L 153.9 26.2 L 149.6 24.1 L 145.2 25 L 135.7 26.6 L 126 28.1 L 116 29.5 L 105.7 30.7 L 95.3 31.7 L 84.5 32.6 L 73.5 33.3 L 62.3 33.8 L 50.8 34 L 45 33.9 L 45 59 L 163 59 L 173 49 L 185 59 L 185 63 L 45 63 L 45 88 L 44.9 88.2 L 44.6 101.5 L 43.6 114.4 L 42 126.6 L 39.8 137.9 L 37.1 148.5 L 33.7 158.3 L 29.6 167.3 L 25 175.3 L 19.6 182.5 Z " />
</g>
</svg>
