<svg xmlns="http://www.w3.org/2000/svg" xmlns:xlink="http://www.w3.org/1999/xlink" version="1.1" baseProfile="full" viewBox="0 0 200 200" width="200" height="200">
<g fill="black">
<path d="M 57.1 188.8 L 56.8 187.1 L 72.8 182.3 L 87 177 L 99.4 171 L 109.9 164.5 L 118.6 157.3 L 125.6 149.5 L 130.8 141.1 L 134.4 132.1 L 136.5 122.4 L 136.6 119.7 L 132.1 121.2 L 121.9 124.4 L 111.5 127.4 L 100.9 130.4 L 90.1 133.3 L 79.2 136.2 L 68.2 139 L 57 141.9 L 45.7 144.7 L 38.2 146.6 L 36.8 150.1 L 34.2 147.6 L 29.7 136.3 L 31.6 135.9 L 43.2 133.6 L 49 132.5 L 49 37 L 61 39 L 61.6 39.4 L 64.8 38.6 L 74.5 36.3 L 84 34.1 L 93.3 31.9 L 102.4 29.6 L 111.2 27.3 L 119.8 25 L 128.2 22.5 L 136.4 20 L 143.3 17.8 L 144.3 17.5 L 144.7 19 L 154.4 27 L 154.7 30.1 L 150.5 28.2 L 147.7 29 L 139.4 31 L 130.9 32.9 L 122.1 34.7 L 113.2 36.4 L 104.1 37.9 L 94.7 39.3 L 85.1 40.6 L 75.3 41.6 L 65.3 42.4 L 61.4 42.6 L 61 42.8 L 61 130.2 L 66 129.2 L 77.2 127.1 L 88.3 125 L 99.2 123 L 110 121 L 120.7 119.2 L 131.2 117.5 L 136.8 116.8 L 137 112 L 137 48 L 149 50 L 152 52 L 149 53.8 L 149 112 L 147.7 124.2 L 144.6 135.6 L 139.6 146 L 132.8 155.4 L 124.3 163.6 L 114.1 170.8 L 102.3 176.9 L 88.8 182 L 73.8 186 Z M 108.8 103 L 105.2 100.2 L 103.3 96.1 L 101.2 92.2 L 98.9 88.5 L 96.5 85 L 93.9 81.6 L 91.1 78.3 L 88.2 75.2 L 85.1 72.1 L 81.9 69.1 L 78.4 66.2 L 79.3 64.6 L 83.7 66.1 L 88 68 L 92.1 70.2 L 96 72.8 L 99.7 75.7 L 103.3 78.9 L 106.7 82.4 L 109.9 86.2 L 113 90.2 L 115.8 94.5 L 116.2 99 L 113.4 102.6 Z " />
</g>
</svg>
