<svg xmlns="http://www.w3.org/2000/svg" xmlns:xlink="http://www.w3.org/1999/xlink" version="1.1" baseProfile="full" viewBox="0 0 200 200" width="200" height="200">
<g fill="black">
<path d="M 20.4 188.7 L 19.5 187.2 L 32.8 177 L 44.9 165.3 L 55.9 152.2 L 65.7 137.4 L 74.4 121.1 L 81.9 103 L 88.4 83.2 L 91.9 69 L 21 69 L 21 65 L 92.9 65 L 93.7 61.6 L 97.9 38.4 L 100.9 13.3 L 101.1 11.2 L 112.8 14.6 L 115.6 16.9 L 112.2 18.4 L 109.1 40.2 L 104.2 64 L 103.9 65 L 162 65 L 172 55 L 184 65 L 184 69 L 102.8 69 L 98 86.1 L 90.6 106.4 L 82 124.8 L 72.1 141.5 L 61 156.3 L 48.7 169.1 L 35.1 180 Z " />
</g>
</svg>
