<svg xmlns="http://www.w3.org/2000/svg" xmlns:xlink="http://www.w3.org/1999/xlink" version="1.1" baseProfile="full" viewBox="0 0 200 200" width="200" height="200">
<g fill="black">
<path d="M 136 188 L 136 182 L 116 179 L 116 176 L 136 176 L 137.2 175.9 L 138.1 175.7 L 139 175.4 L 139.4 175 L 139.7 174.1 L 139.9 173.2 L 140 172 L 140 87 L 60 87 L 60 99 L 48 105 L 48 17 L 60 23 L 140 23 L 146 18 L 157 27 L 152 31 L 152 172 L 151.8 174.5 L 151.4 177 L 150.6 179.4 L 149.3 181.7 L 147.7 183.7 L 145.7 185.3 L 143.4 186.6 L 141 187.4 L 138.5 187.8 Z M 60 83 L 140 83 L 140 57 L 60 57 Z M 60 53 L 140 53 L 140 27 L 60 27 Z " />
</g>
</svg>
