<svg xmlns="http://www.w3.org/2000/svg" xmlns:xlink="http://www.w3.org/1999/xlink" version="1.1" baseProfile="full" viewBox="0 0 200 200" width="200" height="200">
<g fill="black">
<path d="M 18 178 L 18 174 L 66 174 L 66 124 L 32 124 L 32 120 L 66 120 L 66 70 L 26 70 L 26 66 L 66 66 L 66 20 L 78 22 L 81 24 L 78 25.8 L 78 66 L 122 66 L 122 20 L 134 22 L 137 24 L 134 25.8 L 134 66 L 152 66 L 162 56 L 174 66 L 174 70 L 134 70 L 134 120 L 146 120 L 156 110 L 168 120 L 168 124 L 134 124 L 134 174 L 160 174 L 170 164 L 182 174 L 182 178 Z M 78 174 L 122 174 L 122 124 L 78 124 Z M 78 120 L 122 120 L 122 70 L 78 70 Z " />
</g>
</svg>
