<svg xmlns="http://www.w3.org/2000/svg" xmlns:xlink="http://www.w3.org/1999/xlink" version="1.1" baseProfile="full" viewBox="0 0 200 200" width="200" height="200">
<g fill="black">
<path d="M 15 172 L 15 168 L 96 168 L 96 86 L 51 86 L 51 83.9 L 46.8 93.2 L 42.1 102 L 36.8 110.4 L 31 118.3 L 24.6 125.7 L 17.6 132.5 L 16.3 131.4 L 21.6 123.4 L 26.6 115.3 L 31.2 107 L 35.3 98.5 L 39 89.7 L 42.3 80.6 L 45.1 71.2 L 47.5 61.5 L 49.4 51.5 L 50.8 42.1 L 50.7 42.1 L 51.2 39.1 L 62.7 42.8 L 65.4 45.2 L 62 46.7 L 60.6 53.7 L 57.9 64.1 L 54.7 74.2 L 51.7 82 L 96 82 L 96 18 L 108 20 L 111 22 L 108 23.8 L 108 82 L 146 82 L 156 72 L 168 82 L 168 86 L 108 86 L 108 168 L 164 168 L 174 158 L 186 168 L 186 172 Z " />
</g>
</svg>
