<svg xmlns="http://www.w3.org/2000/svg" xmlns:xlink="http://www.w3.org/1999/xlink" version="1.1" baseProfile="full" viewBox="0 0 200 200" width="200" height="200">
<g fill="black">
<path d="M 14 177 L 14 173 L 94 173 L 94 122 L 46 122 L 46 134 L 34 140 L 34 58 L 46 64 L 94 64 L 94 19 L 106 21 L 109 23 L 106 24.8 L 106 64 L 154 64 L 160 59 L 171 68 L 166 72 L 166 128 L 154 134 L 154 122 L 106 122 L 106 173 L 164 173 L 174 163 L 186 173 L 186 177 Z M 46 118 L 94 118 L 94 68 L 46 68 Z M 106 118 L 154 118 L 154 68 L 106 68 Z " />
</g>
</svg>
