<svg xmlns="http://www.w3.org/2000/svg" xmlns:xlink="http://www.w3.org/1999/xlink" version="1.1" baseProfile="full" viewBox="0 0 200 200" width="200" height="200">
<g fill="black">
<path d="M 14.6 176.6 L 13.3 175.3 L 17.4 169 L 21.1 162.4 L 24.5 155.2 L 27.4 147.5 L 29.9 139.2 L 32 130.2 L 33.7 120.6 L 34.9 110.3 L 35.6 99.4 L 36 88 L 36 31 L 48 37 L 53.2 36.4 L 68.1 34.7 L 82.4 33 L 96.3 31.2 L 109.7 29.3 L 122.6 27.2 L 135.1 25 L 147.1 22.6 L 158.6 20.1 L 169.6 17.3 L 169.9 18.7 L 180.3 27.2 L 180.6 30.2 L 176.3 28.1 L 172.3 29 L 160.9 31.2 L 149 33.2 L 136.7 34.9 L 123.9 36.4 L 110.7 37.7 L 97.1 38.8 L 83 39.5 L 68.4 40 L 53.4 40.1 L 48 40 L 48 88 L 47.9 88.1 L 47 100.2 L 45.5 111.7 L 43.5 122.4 L 41 132.4 L 38 141.7 L 34.4 150.3 L 30.3 158.2 L 25.7 165.2 L 20.4 171.4 Z " />
</g>
</svg>
