<svg xmlns="http://www.w3.org/2000/svg" xmlns:xlink="http://www.w3.org/1999/xlink" version="1.1" baseProfile="full" viewBox="0 0 200 200" width="200" height="200">
<g fill="black">
<path d="M 14.6 189.6 L 13.3 188.3 L 18 181.3 L 22.2 174 L 26 166.4 L 29.4 158.3 L 32.2 149.8 L 34.5 140.8 L 36.4 131.3 L 37.8 121.3 L 38.6 110.8 L 39 100 L 39 21 L 51 27 L 160 27 L 166 22 L 177 31 L 172 35 L 172 82 L 160 88 L 160 76 L 51 76 L 51 100 L 50.9 100.2 L 50 111.8 L 48.4 122.8 L 46.2 133.3 L 43.5 143.2 L 40.2 152.6 L 36.3 161.3 L 31.8 169.5 L 26.7 176.9 L 21 183.6 Z M 51 72 L 100 72 L 100 31 L 51 31 Z M 112 72 L 160 72 L 160 31 L 112 31 Z " />
</g>
</svg>
