<svg xmlns="http://www.w3.org/2000/svg" xmlns:xlink="http://www.w3.org/1999/xlink" version="1.1" baseProfile="full" viewBox="0 0 200 200" width="200" height="200">
<g fill="black">
<path d="M 43 190 L 43 40 L 55 46 L 86.7 46 L 87.5 43.9 L 88.5 40.3 L 89.5 36.8 L 90.6 33.3 L 91.6 30 L 92.6 26.8 L 93.5 23.6 L 94.4 20.6 L 95.2 17.6 L 95.7 15.6 L 95.6 15.6 L 96.5 13.3 L 107.1 19.1 L 109.2 22.1 L 105.1 22.7 L 104 24.7 L 102.3 27.5 L 100.5 30.4 L 98.6 33.3 L 96.7 36.3 L 94.6 39.3 L 92.4 42.3 L 90 45.2 L 89.4 46 L 147 46 L 153 41 L 164 50 L 159 54 L 159 102 L 147 108 L 147 96 L 55 96 L 55 124 L 152 124 L 158 119 L 169 128 L 164 132 L 164 181 L 152 187 L 152 177 L 55 177 L 55 184 Z M 55 173 L 152 173 L 152 128 L 55 128 Z M 55 92 L 147 92 L 147 50 L 55 50 Z " />
</g>
</svg>
