<svg xmlns="http://www.w3.org/2000/svg" xmlns:xlink="http://www.w3.org/1999/xlink" version="1.1" baseProfile="full" viewBox="0 0 200 200" width="200" height="200">
<g fill="black">
<path d="M 12.5 186.7 L 11.4 185.2 L 16.4 180 L 20.7 174.2 L 24.5 168 L 27.7 161.1 L 30.5 153.5 L 32.7 145.2 L 34.3 136 L 35.4 126.1 L 36 115.5 L 36 22 L 48 28 L 146 28 L 152 23 L 163 32 L 158 35 L 158.1 57.8 L 158.7 82.9 L 159.8 105 L 161.4 124.2 L 163.5 140.4 L 166.2 153.4 L 169.4 163.3 L 172.9 169.8 L 174 170.8 L 179 149 L 181 149 L 179.1 174 L 179.2 174 L 183.3 176 L 184.9 180.2 L 182.9 184.3 L 178.7 185.9 L 170 183.3 L 163.2 176.9 L 158.3 167.9 L 154.6 156.4 L 151.7 142.3 L 149.4 125.4 L 148.8 118 L 103 118 L 103 174 L 91 180 L 91 118 L 47.1 118 L 46.1 127.4 L 44.2 137.9 L 41.6 147.5 L 38.4 156.4 L 34.6 164.4 L 30 171.5 L 24.8 177.7 L 18.9 182.7 Z M 103 114 L 148.5 114 L 147.8 105.8 L 146.7 83.3 L 146.5 75 L 103 75 Z M 48 71 L 91 71 L 91 32 L 48 32 Z M 103 71 L 146.4 71 L 146.1 58 L 146 32 L 103 32 Z M 47.4 114 L 91 114 L 91 75 L 48 75 L 48 104 Z " />
</g>
</svg>
