<svg xmlns="http://www.w3.org/2000/svg" xmlns:xlink="http://www.w3.org/1999/xlink" version="1.1" baseProfile="full" viewBox="0 0 200 200" width="200" height="200">
<g fill="black">
<path d="M 27 182 L 27 63 L 39 69 L 76 69 L 76 21 L 88 23 L 91 25 L 88 26.8 L 88 69 L 112 69 L 112 21 L 124 23 L 127 25 L 124 26.8 L 124 69 L 161 69 L 167 64 L 178 73 L 173 77 L 173 170 L 161 176 L 161 164 L 39 164 L 39 176 Z M 39 135.7 L 44.6 132.5 L 51.7 127.6 L 57.8 122.3 L 62.9 116.5 L 67.2 110.3 L 70.6 103.6 L 73.1 96.4 L 74.9 88.5 L 75.8 80.1 L 76 73 L 39 73 Z M 128 128 L 125.4 127.8 L 122.9 127.4 L 120.5 126.6 L 118.2 125.3 L 116.2 123.7 L 114.6 121.7 L 113.3 119.4 L 112.5 117 L 112.1 114.5 L 112 112 L 112 73 L 87.8 73 L 87.2 81.2 L 85.4 90.7 L 82.7 99.6 L 78.9 107.7 L 74.2 115.1 L 68.6 121.6 L 62 127.3 L 54.6 132.1 L 46.4 135.9 L 39 138.3 L 39 160 L 161 160 L 161 73 L 124 73 L 124 113.2 L 124.2 114.1 L 124.5 115 L 124.9 115.4 L 125.8 115.7 L 126.7 115.9 L 128 116 L 147.2 116 L 153 91 L 155 91 L 153.1 116 L 156.6 118.4 L 159 122 L 156.6 125.6 L 153 128 Z " />
</g>
</svg>
