<svg xmlns="http://www.w3.org/2000/svg" xmlns:xlink="http://www.w3.org/1999/xlink" version="1.1" baseProfile="full" viewBox="0 0 200 200" width="200" height="200">
<g fill="black">
<path d="M 48.2 191.8 L 47.7 190.1 L 63 184.1 L 77 176.6 L 89.6 167.5 L 100.9 156.9 L 111.1 144.6 L 120 130.6 L 127.8 114.9 L 134.4 97.4 L 139.8 78 L 143.4 60 L 71.4 60 L 70.6 61.9 L 65.8 72.2 L 60.5 82 L 54.8 91.2 L 48.6 100 L 41.9 108.1 L 34.6 115.5 L 33.3 114.4 L 38.8 105.8 L 44.1 97 L 49.1 87.9 L 53.8 78.5 L 58 68.7 L 62 58.5 L 65.5 47.9 L 68.7 36.9 L 71.5 25.5 L 73.9 13.7 L 74.3 11.9 L 85.6 16.2 L 88.1 18.7 L 84.7 19.9 L 82.5 28.3 L 79 40 L 75 51.2 L 73 56 L 144 56 L 150 51 L 161 60 L 156 63 L 154.9 63.5 L 150.8 80.8 L 144.5 100.9 L 136.9 119 L 128 135.4 L 117.8 149.8 L 106.3 162.3 L 93.6 172.8 L 79.6 181.2 L 64.4 187.6 Z " />
</g>
</svg>
