<svg xmlns="http://www.w3.org/2000/svg" xmlns:xlink="http://www.w3.org/1999/xlink" version="1.1" baseProfile="full" viewBox="0 0 200 200" width="200" height="200">
<g fill="black">
<path d="M 57.1 188.8 L 56.8 187.1 L 72.8 182.3 L 87 177 L 99.4 171 L 109.9 164.5 L 118.6 157.3 L 125.6 149.5 L 130.8 141.1 L 134.4 132.1 L 136.5 122.4 L 136.9 114.4 L 133 116 L 122.7 119.9 L 112.2 123.8 L 101.5 127.5 L 79.7 134.9 L 68.6 138.5 L 57.4 142.2 L 38.5 148.2 L 37.3 151.8 L 34.6 149.4 L 29.3 138.5 L 31.2 137.9 L 42.9 134.9 L 51 132.8 L 51 41 L 63 43 L 63.2 43.1 L 75.6 39.5 L 84.8 36.9 L 93.8 34.3 L 102.7 31.7 L 111.3 29 L 119.8 26.2 L 128.1 23.4 L 136.2 20.5 L 143.1 18 L 143.1 17.9 L 143.2 17.9 L 144.1 17.6 L 144.6 19.2 L 153.7 27 L 153.9 30.1 L 149.9 28.3 L 147.9 29 L 139.7 31.4 L 131.2 33.7 L 122.6 35.9 L 113.7 38 L 104.8 39.9 L 95.6 41.7 L 86.3 43.3 L 76.7 44.8 L 67 46 L 63.9 46.2 L 63 46.8 L 63 129.6 L 65.8 128.9 L 77.1 126 L 99.3 120.2 L 110.3 117.5 L 121.1 114.8 L 131.9 112.3 L 137 111.3 L 137 53 L 149 55 L 152 57 L 149 58.8 L 149 112 L 147.7 124.2 L 144.6 135.6 L 139.6 146 L 132.8 155.4 L 124.3 163.6 L 114.1 170.8 L 102.3 176.9 L 88.8 182 L 73.8 186 Z " />
</g>
</svg>
