<svg xmlns="http://www.w3.org/2000/svg" xmlns:xlink="http://www.w3.org/1999/xlink" version="1.1" baseProfile="full" viewBox="0 0 200 200" width="200" height="200">
<g fill="black">
<path d="M 100 190 L 100 184 L 80 181 L 80 178 L 100 178 L 101.6 177.9 L 103.1 177.8 L 104.7 177.5 L 106.1 177.2 L 107.6 176.8 L 110.4 175.6 L 111.7 174.9 L 113.1 174.1 L 114.4 173.2 L 119 169.3 L 123.2 164.7 L 127.1 159.4 L 130.5 153.3 L 133.6 146.5 L 136.3 138.8 L 138.6 130.4 L 140.5 121.2 L 142 111.3 L 142.8 103 L 70.6 103 L 66.7 116.1 L 53.5 118.4 L 70.6 61 L 13 61 L 13 57 L 71.8 57 L 84.5 14.3 L 95.4 19.6 L 97.7 22.4 L 94.3 23.2 L 84.3 57 L 165 57 L 175 47 L 187 57 L 187 61 L 83.1 61 L 71.8 99 L 143 99 L 149 94 L 160 103 L 155 106 L 154.5 106.2 L 153.9 112.7 L 152.3 123.3 L 150.3 133.2 L 147.8 142.4 L 144.8 150.9 L 141.2 158.8 L 137.1 165.9 L 132.5 172.3 L 127.3 177.9 L 121.6 182.8 L 117.6 185.4 L 115.6 186.4 L 113.5 187.4 L 111.3 188.2 L 109.1 188.8 L 106.9 189.3 L 104.6 189.7 L 102.3 189.9 Z " />
</g>
</svg>
