<svg xmlns="http://www.w3.org/2000/svg" xmlns:xlink="http://www.w3.org/1999/xlink" version="1.1" baseProfile="full" viewBox="0 0 200 200" width="200" height="200">
<g fill="black">
<path d="M 44.7 182.1 L 42.1 182 L 39.7 181.5 L 37.2 180.7 L 35 179.5 L 33 177.8 L 31.3 175.8 L 30.1 173.6 L 29.3 171.2 L 28.8 168.7 L 28.7 166.1 L 28.7 89.1 L 40.7 95.1 L 94 95.1 L 94 62 L 106 64 L 109 66 L 106 67.8 L 106 95.1 L 157.6 95.1 L 167.6 85.1 L 179.6 95.1 L 179.6 99.1 L 40.7 99.1 L 40.7 166.1 L 40.8 167.3 L 40.9 168.2 L 41.1 168.8 L 41.3 169.2 L 41.6 169.5 L 42 169.7 L 42.6 169.9 L 43.5 170 L 44.7 170.1 L 172.4 170.1 L 176 172.5 L 178.4 176.1 L 176 179.7 L 172.4 182.1 Z M 12 57.1 L 12 53.1 L 112.3 53.1 L 114.7 49.7 L 118.1 45.1 L 121.4 40.8 L 124.6 36.6 L 127.6 32.4 L 130.5 28.4 L 133.2 24.5 L 135.8 20.6 L 138.2 16.9 L 140.4 13.2 L 140.9 12.5 L 150.3 20 L 151.6 23.4 L 147.8 23.1 L 147.4 23.6 L 144.3 27.2 L 141.1 30.8 L 137.6 34.4 L 134 38 L 130.2 41.6 L 126.2 45.3 L 121.9 48.9 L 117.4 52.4 L 116.4 53.1 L 166 53.1 L 176 43.1 L 188 53.1 L 188 57.1 Z M 69.8 48.8 L 66.2 46 L 65.3 43.7 L 64.1 41.3 L 62.6 38.8 L 60.8 36.1 L 58.7 33.2 L 56.4 30.3 L 53.7 27.2 L 50.8 23.9 L 47.7 20.5 L 44.2 17.1 L 45.3 15.6 L 49.6 18.1 L 53.7 20.4 L 57.6 22.8 L 61.1 25.2 L 64.3 27.6 L 67.3 30.1 L 70.1 32.6 L 72.6 35.1 L 74.8 37.6 L 76.8 40.2 L 77.2 44.7 L 74.4 48.3 Z " />
</g>
</svg>
