<svg xmlns="http://www.w3.org/2000/svg" xmlns:xlink="http://www.w3.org/1999/xlink" version="1.1" baseProfile="full" viewBox="0 0 200 200" width="200" height="200">
<g fill="black">
<path d="M 60.2 189.2 L 59.7 187.5 L 73.1 181.9 L 84.8 174.9 L 94.9 166.6 L 103.6 156.7 L 110.8 145.3 L 116.6 132.3 L 121 117.6 L 124.1 101.1 L 125.7 82.9 L 126 64 L 125.9 60.6 L 138 62.9 L 141 64.8 L 137.8 66.8 L 137.3 79.1 L 139 88.9 L 141.6 100.3 L 144.7 111.3 L 148.4 121.7 L 152.7 131.6 L 157.8 141 L 163.4 150 L 169.8 158.4 L 176.8 166.5 L 184.5 174 L 186.1 175.6 L 175.4 183.5 L 167.4 174.8 L 160.4 165.6 L 154.1 155.9 L 148.7 145.8 L 144.2 135.3 L 140.5 124.4 L 137.7 113.1 L 135.8 101.4 L 135.5 96.8 L 134.7 102.8 L 130.7 120.1 L 125.2 135.7 L 118.1 149.5 L 109.5 161.5 L 99.3 171.5 L 87.6 179.5 L 74.6 185.4 Z M 12.4 188.4 L 11.5 186.8 L 20.4 179.5 L 28.3 171.2 L 35.1 161.9 L 40.9 151.5 L 45.8 140 L 49.6 127.3 L 52.5 113.3 L 54.3 98.1 L 55.1 81.6 L 55 64.8 L 54.9 61.4 L 67 63.5 L 70 65.5 L 66.9 67.5 L 66.5 82 L 65 99.2 L 62.3 115.1 L 62 116.5 L 63.4 117.2 L 68.2 120 L 72.7 123.1 L 77 126.4 L 80.9 129.8 L 84.6 133.4 L 88.1 137.1 L 91.2 141 L 94.2 145 L 96.9 149.1 L 97.2 153.6 L 94.3 157.2 L 89.8 157.5 L 86.2 154.7 L 84.4 150.8 L 82.4 147 L 80.1 143.2 L 77.5 139.4 L 74.7 135.6 L 71.6 131.8 L 68.4 128 L 64.8 124.2 L 61.1 120.2 L 61 120.1 L 58.6 129.8 L 53.7 143.1 L 47.6 155.1 L 40.5 165.7 L 32.2 174.8 L 22.8 182.4 Z M 15 52.3 L 15 48.3 L 94 48.3 L 94 14.2 L 106 16.2 L 109 18.2 L 106 20 L 106 48.3 L 163 48.3 L 173 38.3 L 185 48.3 L 185 52.3 Z " />
</g>
</svg>
