<svg xmlns="http://www.w3.org/2000/svg" xmlns:xlink="http://www.w3.org/1999/xlink" version="1.1" baseProfile="full" viewBox="0 0 200 200" width="200" height="200">
<g fill="black">
<path d="M 127 185 L 127 179 L 107 176 L 107 173 L 127 173 L 128.4 172.9 L 129.8 172.7 L 131.1 172.5 L 132.4 172.1 L 133.5 171.6 L 134.7 171 L 135.7 170.3 L 136.8 169.5 L 137.8 168.5 L 138.8 167.4 L 141.3 163.9 L 143.9 159.1 L 146.4 152.9 L 148.9 145.5 L 151.2 136.9 L 153.5 127 L 155.6 115.9 L 157.5 103.5 L 159.3 90 L 160.7 78 L 124.5 78 L 121.1 91 L 107.9 93.7 L 124.2 34 L 32 34 L 32 30 L 125 30 L 131 25 L 142 34 L 137 37 L 134.8 37.9 L 125.5 74 L 161 74 L 167 69 L 178 78 L 173 81 L 172.4 81.3 L 171.2 91.5 L 169.4 105.3 L 167.4 117.9 L 165.2 129.4 L 162.9 139.7 L 160.4 149 L 157.7 157.1 L 154.8 164.2 L 151.6 170.2 L 148 175.2 L 146.3 177 L 144.6 178.6 L 142.7 180.1 L 140.7 181.4 L 138.6 182.5 L 136.4 183.4 L 134.1 184.1 L 131.8 184.6 L 129.4 184.9 Z " />
</g>
</svg>
