<svg xmlns="http://www.w3.org/2000/svg" xmlns:xlink="http://www.w3.org/1999/xlink" version="1.1" baseProfile="full" viewBox="0 0 200 200" width="200" height="200">
<g fill="black">
<path d="M 93 186 L 93 180 L 73 177 L 73 174 L 93 174 L 94.2 173.9 L 95.1 173.7 L 96 173.4 L 96.4 173 L 96.7 172.1 L 96.9 171.2 L 97 170 L 97 34 L 24 34 L 24 30 L 168 30 L 168.3 29.8 L 169 28.6 L 169.4 28.9 L 174 25 L 185 34 L 180 37 L 176.6 38.4 L 174.9 40.7 L 171 45.8 L 167.1 50.7 L 163.3 55.4 L 159.6 59.9 L 156 64.2 L 152.4 68.2 L 148.9 72 L 145.3 75.4 L 141.7 78.5 L 140.2 77.4 L 142.3 73.1 L 144.6 68.7 L 147.2 64.3 L 149.9 59.7 L 152.8 55 L 155.8 50.1 L 158.9 45 L 162.1 39.7 L 165.5 34.2 L 165.6 34 L 109 34 L 109 170 L 108.8 172.5 L 108.4 175 L 107.6 177.4 L 106.3 179.7 L 104.7 181.7 L 102.7 183.3 L 100.4 184.6 L 98 185.4 L 95.5 185.8 Z " />
</g>
</svg>
