<svg xmlns="http://www.w3.org/2000/svg" xmlns:xlink="http://www.w3.org/1999/xlink" version="1.1" baseProfile="full" viewBox="0 0 200 200" width="200" height="200">
<g fill="black">
<path d="M 84.3 189.8 L 83.6 188.1 L 92.3 182.2 L 100.1 175.7 L 107 168.8 L 113 161.3 L 118.1 153.2 L 122.3 144.5 L 125.7 135.1 L 128.3 125 L 130 114.2 L 130.8 103.6 L 131 100.3 L 142.9 103.3 L 145.7 105.5 L 142.4 107.3 L 141.3 115.8 L 138.7 127.5 L 137.1 132.5 L 138.6 134.8 L 142.1 139.8 L 145.9 144.8 L 150 149.6 L 154.5 154.4 L 159.5 159 L 164.8 163.5 L 170.6 167.9 L 176.9 172.2 L 183.6 176.4 L 187.4 178.9 L 176.3 187.5 L 169.5 182.4 L 163.2 177.1 L 157.5 171.7 L 152.2 166.2 L 147.5 160.5 L 143.4 154.7 L 139.9 148.8 L 137 142.7 L 135.3 138 L 135.2 138.4 L 130.7 148.4 L 125.3 157.7 L 118.9 166 L 111.6 173.5 L 103.4 179.9 L 94.3 185.4 Z M 12.3 188.8 L 11.6 187.1 L 20.7 181.8 L 28.7 176 L 35.5 169.6 L 41.3 162.6 L 46 154.8 L 49.8 146.3 L 52.6 137.1 L 54.3 127 L 55.2 116 L 55 105.1 L 54.9 101.8 L 67 103.8 L 70 105.7 L 66.8 107.7 L 66.5 116.6 L 65 128.6 L 62.4 138.9 L 63.2 139.2 L 67.9 141 L 72.4 143.1 L 76.7 145.3 L 80.7 147.7 L 84.6 150.3 L 88.2 153 L 91.6 155.8 L 94.8 158.8 L 97.8 161.9 L 99 166.3 L 96.8 170.3 L 92.4 171.5 L 88.4 169.3 L 86.3 166.2 L 84 163.2 L 81.5 160.2 L 78.7 157.2 L 75.7 154.2 L 72.5 151.3 L 69 148.3 L 65.4 145.3 L 61.5 142.3 L 61.3 142.1 L 58.4 149.9 L 53.4 159.1 L 47.2 167.3 L 40 174.4 L 31.8 180.4 L 22.5 185.2 Z M 84.3 101.8 L 83.6 100.1 L 92.3 94.2 L 100.1 87.7 L 107 80.8 L 113 73.3 L 118.1 65.2 L 122.3 56.5 L 125.7 47.1 L 128.3 37 L 130 26.2 L 130.8 15.6 L 131 12.3 L 142.9 15.3 L 145.7 17.5 L 142.4 19.3 L 141.3 27.8 L 138.7 39.5 L 137.1 44.5 L 138.6 46.8 L 142.1 51.8 L 145.9 56.8 L 150 61.6 L 154.5 66.4 L 159.5 71 L 164.8 75.5 L 170.6 79.9 L 176.9 84.2 L 183.6 88.4 L 187.4 90.9 L 176.3 99.5 L 169.5 94.4 L 163.2 89.1 L 157.5 83.7 L 152.2 78.2 L 147.5 72.5 L 143.4 66.7 L 139.9 60.8 L 137 54.7 L 135.3 50 L 135.2 50.4 L 130.7 60.4 L 125.3 69.7 L 118.9 78 L 111.6 85.5 L 103.4 91.9 L 94.3 97.4 Z M 12.3 100.8 L 11.6 99.1 L 20.7 93.8 L 28.7 88 L 35.5 81.6 L 41.3 74.6 L 46 66.8 L 49.8 58.3 L 52.6 49.1 L 54.3 39 L 55.2 28 L 55 17.1 L 54.9 13.8 L 67 15.8 L 70 17.7 L 66.8 19.7 L 66.5 28.6 L 65 40.6 L 62.4 50.9 L 63.2 51.2 L 67.9 53 L 72.4 55.1 L 76.7 57.3 L 80.7 59.7 L 84.6 62.3 L 88.2 65 L 91.6 67.8 L 94.8 70.8 L 97.8 73.9 L 99 78.3 L 96.8 82.3 L 92.4 83.5 L 88.4 81.3 L 86.3 78.2 L 84 75.2 L 81.5 72.2 L 78.7 69.2 L 75.7 66.2 L 72.5 63.3 L 69 60.3 L 65.4 57.3 L 61.5 54.3 L 61.3 54.1 L 58.4 61.9 L 53.4 71.1 L 47.2 79.3 L 40 86.4 L 31.8 92.4 L 22.5 97.2 Z " />
</g>
</svg>
