<svg xmlns="http://www.w3.org/2000/svg" xmlns:xlink="http://www.w3.org/1999/xlink" version="1.1" baseProfile="full" viewBox="0 0 200 200" width="200" height="200">
<g fill="black">
<path d="M 18 188 L 18 184 L 162 184 L 172 174 L 184 184 L 184 188 Z M 12.6 173.4 L 11.7 171.8 L 23.8 163.9 L 35 155.6 L 45.5 146.9 L 55.2 137.6 L 64 127.8 L 72.2 117.3 L 79.5 106.3 L 86 94.7 L 91.8 82.5 L 95.2 73.9 L 95.1 73.5 L 95.8 72.1 L 96.5 70.5 L 97.2 68.7 L 98 66.7 L 98.7 64.5 L 99.5 62.1 L 100.3 59.5 L 101.1 56.7 L 102.1 53.8 L 102.4 51.4 L 101.6 44.2 L 101.6 26.8 L 55.8 26.8 L 55.8 22.8 L 95.7 22.8 L 105.7 12.8 L 117.7 22.8 L 117.7 26.8 L 103.5 26.8 L 105.7 43.7 L 109.4 60.9 L 114.4 77.3 L 120.8 92.8 L 128.5 107.2 L 137.4 120.5 L 147.5 132.5 L 158.6 143.2 L 170.7 152.4 L 183.7 160 L 188.8 162.7 L 177.5 171.7 L 163.5 162.7 L 150.7 152 L 139.2 139.9 L 129.1 126.4 L 120.4 111.8 L 113.2 96.1 L 107.5 79.5 L 106.9 76.7 L 102.2 87.3 L 95.4 99.9 L 87.9 111.8 L 79.5 123 L 70.4 133.4 L 60.4 143.1 L 49.6 151.9 L 38.1 160 L 25.7 167.2 Z " />
</g>
</svg>
