<svg xmlns="http://www.w3.org/2000/svg" xmlns:xlink="http://www.w3.org/1999/xlink" version="1.1" baseProfile="full" viewBox="0 0 200 200" width="200" height="200">
<g fill="black">
<path d="M 156 191 L 156 185 L 142 182 L 142 179 L 156 179 L 157.2 178.9 L 158.1 178.7 L 159 178.4 L 159.4 178 L 159.7 177.1 L 159.9 176.2 L 160 175 L 160 55 L 107 55 L 107 182 L 95 188 L 95 55 L 39 55 L 39 184 L 27 190 L 27 45 L 39 51 L 95 51 L 95 14 L 107 16 L 110 18 L 107 19.8 L 107 51 L 160 51 L 166 46 L 177 55 L 172 59 L 172 175 L 171.8 177.5 L 171.4 180 L 170.6 182.4 L 169.3 184.7 L 167.7 186.7 L 165.7 188.3 L 163.4 189.6 L 161 190.4 L 158.5 190.8 Z M 146.8 154 L 143.2 151.2 L 141.1 146.8 L 138.8 142.7 L 136.4 138.9 L 133.8 135.4 L 131.1 132.2 L 128.2 129.2 L 125.1 126.4 L 121.8 123.8 L 118.4 121.4 L 114.6 119.1 L 115.2 117.4 L 119.7 118.2 L 124.1 119.4 L 128.4 121.1 L 132.6 123.4 L 136.6 126 L 140.4 129.1 L 144 132.6 L 147.5 136.5 L 150.7 140.8 L 153.8 145.5 L 154.2 150 L 151.4 153.6 Z M 54.8 153.5 L 51.6 151.8 L 44.3 142.1 L 46.1 141.2 L 50.1 139.4 L 54.1 137.5 L 58.1 135.5 L 62.1 133.4 L 66 131.2 L 70 128.9 L 74 126.5 L 82.2 121.7 L 86.4 119.3 L 87.5 120.6 L 84.5 124.5 L 81.3 128.1 L 77.9 131.6 L 74.4 134.9 L 70.8 138 L 67.1 141 L 63.3 143.9 L 59.5 146.6 L 55.6 149.3 L 55.2 149.6 Z M 115.5 103.6 L 114.4 102.3 L 117.4 98.6 L 120.4 95 L 123.4 91.6 L 126.5 88.2 L 129.5 84.8 L 132.5 81.5 L 138.3 74.9 L 141.2 71.7 L 143.4 69.2 L 143.3 69.1 L 144.3 68.1 L 152.5 76.9 L 153.2 80.4 L 149.5 79.5 L 149.1 79.8 L 145.7 82.6 L 138.7 88.2 L 135.1 90.9 L 131.4 93.6 L 127.6 96.3 L 123.7 98.8 L 119.6 101.3 Z M 79.1 103.3 L 75.3 100.8 L 73.2 97.2 L 71 93.9 L 68.7 90.7 L 66.3 87.7 L 63.7 84.8 L 61 82 L 58.1 79.4 L 55.1 76.9 L 51.9 74.4 L 48.5 72.2 L 49.2 70.5 L 53.3 71.5 L 57.4 72.7 L 61.3 74.3 L 65.2 76.3 L 68.8 78.6 L 72.4 81.1 L 75.8 84 L 79.1 87.1 L 82.3 90.5 L 85.3 94.1 L 86.1 98.6 L 83.6 102.4 Z " />
</g>
</svg>
