<svg xmlns="http://www.w3.org/2000/svg" xmlns:xlink="http://www.w3.org/1999/xlink" version="1.1" baseProfile="full" viewBox="0 0 200 200" width="200" height="200">
<g fill="black">
<path d="M 157 187 L 157 181 L 137 178 L 137 175 L 157 175 L 158.2 174.9 L 159.1 174.7 L 160 174.4 L 160.4 174 L 160.7 173.1 L 160.9 172.2 L 161 171 L 161 35 L 41 35 L 41 178 L 29 184 L 29 25 L 41 31 L 161 31 L 167 26 L 178 35 L 173 39 L 173 171 L 172.8 173.5 L 172.4 176 L 171.6 178.4 L 170.3 180.7 L 168.7 182.7 L 166.7 184.3 L 164.4 185.6 L 162 186.4 L 159.5 186.8 Z M 58 109 L 58 105 L 120 105 L 130 95 L 142 105 L 142 109 Z " />
</g>
</svg>
