<svg xmlns="http://www.w3.org/2000/svg" xmlns:xlink="http://www.w3.org/1999/xlink" version="1.1" baseProfile="full" viewBox="0 0 200 200" width="200" height="200">
<g fill="black">
<path d="M 157 184 L 157 178 L 137 175 L 137 172 L 157 172 L 158.2 171.9 L 159.1 171.7 L 160 171.4 L 160.4 171 L 160.7 170.1 L 160.9 169.2 L 161 168 L 161 102 L 128 102 L 128 168 L 116 174 L 116 102 L 84 102 L 84 168 L 72 174 L 72 102 L 39 102 L 39 178 L 27 184 L 27 23 L 39 29 L 161 29 L 167 24 L 178 33 L 173 37 L 173 168 L 172.8 170.5 L 172.4 173 L 171.6 175.4 L 170.3 177.7 L 168.7 179.7 L 166.7 181.3 L 164.4 182.6 L 162 183.4 L 159.5 183.8 Z M 39 98 L 72 98 L 72 33 L 39 33 Z M 84 98 L 116 98 L 116 33 L 84 33 Z M 128 98 L 161 98 L 161 33 L 128 33 Z " />
</g>
</svg>
