<svg xmlns="http://www.w3.org/2000/svg" xmlns:xlink="http://www.w3.org/1999/xlink" version="1.1" baseProfile="full" viewBox="0 0 200 200" width="200" height="200">
<g fill="black">
<path d="M 34.1 188.5 L 34.1 109.4 L 46.1 111.4 L 49.1 113.4 L 46.1 115.2 L 46.1 166.5 L 94 166.5 L 94 90 L 16 90 L 16 86 L 94 86 L 94 34 L 36 34 L 36 30 L 142 30 L 152 20 L 164 30 L 164 34 L 106 34 L 106 86 L 162 86 L 172 76 L 184 86 L 184 90 L 106 90 L 106 166.5 L 153.8 166.5 L 153.8 109.4 L 165.8 111.4 L 168.8 113.4 L 165.8 115.2 L 165.8 176.5 L 153.8 182.5 L 153.8 170.5 L 46.1 170.5 L 46.1 182.5 Z " />
</g>
</svg>
