<svg xmlns="http://www.w3.org/2000/svg" xmlns:xlink="http://www.w3.org/1999/xlink" version="1.1" baseProfile="full" viewBox="0 0 200 200" width="200" height="200">
<g fill="black">
<path d="M 10.5 188.6 L 9.4 187.3 L 13.4 181.6 L 17 175.4 L 20.3 168.4 L 23 160.6 L 25.4 151.8 L 27.2 142.2 L 28.6 131.5 L 29.6 120 L 30 107.4 L 30 20 L 42 26 L 150 26 L 156 21 L 167 30 L 162 33 L 161.8 33.1 L 161.2 64.3 L 161.8 94.1 L 163.5 118.2 L 166 137.1 L 169.2 151.5 L 172.8 161.6 L 176.3 168.3 L 178.1 170.4 L 183 149 L 185 149 L 183.1 173.9 L 183.5 174 L 187.5 176.1 L 188.9 180.5 L 186.8 184.5 L 182.4 185.9 L 177 184.5 L 171.5 180.9 L 166.4 175 L 161.7 166.4 L 157.7 154.7 L 154.2 139.2 L 151.5 119.4 L 149.8 94.6 L 149.2 64.2 L 149.9 30 L 42 30 L 42 94 L 41.4 107.9 L 40.3 120.9 L 38.6 132.9 L 36.3 144 L 33.5 154.1 L 30.1 163.2 L 26.2 171.3 L 21.6 178.3 L 16.3 184.1 Z " />
</g>
</svg>
