<svg xmlns="http://www.w3.org/2000/svg" xmlns:xlink="http://www.w3.org/1999/xlink" version="1.1" baseProfile="full" viewBox="0 0 200 200" width="200" height="200">
<g fill="black">
<path d="M 26 190 L 26 29 L 38 31 L 41 33 L 38 34.8 L 38 168 L 162 168 L 162 29 L 174 31 L 177 33 L 174 34.8 L 174 178 L 162 184 L 162 172 L 38 172 L 38 184 Z M 42.8 163 L 41.7 161.6 L 52.5 150.5 L 63 138.8 L 73.2 126.7 L 83 113.9 L 92.6 100.5 L 96.7 94.1 L 95 92.1 L 86.1 82.3 L 77 72.9 L 67.7 63.9 L 58.2 55.1 L 48.5 46.6 L 49.6 45.2 L 60.6 52.1 L 71.2 59.8 L 81.5 68.1 L 91.5 76.9 L 101.2 86.3 L 101.6 86.7 L 101.7 86.5 L 110.5 71.8 L 119 56.5 L 127.1 40.5 L 134.8 23.8 L 135.3 22.6 L 145.7 28.8 L 147.6 31.9 L 143.9 32.3 L 137.2 45.6 L 128.4 61.7 L 119.1 77 L 109.5 91.6 L 108.1 93.6 L 110.6 96.2 L 119.7 106.6 L 128.6 117.5 L 137.1 128.9 L 145.4 140.8 L 146.2 145.3 L 143.6 149.1 L 139.1 149.8 L 135.3 147.3 L 127.8 135.4 L 120 123.9 L 111.9 112.9 L 103.6 102.3 L 102.6 101.1 L 99.5 105.5 L 89 118.6 L 78.1 131 L 66.8 142.5 L 55.1 153.2 Z M 106.9 158.6 L 103.4 155.7 L 102.3 152.9 L 101.2 150.2 L 99.9 147.6 L 98.5 145.1 L 96.9 142.6 L 95.2 140.2 L 93.3 137.9 L 91.3 135.6 L 89.1 133.2 L 86.6 131.2 L 87.4 129.6 L 90.5 130.9 L 93.7 132.1 L 96.8 133.6 L 99.6 135.4 L 102.4 137.3 L 105 139.5 L 107.5 141.9 L 109.9 144.5 L 112.1 147.3 L 114.1 150.3 L 114.4 154.9 L 111.4 158.4 Z M 70.9 111.3 L 67.5 108.3 L 66.3 105.2 L 65 102.2 L 63.5 99.2 L 62 96.4 L 60.3 93.6 L 58.5 90.9 L 56.6 88.2 L 52.4 83 L 49.9 80.6 L 50.9 79.1 L 54.1 80.7 L 57.3 82.2 L 60.4 84.1 L 63.4 86.2 L 66.2 88.5 L 68.9 91 L 71.4 93.7 L 73.8 96.7 L 76.1 99.8 L 78.2 103.1 L 78.5 107.6 L 75.5 111.1 Z M 141.9 108.7 L 138.6 105.5 L 137.6 102.3 L 136.4 99.2 L 135.2 96.3 L 134 93.5 L 132.6 90.9 L 131.2 88.4 L 129.7 86.1 L 128.1 83.8 L 126.5 81.6 L 124.4 79.8 L 125.4 78.2 L 128 79.4 L 130.8 80.6 L 133.5 82.1 L 136.1 84 L 138.6 86.1 L 141 88.6 L 143.3 91.3 L 145.5 94.2 L 147.6 97.3 L 149.6 100.7 L 149.7 105.3 L 146.5 108.6 Z M 102.8 64.8 L 99.4 61.8 L 98 58.3 L 96.5 54.9 L 94.9 51.6 L 93.2 48.4 L 91.4 45.2 L 87.4 39 L 85.2 36 L 82.9 32.9 L 80.4 30 L 81.5 28.6 L 88.3 32.6 L 91.6 34.9 L 94.7 37.5 L 97.6 40.2 L 100.4 43.2 L 103.1 46.3 L 105.6 49.5 L 108 53 L 110.2 56.6 L 110.4 61.2 L 107.4 64.6 Z " />
</g>
</svg>
