<svg xmlns="http://www.w3.org/2000/svg" xmlns:xlink="http://www.w3.org/1999/xlink" version="1.1" baseProfile="full" viewBox="0 0 200 200" width="200" height="200">
<g fill="black">
<path d="M 144 188 L 144 182 L 124 179 L 124 176 L 144 176 L 145.4 175.9 L 146.8 175.7 L 149.2 175.1 L 150.3 174.6 L 151.3 174 L 152.3 173.3 L 153.3 172.5 L 154.2 171.5 L 155.2 170.4 L 158 165.6 L 160.8 159.1 L 163.3 150.7 L 165.6 140.5 L 167.5 128.6 L 169.1 115 L 170.3 99.8 L 171.2 82.8 L 171.8 64.2 L 172 46 L 55.7 46 L 55.3 47 L 50.9 57.1 L 46 66.8 L 40.6 76.3 L 34.7 85.4 L 28.2 94.2 L 21.2 102.6 L 13.6 110.5 L 12.3 109.4 L 18.2 100.3 L 23.8 91.2 L 29.1 81.9 L 33.9 72.6 L 38.3 63.1 L 42.3 53.4 L 45.9 43.5 L 49 33.4 L 51.6 23.1 L 53.9 12.6 L 54.3 10.8 L 65.6 15.2 L 68.1 17.8 L 64.5 19 L 62.6 26.1 L 59.2 36.7 L 57.2 42 L 172 42 L 178 37 L 189 46 L 184 49 L 183.8 64.4 L 183.2 83.3 L 182.3 100.6 L 181 116.2 L 179.4 130.3 L 177.4 142.8 L 174.9 153.7 L 172.1 163.1 L 168.7 171 L 164.8 177.6 L 163.2 179.5 L 161.5 181.2 L 159.7 182.8 L 157.7 184.1 L 155.6 185.3 L 153.4 186.3 L 151.2 187 L 148.8 187.5 L 146.4 187.8 Z M 40.2 162.7 L 38 159.8 L 35 148.1 L 37 147.9 L 47.3 147.3 L 57.4 146.7 L 67.6 146.1 L 77.6 145.5 L 86 145 L 86 114.7 L 55.8 114.7 L 55.8 126.7 L 43.8 132.7 L 43.8 74.7 L 55.8 80.7 L 86 80.7 L 86 53.6 L 98 55.6 L 101 57.6 L 98 59.4 L 98 80.7 L 130.4 80.7 L 136.4 75.7 L 147.4 84.7 L 142.4 88.7 L 142.4 116.7 L 130.4 122.7 L 130.4 114.7 L 98 114.7 L 98 144.2 L 107.2 143.6 L 117 143.1 L 126.6 142.7 L 129.7 142.6 L 129.1 141.8 L 126.5 138.5 L 123.6 135 L 120.6 131.4 L 117.4 127.8 L 118.5 126.4 L 122.7 129 L 126.8 131.5 L 130.6 134.1 L 134.1 136.8 L 137.4 139.4 L 140.5 142.2 L 143.4 144.9 L 146.1 147.6 L 148.6 150.4 L 150.9 153.2 L 151.7 157.7 L 149.1 161.5 L 144.6 162.2 L 140.8 159.6 L 139.4 156.9 L 137.8 154.1 L 135.9 151.1 L 133.9 148.1 L 131.8 145.3 L 127.1 146.4 L 117.6 148.4 L 108 150.2 L 98.3 151.8 L 88.4 153.3 L 78.5 154.7 L 68.5 156.1 L 48.3 158.7 L 42.1 159.4 Z M 55.8 110.7 L 86 110.7 L 86 84.7 L 55.8 84.7 Z M 98 110.7 L 130.4 110.7 L 130.4 84.7 L 98 84.7 Z " />
</g>
</svg>
