<svg xmlns="http://www.w3.org/2000/svg" xmlns:xlink="http://www.w3.org/1999/xlink" version="1.1" baseProfile="full" viewBox="0 0 200 200" width="200" height="200">
<g fill="black">
<path d="M 94 185 L 94 124 L 15 124 L 15 120 L 94 120 L 94 17 L 106 19 L 109 21 L 106 22.8 L 106 120 L 163 120 L 173 110 L 185 120 L 185 124 L 106 124 L 106 179 Z M 30.8 106.4 L 27.8 104.4 L 21.3 94.2 L 23.1 93.4 L 29.3 91 L 35.7 88.5 L 42.3 85.8 L 49 83 L 55.8 80.1 L 62.8 77 L 70 73.8 L 77.4 70.5 L 85.1 67.2 L 93 64 L 93.8 65.5 L 86.9 70.6 L 80 75.2 L 73.1 79.6 L 66.3 83.7 L 59.6 87.6 L 53 91.4 L 46.6 94.9 L 40.2 98.3 L 31.6 102.6 Z M 165.5 101.4 L 161.2 100 L 157 96.2 L 152.5 92.5 L 147.9 88.9 L 143 85.4 L 137.8 82 L 132.4 78.7 L 126.8 75.5 L 120.9 72.4 L 114.8 69.2 L 108.5 65.9 L 109.1 64.2 L 116.1 65.6 L 122.9 67.4 L 129.4 69.5 L 135.7 71.9 L 141.8 74.5 L 147.7 77.4 L 153.3 80.4 L 158.8 83.7 L 164 87.2 L 169 90.9 L 171 95 L 169.6 99.3 Z M 110 55.9 L 109.1 54.4 L 113.8 50.3 L 118.6 46.3 L 123.5 42.4 L 128.4 38.6 L 133.3 34.7 L 138.3 30.9 L 143.2 27.1 L 157.9 15.4 L 165 25.1 L 165.1 28.7 L 161.7 27.2 L 159.6 28.5 L 154.3 32 L 143.5 38.6 L 138.1 41.8 L 132.6 44.9 L 127.1 47.9 L 121.5 50.8 L 115.8 53.5 Z M 77.8 55.1 L 74 52.5 L 71.9 49.1 L 69.5 45.8 L 66.8 42.5 L 63.6 39.3 L 60 36.1 L 56 33 L 51.7 30 L 46.9 27 L 41.8 23.9 L 36.2 20.8 L 36.8 19.1 L 43.2 20.4 L 49.1 22.1 L 54.7 24.2 L 59.9 26.5 L 64.8 29.1 L 69.4 32 L 73.6 35.1 L 77.4 38.5 L 80.9 42.1 L 84.1 46 L 84.8 50.5 L 82.3 54.3 Z " />
</g>
</svg>
