<svg xmlns="http://www.w3.org/2000/svg" xmlns:xlink="http://www.w3.org/1999/xlink" version="1.1" baseProfile="full" viewBox="0 0 200 200" width="200" height="200">
<g fill="black">
<path d="M 90 189 L 90 112 L 16 112 L 16 108 L 162 108 L 172 98 L 184 108 L 184 112 L 102 112 L 102 126.5 L 105.4 127.3 L 113.1 129.5 L 120.5 132 L 127.4 134.8 L 134 137.8 L 140.2 141 L 146 144.3 L 151.4 147.9 L 156.4 151.6 L 161.1 155.6 L 162.8 159.8 L 161.1 164.1 L 156.8 165.8 L 152.6 164.1 L 148.9 160.2 L 144.8 156.4 L 140.2 152.6 L 135.2 148.9 L 129.8 145.2 L 124 141.6 L 117.7 138 L 111.1 134.5 L 104 130.8 L 102 129.8 L 102 183 Z M 16 86 L 16 82 L 90 82 L 90 13 L 102 15 L 105 17 L 102 18.8 L 102 46 L 150 46 L 160 36 L 172 46 L 172 50 L 102 50 L 102 82 L 162 82 L 172 72 L 184 82 L 184 86 Z " />
</g>
</svg>
