<svg xmlns="http://www.w3.org/2000/svg" xmlns:xlink="http://www.w3.org/1999/xlink" version="1.1" baseProfile="full" viewBox="0 0 200 200" width="200" height="200">
<g fill="black">
<path d="M 94 188 L 94 152 L 35 152 L 35 148 L 94 148 L 94 125 L 66 125 L 66 132 L 54 138 L 54 57 L 66 63 L 94 63 L 94 42 L 40 42 L 40 38 L 94 38 L 94 14 L 106 16 L 109 18 L 106 19.8 L 106 38 L 138 38 L 148 28 L 160 38 L 160 42 L 106 42 L 106 63 L 134 63 L 140 58 L 151 67 L 146 71 L 146 129 L 134 135 L 134 125 L 106 125 L 106 148 L 143 148 L 153 138 L 165 148 L 165 152 L 106 152 L 106 182 Z M 66 121 L 134 121 L 134 96 L 66 96 Z M 66 92 L 134 92 L 134 67 L 66 67 Z " />
</g>
</svg>
