<svg xmlns="http://www.w3.org/2000/svg" xmlns:xlink="http://www.w3.org/1999/xlink" version="1.1" baseProfile="full" viewBox="0 0 200 200" width="200" height="200">
<g fill="black">
<path d="M 93.6 190.4 L 93.6 156.1 L 88 158.5 L 82.2 160.7 L 76.6 162.7 L 71.1 164.5 L 65.7 166.3 L 60.4 167.9 L 55.2 169.4 L 50.2 170.8 L 49.4 171 L 47.9 174.7 L 45.4 172.1 L 41.1 160.7 L 43 160.3 L 47.9 159.7 L 52.9 158.9 L 54.1 158.7 L 54.1 78.9 L 42.4 78.9 L 42.4 74.9 L 74.3 74.9 L 74.3 49.6 L 47.2 49.6 L 47.2 45.6 L 99.1 45.6 L 107.3 36.6 L 117.3 45.6 L 117.3 49.6 L 86.3 49.6 L 86.3 74.9 L 100.9 74.9 L 110.9 64.9 L 122.9 74.9 L 122.9 78.9 L 105.6 78.9 L 105.6 184 L 109.9 181.2 L 118.7 174 L 126.7 165.9 L 133.8 156.7 L 139.6 147 L 139.4 146.7 L 134.9 136.5 L 131.2 125.6 L 128.5 113.9 L 126.7 101.5 L 126.3 95.2 L 123.8 99.4 L 119.4 105.6 L 114.6 111.4 L 113.1 110.5 L 116.1 103.7 L 119 96.9 L 121.8 89.9 L 124.5 82.7 L 127 75.4 L 129.2 67.8 L 131.3 60 L 133.2 51.9 L 134.8 43.7 L 136.3 35.1 L 136.6 33.2 L 148.1 37.4 L 150.6 39.9 L 147.1 41.2 L 145.9 46.1 L 143.6 54.6 L 140.9 62.8 L 138 70.8 L 135.7 76.4 L 161.7 76.4 L 171.7 66.4 L 183.7 76.4 L 183.7 80.4 L 169.5 80.4 L 167.2 95.8 L 163.7 111.4 L 159.2 125.7 L 153.7 138.8 L 150 145.7 L 153.1 150.2 L 159.3 157.4 L 166 163.7 L 173.3 169.2 L 181.2 173.8 L 185.9 176.5 L 174.7 185.3 L 166 179.3 L 158.1 172.4 L 151 164.7 L 144.8 156.1 L 144.2 155.1 L 139.9 161.2 L 131.5 170.4 L 122.1 178.2 L 111.8 184.5 L 100.7 189.2 L 100 187.6 L 102.7 185.8 Z M 12.6 189.5 L 11.3 188.4 L 14.5 182.3 L 17.5 175.5 L 20.1 168 L 22.4 159.7 L 24.3 150.5 L 25.8 140.4 L 27 129.4 L 27.7 117.5 L 28 104.7 L 28 20 L 40 26 L 166 26 L 176 16 L 188 26 L 188 30 L 40 30 L 40 91 L 39.4 105.1 L 38.4 118.3 L 37 130.6 L 35 141.9 L 32.6 152.4 L 29.7 161.9 L 26.2 170.4 L 22.3 177.9 L 17.7 184.3 Z M 66.1 156.8 L 69 156.3 L 74.7 155.3 L 80.6 154.3 L 86.6 153.3 L 92.8 152.4 L 93.6 152.3 L 93.6 132 L 66.1 132 Z M 144.5 136.7 L 145.2 135.1 L 149.7 122.5 L 153.3 108.8 L 156 93.9 L 157.5 80.4 L 134 80.4 L 131.5 85.7 L 128.5 91.4 L 130.8 100.7 L 134.2 112.5 L 138.1 123.3 L 142.5 133.2 Z M 66.1 128 L 93.6 128 L 93.6 105.4 L 66.1 105.4 Z M 66.1 101.4 L 93.6 101.4 L 93.6 78.9 L 66.1 78.9 Z " />
</g>
</svg>
