<svg xmlns="http://www.w3.org/2000/svg" xmlns:xlink="http://www.w3.org/1999/xlink" version="1.1" baseProfile="full" viewBox="0 0 200 200" width="200" height="200">
<g fill="black">
<path d="M 164 142.2 L 160.3 139.5 L 157.5 134.6 L 154.5 129.8 L 151.3 125.1 L 147.9 120.6 L 145.9 118.1 L 142.9 118.8 L 129.9 121.5 L 116.9 123.9 L 104.1 126.2 L 91.5 128.4 L 79 130.4 L 66.7 132.4 L 54.5 134.3 L 42.5 136.1 L 34.7 137.2 L 33 140.5 L 30.6 137.8 L 27.3 126.1 L 29.2 125.9 L 41.1 124.8 L 53.2 123.6 L 55.6 123.4 L 56.5 121.3 L 59 116.3 L 61.4 111.4 L 63.9 106.5 L 66.3 101.7 L 68.7 97 L 71 92.3 L 73.3 87.5 L 75.4 83 L 15 83 L 15 79 L 94 79 L 94 50 L 106 52 L 109 54 L 106 55.8 L 106 79 L 162 79 L 172 69 L 184 79 L 184 83 L 88.7 83 L 88.3 83.7 L 85.5 88.3 L 82.7 92.8 L 79.7 97.2 L 76.7 101.7 L 73.6 106.2 L 70.3 110.6 L 67 114.9 L 63.4 119.2 L 60.1 122.9 L 65.4 122.4 L 77.8 121.2 L 90.4 120 L 103.1 118.7 L 116 117.4 L 129.1 116.2 L 142.4 115 L 143.2 114.9 L 140.4 111.9 L 136.4 107.7 L 132.2 103.6 L 127.8 99.4 L 123.3 95.2 L 124.3 93.7 L 130 96.3 L 135.5 99.3 L 140.6 102.6 L 145.6 106.3 L 150.3 110.2 L 154.6 114.2 L 155.8 114.1 L 156.1 115.7 L 159 118.7 L 163.1 123.4 L 166.9 128.2 L 170.5 133.3 L 171.2 137.8 L 168.5 141.5 Z " />
</g>
</svg>
