<svg xmlns="http://www.w3.org/2000/svg" xmlns:xlink="http://www.w3.org/1999/xlink" version="1.1" baseProfile="full" viewBox="0 0 200 200" width="200" height="200">
<g fill="black">
<path d="M 177.1 188.1 L 160.9 185.3 L 145.8 181.5 L 131.7 176.9 L 118.7 171.3 L 106.8 164.9 L 102.5 162 L 98.5 164.3 L 85 170.6 L 70.3 176.2 L 54.5 181 L 37.4 184.9 L 19.1 188 L 18.8 186.2 L 36.5 181.2 L 52.9 175.9 L 68 170.1 L 81.8 163.7 L 94.4 156.9 L 94.9 156.6 L 86.5 149.3 L 78.2 140.2 L 71.2 130.2 L 66.1 120.1 L 47 120.1 L 47 116.1 L 137 116.1 L 137.8 114.9 L 138.2 115.1 L 143 111.1 L 154 120.1 L 149 123.1 L 145.7 124.5 L 140.6 131.4 L 131.9 140.8 L 122 149.4 L 111.4 156.8 L 122.8 162 L 135.3 166.4 L 148.7 170.1 L 163.2 172.9 L 178.8 175 L 189 176.3 Z M 102.4 151.6 L 105.6 149.5 L 115.6 141.7 L 124.2 133.3 L 131.7 124.4 L 134.5 120.1 L 68.5 120.1 L 74.6 127.8 L 82.5 136.3 L 91.3 143.9 L 100.8 150.7 Z M 16.9 123.7 L 13.3 120.8 L 12.9 116.3 L 15.7 112.7 L 17.7 111.9 L 19.6 110.7 L 21.4 109.1 L 23.1 107.1 L 24.7 104.6 L 26.2 101.6 L 27.5 98.1 L 28.6 94.1 L 29.6 89.6 L 30.1 84.7 L 31.9 84.6 L 32.5 89.7 L 32.8 92.6 L 170 92.6 L 170.6 92.1 L 171 91.2 L 171.4 91.5 L 176 87.6 L 187 96.6 L 182 99.6 L 177.2 101.6 L 175.3 103.3 L 173.2 105.3 L 170.8 107.3 L 168.3 109.4 L 165.7 111.5 L 162.8 113.8 L 159.6 116 L 156.6 118.6 L 155.3 117.3 L 157.7 114.2 L 159.7 110.9 L 161.6 107.9 L 163.4 105 L 165.1 102.3 L 166.6 99.8 L 167.9 97.4 L 168.3 96.6 L 33 96.6 L 33.1 99 L 32.8 103.3 L 32 107.3 L 30.9 111.1 L 29.3 114.7 L 27.1 117.9 L 24.5 120.8 L 21.5 123.2 Z M 136.7 84.7 L 136.7 78.7 L 47.9 78.7 L 47.9 74.7 L 136.7 74.7 L 136.7 53.9 L 23 53.9 L 23 49.9 L 136.7 49.9 L 136.7 28.7 L 48.5 28.7 L 48.5 24.7 L 136.7 24.7 L 142.7 19.7 L 153.7 28.7 L 148.7 32.7 L 148.7 49.9 L 156.9 49.9 L 166.9 39.9 L 178.9 49.9 L 178.9 53.9 L 148.7 53.9 L 148.7 78.7 Z " />
</g>
</svg>
