<svg xmlns="http://www.w3.org/2000/svg" xmlns:xlink="http://www.w3.org/1999/xlink" version="1.1" baseProfile="full" viewBox="0 0 200 200" width="200" height="200">
<g fill="black">
<path d="M 108.5 143.9 L 113 135.9 L 118 124.8 L 122.6 112.6 L 126.6 99.2 L 129.3 88 L 80.4 88 L 84.3 99.7 L 89 111.7 L 94.2 122.6 L 99.9 132.5 L 106.3 141.5 Z M 121 72 L 121 66 L 107 63 L 107 60 L 121 60 L 122.2 59.9 L 123.1 59.7 L 124 59.4 L 124.4 59 L 124.7 58.1 L 124.9 57.2 L 125 56 L 125 23 L 68 23 L 68 84 L 130 84 L 136 79 L 147 88 L 142 91 L 140.6 91.6 L 137.5 102.4 L 132.7 116.2 L 127.2 128.9 L 121.1 140.3 L 114.5 150.5 L 120.9 156.4 L 129.1 162.5 L 138 167.6 L 147.5 171.9 L 153.8 174.5 L 142.4 184 L 131.9 178.6 L 122.3 172.1 L 113.5 164.6 L 107.9 158.6 L 107.2 159.5 L 99.3 167.2 L 90.8 173.5 L 81.8 178.4 L 72.3 181.8 L 71.6 180.1 L 80 175.1 L 87.6 169.2 L 94.8 162.5 L 101.4 154.7 L 102.9 152.5 L 98.7 146.9 L 92.7 136.7 L 87.6 125.6 L 83.4 113.7 L 80.3 100.8 L 78.4 88 L 68 88 L 68 184 L 56 190 L 56 13 L 68 19 L 125 19 L 131 14 L 142 23 L 137 27 L 137 56 L 136.8 58.5 L 136.4 61 L 135.6 63.4 L 134.3 65.7 L 132.7 67.7 L 130.7 69.3 L 128.4 70.6 L 126 71.4 L 123.5 71.8 Z " />
</g>
</svg>
