<svg xmlns="http://www.w3.org/2000/svg" xmlns:xlink="http://www.w3.org/1999/xlink" version="1.1" baseProfile="full" viewBox="0 0 200 200" width="200" height="200">
<g fill="black">
<path d="M 41.8 187 L 41.8 110 L 53.8 116 L 146.2 116 L 152.2 111 L 163.2 120 L 158.2 124 L 158.2 178 L 146.2 184 L 146.2 174 L 53.8 174 L 53.8 181 Z M 53.8 170 L 146.2 170 L 146.2 120 L 53.8 120 Z M 14 93.5 L 14 89.5 L 94 89.5 L 94 49.5 L 27 49.5 L 27 45.5 L 94 45.5 L 94 14.5 L 106 16.5 L 109 18.5 L 106 20.3 L 106 45.5 L 151 45.5 L 161 35.5 L 173 45.5 L 173 49.5 L 106 49.5 L 106 89.5 L 164 89.5 L 174 79.5 L 186 89.5 L 186 93.5 Z " />
</g>
</svg>
