<svg xmlns="http://www.w3.org/2000/svg" xmlns:xlink="http://www.w3.org/1999/xlink" version="1.1" baseProfile="full" viewBox="0 0 200 200" width="200" height="200">
<g fill="black">
<path d="M 55 188 L 55 90 L 67 96 L 138 96 L 144 91 L 155 100 L 150 104 L 150 127 L 138 133 L 138 125 L 67 125 L 67 142 L 142 142 L 148 137 L 159 146 L 154 150 L 154 179 L 142 185 L 142 175 L 67 175 L 67 182 Z M 67 171 L 142 171 L 142 146 L 67 146 Z M 67 121 L 138 121 L 138 100 L 67 100 Z M 17 82 L 17 78 L 96 78 L 96 61 L 54 61 L 54 64 L 42 70 L 42 27 L 54 33 L 96 33 L 96 12 L 108 14 L 111 16 L 108 17.8 L 108 33 L 148 33 L 154 28 L 165 37 L 160 41 L 160 63 L 148 69 L 148 61 L 108 61 L 108 78 L 168.8 78 L 177 69 L 187 78 L 187 82 Z M 54 57 L 96 57 L 96 37 L 54 37 Z M 108 57 L 148 57 L 148 37 L 108 37 Z " />
</g>
</svg>
