<svg xmlns="http://www.w3.org/2000/svg" xmlns:xlink="http://www.w3.org/1999/xlink" version="1.1" baseProfile="full" viewBox="0 0 200 200" width="200" height="200">
<g fill="black">
<path d="M 14.3 188.8 L 13.6 187.1 L 26.6 179.2 L 38.5 170.2 L 49.2 159.9 L 58.8 148.5 L 67.4 135.7 L 74.8 121.6 L 81.2 106.1 L 86.6 89.2 L 90.8 70.8 L 93 57 L 20 57 L 20 53 L 93.7 53 L 94 51.1 L 94 13 L 106 15 L 109 17 L 106 18.8 L 106 52 L 105.5 52.7 L 105.9 52.8 L 105.9 53 L 158 53 L 168 43 L 180 53 L 180 57 L 105.3 57 L 108.7 71.7 L 113.1 86.7 L 118.5 100.9 L 124.9 114.1 L 129.8 122.3 L 131.8 119.6 L 135.1 115.2 L 138.3 110.8 L 141.5 106.3 L 144.6 101.6 L 147.6 96.9 L 150.6 92 L 153.5 86.9 L 155.8 82.6 L 156.8 80.9 L 166.6 87.9 L 168.2 91.1 L 164.4 91.2 L 163.1 93 L 159.5 97.9 L 155.8 102.7 L 152 107.2 L 148.1 111.6 L 144.1 115.7 L 140 119.6 L 135.7 123.3 L 131.9 126.1 L 132.2 126.5 L 140.6 138.1 L 150 148.8 L 160.4 158.8 L 171.9 168 L 184.5 176.4 L 188.5 178.9 L 177.4 187.5 L 164.3 177.9 L 152.4 167.5 L 141.8 156.3 L 132.4 144.2 L 124.2 131.4 L 117.4 117.8 L 111.8 103.4 L 107.5 88.4 L 104.6 72.5 L 103.8 63.6 L 102 73.2 L 96.9 92.2 L 90.6 109.7 L 83.2 125.7 L 74.5 140.2 L 64.8 153.2 L 53.8 164.6 L 41.8 174.4 L 28.6 182.5 Z M 64.6 124.8 L 61.2 121.7 L 59.8 118.1 L 58 114.5 L 55.9 110.8 L 53.5 107.1 L 50.7 103.3 L 47.6 99.5 L 44.2 95.6 L 40.5 91.6 L 36.5 87.5 L 32.3 83.3 L 33.3 81.8 L 38.8 84.5 L 43.9 87.5 L 48.6 90.7 L 52.9 94 L 57 97.5 L 60.7 101.1 L 64 104.9 L 67.1 108.7 L 69.8 112.7 L 72.2 116.7 L 72.3 121.3 L 69.2 124.7 Z " />
</g>
</svg>
