<svg xmlns="http://www.w3.org/2000/svg" xmlns:xlink="http://www.w3.org/1999/xlink" version="1.1" baseProfile="full" viewBox="0 0 200 200" width="200" height="200">
<g fill="black">
<path d="M 13.3 142.8 L 12.6 141.1 L 27 132 L 40.1 122.2 L 51.7 111.7 L 61.9 100.3 L 68.6 91 L 15 91 L 15 87 L 71.3 87 L 78 75 L 82.3 65 L 34 65 L 34 61 L 84 61 L 88.7 46.1 L 90.2 39 L 27 39 L 27 35 L 91 35 L 92 30.2 L 93.9 13.4 L 94.1 11.2 L 105.8 14.5 L 108.6 16.7 L 105.2 18.4 L 103.2 32.2 L 102.5 35 L 151 35 L 161 25 L 173 35 L 173 39 L 101.5 39 L 99 49 L 94.7 61 L 144 61 L 154 51 L 166 61 L 166 65 L 114.9 65 L 118.7 71.9 L 123.5 79.7 L 128.7 87 L 163 87 L 173 77 L 185 87 L 185 91 L 132 91 L 134.6 94.1 L 140.9 100.7 L 147.9 107 L 155.4 112.8 L 163.6 118.2 L 172.4 123.3 L 181.9 128 L 187.3 130.7 L 176 139.9 L 166.2 134.2 L 157 128 L 148.6 121.5 L 141 114.5 L 134.1 107.1 L 128 99.3 L 122.8 91.1 L 122.7 91 L 78.8 91 L 77.7 92.8 L 67.7 105.2 L 56.2 116.4 L 43.3 126.5 L 29 135.3 Z M 81.4 87 L 120.7 87 L 118.3 82.5 L 114.8 73.6 L 112.6 65 L 93.3 65 L 86.3 79.3 Z " />
</g>
</svg>
