<svg xmlns="http://www.w3.org/2000/svg" xmlns:xlink="http://www.w3.org/1999/xlink" version="1.1" baseProfile="full" viewBox="0 0 200 200" width="200" height="200">
<g fill="black">
<path d="M 36 188.4 L 36 128.6 L 48 134.6 L 151.9 134.6 L 157.9 129.6 L 168.9 138.6 L 163.9 142.6 L 163.9 179.4 L 151.9 185.4 L 151.9 175.4 L 48 175.4 L 48 182.4 Z M 48 171.4 L 74.6 171.4 L 74.6 138.6 L 48 138.6 Z M 86.6 171.4 L 113.3 171.4 L 113.3 138.6 L 86.6 138.6 Z M 125.3 171.4 L 151.9 171.4 L 151.9 138.6 L 125.3 138.6 Z M 17 119 L 17 115 L 94 115 L 94 95 L 42 95 L 42 91 L 94 91 L 94 73 L 36 73 L 36 69 L 94 69 L 94 50 L 106 52 L 109 54 L 106 55.8 L 106 69 L 142 69 L 152 59 L 154.7 61.3 L 155.9 59 L 157.6 55.7 L 159.3 52.6 L 160.8 49.7 L 162.2 47 L 163.4 44.5 L 164.2 42.8 L 37.3 42.8 L 37.4 45.5 L 37.1 50.1 L 36.5 54.5 L 35.4 58.5 L 34 62.3 L 32.1 65.7 L 29.7 68.8 L 26.7 71.5 L 22.2 72.2 L 18.5 69.7 L 17.7 65.1 L 20.3 61.4 L 22.1 60.4 L 23.9 59.1 L 25.6 57.3 L 27.3 54.9 L 28.9 52.1 L 30.3 48.6 L 31.5 44.7 L 32.6 40.2 L 33.6 35.3 L 34.2 29.8 L 36 29.8 L 36.7 35.3 L 37.1 38.8 L 94 38.8 L 94 11.4 L 106 13.4 L 109 15.4 L 106 17.2 L 106 38.8 L 165.4 38.8 L 166 38.3 L 166.2 37.8 L 166.4 37.9 L 171.4 33.8 L 182.4 42.8 L 177.4 45.8 L 173.5 47.4 L 173.2 47.8 L 171.3 49.8 L 169.2 52 L 167 54.3 L 164.6 56.6 L 162 59.1 L 159.2 61.6 L 157.2 63.3 L 164 69 L 164 73 L 106 73 L 106 91 L 139.8 91 L 148 82 L 158 91 L 158 95 L 106 95 L 106 115 L 164.8 115 L 173 106 L 183 115 L 183 119 Z " />
</g>
</svg>
