<svg xmlns="http://www.w3.org/2000/svg" xmlns:xlink="http://www.w3.org/1999/xlink" version="1.1" baseProfile="full" viewBox="0 0 200 200" width="200" height="200">
<g fill="black">
<path d="M 16.3 187.8 L 15.6 186.1 L 23.8 180.7 L 31.4 175.3 L 38.6 169.7 L 45.2 164 L 51.3 158.1 L 56.8 152 L 61.8 145.7 L 66.2 139.1 L 70.2 132.3 L 71.3 130 L 17 130 L 17 126 L 71 126 L 71 102 L 35 102 L 35 98 L 71 98 L 71 75 L 38 75 L 38 71 L 71 71 L 71 48 L 83 50 L 86 52 L 83 53.8 L 83 71 L 117 71 L 117 48 L 129 50 L 132 52 L 129 53.8 L 129 71 L 140 71 L 150 61 L 155.5 65.6 L 157.7 62.5 L 159.6 59.2 L 161.5 56 L 163.3 53.1 L 165 50.3 L 166.5 47.6 L 167.8 45.1 L 168.4 44 L 33.1 44 L 33.1 46.6 L 32.8 51 L 32.1 55.2 L 30.9 59.1 L 29.3 62.8 L 27.2 66.1 L 24.6 69.1 L 21.5 71.7 L 17 72.2 L 13.3 69.5 L 12.8 64.9 L 15.6 61.3 L 17.6 60.4 L 19.5 59.1 L 21.3 57.4 L 23 55.2 L 24.6 52.6 L 26.1 49.4 L 27.4 45.7 L 28.5 41.4 L 29.5 36.7 L 30.1 31.5 L 31.9 31.5 L 32.5 36.8 L 32.9 40 L 94 40 L 94 13.9 L 106 15.9 L 109 17.9 L 106 19.7 L 106 40 L 170 40 L 170.6 39.5 L 170.9 38.7 L 171.3 38.9 L 176 35 L 187 44 L 182 47 L 177.4 48.9 L 173.3 53 L 170.9 55.1 L 168.4 57.3 L 165.7 59.6 L 162.8 62 L 159.7 64.4 L 157 66.8 L 162 71 L 162 75 L 129 75 L 129 98 L 143 98 L 153 88 L 165 98 L 165 102 L 129 102 L 129 126 L 161 126 L 171 116 L 183 126 L 183 130 L 122.8 130 L 127.9 135.7 L 134.2 142.5 L 140.2 148.7 L 146.2 154.3 L 152 159.2 L 157.6 163.4 L 163.2 167 L 168.6 169.9 L 173.9 172.1 L 179 173.7 L 186.5 176.1 L 174.9 186.2 L 168.8 183.6 L 162.9 180.2 L 157 176.1 L 151.3 171.5 L 145.7 166.1 L 140.2 160.1 L 134.8 153.5 L 129.6 146.2 L 124.5 138.1 L 120.2 130 L 84.6 130 L 84.3 130.6 L 80 138.1 L 75.1 145.2 L 69.6 151.9 L 63.6 158.3 L 57.1 164.3 L 50 169.9 L 42.4 175.1 L 34.3 179.8 L 25.6 184.1 Z M 83 126 L 117 126 L 117 102 L 83 102 Z M 83 98 L 117 98 L 117 75 L 83 75 Z " />
</g>
</svg>
