<svg xmlns="http://www.w3.org/2000/svg" xmlns:xlink="http://www.w3.org/1999/xlink" version="1.1" baseProfile="full" viewBox="0 0 200 200" width="200" height="200">
<g fill="black">
<path d="M 90 188 L 90 182 L 70 179 L 70 176 L 90 176 L 91.2 175.9 L 92.1 175.7 L 93 175.4 L 93.4 175 L 93.7 174.1 L 93.9 173.2 L 94 172 L 94 123.7 L 48.7 123.7 L 48.7 135.7 L 36.7 141.7 L 36.7 68 L 48.7 74 L 94 74 L 94 13 L 106 15 L 109 17 L 106 18.8 L 106 74 L 151.2 74 L 157.2 69 L 168.2 78 L 163.2 82 L 163.2 127.7 L 151.2 133.7 L 151.2 123.7 L 106 123.7 L 106 172 L 105.8 174.5 L 105.4 177 L 104.6 179.4 L 103.3 181.7 L 101.7 183.7 L 99.7 185.3 L 97.4 186.6 L 95 187.4 L 92.5 187.8 Z M 179.3 175 L 174.9 173.8 L 170.1 169.8 L 165.2 165.9 L 160.2 162.2 L 155.2 158.7 L 150.1 155.3 L 144.9 152.1 L 139.7 149 L 134.4 146 L 129 143.1 L 123.6 140.1 L 124.2 138.4 L 130.3 139.5 L 136.4 141.1 L 142.4 143 L 148.3 145.3 L 154.1 147.8 L 159.9 150.7 L 165.6 153.7 L 171.2 157 L 176.8 160.6 L 182.3 164.4 L 184.5 168.4 L 183.3 172.8 Z M 13.3 174.8 L 12.6 173.1 L 18.7 169.5 L 24.6 166 L 30.3 162.6 L 35.8 159.1 L 41.1 155.5 L 46.1 151.8 L 51 148.1 L 55.6 144.2 L 60 140.3 L 63.4 136.9 L 64.4 136 L 72.3 145.1 L 72.8 148.6 L 69.2 147.5 L 67.3 149 L 62.2 152.7 L 56.8 156.3 L 51.2 159.6 L 45.5 162.8 L 39.5 165.7 L 33.3 168.4 L 26.9 170.9 L 20.2 173 Z M 48.7 119.7 L 151.2 119.7 L 151.2 100.2 L 48.7 100.2 Z M 48.7 96.2 L 151.2 96.2 L 151.2 78 L 48.7 78 Z M 21.4 68.7 L 20.5 67.2 L 26.6 62.5 L 32.4 58 L 37.9 53.6 L 43.1 49.3 L 47.9 45.1 L 52.4 40.8 L 56.5 36.6 L 60.2 32.4 L 63.6 28.2 L 66.6 24.1 L 67 23.5 L 76.1 31.4 L 77.2 34.8 L 73.4 34.3 L 72.2 35.7 L 68 39.9 L 63.4 43.9 L 58.5 47.9 L 53.2 51.7 L 47.6 55.5 L 41.6 59.1 L 35.3 62.5 L 28.5 65.8 Z M 172.8 66.8 L 168.6 65.1 L 164.9 61.1 L 160.9 57.3 L 156.7 53.5 L 152.2 49.8 L 147.4 46.1 L 142.3 42.5 L 137 39 L 131.4 35.4 L 125.6 31.8 L 119.5 28.2 L 120.2 26.5 L 127.1 28.4 L 133.8 30.6 L 140.1 33.2 L 146.1 35.9 L 151.9 38.9 L 157.5 42.1 L 162.7 45.5 L 167.8 49 L 172.5 52.7 L 177.1 56.6 L 178.8 60.8 L 177.1 65.1 Z " />
</g>
</svg>
