<svg xmlns="http://www.w3.org/2000/svg" xmlns:xlink="http://www.w3.org/1999/xlink" version="1.1" baseProfile="full" viewBox="0 0 200 200" width="200" height="200">
<g fill="black">
<path d="M 148 188 L 148 182 L 128 179 L 128 176 L 148 176 L 149.3 175.9 L 150.2 175.7 L 151.1 175.4 L 151.3 175.2 L 151.4 175 L 151.6 174.7 L 151.8 174.1 L 152 173.2 L 152 69 L 97.6 69 L 97.6 65 L 152 65 L 152 13 L 164 15 L 167 17 L 164 18.8 L 164 65 L 166.3 65 L 176.3 55 L 188.3 65 L 188.3 69 L 164 69 L 164 172 L 163.9 174.5 L 163.4 177 L 162.6 179.4 L 161.4 181.7 L 159.8 183.7 L 157.8 185.3 L 155.5 186.6 L 153.1 187.4 L 150.6 187.8 Z M 22 188 L 22 17 L 34 23 L 79 23 L 85 18 L 96 27 L 91 31 L 91 103 L 79 109 L 79 97 L 34 97 L 34 125 L 69 125 L 79 115 L 91 125 L 91 129 L 34 129 L 34 158 L 73 158 L 83 148 L 95 158 L 95 162 L 34 162 L 34 182 Z M 132.5 131.8 L 128 131.3 L 125.1 127.7 L 124.2 123.9 L 123 120 L 121.4 116.2 L 119.6 112.4 L 117.4 108.7 L 114.9 104.9 L 112.1 101.1 L 108.9 97.2 L 105.5 93.3 L 101.8 89.3 L 102.8 87.8 L 107.8 90.5 L 112.4 93.4 L 116.6 96.6 L 120.5 100 L 124.1 103.6 L 127.3 107.4 L 130.1 111.4 L 132.7 115.6 L 134.8 119.9 L 136.7 124.4 L 136.1 129 Z M 34 93 L 79 93 L 79 62 L 34 62 Z M 34 58 L 79 58 L 79 27 L 34 27 Z " />
</g>
</svg>
