<svg xmlns="http://www.w3.org/2000/svg" xmlns:xlink="http://www.w3.org/1999/xlink" version="1.1" baseProfile="full" viewBox="0 0 200 200" width="200" height="200">
<g fill="black">
<path d="M 51.3 188.5 L 50.5 186.9 L 55.9 182.8 L 61.1 178.9 L 66 175.1 L 70.7 171.4 L 75.1 167.7 L 79.3 163.9 L 83.1 160.2 L 86.6 156.4 L 89.8 152.6 L 92.7 148.8 L 93.1 148.3 L 102 156.5 L 103 160 L 99.2 159.4 L 98.2 160.4 L 94.1 164.1 L 89.8 167.7 L 85.1 171.1 L 80.2 174.4 L 75.1 177.6 L 69.6 180.7 L 63.8 183.5 L 57.7 186.1 Z M 165.4 188.4 L 161.4 186.3 L 158.6 182.5 L 155.6 178.9 L 152.3 175.4 L 148.9 172 L 145.2 168.6 L 141.3 165.3 L 137.2 162.1 L 132.8 158.9 L 128.3 155.7 L 123.6 152.4 L 124.3 150.8 L 130 152.3 L 135.4 154.2 L 140.6 156.5 L 145.5 159 L 150.2 161.8 L 154.7 164.7 L 159 167.9 L 163.1 171.3 L 167 174.9 L 170.7 178.7 L 171.9 183.1 L 169.8 187.1 Z M 14.7 185.5 L 13.2 184.4 L 17.1 176.9 L 20.6 169 L 23.7 160.6 L 26.3 151.8 L 28.6 142.4 L 30.4 132.5 L 31.7 122 L 32.6 110.9 L 33 99.2 L 33 17 L 45 23 L 161 23 L 167 18 L 178 27 L 173 31 L 173 60 L 161 66 L 161 56 L 45 56 L 45 87 L 44.4 99.7 L 43.3 111.8 L 41.7 123.3 L 39.5 134.2 L 36.8 144.5 L 33.6 154.1 L 29.7 163.1 L 25.4 171.4 L 20.3 178.8 Z M 48.6 145.3 L 48.6 141.3 L 85.2 141.3 L 85.2 101 L 53.2 101 L 53.2 97 L 85.2 97 L 85.2 64.4 L 97.2 66.4 L 100.2 68.4 L 97.2 70.2 L 97.2 97 L 130.8 97 L 130.8 64.4 L 142.8 66.4 L 145.8 68.4 L 142.8 70.2 L 142.8 97 L 152.8 97 L 162.8 87 L 174.8 97 L 174.8 101 L 142.8 101 L 142.8 141.3 L 157.3 141.3 L 167.3 131.3 L 179.3 141.3 L 179.3 145.3 Z M 97.2 141.3 L 130.8 141.3 L 130.8 101 L 97.2 101 Z M 45 52 L 161 52 L 161 27 L 45 27 Z " />
</g>
</svg>
