<svg xmlns="http://www.w3.org/2000/svg" xmlns:xlink="http://www.w3.org/1999/xlink" version="1.1" baseProfile="full" viewBox="0 0 200 200" width="200" height="200">
<g fill="black">
<path d="M 108 182 L 105.4 181.8 L 102.9 181.4 L 100.5 180.6 L 98.2 179.3 L 96.2 177.7 L 94.6 175.7 L 93.3 173.4 L 92.5 171 L 92.1 168.5 L 92 166 L 92 122 L 50 122 L 50 134 L 38 140 L 38 49 L 50 51 L 53 53 L 50 54.8 L 50 118 L 92 118 L 92 21 L 104 23 L 107 25 L 104 26.8 L 104 118 L 148 118 L 148 49 L 160 51 L 163 53 L 160 54.8 L 160 128 L 148 134 L 148 122 L 104 122 L 104 167.2 L 104.2 168.1 L 104.5 169 L 104.9 169.4 L 105.8 169.7 L 106.7 169.9 L 108 170 L 172.2 170 L 178 145 L 180 145 L 178.1 170 L 181.6 172.4 L 184 176 L 181.6 179.6 L 178 182 Z " />
</g>
</svg>
