<svg xmlns="http://www.w3.org/2000/svg" xmlns:xlink="http://www.w3.org/1999/xlink" version="1.1" baseProfile="full" viewBox="0 0 200 200" width="200" height="200">
<g fill="black">
<path d="M 65 189 L 65 108 L 77 114 L 162 114 L 168 109 L 179 118 L 174 122 L 174 177 L 162 183 L 162 171 L 77 171 L 77 183 Z M 18.6 186.6 L 17.3 185.3 L 22.8 178 L 27.8 170.1 L 32.3 161.5 L 36.4 152 L 39.9 141.6 L 43 130.3 L 45.5 118 L 47.5 104.8 L 49 90.7 L 50 76 L 50 23 L 62 29 L 157 29 L 163 24 L 174 33 L 169 37 L 169 81 L 157 87 L 157 75 L 62 75 L 62 76 L 61.8 76.3 L 61.9 76.3 L 60.3 91.9 L 58.1 106.4 L 55.3 120 L 52 132.7 L 48 144.3 L 43.4 155 L 38.1 164.6 L 32.3 173.1 L 25.7 180.5 Z M 77 167 L 162 167 L 162 118 L 77 118 Z M 62 71 L 157 71 L 157 33 L 62 33 Z " />
</g>
</svg>
