<svg xmlns="http://www.w3.org/2000/svg" xmlns:xlink="http://www.w3.org/1999/xlink" version="1.1" baseProfile="full" viewBox="0 0 200 200" width="200" height="200">
<g fill="black">
<path d="M 105 188.5 L 105 147.9 L 43.8 147.9 L 43.8 143.9 L 105 143.9 L 105 119.6 L 55.8 119.6 L 55.8 115.6 L 105 115.6 L 105 90.6 L 50.2 90.6 L 50.2 86.6 L 90.7 86.6 L 87.9 86.1 L 85.2 82.4 L 85.2 80.5 L 84.9 78.6 L 84.5 76.6 L 83.9 74.5 L 83.1 72.4 L 82.2 70.1 L 81 67.9 L 79.6 65.5 L 78 63 L 76 60.9 L 77.1 59.5 L 79.6 61.2 L 82.3 62.7 L 84.8 64.4 L 87.1 66.2 L 89.2 68.1 L 91.1 70.2 L 92.9 72.4 L 94.4 74.7 L 95.8 77.1 L 96.9 79.7 L 96.1 84.2 L 92.8 86.6 L 122.6 86.6 L 122.3 86.3 L 124.2 83.2 L 125.9 80 L 127.5 76.9 L 129.2 73.9 L 132.2 68.1 L 133.6 65.3 L 134.9 62.6 L 136.1 59.9 L 136.9 58.2 L 136.8 58.2 L 137.8 56.4 L 147.6 63.5 L 149.1 66.7 L 144.9 66.7 L 143.6 68.3 L 141.5 70.7 L 139.3 73.1 L 134.5 77.9 L 131.9 80.3 L 129.2 82.7 L 126.4 85 L 124.6 86.6 L 149.8 86.6 L 159.8 76.6 L 171.8 86.6 L 171.8 90.6 L 117 90.6 L 117 115.6 L 144.2 115.6 L 154.2 105.6 L 166.2 115.6 L 166.2 119.6 L 117 119.6 L 117 143.9 L 156.2 143.9 L 166.2 133.9 L 178.2 143.9 L 178.2 147.9 L 117 147.9 L 117 182.5 Z M 14.7 185.5 L 13.2 184.4 L 17.1 176.9 L 20.6 169 L 23.7 160.6 L 26.3 151.8 L 28.6 142.4 L 30.4 132.5 L 31.7 122 L 32.6 110.9 L 33 99.2 L 33 17 L 45 23 L 161 23 L 167 18 L 178 27 L 173 31 L 173 60 L 161 66 L 161 56 L 45 56 L 45 87 L 44.4 99.7 L 43.3 111.8 L 41.7 123.3 L 39.5 134.2 L 36.8 144.5 L 33.6 154.1 L 29.7 163.1 L 25.4 171.4 L 20.3 178.8 Z M 45 52 L 161 52 L 161 27 L 45 27 Z " />
</g>
</svg>
