<svg xmlns="http://www.w3.org/2000/svg" xmlns:xlink="http://www.w3.org/1999/xlink" version="1.1" baseProfile="full" viewBox="0 0 200 200" width="200" height="200">
<g fill="black">
<path d="M 132 186.2 L 129.4 186 L 126.9 185.6 L 124.5 184.8 L 122.2 183.5 L 120.2 181.9 L 118.6 179.9 L 117.3 177.6 L 116.5 175.2 L 116.1 172.7 L 116 170.2 L 116 111.8 L 80.4 111.8 L 81 111.9 L 84 113.9 L 81 115.7 L 81 127.4 L 80.8 127.7 L 80.9 127.7 L 79.5 137.1 L 77 145.8 L 73.6 153.8 L 69.1 161 L 63.6 167.5 L 57.3 173.2 L 50 178.1 L 41.9 182.2 L 33 185.3 L 23.2 187.6 L 22.7 185.9 L 31.6 181.8 L 39.5 177.4 L 46.4 172.7 L 52.3 167.5 L 57.3 162 L 61.3 156 L 64.5 149.5 L 66.8 142.6 L 68.3 135 L 69 127.4 L 69 111.8 L 22 111.8 L 22 107.8 L 157 107.8 L 167 97.8 L 179 107.8 L 179 111.8 L 128 111.8 L 128 171.4 L 128.2 172.3 L 128.5 173.2 L 128.9 173.6 L 129.8 173.9 L 130.7 174.1 L 132 174.2 L 169.2 174.2 L 175 149.2 L 177 149.2 L 175.1 174.2 L 178.6 176.6 L 181 180.2 L 178.6 183.7 L 175 186.2 Z M 34.6 99.2 L 34.6 30.1 L 46.6 32.1 L 49.6 34.1 L 46.6 35.9 L 46.6 77.2 L 94 77.2 L 94 12.1 L 106 14.1 L 109 16.1 L 106 17.9 L 106 77.2 L 153.4 77.2 L 153.4 30.1 L 165.4 32.1 L 168.4 34.1 L 165.4 35.9 L 165.4 87.2 L 153.4 93.2 L 153.4 81.2 L 46.6 81.2 L 46.6 93.2 Z " />
</g>
</svg>
