<svg xmlns="http://www.w3.org/2000/svg" xmlns:xlink="http://www.w3.org/1999/xlink" version="1.1" baseProfile="full" viewBox="0 0 200 200" width="200" height="200">
<g fill="black">
<path d="M 122.7 181.9 L 118.2 181.2 L 115.4 177.6 L 113.1 168.6 L 110.4 160 L 107.2 151.8 L 103.5 144 L 99.4 136.5 L 94.9 129.3 L 89.9 122.4 L 84.4 115.9 L 78.5 109.5 L 72.2 103.3 L 73.3 101.8 L 81 106.6 L 88.1 112 L 94.8 118.1 L 100.9 124.7 L 106.5 131.8 L 111.6 139.4 L 116.2 147.5 L 120.3 156.1 L 123.9 165.1 L 127 174.5 L 126.3 179.1 Z M 72.6 102.5 L 71.3 101.4 L 76.3 93.4 L 81.2 85.6 L 86 78 L 90.5 70.5 L 94.8 63.2 L 98.8 55.9 L 102.5 48.6 L 106 41.5 L 109.2 34.4 L 112.1 27.4 L 112.6 26.2 L 123 32.3 L 125 35.3 L 121.2 35.8 L 119.4 39.4 L 115.5 46.5 L 111.3 53.5 L 106.8 60.6 L 101.9 67.7 L 96.8 74.8 L 91.3 81.8 L 85.5 88.8 L 79.3 95.7 Z " />
</g>
</svg>
