<svg xmlns="http://www.w3.org/2000/svg" xmlns:xlink="http://www.w3.org/1999/xlink" version="1.1" baseProfile="full" viewBox="0 0 200 200" width="200" height="200">
<g fill="black">
<path d="M 94.5 189.9 L 94.5 122.3 L 22.7 122.3 L 22.7 118.3 L 94.5 118.3 L 94.5 75.6 L 36.4 75.6 L 36.4 71.6 L 142.5 71.6 L 152.5 61.6 L 164.5 71.6 L 164.5 75.6 L 106.5 75.6 L 106.5 118.3 L 156.2 118.3 L 166.2 108.3 L 178.2 118.3 L 178.2 122.3 L 106.5 122.3 L 106.5 183.9 Z M 112.6 64.5 L 111.3 63.4 L 114.2 58.2 L 117.2 53.3 L 120.3 48.5 L 123.3 44 L 126.2 39.5 L 129.1 35.2 L 131.8 31 L 134.5 27 L 137.1 23 L 139 20 L 138.9 20 L 140 18.6 L 149.2 26.3 L 150.4 29.7 L 146.6 29.4 L 146.2 29.9 L 143 33.5 L 139.8 37.2 L 136.4 40.9 L 132.9 44.8 L 129.2 48.7 L 125.4 52.6 L 121.4 56.6 L 117.2 60.6 Z M 79.6 63.9 L 75.1 63 L 72.4 59.3 L 71.6 55.1 L 70.5 51 L 69.1 47.2 L 67.3 43.5 L 65.1 40 L 62.6 36.6 L 59.7 33.4 L 56.4 30.2 L 52.7 27.1 L 48.5 24.2 L 49.2 22.5 L 54.3 24.1 L 59.1 26 L 63.6 28.5 L 67.7 31.3 L 71.4 34.6 L 74.8 38.3 L 77.7 42.4 L 80.3 46.8 L 82.4 51.6 L 84.2 56.7 L 83.3 61.2 Z " />
</g>
</svg>
