<svg xmlns="http://www.w3.org/2000/svg" xmlns:xlink="http://www.w3.org/1999/xlink" version="1.1" baseProfile="full" viewBox="0 0 200 200" width="200" height="200">
<g fill="black">
<path d="M 94 188 L 94 142.6 L 54.7 142.6 L 54.7 154.6 L 42.7 160.6 L 42.7 71.4 L 54.7 77.4 L 94 77.4 L 94 57 L 15 57 L 15 53 L 94 53 L 94 32.8 L 84.2 33.8 L 72.6 34.7 L 60.9 35.4 L 49 35.8 L 37 35.8 L 36.9 34.1 L 48.7 32 L 60.3 30 L 71.9 28.2 L 83.2 26.3 L 94.4 24.3 L 105.4 22.3 L 116.2 20.2 L 126.9 18 L 137.4 15.7 L 146.8 13.5 L 147.8 13.3 L 148.1 14.5 L 158.6 23.3 L 159 26.3 L 154.5 24.1 L 150.2 25 L 139.6 26.8 L 128.8 28.5 L 117.9 30.1 L 106.8 31.5 L 106 31.6 L 106 53 L 163 53 L 173 43 L 185 53 L 185 57 L 106 57 L 106 77.4 L 145.3 77.4 L 151.3 72.4 L 162.3 81.4 L 157.3 85.4 L 157.3 148.6 L 145.3 154.6 L 145.3 142.6 L 106 142.6 L 106 182 Z M 54.7 138.6 L 94 138.6 L 94 111.1 L 54.7 111.1 Z M 106 138.6 L 145.3 138.6 L 145.3 111.1 L 106 111.1 Z M 54.7 107.1 L 94 107.1 L 94 81.4 L 54.7 81.4 Z M 106 107.1 L 145.3 107.1 L 145.3 81.4 L 106 81.4 Z " />
</g>
</svg>
