<svg xmlns="http://www.w3.org/2000/svg" xmlns:xlink="http://www.w3.org/1999/xlink" version="1.1" baseProfile="full" viewBox="0 0 200 200" width="200" height="200">
<g fill="black">
<path d="M 109.5 187.9 L 106.8 185.5 L 101.9 174.4 L 103.8 173.9 L 111.5 172.2 L 119.1 170.5 L 119.8 170.3 L 125.7 158.4 L 131.6 146.7 L 137.4 135.1 L 143 123.7 L 148.4 112.5 L 153.6 101.4 L 158.6 90.5 L 163.3 79.7 L 167.7 69 L 171.9 58.5 L 172.5 57.3 L 183 63.2 L 185 66.2 L 181.3 66.7 L 178.1 73.6 L 173 84.2 L 167.6 94.8 L 161.9 105.6 L 156 116.4 L 149.7 127.3 L 143.2 138.3 L 136.3 149.3 L 129 160.4 L 122.4 169.7 L 126.6 168.7 L 134.2 166.9 L 141.7 165.1 L 149.1 163.2 L 156.6 161.3 L 164 159.5 L 171.5 157.7 L 171.9 157.6 L 170.1 152.2 L 167.8 146.1 L 165.2 139.5 L 162.4 132.6 L 159.4 125.3 L 160.9 124.4 L 165.7 130.8 L 170 137.1 L 173.7 143.2 L 177 149.1 L 179.9 154.9 L 182.4 160.4 L 184.5 165.7 L 186.2 170.8 L 187.6 175.7 L 188.5 180.4 L 187 184.8 L 183 186.9 L 178.7 185.5 L 176.5 181.5 L 176.3 177.5 L 175.8 173.2 L 174.9 168.5 L 173.6 163.4 L 172.9 161.2 L 172.7 161.3 L 165.7 164.6 L 158.6 167.6 L 144.2 173.2 L 129.4 178.4 L 114.4 183.2 L 110.8 184.3 Z M 19.5 187.9 L 16.8 185.5 L 11.9 174.4 L 13.8 173.9 L 21.5 172.2 L 29.1 170.5 L 29.8 170.3 L 35.7 158.4 L 41.6 146.7 L 47.4 135.1 L 53 123.7 L 58.4 112.5 L 63.6 101.4 L 68.6 90.5 L 73.3 79.7 L 77.7 69 L 81.9 58.5 L 82.5 57.3 L 93 63.2 L 95 66.2 L 91.3 66.7 L 88.1 73.6 L 83 84.2 L 77.6 94.8 L 71.9 105.6 L 66 116.4 L 59.7 127.3 L 53.2 138.3 L 46.3 149.3 L 39 160.4 L 32.4 169.7 L 36.6 168.7 L 44.2 166.9 L 51.7 165.1 L 59.1 163.2 L 66.6 161.3 L 74 159.5 L 81.5 157.7 L 81.9 157.6 L 80.1 152.2 L 77.8 146.1 L 75.2 139.5 L 72.4 132.6 L 69.4 125.3 L 70.9 124.4 L 75.7 130.8 L 80 137.1 L 83.7 143.2 L 87 149.1 L 89.9 154.9 L 92.4 160.4 L 94.5 165.7 L 96.2 170.8 L 97.6 175.7 L 98.5 180.4 L 97 184.8 L 93 186.9 L 88.7 185.5 L 86.5 181.5 L 86.3 177.5 L 85.8 173.2 L 84.9 168.5 L 83.6 163.4 L 82.9 161.2 L 82.7 161.3 L 75.7 164.6 L 68.6 167.6 L 54.2 173.2 L 39.4 178.4 L 24.4 183.2 L 20.8 184.3 Z M 142.9 107.9 L 138.4 107.1 L 135.6 103.5 L 134.7 99.6 L 133.4 95.6 L 131.7 91.5 L 129.6 87.4 L 127 83.3 L 123.9 79.1 L 120.4 74.8 L 116.5 70.4 L 112.2 65.9 L 107.5 61.3 L 108.5 59.8 L 114.5 62.9 L 120 66.4 L 124.7 69.8 L 126.3 66.1 L 129.4 59.1 L 132.4 52.5 L 135.3 46.2 L 138.1 40.1 L 140.8 34.4 L 143.3 28.9 L 145.6 23.8 L 147.7 18.8 L 149.6 14.2 L 150.2 13.1 L 160.4 19.5 L 162.2 22.6 L 158.5 22.9 L 157.9 23.9 L 155.1 28.7 L 152.1 33.6 L 149 38.8 L 145.6 44.2 L 142 49.8 L 138.1 55.7 L 134 61.8 L 129.6 68 L 126.8 71.6 L 129.5 73.9 L 133.6 78 L 137.2 82.2 L 140.4 86.5 L 143.2 91 L 145.4 95.7 L 147.2 100.6 L 146.5 105.1 Z M 52.9 107.9 L 48.4 107.1 L 45.6 103.5 L 44.7 99.6 L 43.4 95.6 L 41.7 91.5 L 39.6 87.4 L 37 83.3 L 33.9 79.1 L 30.4 74.8 L 26.5 70.4 L 22.2 65.9 L 17.5 61.3 L 18.5 59.8 L 24.5 62.9 L 30 66.4 L 34.7 69.8 L 36.3 66.1 L 39.4 59.1 L 42.4 52.5 L 45.3 46.2 L 48.1 40.1 L 50.8 34.4 L 53.3 28.9 L 55.6 23.8 L 57.7 18.8 L 59.6 14.2 L 60.2 13.1 L 70.4 19.5 L 72.2 22.6 L 68.5 22.9 L 67.9 23.9 L 65.1 28.7 L 62.1 33.6 L 59 38.8 L 55.6 44.2 L 52 49.8 L 48.1 55.7 L 44 61.8 L 39.6 68 L 36.8 71.6 L 39.5 73.9 L 43.6 78 L 47.2 82.2 L 50.4 86.5 L 53.2 91 L 55.4 95.7 L 57.2 100.6 L 56.5 105.1 Z " />
</g>
</svg>
