<svg xmlns="http://www.w3.org/2000/svg" xmlns:xlink="http://www.w3.org/1999/xlink" version="1.1" baseProfile="full" viewBox="0 0 200 200" width="200" height="200">
<g fill="black">
<path d="M 94 188 L 94 123.7 L 88.7 129.9 L 81.2 137.6 L 73.2 144.9 L 64.6 151.7 L 55.5 158.2 L 45.8 164.1 L 35.6 169.6 L 24.7 174.5 L 13.3 178.8 L 12.6 177.1 L 23 171.1 L 32.9 164.9 L 42.3 158.6 L 51.1 152 L 59.3 145.2 L 66.9 138 L 74 130.6 L 80.5 122.9 L 86.5 115 L 88.4 112 L 39.7 112 L 37.3 124.8 L 24.4 128.5 L 36.5 63 L 45.7 70 L 94 70 L 94 34 L 27 34 L 27 30 L 154 30 L 160 25 L 171 34 L 166 38 L 166 80 L 154 86 L 154 74 L 106 74 L 106 108 L 166 108 L 172 103 L 183 112 L 178 115 L 177.7 115.1 L 177.7 116.3 L 177.2 122.2 L 176.7 127.8 L 175.9 133 L 175.1 138 L 174 142.6 L 172.8 146.9 L 171.4 151 L 169.9 154.7 L 168.1 158.2 L 166.8 160.3 L 165.3 162.3 L 163.6 164 L 161.7 165.6 L 159.7 167 L 157.5 168.1 L 155.3 168.9 L 152.9 169.5 L 150.4 169.8 L 148 170 L 148 164 L 136 161 L 136 158 L 148 158 L 149.4 157.9 L 150.6 157.7 L 151.7 157.4 L 152.7 157.1 L 153.7 156.6 L 154.5 156 L 155.3 155.3 L 156.1 154.5 L 156.9 153.5 L 157.6 152.3 L 159 149.7 L 160.2 146.7 L 161.3 143.4 L 162.4 139.7 L 163.3 135.6 L 164.1 131.1 L 164.8 126.3 L 165.3 121.2 L 165.7 115.6 L 165.9 112 L 106 112 L 106 182 Z M 40.4 108 L 94 108 L 94 74 L 46.7 74 Z M 106 70 L 154 70 L 154 34 L 106 34 Z " />
</g>
</svg>
