<svg xmlns="http://www.w3.org/2000/svg" xmlns:xlink="http://www.w3.org/1999/xlink" version="1.1" baseProfile="full" viewBox="0 0 200 200" width="200" height="200">
<g fill="black">
<path d="M 31.2 188 L 30.7 186.3 L 37.4 182.7 L 43.4 178.7 L 48.6 174.3 L 53.1 169.4 L 57 164 L 60.2 158 L 62.8 151.3 L 64.8 144 L 65.6 139.7 L 16 139.7 L 16 135.7 L 66.2 135.7 L 67 127.2 L 67 101.6 L 79 103.6 L 82 105.6 L 79 107.4 L 79 127.8 L 78.7 128.3 L 78.9 128.3 L 77.7 135.7 L 124 135.7 L 124 101.6 L 136 103.6 L 139 105.6 L 136 107.4 L 136 135.7 L 163 135.7 L 173 125.7 L 185 135.7 L 185 139.7 L 136 139.7 L 136 181.5 L 124 187.5 L 124 139.7 L 77 139.7 L 75.2 146.8 L 72.2 154.9 L 68.4 162.3 L 63.9 168.9 L 58.7 174.6 L 52.8 179.4 L 46.2 183.3 L 39 186.2 Z M 39 111.5 L 39 18.5 L 51 24.5 L 148.9 24.5 L 154.9 19.5 L 165.9 28.5 L 160.9 32.5 L 160.9 99.5 L 148.9 105.5 L 148.9 93.5 L 51 93.5 L 51 105.5 Z M 51 89.5 L 94 89.5 L 94 60.5 L 51 60.5 Z M 106 89.5 L 148.9 89.5 L 148.9 60.5 L 106 60.5 Z M 51 56.5 L 94 56.5 L 94 28.5 L 51 28.5 Z M 106 56.5 L 148.9 56.5 L 148.9 28.5 L 106 28.5 Z " />
</g>
</svg>
