<svg xmlns="http://www.w3.org/2000/svg" xmlns:xlink="http://www.w3.org/1999/xlink" version="1.1" baseProfile="full" viewBox="0 0 200 200" width="200" height="200">
<g fill="black">
<path d="M 76 183.5 L 73.4 183.3 L 70.9 182.9 L 68.5 182.1 L 66.2 180.9 L 64.2 179.2 L 62.6 177.2 L 61.3 174.9 L 60.5 172.5 L 60.1 170 L 60 167.5 L 60 130.8 L 72 132.8 L 75 134.8 L 72 136.6 L 72 168.7 L 72.2 169.6 L 72.5 170.5 L 72.9 170.9 L 73.2 171.1 L 73.8 171.2 L 74.7 171.4 L 76 171.5 L 141.2 171.5 L 147 146.5 L 149 146.5 L 147.1 171.5 L 150.6 173.9 L 153 177.5 L 150.6 181.1 L 147 183.5 Z M 19 178.1 L 15.4 175.4 L 14.8 170.9 L 17.5 167.2 L 20.4 165.7 L 23 163.8 L 25.4 161.6 L 27.6 158.9 L 29.6 155.7 L 31.3 152 L 32.9 147.7 L 34.2 143 L 35.3 137.7 L 36.1 132 L 37.9 131.9 L 38.7 137.8 L 39.1 143.5 L 38.9 148.9 L 38.3 154 L 37.2 158.7 L 35.5 163.2 L 33.3 167.4 L 30.6 171.2 L 27.3 174.6 L 23.6 177.6 Z M 179.8 172.3 L 175.3 171.8 L 172.3 168.3 L 171.4 164.9 L 170.2 161.4 L 168.7 158 L 166.8 154.6 L 164.6 151.2 L 162 147.8 L 159.1 144.4 L 155.9 141 L 152.3 137.5 L 148.3 134 L 149.3 132.5 L 154.2 134.6 L 158.9 137 L 163.2 139.7 L 167.2 142.6 L 170.8 145.8 L 174.1 149.1 L 177 152.7 L 179.6 156.5 L 181.9 160.5 L 183.8 164.8 L 183.3 169.3 Z M 115 156.5 L 111.3 153.9 L 109.8 151 L 108.2 148.2 L 106.3 145.4 L 104.3 142.8 L 102 140.1 L 96.9 135 L 94 132.5 L 90.9 130 L 87.5 127.7 L 88.2 126 L 92.3 127.3 L 96.2 128.6 L 100 130.2 L 103.6 132 L 107.1 134.1 L 110.3 136.4 L 113.4 138.9 L 116.3 141.6 L 119 144.5 L 121.5 147.6 L 122.2 152.1 L 119.5 155.9 Z M 152.2 126 L 152.2 120 L 40.5 120 L 40.5 116 L 152.2 116 L 152.2 96.3 L 46.7 96.3 L 46.7 92.3 L 152.2 92.3 L 152.2 75.2 L 42.3 75.2 L 42.3 71.2 L 152.2 71.2 L 158.2 66.2 L 169.2 75.2 L 164.2 79.2 L 164.2 120 Z M 133.5 67.7 L 132.4 66.2 L 135.1 63.2 L 137.5 60 L 139.8 56.9 L 141.9 53.8 L 144 50.6 L 145.9 47.4 L 147.7 44.1 L 149.3 40.8 L 150.8 37.4 L 151.7 34.9 L 152.1 34.1 L 152.1 34 L 152.7 32.9 L 162.9 39.2 L 164.8 42.3 L 160.8 42.6 L 160.7 42.8 L 158.3 46.2 L 155.8 49.5 L 153.1 52.7 L 150.2 55.6 L 147.2 58.4 L 144 61 L 140.6 63.4 L 137.1 65.6 Z M 55.5 64.7 L 52.3 61.5 L 51.8 59.5 L 51 57.5 L 50 55.3 L 48.8 53.1 L 47.2 50.8 L 45.4 48.5 L 43.4 46.1 L 38.4 41.1 L 35.4 38.8 L 36.3 37.3 L 39.8 38.9 L 43.4 40.2 L 46.6 41.8 L 49.7 43.5 L 52.5 45.4 L 55.1 47.3 L 57.5 49.5 L 59.7 51.8 L 61.6 54.2 L 63.3 56.9 L 63.3 61.4 L 60.1 64.7 Z M 101.6 59.2 L 98.2 56.1 L 97.8 54.2 L 97.2 52.2 L 96.5 50.3 L 95.6 48.3 L 94.6 46.3 L 93.5 44.3 L 92.2 42.3 L 90.8 40.3 L 89.2 38.1 L 87.3 36.4 L 88.3 34.9 L 90.7 36.2 L 93.2 37.3 L 95.6 38.5 L 97.9 39.9 L 100.1 41.5 L 102.2 43.1 L 104.1 44.9 L 105.9 46.9 L 107.6 48.9 L 109.2 51.1 L 109.3 55.7 L 106.2 59.1 Z M 52.8 34.1 L 37.5 33.7 L 22 32.9 L 22 31.1 L 37.4 29.9 L 52.6 28.7 L 67.6 27.4 L 82.3 25.9 L 96.8 24.2 L 111 22.2 L 125.1 20 L 138.9 17.6 L 152.4 14.9 L 165.7 11.9 L 165.9 13 L 176.6 21.9 L 176.9 24.9 L 172.6 22.8 L 168.2 23.7 L 154.5 26.1 L 140.6 28.2 L 126.5 30 L 112.1 31.5 L 97.6 32.6 L 82.9 33.5 L 67.9 34 Z " />
</g>
</svg>
