<svg xmlns="http://www.w3.org/2000/svg" xmlns:xlink="http://www.w3.org/1999/xlink" version="1.1" baseProfile="full" viewBox="0 0 200 200" width="200" height="200">
<g fill="black">
<path d="M 83.2 188.8 L 82.7 187.1 L 93.8 181.5 L 104.3 175.3 L 114.1 168.3 L 123.3 160.6 L 131.8 152 L 137.7 144.9 L 130.9 129.3 L 124.1 107.3 L 118.7 80.9 L 118.1 76 L 12 76 L 12 72 L 56 72 L 56 45 L 19 45 L 19 41 L 56 41 L 56 12 L 68 14 L 71 16 L 68 17.8 L 68 41 L 84 41 L 94 31 L 106 41 L 106 45 L 68 45 L 68 72 L 117.7 72 L 115.2 49.9 L 114 14 L 114 11.6 L 126 14 L 129 16 L 126.1 17.7 L 127.2 49 L 129.8 72 L 166 72 L 176 62 L 188 72 L 188 76 L 130.3 76 L 130.6 79 L 135.7 104.3 L 142.2 125.2 L 145.9 133.7 L 146.9 132.2 L 153.6 120.9 L 159.6 108.7 L 165 95.7 L 165.5 94.3 L 176.1 100.1 L 178.2 103.1 L 174.5 103.7 L 169.9 113.7 L 162.9 126.3 L 155.2 137.8 L 150.6 143.7 L 157.1 154.7 L 164.6 163.9 L 171.5 170 L 175.6 172.2 L 181 149 L 183 149 L 181.1 174 L 185.2 175.8 L 187 180 L 185.2 184.2 L 181 186 L 173 184.3 L 164.6 179.8 L 156 172.3 L 147.2 161.5 L 142.3 153.3 L 137.9 157.9 L 128.2 166.3 L 117.9 173.7 L 107 180 L 95.4 185 Z M 164 52.2 L 160.3 49.5 L 158.8 46.5 L 157.2 43.6 L 155.4 40.8 L 153.4 38 L 151.3 35.3 L 149.1 32.6 L 146.7 30 L 144.1 27.3 L 141.4 24.7 L 138.4 22.2 L 139.3 20.6 L 142.9 22.1 L 146.6 23.6 L 150.2 25.4 L 153.5 27.4 L 156.7 29.6 L 159.8 31.9 L 162.7 34.5 L 165.5 37.3 L 168.1 40.2 L 170.5 43.3 L 171.2 47.8 L 168.5 51.5 Z " />
</g>
</svg>
