<svg xmlns="http://www.w3.org/2000/svg" xmlns:xlink="http://www.w3.org/1999/xlink" version="1.1" baseProfile="full" viewBox="0 0 200 200" width="200" height="200">
<g fill="black">
<path d="M 80 188.8 L 79.4 187.1 L 92.4 180 L 104.2 171.8 L 114.8 162.5 L 124.2 152.1 L 132.1 140.9 L 131.8 140.5 L 125.8 128.9 L 120.9 116.5 L 117.1 103.2 L 114.5 89.1 L 113.7 80.2 L 109.3 86.7 L 103.9 93.9 L 98 100.5 L 96.6 99.4 L 100.7 91.7 L 104.7 84 L 108.6 76 L 112.2 67.9 L 115.5 59.5 L 118.6 50.9 L 121.4 42 L 124 32.8 L 126.2 23.4 L 128.2 13.7 L 128.6 11.8 L 139.9 16.2 L 142.4 18.8 L 138.9 20 L 137.2 26.2 L 134.3 35.9 L 130.9 45.2 L 127.3 54.2 L 124.2 61 L 165.9 61 L 175.9 51 L 187.9 61 L 187.9 65 L 167.8 65 L 164.8 82.7 L 160.4 100.4 L 154.6 116.7 L 147.7 131.6 L 142.8 139.5 L 146.8 144.7 L 154.7 152.9 L 163.5 160.2 L 173.1 166.6 L 183.5 172 L 188.9 174.7 L 177.6 183.9 L 166.4 177.2 L 156.1 169.4 L 146.9 160.7 L 138.8 151.1 L 136.9 148.2 L 130 157 L 119.2 167.4 L 107.3 176.2 L 94.2 183.3 Z M 14 187.6 L 12.7 186.3 L 15.7 181.7 L 18.2 176.6 L 20.5 170.9 L 22.4 164.3 L 24.1 156.9 L 25.3 148.7 L 26.3 139.6 L 26.8 129.6 L 27 118.8 L 26.8 107 L 26.8 34 L 37.6 39.4 L 37.8 39.3 L 42.9 37.6 L 48.2 35.7 L 53.5 33.7 L 58.9 31.6 L 64.4 29.1 L 70 26.5 L 75.7 23.6 L 81.5 20.5 L 87.4 17.1 L 88.9 20 L 95.5 26.4 L 95.6 29.7 L 92 28.2 L 86.5 30.7 L 80.1 33.4 L 73.9 35.7 L 67.7 37.8 L 61.6 39.6 L 55.6 41 L 49.8 42.1 L 44 42.8 L 38.8 43.1 L 38.8 62 L 83.5 62 L 89.5 57 L 100.5 66 L 95.5 70 L 95.5 115 L 83.5 121 L 83.5 109 L 38.7 109 L 38.4 119.1 L 37.5 130.3 L 36.2 140.8 L 34.5 150.3 L 32.3 159 L 29.6 166.7 L 26.5 173.5 L 22.8 179.4 L 18.6 184.1 Z M 137.2 131.5 L 139.4 127.4 L 145.3 113.1 L 150 97.6 L 153.6 80.6 L 155.7 65 L 122.2 65 L 119 71.2 L 115.7 76.9 L 118.6 88.2 L 122.8 101.6 L 127.6 113.9 L 133.2 125.2 Z M 38.8 105 L 83.5 105 L 83.5 66 L 38.8 66 Z " />
</g>
</svg>
