<svg xmlns="http://www.w3.org/2000/svg" xmlns:xlink="http://www.w3.org/1999/xlink" version="1.1" baseProfile="full" viewBox="0 0 200 200" width="200" height="200">
<g fill="black">
<path d="M 82.9 188.8 L 82.3 187.1 L 94.9 180 L 106.3 171.8 L 116.5 162.6 L 125.5 152.1 L 133.1 140.9 L 132.8 140.4 L 127 128.9 L 122.3 116.5 L 118.7 103.2 L 116.2 89.1 L 115.4 80.3 L 111.4 86.7 L 106.1 93.8 L 100.3 100.5 L 98.9 99.4 L 102.9 91.8 L 106.7 84 L 110.4 76.1 L 113.9 67.9 L 117.1 59.6 L 120.1 50.9 L 122.8 42 L 125.2 32.9 L 127.4 23.4 L 129.3 13.7 L 129.7 11.9 L 141.1 16.2 L 143.6 18.7 L 140.1 19.9 L 138.5 26.1 L 135.6 35.8 L 132.3 45.2 L 128.8 54.2 L 125.7 61 L 165.3 61 L 175.3 51 L 187.3 61 L 187.3 65 L 168 65 L 165.1 82.7 L 160.8 100.4 L 155.3 116.7 L 148.5 131.6 L 143.8 139.5 L 147.7 144.7 L 155.4 153 L 163.9 160.3 L 173.1 166.6 L 183.2 172.1 L 188.4 174.8 L 177.1 183.8 L 166.3 177.1 L 156.4 169.4 L 147.5 160.7 L 139.6 151 L 137.9 148.4 L 131.4 156.9 L 121 167.3 L 109.4 176.2 L 96.7 183.3 Z M 13.6 185.6 L 12.3 184.3 L 16.6 177.9 L 20.4 171.3 L 23.8 164.5 L 26.8 157.4 L 29.2 149.8 L 31.1 141.9 L 32.6 133.6 L 33.5 124.8 L 34 115.6 L 34 108 L 16 108 L 16 104 L 77 104 L 87 94 L 99 104 L 99 108 L 76 108 L 76 155.5 L 77.4 154.7 L 82.6 152 L 87.8 149.2 L 93.2 146.4 L 98.7 143.7 L 104.5 141.2 L 105.4 142.7 L 100.8 146.9 L 96.1 150.9 L 91.4 154.7 L 86.7 158.3 L 81.9 161.9 L 77.3 165.4 L 72.6 168.7 L 68 172.1 L 62.4 176.1 L 62.3 180 L 59 178.5 L 50.9 169.4 L 52.6 168.3 L 57.4 165.7 L 62.3 163 L 64 162.1 L 64 108 L 45.9 108 L 45.4 116.2 L 44.2 126.1 L 42.5 135.4 L 40.1 144.2 L 37.2 152.6 L 33.7 160.4 L 29.6 167.6 L 24.9 174.3 L 19.6 180.3 Z M 138.2 131.3 L 140.2 127.5 L 145.9 113.2 L 150.4 97.6 L 153.9 80.6 L 155.9 65 L 123.8 65 L 120.8 71.2 L 117.5 76.9 L 120.3 88.3 L 124.4 101.6 L 129.1 114 L 134.5 125.2 Z M 18.9 93.6 L 18.9 30.5 L 30.9 32.5 L 33.9 34.5 L 30.9 36.3 L 30.9 76.6 L 50 76.6 L 50 12.9 L 62 14.9 L 65 16.9 L 62 18.7 L 62 76.6 L 81 76.6 L 81 30.5 L 93 32.5 L 96 34.5 L 93 36.3 L 93 84.6 L 81 90.6 L 81 80.6 L 30.9 80.6 L 30.9 87.6 Z " />
</g>
</svg>
