<svg xmlns="http://www.w3.org/2000/svg" xmlns:xlink="http://www.w3.org/1999/xlink" version="1.1" baseProfile="full" viewBox="0 0 200 200" width="200" height="200">
<g fill="black">
<path d="M 94 188 L 94 65 L 23 65 L 23 61 L 94 61 L 94 16 L 106 18 L 109 20 L 106 21.8 L 106 61 L 154 61 L 164 51 L 176 61 L 176 65 L 106 65 L 106 182 Z M 24.4 179.8 L 23.5 178.1 L 29.8 173.5 L 35.2 168.5 L 39.9 163.3 L 43.9 157.7 L 47.2 151.6 L 49.9 145.2 L 51.9 138.2 L 53.2 130.7 L 53.9 122.6 L 54 114 L 54 79 L 66 81 L 69 83 L 66 84.8 L 66 114 L 65.3 123.5 L 63.8 132.5 L 61.5 140.9 L 58.5 148.7 L 54.7 155.8 L 50.1 162.1 L 44.7 167.8 L 38.6 172.7 L 31.8 176.7 Z M 148 166 L 145.4 165.8 L 142.9 165.4 L 140.5 164.6 L 138.2 163.3 L 136.2 161.7 L 134.6 159.7 L 133.3 157.4 L 132.5 155 L 132.1 152.5 L 132 150 L 132 79 L 144 81 L 147 83 L 144 84.8 L 144 151.2 L 144.2 152.1 L 144.5 153 L 144.9 153.4 L 145.8 153.7 L 146.7 153.9 L 148 154 L 168.2 154 L 174 129 L 176 129 L 174.1 154 L 177.6 156.4 L 180 160 L 177.6 163.6 L 174 166 Z " />
</g>
</svg>
