<svg xmlns="http://www.w3.org/2000/svg" xmlns:xlink="http://www.w3.org/1999/xlink" version="1.1" baseProfile="full" viewBox="0 0 200 200" width="200" height="200">
<g fill="black">
<path d="M 81 188.8 L 80.3 187.1 L 90.4 181 L 99.2 173.9 L 107 165.7 L 113.6 156.3 L 119.1 145.6 L 123.6 133.6 L 127.1 120.3 L 129.5 105.6 L 130.8 89.5 L 131.1 73 L 131.1 69.6 L 143.1 72 L 146.1 74 L 142.9 75.9 L 142.2 90.2 L 141.2 98.2 L 142.7 106.6 L 145 116.6 L 147.9 125.9 L 151.4 134.6 L 155.5 142.6 L 160.3 149.9 L 165.7 156.7 L 171.8 162.8 L 178.6 168.4 L 186 173.5 L 189.8 175.9 L 178.7 184.4 L 170.7 178.1 L 163.5 171.2 L 157.2 163.6 L 151.8 155.5 L 147.2 146.8 L 143.6 137.6 L 141 127.9 L 139.2 117.7 L 138.9 113 L 136.9 122.6 L 132.4 136.7 L 126.8 149.3 L 119.9 160.4 L 111.8 170 L 102.6 178 L 92.3 184.3 Z M 30 188 L 30 57 L 12 57 L 12 53 L 30 53 L 30 16 L 42 18 L 45 20 L 42 21.8 L 42 53 L 76.9 53 L 76.9 16 L 88.9 18 L 91.9 20 L 88.9 21.8 L 88.9 53 L 92.7 53 L 98.9 46 L 106.9 53 L 106.9 57 L 88.9 57 L 88.9 170 L 76.9 176 L 76.9 170 L 42 170 L 42 182 Z M 42 166 L 76.9 166 L 76.9 111 L 42 111 Z M 42 107 L 76.9 107 L 76.9 57 L 42 57 Z M 156.3 94.5 L 154.8 93.4 L 157.3 88.9 L 159.6 84.5 L 161.7 80.4 L 163.8 76.6 L 165.6 73 L 167.4 69.6 L 168.9 66.4 L 170.3 63.4 L 170.5 63 L 120.3 63 L 120.1 63.4 L 115.9 70.2 L 111.3 76.6 L 106.3 82.8 L 100.8 88.5 L 99.3 87.4 L 103.1 80.6 L 106.8 73.7 L 110.2 66.9 L 113.4 60 L 116.3 52.9 L 118.9 45.8 L 121.2 38.5 L 123.2 31.1 L 124.9 23.5 L 126.3 15.7 L 126.7 13.9 L 138.1 18.1 L 140.6 20.7 L 137.1 21.9 L 136 26.2 L 133.5 34.1 L 130.7 41.8 L 127.5 49.2 L 124 56.4 L 122.6 59 L 171.8 59 L 172.3 58.6 L 172.5 58.1 L 172.7 58.2 L 177.8 54 L 188.8 63 L 183.8 66 L 180.3 67.4 L 179.3 68.8 L 177.2 71.6 L 174.8 74.4 L 172.3 77.4 L 169.5 80.6 L 166.6 83.9 L 163.4 87.3 L 159.9 90.8 Z " />
</g>
</svg>
