<svg xmlns="http://www.w3.org/2000/svg" xmlns:xlink="http://www.w3.org/1999/xlink" version="1.1" baseProfile="full" viewBox="0 0 200 200" width="200" height="200">
<g fill="black">
<path d="M 150 189 L 150 183 L 130 180 L 130 177 L 150 177 L 151.2 176.9 L 152.1 176.7 L 153 176.4 L 153.4 176 L 153.7 175.1 L 153.9 174.2 L 154 173 L 154 122 L 46 122 L 46 182 L 34 188 L 34 65 L 46 71 L 94 71 L 94 16 L 106 18 L 109 20 L 106 21.8 L 106 41 L 155 41 L 165 31 L 177 41 L 177 45 L 106 45 L 106 71 L 154 71 L 160 66 L 171 75 L 166 79 L 166 173 L 165.8 175.5 L 165.4 178 L 164.6 180.4 L 163.3 182.7 L 161.7 184.7 L 159.7 186.3 L 157.4 187.6 L 155 188.4 L 152.5 188.8 Z M 46 118 L 154 118 L 154 75 L 46 75 Z " />
</g>
</svg>
