<svg xmlns="http://www.w3.org/2000/svg" xmlns:xlink="http://www.w3.org/1999/xlink" version="1.1" baseProfile="full" viewBox="0 0 200 200" width="200" height="200">
<g fill="black">
<path d="M 15.2 189.8 L 14.4 188.1 L 25.8 181 L 36.2 173.2 L 45.5 164.6 L 53.8 155.3 L 61.1 145 L 67.4 133.9 L 72.8 121.9 L 77.2 108.9 L 80.6 95 L 82.6 83 L 43.6 83 L 41.9 88.8 L 39.4 96.1 L 36.5 103 L 36.2 103.6 L 38 104.4 L 41.8 106.1 L 45.3 108 L 48.5 110.1 L 51.5 112.5 L 54.3 115 L 56.9 117.8 L 59.2 120.7 L 61.2 123.8 L 62.9 127.1 L 62.6 131.7 L 59.2 134.8 L 54.7 134.5 L 51.6 131.1 L 50.9 128.4 L 50 125.8 L 48.9 123.1 L 47.5 120.4 L 45.8 117.8 L 43.9 115.1 L 41.6 112.4 L 39.1 109.6 L 36.4 106.8 L 35.1 105.7 L 33.1 109.5 L 29.4 115.6 L 25.2 121.1 L 20.5 126.1 L 15.4 130.6 L 14.1 129.3 L 17.6 123.8 L 20.7 118.1 L 23.7 112.3 L 26.3 106.2 L 28.6 99.9 L 30.6 93.2 L 32.2 86.3 L 33.6 79 L 34.6 71.3 L 35.2 63.4 L 35.4 61.2 L 47.2 64.5 L 50 66.8 L 46.6 68.4 L 45.8 73 L 44.5 79 L 57.6 79 L 57.6 14 L 69.6 16 L 72.6 18 L 69.6 19.8 L 69.6 44 L 86.7 44 L 94.9 35 L 104.9 44 L 104.9 48 L 69.6 48 L 69.6 79 L 83 79 L 89 74 L 100 83 L 95 86 L 94 86.4 L 91.7 97.5 L 87.4 112.2 L 82 125.8 L 75.6 138.4 L 68.1 149.9 L 59.6 160.2 L 50 169.5 L 39.4 177.5 L 27.8 184.3 Z M 81.8 189 L 81.1 187.4 L 94.9 178.9 L 107.5 169 L 118.8 157.8 L 128.9 145.1 L 134.8 135.6 L 131.7 128.8 L 126.2 113.2 L 121.8 96.3 L 118.4 78 L 116.1 58.4 L 115.1 38.3 L 100.3 38.3 L 100.3 34.3 L 164.8 34.3 L 170.8 29.3 L 181.8 38.3 L 176.8 41.3 L 176 41.6 L 173 60 L 168 81.3 L 161.6 101 L 154 119 L 145.4 134.8 L 147.1 138 L 154.7 149.5 L 163 159.4 L 172.1 167.8 L 181.8 174.8 L 185.6 177.3 L 174.5 185.8 L 163.9 177.3 L 154.2 167.2 L 145.7 155.8 L 138.9 144.2 L 135 149.7 L 123.5 162.4 L 110.8 173.2 L 96.9 182.1 Z M 140.5 125.5 L 145.6 115.1 L 152.2 97.7 L 157.6 78.6 L 161.8 57.9 L 164.5 38.3 L 117 38.3 L 120.3 57.8 L 124.2 76.9 L 128.8 94.5 L 134.2 110.6 L 140.3 125.1 Z " />
</g>
</svg>
