<svg xmlns="http://www.w3.org/2000/svg" xmlns:xlink="http://www.w3.org/1999/xlink" version="1.1" baseProfile="full" viewBox="0 0 200 200" width="200" height="200">
<g fill="black">
<path d="M 92.8 188.8 L 92.3 187.1 L 102.9 182.5 L 112.5 177.1 L 121.4 171.1 L 129.4 164.1 L 136.6 156.4 L 136.7 156.3 L 131.2 148 L 126.7 138.8 L 123.1 128.7 L 120.6 117.8 L 119.3 107 L 110.1 107 L 110.1 103 L 161.1 103 L 167.1 98 L 178.1 107 L 173.1 110 L 171.5 110.6 L 168.6 119.7 L 163.4 131.9 L 157.4 143 L 150.5 153.1 L 148.8 155.1 L 150.2 156.4 L 157.1 161.5 L 164.6 165.7 L 172.8 169.1 L 181.7 171.6 L 190 173.8 L 178.3 184.3 L 168.2 180.7 L 159 176.1 L 150.7 170.5 L 143.2 163.9 L 142.1 162.7 L 134.4 169.8 L 125.1 176.5 L 115.1 181.9 L 104.3 186 Z M 20.2 187.8 L 20.2 124.3 L 27 125.4 L 28.7 124.8 L 31.2 123.4 L 33.6 122.1 L 35.9 120.8 L 40.1 118.4 L 42.1 117.2 L 44 116.1 L 45.8 115 L 46.6 114.5 L 46.5 114.3 L 46.7 114.4 L 47.5 113.9 L 48.2 115.8 L 54.5 121.3 L 54.5 107 L 13.5 107 L 13.5 103 L 54.5 103 L 54.5 85 L 18.9 85 L 18.9 81 L 66.9 81 L 67.5 79.7 L 68.3 76.7 L 69.3 73.8 L 72 65.4 L 72.8 62.6 L 74.4 57.2 L 74.9 55.5 L 74.7 55.4 L 75.5 53.6 L 38.3 53.6 L 39.6 55.2 L 41.6 56.9 L 43.4 58.7 L 45.1 60.6 L 46.7 62.6 L 48.2 64.6 L 49.6 66.7 L 51 68.9 L 52.3 71.1 L 53.5 73.3 L 53 77.9 L 49.5 80.8 L 45 80.3 L 42 76.9 L 41.4 72.5 L 41 70.3 L 40.6 68 L 40.1 65.8 L 39.6 63.5 L 39 61.2 L 38.3 58.9 L 37.7 56.5 L 36.6 54.3 L 37.6 53.6 L 13.5 53.6 L 13.5 49.6 L 45.3 49.6 L 45.3 13.5 L 56.3 15.5 L 59 17.5 L 56.3 19.2 L 56.3 49.6 L 63.6 49.6 L 63.6 13.5 L 74.6 15.5 L 77.4 17.5 L 74.6 19.3 L 74.6 49.6 L 78.7 49.6 L 79.5 47.6 L 80.7 44.1 L 81.8 40.6 L 82.9 37.3 L 83.9 34.1 L 84.9 31 L 85.8 28 L 86.6 25.1 L 87.4 22.3 L 87.8 20.5 L 87.6 20.5 L 88.5 18.1 L 99.2 23.7 L 101.3 26.7 L 97.2 27.4 L 96.2 29.2 L 94.5 31.9 L 92.8 34.7 L 90.9 37.6 L 88.9 40.4 L 86.7 43.3 L 84.4 46.2 L 82 49 L 81.5 49.6 L 88.2 49.6 L 96.4 40.6 L 106.4 49.6 L 106.4 53.6 L 76.1 53.6 L 86.1 59.2 L 88.1 62.2 L 84 62.8 L 83 64.3 L 81.3 66.8 L 79.6 69.2 L 77.8 71.7 L 75.9 74.1 L 73.9 76.5 L 71.9 78.8 L 69.7 81 L 80.6 81 L 90.6 71 L 102.6 81 L 102.6 85 L 66.5 85 L 66.5 103 L 87.7 103 L 95.9 94 L 100.5 98.1 L 103.3 94.5 L 106.6 89.9 L 109.6 85.3 L 112 80.7 L 114.1 76.1 L 115.6 71.4 L 116.8 66.7 L 117.5 61.9 L 117.8 57 L 117.8 20 L 129.8 26 L 152.7 26 L 158.7 21 L 169.7 30 L 164.7 34 L 164.7 75.1 L 164.8 75.8 L 165 76.2 L 165.1 76.6 L 165.3 76.9 L 165.7 77.2 L 166.4 77.5 L 167.4 77.8 L 168.7 78 L 178.3 78 L 183 61 L 185 61 L 183.1 78.1 L 186 80 L 188 83 L 186 86 L 183 88 L 168.7 88 L 166.2 87.9 L 163.8 87.6 L 161.5 86.9 L 159.3 85.8 L 157.3 84.3 L 155.7 82.5 L 154.4 80.3 L 153.5 78 L 152.9 75.5 L 152.7 73 L 152.7 30 L 129.8 30 L 129.8 52 L 129.2 58 L 128.1 63.8 L 126.5 69.4 L 124.3 74.7 L 121.7 79.8 L 118.5 84.6 L 114.9 89.2 L 110.7 93.4 L 106 97.2 L 102.2 99.7 L 105.9 103 L 105.9 107 L 66.5 107 L 66.5 170.8 L 86.8 170.8 L 86.8 151.4 L 68.9 151.4 L 68.9 147.4 L 86.8 147.4 L 86.8 128.7 L 68.9 128.7 L 68.9 124.7 L 86.8 124.7 L 92.8 119.7 L 103.8 128.7 L 98.8 132.7 L 98.8 174.8 L 86.8 180.8 L 86.8 174.8 L 32.2 174.8 L 32.2 181.8 Z M 32.2 170.8 L 54.5 170.8 L 54.5 125.3 L 53 124.6 L 51.8 125.1 L 49.6 125.5 L 47.4 125.8 L 45.1 126.1 L 42.7 126.4 L 40.2 126.6 L 35 127 L 33.3 127.1 L 35.2 128.3 L 32.2 130.1 L 32.2 147.4 L 36.8 147.4 L 43 140.4 L 51 147.4 L 51 151.4 L 32.2 151.4 Z M 142.3 148.6 L 143 147.7 L 148.7 138.1 L 153.6 127.5 L 157.8 116 L 160.3 107 L 121.4 107 L 124.6 116.7 L 128.6 126.7 L 133.2 135.6 L 138.2 143.5 Z M 36.1 48.4 L 31.7 47.2 L 29.3 43.3 L 29.3 38.8 L 29.1 36.5 L 28.8 34.3 L 28.4 32 L 27.9 29.6 L 26.5 24.8 L 25.6 22.3 L 24.2 20 L 25.6 18.9 L 27.6 20.8 L 29.7 22.6 L 31.7 24.6 L 33.5 26.7 L 35.2 28.9 L 36.7 31.3 L 38 33.7 L 39.2 36.2 L 40.3 38.9 L 41.2 41.6 L 40 46 Z " />
</g>
</svg>
