<svg xmlns="http://www.w3.org/2000/svg" xmlns:xlink="http://www.w3.org/1999/xlink" version="1.1" baseProfile="full" viewBox="0 0 200 200" width="200" height="200">
<g fill="black">
<path d="M 90 189 L 90 183 L 70 180 L 70 177 L 91.2 177 L 92.1 176.8 L 92.7 176.6 L 93 176.4 L 93.2 176.3 L 93.4 176.1 L 93.7 175.2 L 93.9 174.3 L 94 173 L 94 99.4 L 106 101.4 L 109 103.4 L 106 105.2 L 106 106.7 L 109.1 116 L 113 124.4 L 117.8 132.1 L 123.1 138.4 L 126 136.9 L 132 134 L 137.7 131.3 L 143.1 128.8 L 148.2 126.4 L 152.9 124 L 157.3 121.8 L 161.4 119.7 L 165.1 117.7 L 167.5 116.2 L 168.4 115.7 L 169.6 118.2 L 176.8 125 L 176.9 128.2 L 173.2 126.7 L 169.9 128 L 165.7 129.5 L 161.2 131.1 L 156.4 132.7 L 151.3 134.3 L 145.8 135.9 L 140 137.5 L 133.8 139.1 L 127.2 140.5 L 125.7 140.8 L 130.6 145.3 L 138.6 150.9 L 147.7 155.9 L 158.1 160.3 L 169.7 164.1 L 182.5 167.2 L 191.2 169.3 L 179.4 180.1 L 165.9 176 L 153.6 171.2 L 142.6 165.6 L 132.8 159.3 L 124.4 152.3 L 117.4 144.5 L 111.7 136 L 107.6 126.8 L 106 120.6 L 106 173 L 105.8 175.6 L 105.4 178.1 L 104.6 180.5 L 103.3 182.8 L 101.7 184.8 L 99.7 186.4 L 97.4 187.7 L 95 188.5 L 92.5 188.9 Z M 13.2 177 L 12.7 175.2 L 22.1 171.1 L 30.6 166.8 L 38.2 162.4 L 44.9 157.8 L 50.8 153 L 55.7 148 L 59.8 142.8 L 63 137.4 L 65.5 131.8 L 66.1 129.6 L 18 129.6 L 18 125.6 L 67 125.6 L 73 120.6 L 84 129.6 L 79 132.6 L 77.1 133.4 L 76 136.3 L 72.3 142.9 L 67.7 149 L 62.3 154.6 L 56.1 159.6 L 49.1 164.2 L 41.3 168.2 L 32.8 171.7 L 23.4 174.6 Z M 15 97.4 L 15 93.4 L 94 93.4 L 94 72.4 L 30 72.4 L 30 68.4 L 94 68.4 L 94 47.4 L 22 47.4 L 22 43.4 L 117.3 43.4 L 118.8 41.3 L 121 37.7 L 123.2 34.3 L 125.3 31 L 127.3 27.9 L 129.1 24.8 L 130.9 21.8 L 132.5 18.9 L 134 16.1 L 134.9 14.3 L 134.8 14.2 L 135.9 12.6 L 145.4 19.9 L 146.9 23.2 L 142.8 23.1 L 141 25 L 138.6 27.6 L 136.1 30.2 L 133.4 32.9 L 130.5 35.5 L 127.5 38.1 L 124.4 40.8 L 121 43.3 L 120.9 43.4 L 156 43.4 L 166 33.4 L 178 43.4 L 178 47.4 L 106 47.4 L 106 68.4 L 148 68.4 L 158 58.4 L 170 68.4 L 170 72.4 L 106 72.4 L 106 93.4 L 163 93.4 L 173 83.4 L 185 93.4 L 185 97.4 Z M 74.6 42.7 L 71.2 39.6 L 70.5 37.2 L 69.6 34.8 L 68.6 32.4 L 67.3 30 L 65.8 27.6 L 64.1 25.1 L 62.3 22.7 L 60.2 20.2 L 58 17.6 L 55.3 15.3 L 56.3 13.8 L 59.5 15.4 L 62.8 16.8 L 65.8 18.5 L 68.7 20.4 L 71.4 22.4 L 73.9 24.6 L 76.3 26.9 L 78.4 29.3 L 80.4 31.9 L 82.2 34.7 L 82.3 39.3 L 79.2 42.6 Z " />
</g>
</svg>
