<svg xmlns="http://www.w3.org/2000/svg" xmlns:xlink="http://www.w3.org/1999/xlink" version="1.1" baseProfile="full" viewBox="0 0 200 200" width="200" height="200">
<g fill="black">
<path d="M 20.3 188.8 L 19.6 187.1 L 24.6 183.2 L 29 178.9 L 32.7 174.1 L 35.9 168.8 L 38.6 162.9 L 40.7 156.4 L 42.4 149.1 L 43.4 141.1 L 44 132.4 L 44 16 L 56 18 L 59 20 L 56 21.8 L 56 69 L 83 69 L 83 16 L 95 18 L 98 20 L 95 21.8 L 95 77 L 83 83 L 83 73 L 56 73 L 56 120 L 83 120 L 89 115 L 100 124 L 95 128 L 95 177 L 83 183 L 83 124 L 55.9 124 L 55.3 133.1 L 54.1 142.6 L 52.1 151.3 L 49.6 159.3 L 46.3 166.5 L 42.4 172.8 L 37.8 178.3 L 32.5 182.9 L 26.7 186.4 Z M 163 185 L 163 125 L 131 125 L 131 177 L 119 183 L 119 115 L 131 121 L 163 121 L 163 72 L 131 72 L 131 79 L 119 85 L 119 16 L 131 18 L 134 20 L 131 21.8 L 131 68 L 163 68 L 163 16 L 175 18 L 178 20 L 175 21.8 L 175 179 Z M 64 100 L 64 96 L 134.8 96 L 143 87 L 153 96 L 153 100 Z " />
</g>
</svg>
