<svg xmlns="http://www.w3.org/2000/svg" xmlns:xlink="http://www.w3.org/1999/xlink" version="1.1" baseProfile="full" viewBox="0 0 200 200" width="200" height="200">
<g fill="black">
<path d="M 27 188.9 L 22.4 188.8 L 19.2 185.6 L 19.2 181 L 22.4 177.8 L 25.3 176.8 L 27.9 175.6 L 30.3 174.2 L 32.5 172.4 L 34.6 170.4 L 36.5 167.9 L 38.2 165.1 L 39.7 161.8 L 41.1 158.1 L 42 153.9 L 43.8 154 L 44 158.4 L 44 162.7 L 43.6 166.8 L 42.6 170.7 L 41.2 174.5 L 39.3 178 L 36.9 181.2 L 34 184.1 L 30.7 186.7 Z M 178 187.3 L 173.4 187 L 170.3 183.7 L 169.7 181.4 L 168.8 179 L 167.4 176.4 L 165.7 173.6 L 163.6 170.8 L 161.1 167.8 L 158.2 164.8 L 155 161.6 L 151.4 158.3 L 147.4 155 L 148.3 153.4 L 153.1 155.6 L 157.7 157.8 L 161.9 160.1 L 165.7 162.5 L 169.2 165.1 L 172.4 167.7 L 175.2 170.5 L 177.7 173.4 L 179.8 176.4 L 181.6 179.6 L 181.3 184.1 Z M 128.3 185.9 L 123.9 184.7 L 121.6 180.7 L 121.7 178.8 L 121.4 176.8 L 120.9 174.6 L 120 172.2 L 118.8 169.7 L 117.2 167.1 L 115.3 164.4 L 113 161.5 L 110.4 158.5 L 107.3 155.8 L 108.3 154.3 L 112.1 156.4 L 115.7 158.3 L 119.1 160.4 L 122.1 162.6 L 124.8 165 L 127.2 167.5 L 129.3 170.2 L 131.1 173 L 132.5 176 L 133.5 179.2 L 132.3 183.6 Z M 80.6 185.9 L 76.6 183.6 L 75.4 179.2 L 75.9 177.4 L 76.3 175.4 L 76.4 173.4 L 76.2 171.3 L 75.8 169 L 75.1 166.5 L 74.2 164 L 72.9 161.3 L 71.3 158.4 L 69.1 155.8 L 70.3 154.5 L 73.1 156.7 L 75.9 158.7 L 78.5 160.9 L 80.7 163.3 L 82.6 165.8 L 84.2 168.5 L 85.6 171.3 L 86.5 174.3 L 87.1 177.5 L 87.3 180.7 L 85 184.7 Z M 16 147.8 L 16 143.8 L 94 143.8 L 94 128.3 L 34 128.3 L 34 124.3 L 94 124.3 L 94 105.5 L 51 105.5 L 51 108.5 L 39 114.5 L 39 53.9 L 51 59.9 L 94 59.9 L 94 46 L 18 46 L 18 42 L 94 42 L 94 30.2 L 83 31 L 70.5 31.7 L 57.7 32.3 L 44.5 32.6 L 31 32.6 L 30.9 30.8 L 44.2 28.8 L 57.2 26.9 L 69.9 25.2 L 82.2 23.4 L 94.2 21.7 L 105.9 19.8 L 117.2 18 L 128.1 16.1 L 138.7 14.1 L 148.9 12.1 L 149.1 13.2 L 160.2 22.4 L 160.5 25.4 L 156.1 23.1 L 151 24 L 140.5 25.4 L 129.7 26.7 L 118.5 27.9 L 107 29.1 L 106 29.2 L 106 42 L 159 42 L 169 32 L 181 42 L 181 46 L 106 46 L 106 59.9 L 149 59.9 L 155 54.9 L 166 63.9 L 161 67.9 L 161 107.5 L 149 113.5 L 149 105.5 L 106 105.5 L 106 124.3 L 151.8 124.3 L 160 115.3 L 170 124.3 L 170 128.3 L 106 128.3 L 106 143.8 L 161 143.8 L 171 133.8 L 183 143.8 L 183 147.8 Z M 51 101.5 L 94 101.5 L 94 85.1 L 51 85.1 Z M 106 101.5 L 149 101.5 L 149 85.1 L 106 85.1 Z M 51 81.1 L 94 81.1 L 94 63.9 L 51 63.9 Z M 106 81.1 L 149 81.1 L 149 63.9 L 106 63.9 Z " />
</g>
</svg>
