<svg xmlns="http://www.w3.org/2000/svg" xmlns:xlink="http://www.w3.org/1999/xlink" version="1.1" baseProfile="full" viewBox="0 0 200 200" width="200" height="200">
<g fill="black">
<path d="M 41 187 L 41 73 L 53 79 L 94 79 L 94 53 L 20 53 L 20 49 L 94 49 L 94 15 L 106 17 L 109 19 L 106 20.8 L 106 49 L 160 49 L 170 39 L 182 49 L 182 53 L 106 53 L 106 79 L 147 79 L 153 74 L 164 83 L 159 87 L 159 175 L 147 181 L 147 169 L 53 169 L 53 181 Z M 53 165 L 94 165 L 94 124 L 53 124 Z M 106 165 L 147 165 L 147 124 L 106 124 Z M 53 120 L 94 120 L 94 83 L 53 83 Z M 106 120 L 147 120 L 147 83 L 106 83 Z " />
</g>
</svg>
