<svg xmlns="http://www.w3.org/2000/svg" xmlns:xlink="http://www.w3.org/1999/xlink" version="1.1" baseProfile="full" viewBox="0 0 200 200" width="200" height="200">
<g fill="black">
<path d="M 12.6 185.6 L 11.3 184.3 L 17.8 175.7 L 23.6 166.8 L 28.9 157.5 L 33.5 147.9 L 37.5 137.9 L 40.9 127.4 L 43.6 116.4 L 45.7 105 L 47.1 93 L 47.8 81.6 L 48 78.3 L 59.9 81.3 L 62.8 83.5 L 59.4 85.2 L 58.4 94.4 L 56.2 106.9 L 53.3 118.8 L 53.1 119.6 L 55.3 125.9 L 61.2 136.1 L 68.8 144.8 L 78.1 151.9 L 89.4 157.7 L 94 159.2 L 94 34 L 22 34 L 22 30 L 156 30 L 166 20 L 178 30 L 178 34 L 106 34 L 106 96 L 147 96 L 157 86 L 169 96 L 169 100 L 106 100 L 106 162.7 L 118.2 165.1 L 135.8 166.6 L 155.5 166.7 L 177.4 165.4 L 188.3 164.5 L 178.5 178.5 L 155.7 179.3 L 135 178.4 L 116.4 176 L 99.9 171.9 L 85.6 166.2 L 73.4 158.8 L 63.6 149.8 L 56.2 139.3 L 51.4 127.3 L 51.1 125.7 L 49.7 130.2 L 45.4 141 L 40.3 151.3 L 34.5 160.9 L 28 169.9 L 20.7 178.1 Z " />
</g>
</svg>
