<svg xmlns="http://www.w3.org/2000/svg" xmlns:xlink="http://www.w3.org/1999/xlink" version="1.1" baseProfile="full" viewBox="0 0 200 200" width="200" height="200">
<g fill="black">
<path d="M 51 188 L 48.3 185.6 L 43.6 174.3 L 45.5 173.9 L 54.7 172 L 61 170.7 L 61 81 L 73 83 L 76 85 L 73 86.8 L 73 168 L 73.8 167.8 L 83.7 165.6 L 92 163.7 L 92 53 L 104 55 L 104.3 55.2 L 104.5 55 L 108.4 50.9 L 112.2 47.1 L 115.7 43.5 L 118.9 40.1 L 122 36.8 L 124.7 33.6 L 126.9 31 L 50 31 L 50 27 L 130 27 L 131.4 25.1 L 131.8 25.5 L 136 22 L 147 31 L 142 34 L 137.1 36 L 134.9 38.1 L 131.6 40.8 L 128.2 43.5 L 124.5 46.3 L 120.5 49.2 L 116.2 52.1 L 111.6 55 L 106.7 57.8 L 104 59.3 L 104 100 L 124.8 100 L 133 91 L 143 100 L 143 104 L 104 104 L 104 160.9 L 104.2 160.9 L 114.9 158.4 L 125.9 155.9 L 137.1 153.5 L 148.7 151.1 L 149.2 152.8 L 138.2 157.1 L 127.4 161.1 L 116.7 164.8 L 106.3 168.2 L 96.1 171.5 L 86.1 174.6 L 76.3 177.6 L 66.7 180.4 L 57.4 183 L 52.3 184.5 Z " />
</g>
</svg>
