<svg xmlns="http://www.w3.org/2000/svg" xmlns:xlink="http://www.w3.org/1999/xlink" version="1.1" baseProfile="full" viewBox="0 0 200 200" width="200" height="200">
<g fill="black">
<path d="M 86.6 188.6 L 85.3 187.3 L 88.9 182 L 92.1 176.2 L 95 169.9 L 97.4 162.9 L 99.4 155.3 L 101.1 146.9 L 102.3 137.8 L 103.1 128 L 103.4 117.3 L 103.4 40 L 115.4 46 L 135.8 46 L 135.8 12 L 147.8 14 L 150.8 16 L 147.8 17.8 L 147.8 46 L 173.6 46 L 179.6 41 L 190.6 50 L 185.6 53 L 182.6 54.2 L 182.2 54.9 L 180.6 57.4 L 178.8 60 L 176.8 62.8 L 174.7 65.6 L 172.4 68.6 L 169.9 71.8 L 167.1 74.9 L 164.5 78.4 L 163 77.5 L 164.7 73.5 L 166.1 69.6 L 167.5 65.9 L 168.7 62.4 L 169.9 59.1 L 171 56.1 L 171.9 53.2 L 172.8 50.5 L 172.9 50 L 147.8 50 L 147.8 93 L 163.8 93 L 169.8 88 L 180.8 97 L 175.8 100 L 174.3 100.6 L 171.2 110.4 L 166.2 123.4 L 160.5 135.4 L 154.1 146.3 L 151.2 150.3 L 154 153.6 L 160.6 160 L 167.8 165.5 L 175.5 170.1 L 183.8 173.9 L 189.8 176.6 L 178.4 186 L 169.2 180.9 L 160.8 174.9 L 153.1 168 L 146.2 160.2 L 145 158.4 L 139.2 165.1 L 130.7 172.8 L 121.6 179.4 L 111.8 184.7 L 101.4 188.8 L 100.7 187.1 L 109.9 181.4 L 118.4 175 L 126.3 167.9 L 133.5 160 L 140 151.4 L 134.8 142.1 L 130.4 131.8 L 126.7 120.7 L 124 108.8 L 122.4 97 L 115.4 97 L 115.4 106 L 114.8 117.8 L 113.8 128.9 L 112.2 139.2 L 110.2 148.8 L 107.6 157.6 L 104.5 165.6 L 100.9 172.8 L 96.7 179.1 L 91.9 184.4 Z M 14.5 187.6 L 13.2 186.3 L 16.4 182 L 19.3 177.8 L 22.2 173.8 L 24.9 169.7 L 27.4 165.7 L 29.7 161.7 L 31.7 157.7 L 33.6 153.6 L 35.3 149.6 L 36.5 146.4 L 36.4 146.4 L 37.4 144.3 L 47.9 150.2 L 49.9 153.2 L 46 153.7 L 45.6 154.5 L 43.1 158.7 L 40.3 162.8 L 37.3 166.8 L 34.1 170.7 L 30.7 174.4 L 27.1 178 L 23.2 181.4 L 18.9 184.6 Z M 81.2 176 L 77.7 173.1 L 76.5 170.2 L 75.2 167.4 L 73.7 164.7 L 72.1 162 L 70.3 159.4 L 68.3 156.9 L 66.1 154.4 L 63.8 151.9 L 61.3 149.4 L 58.5 147.2 L 59.4 145.6 L 62.8 147 L 66.3 148.3 L 69.6 149.9 L 72.7 151.8 L 75.7 153.9 L 78.6 156.2 L 81.3 158.7 L 83.8 161.5 L 86.2 164.4 L 88.3 167.5 L 88.7 172.1 L 85.8 175.6 Z M 145.3 142.7 L 146.1 141.5 L 151.5 130.9 L 156.2 119.4 L 160.4 106.9 L 163.1 97 L 124.4 97 L 128 107.8 L 132.3 118.8 L 137 128.9 L 142.1 138.1 Z M 12.2 139 L 12.2 135 L 29.1 135 L 29.1 46 L 13.9 46 L 13.9 42 L 29.1 42 L 29.1 15 L 41.1 17 L 44.1 19 L 41.1 20.8 L 41.1 42 L 67.4 42 L 67.4 15 L 79.4 17 L 82.4 19 L 79.4 20.8 L 79.4 42 L 82.1 42 L 88.3 35 L 96.3 42 L 96.3 46 L 79.4 46 L 79.4 135 L 83 135 L 89.2 128 L 97.2 135 L 97.2 139 Z M 41.1 135 L 67.4 135 L 67.4 108 L 41.1 108 Z M 41.1 104 L 67.4 104 L 67.4 77 L 41.1 77 Z M 115.4 93 L 135.8 93 L 135.8 50 L 115.4 50 Z M 41.1 73 L 67.4 73 L 67.4 46 L 41.1 46 Z " />
</g>
</svg>
