<svg xmlns="http://www.w3.org/2000/svg" xmlns:xlink="http://www.w3.org/1999/xlink" version="1.1" baseProfile="full" viewBox="0 0 200 200" width="200" height="200">
<g fill="black">
<path d="M 32.4 188.1 L 32 186.4 L 38.6 183.3 L 44.5 179.9 L 49.6 176.3 L 54 172.2 L 57.7 167.8 L 60.8 163 L 63.3 157.7 L 65.1 152 L 65.6 149.4 L 17.6 149.4 L 17.6 145.4 L 66.4 145.4 L 67.1 139.4 L 67.1 118.1 L 79.1 120.1 L 82.1 122.1 L 79.1 123.9 L 79.1 139.4 L 78.7 140 L 79.1 140 L 78.1 145.4 L 122.7 145.4 L 122.7 118.1 L 134.7 120.1 L 137.7 122.1 L 134.7 123.9 L 134.7 145.4 L 160.3 145.4 L 170.3 135.4 L 182.3 145.4 L 182.3 149.4 L 134.7 149.4 L 134.7 182.1 L 122.7 188.1 L 122.7 149.4 L 77.1 149.4 L 75.3 155.3 L 72.4 162 L 68.6 168 L 64.2 173.3 L 59 177.9 L 53.2 181.7 L 46.9 184.7 L 39.9 186.9 Z M 48.1 129.6 L 48.1 14 L 60.1 20 L 139.9 20 L 145.9 15 L 156.9 24 L 151.9 28 L 151.9 117.6 L 139.9 123.6 L 139.9 111.6 L 60.1 111.6 L 60.1 123.6 Z M 60.1 107.6 L 139.9 107.6 L 139.9 81.2 L 60.1 81.2 Z M 60.1 77.2 L 139.9 77.2 L 139.9 52.6 L 60.1 52.6 Z M 60.1 48.6 L 139.9 48.6 L 139.9 24 L 60.1 24 Z " />
</g>
</svg>
