<svg xmlns="http://www.w3.org/2000/svg" xmlns:xlink="http://www.w3.org/1999/xlink" version="1.1" baseProfile="full" viewBox="0 0 200 200" width="200" height="200">
<g fill="black">
<path d="M 40 187.6 L 40 75.8 L 34.1 78.7 L 22.9 83.3 L 11.3 87.2 L 10.6 85.5 L 21.3 79.8 L 31.6 73.9 L 41.3 67.8 L 50.6 61.2 L 59.5 54.3 L 67.8 46.9 L 75.7 39.1 L 83.1 30.9 L 90 22.3 L 97 12.5 L 106.3 20.2 L 107.5 23.5 L 104.5 23.3 L 107.1 25.6 L 114.9 32.2 L 122.6 38.5 L 130.5 44.3 L 138.6 49.7 L 146.7 54.6 L 155.1 59 L 163.6 63 L 172.3 66.6 L 181.2 69.7 L 188.3 72.2 L 176.7 82.1 L 167.4 78.1 L 158.4 73.7 L 149.7 68.7 L 141.3 63.2 L 133.2 57.3 L 125.4 50.8 L 117.9 43.9 L 110.8 36.5 L 104.1 28.5 L 102 25.5 L 98.9 29.4 L 91 38.1 L 82.7 46.3 L 73.9 53.9 L 64.6 61 L 54.9 67.5 L 44.7 73.4 L 43.8 73.9 L 52 78 L 148 78 L 154 73 L 165 82 L 160 86 L 160 175.6 L 148 181.6 L 148 169.6 L 52 169.6 L 52 181.6 Z M 52 165.6 L 148 165.6 L 148 139.2 L 52 139.2 Z M 52 135.2 L 148 135.2 L 148 110.6 L 52 110.6 Z M 52 106.6 L 148 106.6 L 148 82 L 52 82 Z " />
</g>
</svg>
