<svg xmlns="http://www.w3.org/2000/svg" xmlns:xlink="http://www.w3.org/1999/xlink" version="1.1" baseProfile="full" viewBox="0 0 200 200" width="200" height="200">
<g fill="black">
<path d="M 40 188.9 L 40 65.7 L 52 71.7 L 94 71.7 L 94 44 L 14 44 L 14 40 L 94 40 L 94 13 L 106 15 L 109 17 L 106 18.8 L 106 40 L 164 40 L 174 30 L 186 40 L 186 44 L 106 44 L 106 71.7 L 148 71.7 L 154 66.7 L 165 75.7 L 160 79.7 L 160 176.9 L 148 182.9 L 148 170.9 L 52 170.9 L 52 182.9 Z M 52 166.9 L 148 166.9 L 148 137.8 L 52 137.8 Z M 52 133.8 L 148 133.8 L 148 106.7 L 52 106.7 Z M 52 102.7 L 148 102.7 L 148 75.7 L 52 75.7 Z " />
</g>
</svg>
