<svg xmlns="http://www.w3.org/2000/svg" xmlns:xlink="http://www.w3.org/1999/xlink" version="1.1" baseProfile="full" viewBox="0 0 200 200" width="200" height="200">
<g fill="black">
<path d="M 47 189 L 47 106.1 L 43.6 114.4 L 39.6 122.9 L 35.2 131.1 L 30.5 138.8 L 25.3 146.2 L 19.7 153.1 L 13.7 159.5 L 12.2 158.4 L 16.6 150.9 L 20.8 143.3 L 24.8 135.6 L 28.4 127.6 L 31.8 119.5 L 34.9 111.1 L 37.7 102.4 L 40.1 93.4 L 42.3 84.2 L 43.4 78 L 13 78 L 13 74 L 47 74 L 47 40.4 L 41.5 41.6 L 33.3 43.2 L 24.5 44.6 L 15.2 45.8 L 14.7 44.1 L 23.6 40.9 L 32 38 L 39.8 35.2 L 47 32.6 L 53.7 30 L 59.8 27.5 L 65.3 25.1 L 70.2 22.7 L 74.5 20.4 L 77.3 18.7 L 78.2 18.2 L 79.9 21.3 L 86.2 27.5 L 86.3 30.8 L 82.6 29.3 L 79.4 30.7 L 74.4 32.6 L 68.9 34.5 L 62.9 36.3 L 59 37.4 L 59 74 L 68 74 L 78 64 L 90 74 L 90 78 L 59 78 L 59 98.3 L 63.8 99.7 L 67.4 100.9 L 70.8 102.4 L 74 104.1 L 77.2 105.9 L 80.1 107.9 L 82.9 110.1 L 85.5 112.5 L 88 115 L 89 119.4 L 86.7 123.4 L 82.3 124.4 L 78.3 122.1 L 76.9 119.7 L 75.3 117.3 L 73.6 114.9 L 71.6 112.6 L 69.4 110.3 L 67.1 108 L 64.5 105.8 L 61.7 103.5 L 59 101.4 L 59 183 Z M 78.5 187.7 L 77.4 186.2 L 87.5 176.1 L 96.6 165.3 L 104.8 153.8 L 112.2 141.5 L 118.5 128.4 L 124 114.4 L 128.5 99.5 L 132.1 83.7 L 134.8 67.1 L 136.2 52 L 114.1 52 L 111.8 59.8 L 108.4 69.1 L 104.5 77.8 L 100.1 85.7 L 95.3 92.9 L 90 99.2 L 84.1 104.6 L 82.8 103.3 L 86.9 96.9 L 90.8 90 L 94.3 82.7 L 97.5 74.8 L 100.4 66.3 L 102.9 57.2 L 105.1 47.4 L 106.9 37.1 L 108.3 26 L 109.4 14.4 L 109.6 12.2 L 121.3 15.5 L 124.1 17.8 L 120.8 19.4 L 119.6 27.6 L 117.4 39 L 115.2 48 L 172.2 48 L 178.2 43 L 189.2 52 L 184.2 55 L 184.1 55 L 184 69.6 L 183.5 87.7 L 182.7 104.2 L 181.4 119.1 L 179.9 132.4 L 178 144.1 L 175.7 154.3 L 173 163 L 169.7 170.2 L 165.8 176.1 L 164.2 177.9 L 162.4 179.6 L 160.6 181.1 L 158.6 182.4 L 156.5 183.5 L 154.3 184.4 L 152 185.1 L 149.7 185.6 L 147.3 185.9 L 144.8 186 L 144.8 180 L 124.8 177 L 124.8 174 L 144.8 174 L 146.3 173.9 L 147.7 173.7 L 149 173.4 L 150.2 173.1 L 151.4 172.6 L 152.5 172 L 153.6 171.3 L 154.6 170.5 L 155.6 169.5 L 156.6 168.4 L 159.2 164.6 L 161.7 158.8 L 164.1 151.2 L 166.2 141.8 L 168 130.7 L 169.5 117.9 L 170.7 103.4 L 171.5 87.2 L 172 69.4 L 172.2 52 L 148.3 52 L 146.1 68.7 L 142.6 86 L 138.2 102.3 L 132.7 117.7 L 126.2 132 L 118.7 145.3 L 110.2 157.6 L 100.7 168.8 L 90.1 178.8 Z " />
</g>
</svg>
