<svg xmlns="http://www.w3.org/2000/svg" xmlns:xlink="http://www.w3.org/1999/xlink" version="1.1" baseProfile="full" viewBox="0 0 200 200" width="200" height="200">
<g fill="black">
<path d="M 153.8 189 L 153.8 109.7 L 149.7 111 L 145.3 112.3 L 140.8 113.6 L 140.4 113.7 L 138.8 117.3 L 136.3 114.7 L 132.3 103.2 L 134.3 102.9 L 138.7 102.4 L 143.2 101.9 L 145.3 101.7 L 147.1 97.5 L 150.4 89.9 L 153.7 82.7 L 156.9 75.7 L 159.9 68.9 L 162.8 62.5 L 165.6 56.3 L 168.2 50.4 L 170.6 44.7 L 172.8 39.3 L 173.4 38.1 L 183.7 44.4 L 185.5 47.5 L 181.8 47.9 L 180.8 49.7 L 177.8 55.2 L 174.5 60.9 L 171.1 66.8 L 167.4 72.9 L 163.5 79.2 L 159.4 85.8 L 155.1 92.5 L 150.4 99.4 L 149.1 101.2 L 156.4 100.2 L 160.8 99.5 L 165.2 98.9 L 169.5 98.2 L 174 97.7 L 175.2 97.5 L 174.4 94.2 L 172.2 87.2 L 171 83.7 L 169.4 80.3 L 170.8 79.2 L 173.5 82 L 176.2 84.9 L 178.6 88.1 L 180.8 91.5 L 182.7 95 L 184.5 98.8 L 186 102.7 L 187.4 106.8 L 188.5 111 L 189.4 115.3 L 188.1 119.7 L 184.1 121.9 L 179.7 120.6 L 177.5 116.6 L 177.4 112.7 L 177.1 108.8 L 176.6 105.1 L 176 101.4 L 175.8 100.5 L 175 101 L 171 103 L 166.9 104.9 L 165.8 105.3 L 165.8 183 Z M 35.2 189 L 35.2 130.8 L 32 132.4 L 31.8 134 L 30.7 139.5 L 29.3 144.9 L 27.8 150.3 L 26 155.6 L 24 160.8 L 21.8 165.9 L 19.3 170.9 L 16.4 175.7 L 13.2 180.3 L 11.5 179.6 L 12.9 174.2 L 14.3 168.9 L 15.6 163.7 L 16.8 158.5 L 17.8 153.3 L 18.7 148.2 L 19.5 143 L 20.1 137.8 L 20.5 132.6 L 20.7 128.4 L 20.6 128.4 L 20.9 125.3 L 32.6 128.5 L 35.2 130.5 L 35.2 113.3 L 29.9 115 L 25.2 116.3 L 20.4 117.6 L 19.5 117.8 L 17.9 121.4 L 15.5 118.7 L 11.6 107.2 L 13.6 106.9 L 18.4 106.4 L 25.2 105.5 L 26.6 102.2 L 33 87.8 L 36.3 80.6 L 39.5 73.5 L 45.9 59.1 L 52.1 44.7 L 55.1 37.4 L 55.6 36.2 L 66 42.3 L 67.9 45.4 L 64.2 45.8 L 62.4 49.5 L 58.7 56.5 L 54.9 63.5 L 51 70.5 L 47.1 77.4 L 43 84.2 L 38.8 90.9 L 34.5 97.6 L 29.9 104.1 L 29.2 105 L 32.5 104.6 L 37.2 103.8 L 41.9 103.1 L 46.5 102.3 L 51.2 101.5 L 56.2 100.8 L 55.5 97.8 L 54.6 94.5 L 53.5 91.3 L 52.4 88.2 L 51.2 85.2 L 49.9 82.1 L 48.3 79.3 L 49.7 78.1 L 52.2 80.3 L 54.9 82.7 L 57.3 85.3 L 59.6 88.2 L 61.7 91.3 L 63.6 94.6 L 65.4 98.1 L 67 101.8 L 68.5 105.7 L 69.8 109.8 L 68.9 114.3 L 65.2 116.9 L 60.7 116 L 58.1 112.2 L 57.6 108.4 L 57 104.8 L 56.9 104.3 L 52.8 106.5 L 48.4 108.5 L 47.2 109 L 47.2 183 Z M 95.6 188.5 L 95.6 150 L 67.9 150 L 67.9 146 L 95.6 146 L 95.6 123 L 85.5 123 L 85.5 130 L 74.5 135.5 L 74.5 57.5 L 85.5 63 L 95.6 63 L 95.6 44 L 69.3 44 L 69.3 40 L 95.6 40 L 95.6 13 L 105.6 15 L 108.1 17 L 105.6 18.7 L 105.6 40 L 109.8 40 L 119.8 30 L 131.8 40 L 131.8 44 L 105.6 44 L 105.6 63 L 115.6 63 L 121.1 58 L 131.6 67 L 126.6 70.5 L 126.6 127 L 115.6 132.5 L 115.6 123 L 105.6 123 L 105.6 146 L 111.2 146 L 121.2 136 L 133.2 146 L 133.2 150 L 105.6 150 L 105.6 183.5 Z M 133.1 179.3 L 131.4 178.6 L 132.3 173.1 L 133.3 167.8 L 134.2 162.5 L 135 157.2 L 135.8 152.1 L 136.4 146.9 L 136.9 141.8 L 137.2 136.7 L 137.4 131.6 L 137.5 127.6 L 137.4 127.6 L 137.6 124.4 L 149.4 127.3 L 152.3 129.5 L 148.9 131.3 L 148.7 132.6 L 147.9 138 L 146.8 143.3 L 145.5 148.6 L 144.1 153.8 L 142.4 159.1 L 140.5 164.2 L 138.4 169.3 L 135.9 174.4 Z M 182.5 168.9 L 178.2 167.5 L 176 163.4 L 176 159.3 L 175.8 155.2 L 175.5 151.3 L 175 147.4 L 174.4 143.6 L 173.7 139.8 L 172.9 136.1 L 172 132.5 L 171 128.8 L 169.8 125.3 L 171.3 124.3 L 173.8 127.4 L 176.2 130.5 L 178.4 133.9 L 180.3 137.5 L 182.1 141.3 L 183.6 145.2 L 185 149.3 L 186.2 153.5 L 187.2 157.9 L 188 162.5 L 186.5 166.8 Z M 64.4 163.9 L 60 162.8 L 57.5 159 L 57.1 154.8 L 56.6 150.8 L 56 146.9 L 55.3 143.2 L 54.4 139.6 L 53.5 136.2 L 52.5 132.8 L 51.4 129.6 L 50.3 126.3 L 48.8 123.3 L 50.3 122.2 L 52.8 124.6 L 55.4 127.2 L 57.7 130.1 L 59.8 133.3 L 61.8 136.7 L 63.6 140.3 L 65.3 144.2 L 66.8 148.3 L 68.2 152.5 L 69.4 157 L 68.3 161.4 Z M 85.5 119 L 95.6 119 L 95.6 94 L 85.5 94 Z M 105.6 119 L 115.6 119 L 115.6 94 L 105.6 94 Z M 85.5 90 L 95.6 90 L 95.6 67 L 85.5 67 Z M 105.6 90 L 115.6 90 L 115.6 67 L 105.6 67 Z M 33.6 78.8 L 29.1 78.3 L 26.1 74.8 L 25.5 71.6 L 24.7 68.6 L 23.8 65.6 L 22.7 62.7 L 21.4 59.8 L 20 57 L 18.5 54.3 L 16.7 51.5 L 14.9 48.8 L 12.6 46.3 L 13.7 44.8 L 16.7 46.6 L 19.8 48.4 L 22.6 50.5 L 25.1 52.7 L 25.5 51.4 L 26.8 47.2 L 28.1 43.1 L 29.5 39 L 30.9 35 L 33.7 26.8 L 35 22.8 L 36.3 18.7 L 37.3 15.6 L 37.2 15.6 L 38.1 13.3 L 48.7 19.1 L 50.8 22.1 L 46.9 22.7 L 46.8 23 L 44.8 26.9 L 42.7 30.8 L 38.3 38.4 L 36 42.1 L 33.6 45.8 L 31.1 49.4 L 27 54.7 L 27.8 55.5 L 30.2 58.2 L 32.3 61.2 L 34.3 64.4 L 36.1 67.8 L 37.6 71.4 L 37.1 75.9 Z M 154.8 75.7 L 150.3 75.6 L 147 72.4 L 146.1 69.3 L 145.1 66.3 L 144 63.4 L 142.9 60.6 L 141.6 57.9 L 140.2 55.3 L 137.2 50.1 L 135.5 47.5 L 133.5 45.3 L 134.6 43.9 L 137.3 45.5 L 140.1 47.1 L 142.8 49 L 144.3 50.2 L 145.6 47.2 L 147.2 43 L 148.7 39 L 150.2 35.2 L 151.6 31.6 L 152.9 28.1 L 154.1 24.7 L 155.2 21.5 L 156.1 18.5 L 156.6 16.5 L 156.8 16.1 L 156.9 15.6 L 157 15.6 L 157.5 14.3 L 168.1 20.1 L 170.1 23.1 L 166 23.7 L 164.7 25.9 L 162.8 29 L 160.8 32.1 L 158.7 35.3 L 156.3 38.6 L 153.8 41.9 L 151.2 45.4 L 148.2 48.8 L 145.9 51.6 L 147.8 53.4 L 150.1 55.9 L 152.3 58.7 L 154.4 61.6 L 156.3 64.7 L 158.1 67.9 L 158 72.5 Z " />
</g>
</svg>
