<svg xmlns="http://www.w3.org/2000/svg" xmlns:xlink="http://www.w3.org/1999/xlink" version="1.1" baseProfile="full" viewBox="0 0 200 200" width="200" height="200">
<g fill="black">
<path d="M 44 191 L 44 107 L 56 109 L 59 111 L 56 112.8 L 56 178 L 97 178 L 97 90 L 20 90 L 20 86 L 97 86 L 97 46 L 57.9 46 L 54.8 51.1 L 50.5 57.4 L 45.7 63.5 L 40.5 69.4 L 34.8 75.1 L 28.6 80.6 L 27.3 79.3 L 31.9 72.7 L 36.3 66.1 L 40.3 59.7 L 44.1 53.3 L 47.5 46.8 L 50.5 40.4 L 53.1 33.9 L 55.4 27.5 L 57.3 21 L 58.7 15.4 L 58.6 15.4 L 59.3 12.7 L 70.5 17.4 L 72.9 20.1 L 69.2 21.2 L 68.2 24.4 L 65.4 31.3 L 62.3 38 L 60.2 42 L 147 42 L 157 32 L 169 42 L 169 46 L 109 46 L 109 86 L 162 86 L 172 76 L 184 86 L 184 90 L 109 90 L 109 126 L 151 126 L 161 116 L 173 126 L 173 130 L 109 130 L 109 178 L 162 178 L 172 168 L 184 178 L 184 182 L 56 182 L 56 185 Z " />
</g>
</svg>
