<svg xmlns="http://www.w3.org/2000/svg" xmlns:xlink="http://www.w3.org/1999/xlink" version="1.1" baseProfile="full" viewBox="0 0 200 200" width="200" height="200">
<g fill="black">
<path d="M 157 186 L 157 180 L 137 177 L 137 174 L 157 174 L 158.2 173.9 L 159.1 173.7 L 160 173.4 L 160.4 173 L 160.7 172.1 L 160.9 171.2 L 161 170 L 161 29 L 127 29 L 127 175 L 115 181 L 115 29 L 84 29 L 84 175 L 72 181 L 72 29 L 40 29 L 40 181 L 28 187 L 28 19 L 40 25 L 161 25 L 167 20 L 178 29 L 173 33 L 173 170 L 172.8 172.5 L 172.4 175 L 171.6 177.4 L 170.3 179.7 L 168.7 181.7 L 166.7 183.3 L 164.4 184.6 L 162 185.4 L 159.5 185.8 Z " />
</g>
</svg>
