<svg xmlns="http://www.w3.org/2000/svg" xmlns:xlink="http://www.w3.org/1999/xlink" version="1.1" baseProfile="full" viewBox="0 0 200 200" width="200" height="200">
<g fill="black">
<path d="M 94 190 L 94 159 L 21 159 L 21 155 L 94 155 L 94 132 L 36 132 L 36 128 L 94 128 L 94 105 L 30 105 L 30 101 L 72 101 L 69.3 97.9 L 68.7 95 L 67.8 92.1 L 66.7 89.2 L 65.4 86.2 L 63.8 83.3 L 62 80.3 L 60 77.4 L 57.7 74.3 L 55.2 71.2 L 52.2 68.3 L 53.2 67 L 19 67 L 19 63 L 94 63 L 94 40 L 31 40 L 31 36 L 94 36 L 94 14 L 106 16 L 109 18 L 106 19.8 L 106 36 L 148 36 L 158 26 L 170 36 L 170 40 L 106 40 L 106 63 L 161 63 L 171 53 L 183 63 L 183 67 L 53.7 67 L 57 68.9 L 60.6 71 L 64 73.3 L 67.1 75.8 L 70 78.5 L 72.7 81.3 L 75.1 84.3 L 77.2 87.5 L 79.1 90.8 L 80.8 94.3 L 80.3 98.8 L 77.8 101 L 118 101 L 119.1 99 L 120.9 95.5 L 122.8 92 L 124.7 88.6 L 126.6 85.3 L 128.6 81.9 L 130.5 78.5 L 136 69.2 L 135.9 69.1 L 137 67.6 L 146.3 75.2 L 147.6 78.6 L 143.7 78.3 L 141 81.3 L 138.4 84.2 L 135.7 87.2 L 133 90.1 L 130.2 92.9 L 124.6 98.3 L 121.6 100.9 L 121.5 101 L 151 101 L 161 91 L 173 101 L 173 105 L 106 105 L 106 128 L 142 128 L 152 118 L 164 128 L 164 132 L 106 132 L 106 155 L 161 155 L 171 145 L 183 155 L 183 159 L 106 159 L 106 184 Z " />
</g>
</svg>
