<svg xmlns="http://www.w3.org/2000/svg" xmlns:xlink="http://www.w3.org/1999/xlink" version="1.1" baseProfile="full" viewBox="0 0 200 200" width="200" height="200">
<g fill="black">
<path d="M 20 177 L 20 173 L 94 173 L 94 119 L 34 119 L 34 115 L 94 115 L 94 68 L 28 68 L 28 64 L 149 64 L 159 54 L 171 64 L 171 68 L 106 68 L 106 115 L 142 115 L 152 105 L 164 115 L 164 119 L 106 119 L 106 173 L 158 173 L 168 163 L 180 173 L 180 177 Z M 111.6 61.6 L 110.3 60.3 L 113.9 55.2 L 117.4 50.3 L 120.8 45.8 L 124.1 41.5 L 127.2 37.5 L 130.1 33.7 L 132.8 30.2 L 135.3 26.8 L 137.6 23.7 L 139.7 20.8 L 140.1 20.4 L 148.9 28.6 L 149.8 32.1 L 146 31.4 L 143.3 34 L 140.3 36.9 L 136.9 40 L 133.4 43.3 L 129.6 46.7 L 125.6 50.3 L 121.3 54 L 116.6 57.7 Z M 77 60.8 L 72.4 60.5 L 69.3 57.2 L 68.5 54.2 L 67.4 51.1 L 66.2 48 L 64.8 44.9 L 63.2 41.7 L 61.4 38.6 L 59.3 35.3 L 57.1 32 L 54.8 28.6 L 52.1 25.3 L 53.3 23.9 L 56.9 26.4 L 60.4 28.8 L 63.7 31.4 L 66.8 34.2 L 69.6 37.1 L 72.2 40.1 L 74.6 43.2 L 76.8 46.4 L 78.8 49.7 L 80.5 53.1 L 80.3 57.6 Z " />
</g>
</svg>
