<svg xmlns="http://www.w3.org/2000/svg" xmlns:xlink="http://www.w3.org/1999/xlink" version="1.1" baseProfile="full" viewBox="0 0 200 200" width="200" height="200">
<g fill="black">
<path d="M 157 189 L 157 183 L 137 180 L 137 177 L 157 177 L 158.2 176.9 L 159.1 176.7 L 160 176.4 L 160.4 176 L 160.7 175.1 L 160.9 174.2 L 161 173 L 161 54.9 L 127 54.9 L 127 178.3 L 115 184.3 L 115 54.9 L 84 54.9 L 84 178.3 L 72 184.3 L 72 54.9 L 40 54.9 L 40 183.4 L 28 189.4 L 28 44.9 L 40 50.9 L 82.2 50.9 L 82.7 49.5 L 84.1 45.5 L 85.6 41.5 L 87.2 37.5 L 88.7 33.6 L 93.2 21.6 L 94.6 17.6 L 95.7 14.4 L 95.6 14.4 L 96.6 12.2 L 107.1 18.2 L 109 21.3 L 105.2 21.8 L 105 22.2 L 102.8 26 L 100.6 29.9 L 96 37.3 L 93.5 40.9 L 91 44.4 L 88.4 47.9 L 85.9 50.9 L 161 50.9 L 167 45.9 L 178 54.9 L 173 58.9 L 173 173 L 172.8 175.5 L 172.4 178 L 171.6 180.4 L 170.3 182.7 L 168.7 184.7 L 166.7 186.3 L 164.4 187.6 L 162 188.4 L 159.5 188.8 Z " />
</g>
</svg>
