<svg xmlns="http://www.w3.org/2000/svg" xmlns:xlink="http://www.w3.org/1999/xlink" version="1.1" baseProfile="full" viewBox="0 0 200 200" width="200" height="200">
<g fill="black">
<path d="M 140.1 186.1 L 140.1 180.1 L 122.1 177.1 L 122.1 174.1 L 141.3 174.1 L 142.2 173.9 L 142.8 173.7 L 143.1 173.5 L 143.3 173.4 L 143.5 173.2 L 143.7 172.9 L 143.8 172.3 L 144 171.4 L 144.1 170.1 L 144.1 149.5 L 58.8 149.5 L 58.8 181.1 L 46.8 187.1 L 46.8 88 L 58.8 94 L 144.1 94 L 150.1 89 L 161.1 98 L 156.1 102 L 156.1 170.1 L 155.9 172.7 L 155.5 175.2 L 154.7 177.6 L 153.5 179.9 L 151.8 181.9 L 149.8 183.5 L 147.5 184.7 L 145.1 185.6 L 142.6 186 Z M 58.8 145.5 L 144.1 145.5 L 144.1 123.7 L 58.8 123.7 Z M 58.8 119.7 L 144.1 119.7 L 144.1 98 L 58.8 98 Z M 17 78.1 L 17 74.1 L 118 74.1 L 120 70.8 L 122.4 66.3 L 124.8 62.1 L 127 58.1 L 129 54.3 L 130.8 50.8 L 132.5 47.5 L 133.9 44.4 L 135.1 41.5 L 135.8 39.8 L 135.7 39.8 L 136.7 37.9 L 146.8 44.4 L 148.6 47.6 L 144.4 47.8 L 143 49.8 L 140.8 52.7 L 138.3 55.7 L 135.7 58.9 L 132.8 62.2 L 129.7 65.6 L 126.3 69.2 L 122.5 72.8 L 121.2 74.1 L 165 74.1 L 175 64.1 L 187 74.1 L 187 78.1 Z M 78.9 71.7 L 74.3 71.3 L 71.3 67.9 L 70.7 65.1 L 69.9 62.3 L 68.9 59.6 L 67.7 56.8 L 66.3 54.1 L 64.8 51.3 L 63 48.6 L 61 45.8 L 58.8 42.9 L 56.2 40.3 L 57.3 38.8 L 63.9 42.6 L 67 44.7 L 69.8 46.9 L 72.5 49.4 L 74.9 52 L 77.2 54.8 L 79.3 57.7 L 81.1 60.8 L 82.7 64.1 L 82.3 68.6 Z M 28 36.4 L 28 32.4 L 96 32.4 L 96 11.7 L 108 13.7 L 111 15.7 L 108 17.5 L 108 32.4 L 154 32.4 L 164 22.4 L 176 32.4 L 176 36.4 Z " />
</g>
</svg>
