<svg xmlns="http://www.w3.org/2000/svg" xmlns:xlink="http://www.w3.org/1999/xlink" version="1.1" baseProfile="full" viewBox="0 0 200 200" width="200" height="200">
<g fill="black">
<path d="M 94 189 L 94 144 L 20 144 L 20 140 L 94 140 L 94 108.1 L 35.9 108.1 L 35.9 104.1 L 94 104.1 L 94 74.5 L 16.5 74.5 L 16.5 70.5 L 94 70.5 L 94 42.9 L 37.8 42.9 L 37.8 38.9 L 94 38.9 L 94 13 L 106 15 L 109 17 L 106 18.8 L 106 38.9 L 146.3 38.9 L 152.3 33.9 L 163.3 42.9 L 158.3 46.9 L 158.3 70.5 L 163.3 70.5 L 173.3 60.5 L 185.3 70.5 L 185.3 74.5 L 158.3 74.5 L 158.3 114.1 L 146.3 120.1 L 146.3 108.1 L 106 108.1 L 106 140 L 158 140 L 168 130 L 180 140 L 180 144 L 106 144 L 106 183 Z M 106 104.1 L 146.3 104.1 L 146.3 74.5 L 106 74.5 Z M 106 70.5 L 146.3 70.5 L 146.3 42.9 L 106 42.9 Z " />
</g>
</svg>
