<svg xmlns="http://www.w3.org/2000/svg" xmlns:xlink="http://www.w3.org/1999/xlink" version="1.1" baseProfile="full" viewBox="0 0 200 200" width="200" height="200">
<g fill="black">
<path d="M 49 189 L 49 55 L 61 61 L 78.8 61 L 79.8 58.7 L 82.6 51.3 L 84.1 47.7 L 85.4 44.1 L 86.8 40.5 L 88 37 L 89.2 33.6 L 90 31 L 21 31 L 21 27 L 157 27 L 167 17 L 179 27 L 179 31 L 102.6 31 L 102.5 31.2 L 100.7 34.6 L 98.8 37.9 L 96.8 41.3 L 94.7 44.6 L 92.5 47.8 L 90.2 51 L 87.7 54.2 L 85.2 57.3 L 82.4 60.4 L 81.9 61 L 140 61 L 146 56 L 157 65 L 152 69 L 152 180 L 140 186 L 140 176 L 61 176 L 61 183 Z M 61 172 L 140 172 L 140 136 L 61 136 Z M 61 132 L 140 132 L 140 100 L 61 100 Z M 61 96 L 140 96 L 140 65 L 61 65 Z " />
</g>
</svg>
