<svg xmlns="http://www.w3.org/2000/svg" xmlns:xlink="http://www.w3.org/1999/xlink" version="1.1" baseProfile="full" viewBox="0 0 200 200" width="200" height="200">
<g fill="black">
<path d="M 30.4 188 L 30.4 40.8 L 40.5 45.9 L 42.3 45 L 48.3 42.1 L 54.3 39.3 L 60.2 36.6 L 66 33.8 L 77.4 28.2 L 82.9 25.3 L 88.3 22.4 L 92.8 19.9 L 93.6 19.4 L 94.9 21.9 L 101.9 28.6 L 102.1 31.9 L 98.3 30.4 L 93.3 32.6 L 87.4 35 L 81.4 37.4 L 75.4 39.6 L 69.2 41.7 L 62.9 43.7 L 56.6 45.5 L 50.1 47.2 L 43.4 48.6 L 42.4 48.8 L 42.4 103.2 L 70.9 103.2 L 80.9 93.2 L 92.9 103.2 L 92.9 107.2 L 42.4 107.2 L 42.4 166 L 70.9 166 L 80.9 156 L 92.9 166 L 92.9 170 L 42.4 170 L 42.4 182 Z M 158 182 L 158 170 L 107 170 L 107 166 L 158 166 L 158 107 L 107 107 L 107 103 L 158 103 L 158 48 L 102 48 L 102 44 L 158 44 L 164 39 L 175 48 L 170 52 L 170 176 Z " />
</g>
</svg>
