<svg xmlns="http://www.w3.org/2000/svg" xmlns:xlink="http://www.w3.org/1999/xlink" version="1.1" baseProfile="full" viewBox="0 0 200 200" width="200" height="200">
<g fill="black">
<path d="M 25 181.9 L 25 90.9 L 37 96.9 L 163 96.9 L 169 91.9 L 180 100.9 L 175 104.9 L 175 169.9 L 163 175.9 L 163 163.9 L 37 163.9 L 37 175.9 Z M 37 159.9 L 71 159.9 L 71 100.9 L 37 100.9 Z M 83 159.9 L 117 159.9 L 117 100.9 L 83 100.9 Z M 129 159.9 L 163 159.9 L 163 100.9 L 129 100.9 Z M 66 90.6 L 66 58.1 L 13 58.1 L 13 54.1 L 66 54.1 L 66 22.3 L 78 24.3 L 81 26.3 L 78 28.1 L 78 54.1 L 122 54.1 L 122 22.3 L 134 24.3 L 137 26.3 L 134 28.1 L 134 54.1 L 165 54.1 L 175 44.1 L 187 54.1 L 187 58.1 L 134 58.1 L 134 84.6 L 122 90.6 L 122 58.1 L 78 58.1 L 78 84.6 Z " />
</g>
</svg>
