<svg xmlns="http://www.w3.org/2000/svg" xmlns:xlink="http://www.w3.org/1999/xlink" version="1.1" baseProfile="full" viewBox="0 0 200 200" width="200" height="200">
<g fill="black">
<path d="M 15 182 L 15 178 L 94 178 L 94 154 L 35 154 L 35 150 L 94 150 L 94 126 L 25 126 L 25 122 L 94 122 L 94 98 L 51 98 L 51 105 L 39 111 L 39 60 L 51 66 L 149 66 L 155 61 L 166 70 L 161 74 L 161 102 L 149 108 L 149 98 L 106 98 L 106 122 L 153 122 L 163 112 L 175 122 L 175 126 L 106 126 L 106 150 L 143 150 L 153 140 L 165 150 L 165 154 L 106 154 L 106 178 L 163 178 L 173 168 L 185 178 L 185 182 Z M 51 94 L 94 94 L 94 70 L 51 70 Z M 106 94 L 149 94 L 149 70 L 106 70 Z M 66 60.3 L 66 37.7 L 13 37.7 L 13 33.7 L 66 33.7 L 66 12.2 L 78 14.2 L 81 16.2 L 78 18 L 78 33.7 L 122 33.7 L 122 12.2 L 134 14.2 L 137 16.2 L 134 18 L 134 33.7 L 165 33.7 L 175 23.7 L 187 33.7 L 187 37.7 L 134 37.7 L 134 54.3 L 122 60.3 L 122 37.7 L 78 37.7 L 78 54.3 Z " />
</g>
</svg>
