<svg xmlns="http://www.w3.org/2000/svg" xmlns:xlink="http://www.w3.org/1999/xlink" version="1.1" baseProfile="full" viewBox="0 0 200 200" width="200" height="200">
<g fill="black">
<path d="M 14.1 185.8 L 13.8 184.1 L 29.9 180.5 L 44.1 176.2 L 56.5 171 L 67 164.9 L 75.7 158 L 82.6 150.2 L 87.8 141.6 L 88.8 139 L 18 139 L 18 135 L 90.3 135 L 91.4 132.1 L 93.5 121.6 L 93.7 116 L 30 116 L 30 112 L 93.9 112 L 94 110 L 94 94 L 50 94 L 50 97 L 38 103 L 38 55 L 50 61 L 150 61 L 156 56 L 167 65 L 162 69 L 162 96 L 150 102 L 150 94 L 106 94 L 106 110 L 105.8 112 L 151.8 112 L 160 103 L 170 112 L 170 116 L 105.4 116 L 104.7 123.2 L 101.7 135 L 160 135 L 170 125 L 182 135 L 182 139 L 107 139 L 110.7 142.7 L 116.3 147.7 L 122.2 152.2 L 128.5 156.4 L 135.2 160.1 L 142.4 163.4 L 150 166.3 L 158.2 168.8 L 166.9 170.8 L 176.1 172.5 L 185.6 174.2 L 173.8 185.4 L 163.9 183 L 154.7 180.1 L 146 176.6 L 137.9 172.7 L 130.5 168.2 L 123.7 163.2 L 117.5 157.8 L 112.1 151.8 L 107.4 145.3 L 104.2 139 L 100 139 L 96.6 146.4 L 89.8 156.1 L 81.2 164.4 L 71 171.4 L 59.1 177 L 45.7 181.3 L 30.7 184.3 Z M 50 90 L 94 90 L 94 65 L 50 65 Z M 106 90 L 150 90 L 150 65 L 106 65 Z M 66 56.8 L 66 36 L 13 36 L 13 32 L 66 32 L 66 12.3 L 78 14.3 L 81 16.3 L 78 18.1 L 78 32 L 122 32 L 122 12.3 L 134 14.3 L 137 16.3 L 134 18.1 L 134 32 L 165 32 L 175 22 L 187 32 L 187 36 L 134 36 L 134 50.8 L 122 56.8 L 122 36 L 78 36 L 78 50.8 Z " />
</g>
</svg>
