<svg xmlns="http://www.w3.org/2000/svg" xmlns:xlink="http://www.w3.org/1999/xlink" version="1.1" baseProfile="full" viewBox="0 0 200 200" width="200" height="200">
<g fill="black">
<path d="M 172.7 187.7 L 169.2 184.8 L 167.2 180.5 L 164.8 176.4 L 162.1 172.3 L 159 168.2 L 156.9 165.9 L 147.5 167.9 L 134.6 170.3 L 121.3 172.4 L 107.9 174.4 L 94.1 176.2 L 80.1 177.8 L 65.8 179.3 L 51.2 180.7 L 36.3 181.9 L 25.3 182.7 L 23.4 185.9 L 21.2 183 L 18.7 171.1 L 20.6 171 L 35.7 170.5 L 50.5 169.9 L 65 169.3 L 79.3 168.5 L 93.3 167.7 L 94 167.7 L 94 136.8 L 51 136.8 L 51 148.8 L 39 154.8 L 39 96.1 L 51 102.1 L 94 102.1 L 94 83.9 L 106 85.9 L 109 87.9 L 106 89.7 L 106 102.1 L 149 102.1 L 155 97.1 L 166 106.1 L 161 110.1 L 161 136.8 L 149 142.8 L 149 136.8 L 106 136.8 L 106 166.9 L 107.1 166.8 L 120.6 165.9 L 133.9 165 L 147 164.1 L 154.9 163.7 L 151.6 160.4 L 147.4 156.6 L 142.7 152.8 L 137.8 149 L 132.4 145 L 133.2 143.4 L 139.6 145.6 L 145.6 148.2 L 151.1 151.2 L 156.3 154.5 L 161.2 158 L 165.7 161.8 L 169.8 165.8 L 173.6 170.1 L 176.9 174.6 L 179.9 179.4 L 180.2 183.9 L 177.3 187.4 Z M 51 132.8 L 94 132.8 L 94 106.1 L 51 106.1 Z M 106 132.8 L 149 132.8 L 149 106.1 L 106 106.1 Z M 171 96.7 L 155.1 93.5 L 140.2 89.3 L 126.2 84.1 L 113.3 78 L 101.4 70.9 L 101.3 70.8 L 100.1 71.5 L 86.3 78.1 L 71.3 83.7 L 55.1 88.2 L 37.7 91.7 L 19.1 94 L 18.8 92.2 L 36.9 88 L 53.7 83.1 L 69.1 77.5 L 83.1 71.2 L 93.8 65.3 L 90.5 62.9 L 80.8 53.9 L 72.1 44 L 64.7 33.2 L 59.3 22.6 L 34 22.6 L 34 18.6 L 139 18.6 L 139.4 18.2 L 139.7 17.8 L 139.9 17.9 L 145 13.6 L 156 22.6 L 151 25.6 L 148 26.9 L 142.8 35 L 134 45.7 L 123.9 55.3 L 112.6 63.9 L 110.6 65.1 L 117.8 68.8 L 130.2 73.8 L 143.5 78 L 157.8 81.2 L 172.9 83.6 L 182.8 85.1 Z M 101.7 60.1 L 107.2 56.4 L 117.2 47.9 L 126 38.6 L 133.4 28.5 L 136.9 22.6 L 61.8 22.6 L 68.1 30.8 L 76.6 40.2 L 85.7 48.7 L 95.6 56.3 Z " />
</g>
</svg>
