<svg xmlns="http://www.w3.org/2000/svg" xmlns:xlink="http://www.w3.org/1999/xlink" version="1.1" baseProfile="full" viewBox="0 0 200 200" width="200" height="200">
<g fill="black">
<path d="M 28.7 188.7 L 26.5 185.8 L 23.4 174.1 L 25.4 173.9 L 38.9 173 L 52.5 172.1 L 79.9 170.5 L 93.8 169.7 L 95 169.6 L 95 137 L 53 137 L 53 149 L 41 155 L 41 92 L 53 98 L 95 98 L 95 73 L 107 75 L 110 77 L 107 78.8 L 107 98 L 150 98 L 156 93 L 167 102 L 162 106 L 162 137 L 150 143 L 150 137 L 107 137 L 107 169 L 107.8 169 L 121.9 168.3 L 136.1 167.7 L 150.4 167.3 L 157.6 167.2 L 157.4 166.9 L 154.1 163.3 L 150.4 159.7 L 146.4 156 L 142.1 152.2 L 137.4 148.2 L 138.3 146.7 L 144.1 149 L 149.5 151.6 L 154.4 154.5 L 159.1 157.6 L 163.3 160.8 L 167.2 164.3 L 170.7 167.9 L 173.9 171.7 L 176.7 175.6 L 179.2 179.7 L 179.3 184.3 L 176.2 187.7 L 171.6 187.8 L 168.2 184.7 L 166.8 181.2 L 165 177.7 L 162.9 174.1 L 160.3 170.5 L 159.6 169.6 L 150.8 171 L 136.6 173 L 122.5 174.8 L 108.5 176.5 L 94.6 178.2 L 80.7 179.7 L 67 181.3 L 53.4 182.8 L 39.9 184.3 L 30.5 185.3 Z M 53 133 L 95 133 L 95 102 L 53 102 Z M 107 133 L 150 133 L 150 102 L 107 102 Z M 166.1 80.7 L 162.3 78.2 L 159.1 72.9 L 155.7 67.8 L 152.1 62.9 L 149.8 60.2 L 141.7 62 L 128.5 64.6 L 115.5 66.9 L 102.6 69 L 89.9 70.8 L 77.4 72.5 L 65.1 74.1 L 53 75.4 L 41 76.6 L 33.4 77.3 L 31.5 80.6 L 29.3 77.7 L 26.6 65.8 L 28.6 65.7 L 40.3 65.3 L 52.1 64.7 L 62.4 64.2 L 63.7 61.3 L 66.2 56.1 L 68.8 51 L 71.3 45.9 L 73.7 40.9 L 75.9 35.8 L 78.1 30.8 L 80.2 25.7 L 82.2 20.7 L 83.7 16.6 L 83.6 16.6 L 84.6 14.4 L 95.1 20.3 L 97.1 23.3 L 93.3 23.8 L 92.6 25.3 L 89.9 30.3 L 87.1 35.3 L 84.2 40.2 L 81.1 45 L 77.8 49.8 L 74.4 54.5 L 70.7 59 L 66.9 63.5 L 66.4 64 L 76.5 63.3 L 89 62.4 L 101.7 61.4 L 114.6 60.4 L 127.8 59.3 L 141.2 58.2 L 147.8 57.7 L 144.1 53.5 L 139.8 49.1 L 135.2 44.7 L 130.5 40.5 L 125.5 36.3 L 120.4 32 L 121.3 30.4 L 127.5 33 L 133.5 36.1 L 139.2 39.5 L 144.7 43.3 L 149.9 47.4 L 154.9 51.7 L 159.6 56.3 L 164.1 61.2 L 168.4 66.3 L 172.4 71.7 L 173.1 76.2 L 170.6 80 Z " />
</g>
</svg>
