<svg xmlns="http://www.w3.org/2000/svg" xmlns:xlink="http://www.w3.org/1999/xlink" version="1.1" baseProfile="full" viewBox="0 0 200 200" width="200" height="200">
<g fill="black">
<path d="M 30.5 186.6 L 27.7 184.4 L 22.2 173.5 L 24.1 172.9 L 32.7 170.4 L 41.4 167.8 L 50 165.1 L 50 92.6 L 44.2 97.6 L 33.7 105.5 L 22.8 112.6 L 11.4 118.7 L 10.5 117.2 L 20.7 109.5 L 30.4 101.3 L 39.8 92.7 L 48.8 83.6 L 50 82.2 L 50 82 L 50.2 82 L 57.4 73.8 L 65.6 63.5 L 73.3 52.6 L 80.7 41.1 L 87.6 28.9 L 94.1 16.1 L 94.2 16.1 L 94.7 15.1 L 104.8 21.6 L 106.6 24.7 L 102.9 25 L 99.1 31.6 L 101.3 40.5 L 106.5 57.3 L 112.6 73.1 L 119.8 88.2 L 124.9 97 L 126 95.7 L 130.5 90.3 L 135 85 L 139.4 79.8 L 143.7 74.6 L 147.7 69.3 L 151.7 64.1 L 155.4 58.8 L 159 53.6 L 162 49.1 L 161.9 49.1 L 163 47.6 L 172.3 55.2 L 173.6 58.6 L 169.8 58.3 L 168.2 60.4 L 163.9 65.5 L 159.4 70.5 L 154.8 75.4 L 150 80.3 L 144.9 85 L 139.7 89.7 L 134.3 94.2 L 128.6 98.5 L 126.6 99.9 L 128 102.3 L 137.3 115.6 L 147.7 128 L 159.3 139.7 L 171.9 150.5 L 185.7 160.5 L 189.2 162.9 L 178.2 171.4 L 164 160.2 L 151 148.1 L 139.4 135.3 L 129 121.6 L 120 107.1 L 112.2 91.8 L 105.8 75.8 L 100.8 58.9 L 97.2 41.4 L 96.6 35.9 L 89.7 46.8 L 81.5 58.4 L 72.9 69.3 L 63.8 79.5 L 61.2 82 L 62 82 L 62 161.3 L 67.7 159.4 L 76.5 156.4 L 94.3 150.2 L 103.4 147.2 L 112.6 144.1 L 113.3 145.8 L 104.9 150.6 L 96.4 155.2 L 87.9 159.4 L 79.3 163.5 L 70.7 167.3 L 62.1 171 L 53.5 174.6 L 44.9 178 L 31.6 183 Z " />
</g>
</svg>
