<svg xmlns="http://www.w3.org/2000/svg" xmlns:xlink="http://www.w3.org/1999/xlink" version="1.1" baseProfile="full" viewBox="0 0 200 200" width="200" height="200">
<g fill="black">
<path d="M 57.1 183.1 L 54.5 180.6 L 50.1 169.3 L 52.1 168.9 L 61.4 167.2 L 61.5 167.2 L 61.5 101 L 73.5 103 L 76.5 105 L 73.5 106.8 L 73.5 164.8 L 79.9 163.5 L 89.2 161.6 L 94.1 160.5 L 94.1 80 L 73.5 80 L 73.5 83 L 61.5 89 L 61.5 22 L 73.5 28 L 123.3 28 L 129.3 23 L 140.3 32 L 135.3 36 L 135.3 86 L 123.3 92 L 123.3 80 L 106.1 80 L 106.1 117 L 124.2 117 L 132.4 108 L 142.4 117 L 142.4 121 L 106.1 121 L 106.1 157.8 L 107.5 157.5 L 116.7 155.3 L 125.9 153.2 L 135 151.1 L 144.2 149.1 L 144.8 150.8 L 136.2 154.7 L 127.4 158.3 L 118.6 161.6 L 109.6 164.8 L 100.6 167.7 L 91.5 170.6 L 82.3 173.3 L 63.9 178.3 L 58.5 179.6 Z M 73.5 76 L 123.3 76 L 123.3 32 L 73.5 32 Z " />
</g>
</svg>
