<svg xmlns="http://www.w3.org/2000/svg" xmlns:xlink="http://www.w3.org/1999/xlink" version="1.1" baseProfile="full" viewBox="0 0 200 200" width="200" height="200">
<g fill="black">
<path d="M 53.7 189 L 53.7 150 L 11.6 150 L 11.6 146 L 53.7 146 L 53.7 123 L 35.3 123 L 35.3 130 L 23.3 136 L 23.3 57 L 35.3 63 L 53.7 63 L 53.7 44 L 13.7 44 L 13.7 40 L 53.7 40 L 53.7 13 L 65.7 15 L 68.7 17 L 65.7 18.8 L 65.7 40 L 83.6 40 L 93.6 30 L 105.6 40 L 105.6 44 L 65.7 44 L 65.7 63 L 84 63 L 90 58 L 101 67 L 96 71 L 96 127 L 84 133 L 84 123 L 65.7 123 L 65.7 146 L 85.7 146 L 95.7 136 L 107.7 146 L 107.7 150 L 65.7 150 L 65.7 183 Z M 35.3 119 L 53.7 119 L 53.7 94 L 35.3 94 Z M 65.7 119 L 84 119 L 84 94 L 65.7 94 Z M 162.1 116 L 162.1 110 L 146.1 107 L 146.1 104 L 162.1 104 L 163.3 103.9 L 164.2 103.7 L 165.1 103.4 L 165.5 103 L 165.7 102.7 L 165.8 102.1 L 166 101.2 L 166.1 100 L 166.1 32 L 125.2 32 L 125.2 164.2 L 125.4 165.1 L 125.7 166 L 126.1 166.4 L 127 166.7 L 127.9 166.9 L 129.2 167 L 176.4 167 L 182.2 142 L 184.2 142 L 182.3 167.1 L 185.7 169.4 L 188.2 173 L 185.7 176.6 L 182.2 179 L 129.2 179 L 126.6 178.8 L 124.1 178.4 L 121.7 177.6 L 119.4 176.3 L 117.4 174.7 L 115.8 172.7 L 114.5 170.4 L 113.7 168 L 113.3 165.5 L 113.2 163 L 113.2 22 L 125.2 28 L 166.1 28 L 172.1 23 L 183.1 32 L 178.1 36 L 178.1 100 L 177.9 102.5 L 177.5 105 L 176.7 107.4 L 175.5 109.7 L 173.8 111.7 L 171.8 113.3 L 169.5 114.6 L 167.1 115.4 L 164.6 115.8 Z M 35.3 90 L 53.7 90 L 53.7 67 L 35.3 67 Z M 65.7 90 L 84 90 L 84 67 L 65.7 67 Z " />
</g>
</svg>
