<svg xmlns="http://www.w3.org/2000/svg" xmlns:xlink="http://www.w3.org/1999/xlink" version="1.1" baseProfile="full" viewBox="0 0 200 200" width="200" height="200">
<g fill="black">
<path d="M 65.4 189 L 65.4 71 L 77.4 77 L 119.4 77 L 125.4 72 L 136.4 81 L 131.4 85 L 131.4 127 L 119.4 133 L 119.4 125 L 77.4 125 L 77.4 145 L 122.2 145 L 130.4 136 L 140.4 145 L 140.4 149 L 77.4 149 L 77.4 168 L 119.5 168 L 129.5 158 L 141.5 168 L 141.5 172 L 77.4 172 L 77.4 183 Z M 77.4 121 L 119.4 121 L 119.4 102 L 77.4 102 Z M 77.4 98 L 119.4 98 L 119.4 81 L 77.4 81 Z M 45.5 86.6 L 44.3 85.3 L 50 78.8 L 55.5 72.3 L 61 65.7 L 66.4 58.8 L 71.6 51.8 L 76.7 44.5 L 81.7 37 L 86.4 29.2 L 91.1 21.2 L 95.5 12.9 L 96.1 11.9 L 106 18.8 L 107.6 22 L 103.9 22.1 L 101.8 25.5 L 103.7 26 L 109.2 27.9 L 114.4 30 L 119.2 32.3 L 123.7 34.8 L 127.8 37.5 L 131.7 40.4 L 135.2 43.4 L 138.5 46.7 L 141.4 50.1 L 142.2 54.6 L 139.7 58.4 L 135.2 59.3 L 131.4 56.8 L 129.6 53.7 L 127.4 50.7 L 124.9 47.6 L 122 44.6 L 118.7 41.6 L 115.1 38.6 L 111.1 35.5 L 106.8 32.5 L 102.2 29.4 L 100.1 28.1 L 95.5 35 L 89.9 42.7 L 84.2 50 L 78.3 57.1 L 72.2 63.8 L 65.9 70.1 L 59.3 76.1 L 52.6 81.6 Z M 78.3 63 L 78.3 59 L 108.4 59 L 116.6 50 L 126.6 59 L 126.6 63 Z " />
</g>
</svg>
