<svg xmlns="http://www.w3.org/2000/svg" xmlns:xlink="http://www.w3.org/1999/xlink" version="1.1" baseProfile="full" viewBox="0 0 200 200" width="200" height="200">
<g fill="black">
<path d="M 170.7 186.1 L 160.7 184.1 L 151.3 181.5 L 142.6 178.2 L 134.6 174.2 L 127.3 169.5 L 120.7 164.3 L 114.9 158.4 L 110 151.8 L 105.9 144.7 L 102.9 136.9 L 103.3 136.7 L 98.3 136.7 L 93 146.7 L 85.9 156.2 L 77.6 164.4 L 68 171.4 L 57.3 177 L 45.4 181.4 L 32.4 184.3 L 18.3 185.9 L 18 184.2 L 31.5 180.6 L 43.6 176.3 L 54.3 171.1 L 63.7 165.1 L 71.8 158.1 L 78.7 150.3 L 84.3 141.5 L 86.5 136.7 L 18.2 136.7 L 18.2 132.7 L 88.4 132.7 L 88.8 131.8 L 92.2 121 L 94.4 109.2 L 94.7 107.2 L 106.2 111 L 108.9 113.5 L 105.2 115 L 103.1 124 L 99.9 132.7 L 159.8 132.7 L 169.8 122.7 L 181.8 132.7 L 181.8 136.7 L 105 136.7 L 109.4 142.4 L 114.6 148.1 L 120 153.2 L 125.9 157.7 L 132.3 161.7 L 139.2 165 L 146.6 167.8 L 154.6 170.1 L 163.2 171.8 L 172.4 173 L 182.5 174.3 Z M 43.6 124.7 L 43.6 53 L 41.1 54.8 L 34.2 59.2 L 26.7 63.3 L 18.6 67 L 17.7 65.5 L 24.6 60.1 L 31.1 54.8 L 37.1 49.6 L 42.7 44.4 L 47.8 39.3 L 52.4 34.1 L 56.5 28.9 L 60.2 23.8 L 63.3 18.6 L 66 13.4 L 66.5 12.4 L 76.6 19.1 L 78.3 22.2 L 74.4 22.4 L 72.9 24.7 L 71.2 27 L 113.7 27 L 114.3 26.5 L 114.9 25.5 L 115.2 25.7 L 119.7 22 L 130.7 31 L 125.7 34 L 121.3 35.8 L 120.1 37 L 117.7 39.3 L 115.2 41.6 L 112.5 44 L 109.7 46.4 L 106.7 48.8 L 103.6 51.2 L 100.6 53.3 L 144.3 53.3 L 150.3 48.3 L 161.3 57.3 L 156.3 61.3 L 156.3 112.7 L 144.3 118.7 L 144.3 106.7 L 55.6 106.7 L 55.6 118.7 Z M 55.6 102.7 L 94 102.7 L 94 81.6 L 55.6 81.6 Z M 106 102.7 L 144.3 102.7 L 144.3 81.6 L 106 81.6 Z M 55.6 77.6 L 94 77.6 L 94 57.3 L 55.6 57.3 Z M 106 77.6 L 144.3 77.6 L 144.3 57.3 L 106 57.3 Z M 55.6 53.3 L 96.9 53.3 L 98.1 51.6 L 100.3 48.2 L 102.5 44.9 L 104.6 41.8 L 106.7 38.8 L 108.5 35.9 L 110.3 33.1 L 111.7 31 L 68 31 L 64.2 35.4 L 59.2 40.5 L 53.6 45.4 L 48.3 49.6 Z " />
</g>
</svg>
