<svg xmlns="http://www.w3.org/2000/svg" xmlns:xlink="http://www.w3.org/1999/xlink" version="1.1" baseProfile="full" viewBox="0 0 200 200" width="200" height="200">
<g fill="black">
<path d="M 14.2 185.8 L 13.7 184.1 L 23 179.3 L 31.3 174.1 L 38.5 168.5 L 44.5 162.4 L 49.5 155.9 L 53.5 148.9 L 56.6 141.3 L 58.6 133.2 L 59.8 124.4 L 60 115 L 60 68 L 72 70 L 75 72 L 72 73.8 L 72 115 L 71.1 125.6 L 69.1 135.6 L 66 144.8 L 61.7 153.3 L 56.4 161 L 49.9 167.8 L 42.5 173.7 L 34 178.7 L 24.6 182.7 Z M 136 179 L 133.4 178.8 L 130.9 178.4 L 128.5 177.6 L 126.2 176.3 L 124.2 174.7 L 122.6 172.7 L 121.3 170.4 L 120.5 168 L 120.1 165.5 L 120 163 L 120 68 L 132 70 L 135 72 L 132 73.8 L 132 164.2 L 132.2 165.1 L 132.5 166 L 132.9 166.4 L 133.8 166.7 L 134.7 166.9 L 136 167 L 174.2 167 L 180 142 L 182 142 L 180.1 167 L 183.6 169.4 L 186 173 L 183.6 176.6 L 180 179 Z M 17.4 67.5 L 13.5 65.1 L 12.5 60.6 L 14.9 56.7 L 16.9 55.4 L 18.9 53.6 L 20.8 51.2 L 22.7 48.1 L 24.3 44.5 L 25.8 40.3 L 27.1 35.4 L 28.2 30 L 29.3 23.9 L 30.1 17.3 L 31.9 17.3 L 32.8 24 L 33.2 28.7 L 170 28.7 L 170.4 28.3 L 170.6 27.9 L 170.8 28 L 176 23.7 L 187 32.7 L 182 35.7 L 178.7 37.1 L 177.8 38.3 L 175.8 40.8 L 173.6 43.5 L 171.3 46.3 L 168.7 49.2 L 166 52.2 L 163.1 55.4 L 159.9 58.5 L 156.7 62 L 155.2 60.9 L 157.5 56.8 L 159.4 52.8 L 161.2 49 L 163 45.4 L 164.6 42 L 166.1 38.8 L 167.5 35.8 L 168.7 33 L 168.8 32.7 L 33.3 32.7 L 33.4 36.2 L 33 41.7 L 32.3 46.8 L 31.2 51.5 L 29.6 55.9 L 27.5 59.8 L 25 63.4 L 21.9 66.5 Z " />
</g>
</svg>
