<svg xmlns="http://www.w3.org/2000/svg" xmlns:xlink="http://www.w3.org/1999/xlink" version="1.1" baseProfile="full" viewBox="0 0 200 200" width="200" height="200">
<g fill="black">
<path d="M 172.9 186.7 L 156.7 184.2 L 141.6 180.8 L 127.4 176.4 L 114.3 171.1 L 102.3 164.9 L 100.4 165.9 L 86.5 172 L 71.3 177.1 L 54.9 181.3 L 37.2 184.4 L 18.4 186.5 L 18.1 184.7 L 36.5 180.7 L 53.5 176.1 L 69.2 170.9 L 83.5 165 L 94.2 159.5 L 91.1 157.5 L 81.2 149.3 L 72.4 140.2 L 64.8 130.1 L 59.2 120.2 L 33.5 120.2 L 33.5 116.2 L 140.1 116.2 L 140.5 115.9 L 140.9 115.2 L 141.1 115.3 L 146.1 111.2 L 157.1 120.2 L 152.1 123.2 L 149.1 124.5 L 143.7 132.1 L 134.8 142 L 124.6 150.9 L 113.1 158.9 L 112.7 159.1 L 118.3 161.6 L 130.9 165.9 L 144.4 169.3 L 158.8 171.9 L 174.2 173.6 L 184.8 174.6 Z M 102.8 154.4 L 108 151.1 L 118.2 143.2 L 127.1 134.5 L 134.6 125.2 L 137.8 120.2 L 61.8 120.2 L 68.1 127.6 L 76.6 136.1 L 85.8 143.8 L 95.8 150.6 Z M 95 114 L 95 88 L 51 88 L 51 100 L 39 106 L 39 30 L 51 36 L 95 36 L 95 15 L 107 17 L 110 19 L 107 20.8 L 107 36 L 150 36 L 156 31 L 167 40 L 162 44 L 162 94 L 150 100 L 150 88 L 107 88 L 107 108 Z M 51 84 L 95 84 L 95 64 L 51 64 Z M 107 84 L 150 84 L 150 64 L 107 64 Z M 51 60 L 95 60 L 95 40 L 51 40 Z M 107 60 L 150 60 L 150 40 L 107 40 Z " />
</g>
</svg>
