<svg xmlns="http://www.w3.org/2000/svg" xmlns:xlink="http://www.w3.org/1999/xlink" version="1.1" baseProfile="full" viewBox="0 0 200 200" width="200" height="200">
<g fill="black">
<path d="M 159.8 186.9 L 159.8 180.9 L 147.8 177.9 L 147.8 174.9 L 159.8 174.9 L 161.1 174.8 L 162 174.7 L 162.6 174.5 L 162.9 174.3 L 163.1 174.2 L 163.4 173.6 L 163.6 173.1 L 163.8 172.1 L 163.8 55.6 L 122.4 55.6 L 122.4 181.3 L 110.4 187.3 L 110.4 45.6 L 122.4 51.6 L 163.8 51.6 L 169.8 46.6 L 180.8 55.6 L 175.8 59.6 L 175.8 170.9 L 175.7 173.5 L 175.2 176 L 174.4 178.4 L 173.2 180.6 L 171.6 182.7 L 169.6 184.3 L 167.3 185.5 L 164.9 186.3 L 162.4 186.8 Z M 73.5 186.9 L 73.5 180.9 L 61.5 177.9 L 61.5 174.9 L 73.5 174.9 L 74.7 174.8 L 75.6 174.7 L 76.2 174.5 L 76.8 174.2 L 77.1 173.6 L 77.3 173.1 L 77.4 172.1 L 77.5 170.9 L 77.5 55.6 L 36.1 55.6 L 36.1 181.3 L 24.1 187.3 L 24.1 45.6 L 36.1 51.6 L 77.5 51.6 L 83.5 46.6 L 94.5 55.6 L 89.5 59.6 L 89.5 170.9 L 89.4 173.5 L 88.9 176 L 88.1 178.4 L 86.9 180.6 L 85.2 182.7 L 83.2 184.3 L 81 185.5 L 78.6 186.3 L 76.1 186.8 Z M 125 102 L 125 98 L 143.7 98 L 151.9 89 L 161.9 98 L 161.9 102 Z M 38 102 L 38 98 L 56.7 98 L 64.9 89 L 74.9 98 L 74.9 102 Z M 104 28.9 L 104 24.9 L 164 24.9 L 174 14.9 L 186 24.9 L 186 28.9 Z M 14 28.9 L 14 24.9 L 74 24.9 L 84 14.9 L 96 24.9 L 96 28.9 Z " />
</g>
</svg>
