<svg xmlns="http://www.w3.org/2000/svg" xmlns:xlink="http://www.w3.org/1999/xlink" version="1.1" baseProfile="full" viewBox="0 0 200 200" width="200" height="200">
<g fill="black">
<path d="M 150 188.5 L 150 182.5 L 136 179.5 L 136 176.5 L 150 176.5 L 151.3 176.4 L 152.2 176.3 L 152.8 176.1 L 153.1 175.9 L 153.3 175.8 L 153.6 175.2 L 153.8 174.6 L 154 173.7 L 154 148.8 L 106 148.8 L 106 182 L 94 188 L 94 148.8 L 56.6 148.8 L 56.2 151.7 L 54.6 157.3 L 52.1 162.6 L 48.7 167.5 L 44.6 171.9 L 39.8 175.9 L 34.2 179.4 L 28 182.5 L 21 185.1 L 13.3 187.2 L 12.7 185.5 L 19.5 181.6 L 25.4 177.8 L 30.6 174 L 34.9 170.1 L 38.4 166.1 L 41.1 162.2 L 43.1 158.2 L 44.4 154.1 L 45 150 L 45 90.9 L 57 96.9 L 94 96.9 L 94 79.4 L 35 79.4 L 35 75.4 L 94 75.4 L 94 57 L 15 57 L 15 53 L 94 53 L 94 35.9 L 37 35.9 L 37 31.9 L 94 31.9 L 94 14 L 106 16 L 109 18 L 106 19.8 L 106 31.9 L 149 31.9 L 155 26.9 L 166 35.9 L 161 39.9 L 161 53 L 170.8 53 L 179 44 L 189 53 L 189 57 L 161 57 L 161 81.4 L 149 87.4 L 149 79.4 L 106 79.4 L 106 96.9 L 154 96.9 L 160 91.9 L 171 100.9 L 166 104.9 L 166 172.5 L 165.9 175.1 L 165.4 177.6 L 164.6 180 L 163.4 182.2 L 161.8 184.2 L 159.8 185.9 L 157.5 187.1 L 155.1 187.9 L 152.6 188.4 Z M 57 144.8 L 94 144.8 L 94 125.1 L 57 125.1 Z M 106 144.8 L 154 144.8 L 154 125.1 L 106 125.1 Z M 57 121.1 L 94 121.1 L 94 100.9 L 57 100.9 Z M 106 121.1 L 154 121.1 L 154 100.9 L 106 100.9 Z M 106 75.4 L 149 75.4 L 149 57 L 106 57 Z M 106 53 L 149 53 L 149 35.9 L 106 35.9 Z " />
</g>
</svg>
