<svg xmlns="http://www.w3.org/2000/svg" xmlns:xlink="http://www.w3.org/1999/xlink" version="1.1" baseProfile="full" viewBox="0 0 200 200" width="200" height="200">
<g fill="black">
<polygon points="48,27 48,129 36,135 36,21 " />
<polygon points="42,27 166,27 166,31 42,31 " />
<polygon points="166,27 142,29 154,17 " />
<polygon points="42,55 162,55 162,59 42,59 " />
<polygon points="162,55 138,57 150,45 " />
<polygon points="42,84 162,84 162,88 42,88 " />
<polygon points="162,84 138,86 150,74 " />
<polygon points="105,27 105,117 93,117 93,27 " />
<polygon points="42,113 167,113 167,117 42,117 " />
<polygon points="172.9,114.6 173.4,123.7 173.7,132.2 173.8,140.1 173.6,147.3 173.2,153.8 172.6,159.7 171.8,165 170.6,169.7 169.2,173.9 167.3,177.6 157.1,171.3 158.1,169.3 159.1,166.4 160,162.7 160.7,158.2 161.3,152.8 161.6,146.8 161.8,140 161.7,132.5 161.4,124.3 161,115.3 " />
<polygon points="161,113 167,108 178,117 173,120 161,125 " />
<polygon points="167.3,177.6 163.6,180.2 159.1,179.5 156.4,175.8 157.1,171.3 " />
<polygon points="167.3,177.6 165.9,179.7 164.3,181.6 162.6,183.3 160.7,184.8 158.7,186.1 156.5,187.1 154.2,187.9 151.9,188.5 149.4,188.8 147,189 147,177 148.4,176.9 149.7,176.7 150.8,176.4 151.9,176.1 152.8,175.6 153.8,175 154.6,174.3 155.5,173.5 156.3,172.5 157.1,171.3 " />
<polygon points="127,180 127,177 147,177 147,183 " />
</g>
</svg>
