<svg xmlns="http://www.w3.org/2000/svg" xmlns:xlink="http://www.w3.org/1999/xlink" version="1.1" baseProfile="full" viewBox="0 0 200 200" width="200" height="200">
<g fill="black">
<path d="M 94 188 L 94 142 L 14 142 L 14 138 L 94 138 L 94 11 L 106 13 L 109 15 L 106 16.8 L 106 138 L 164 138 L 174 128 L 186 138 L 186 142 L 106 142 L 106 182 Z M 24 135.2 L 22.7 133.9 L 27.2 127.7 L 31.6 121.6 L 35.8 115.6 L 39.8 109.5 L 43.6 103.5 L 47.1 97.4 L 50.3 91.3 L 53.3 85.2 L 56.1 79.1 L 58.1 73.8 L 59.1 71.6 L 69.6 77.6 L 71.5 80.6 L 67.8 81.1 L 66.3 84 L 62.8 90.2 L 59 96.4 L 58.1 97.7 L 58.4 97.8 L 62.4 99 L 66.2 100.6 L 69.8 102.4 L 73.2 104.4 L 76.4 106.7 L 79.4 109.1 L 82.3 111.8 L 84.9 114.7 L 87.3 117.9 L 87.9 122.4 L 85.2 126.1 L 80.7 126.7 L 77 124 L 75.6 121.1 L 74.1 118.4 L 72.3 115.7 L 70.3 113 L 68.1 110.5 L 65.7 107.9 L 63 105.4 L 60.2 103 L 57.1 100.5 L 56.5 100.1 L 54.9 102.4 L 50.6 108.3 L 45.9 114.1 L 41 119.7 L 35.7 125.1 L 30 130.3 Z M 111.5 128.4 L 110.2 127.2 L 113.5 122.1 L 116.6 117 L 119.6 111.9 L 122.4 106.8 L 125 101.5 L 127.4 96.2 L 129.5 90.7 L 131.4 85.2 L 133.1 79.5 L 134.5 73.7 L 135 72 L 146.1 76.9 L 148.4 79.6 L 144.8 80.6 L 143.9 83 L 141.4 89 L 138.7 94.8 L 137.4 97.1 L 140.7 98.1 L 145.4 99.5 L 149.8 101.2 L 153.7 103 L 157.4 105 L 160.7 107.2 L 163.6 109.5 L 166.3 112.1 L 168.5 114.8 L 170.4 117.9 L 170.3 122.4 L 167.1 125.7 L 162.5 125.6 L 159.3 122.3 L 158.7 120.4 L 157.8 118.3 L 156.5 116 L 154.8 113.7 L 152.6 111.3 L 149.9 108.8 L 146.8 106.2 L 143.3 103.6 L 139.4 100.8 L 136.4 99.1 L 135.7 100.3 L 132.4 105.7 L 128.8 110.8 L 125 115.7 L 120.8 120.3 L 116.3 124.5 Z M 24 87.2 L 22.7 86 L 27.3 79.9 L 31.7 74 L 35.9 68.2 L 40 62.3 L 43.8 56.4 L 47.4 50.4 L 50.8 44.4 L 53.9 38.3 L 56.8 32.2 L 59.1 26.9 L 59 26.9 L 60 24.8 L 70.4 31 L 72.3 34 L 68.5 34.5 L 67 37.3 L 63.3 43.5 L 60.4 48 L 64.2 49.1 L 68 50.6 L 71.6 52.6 L 75.1 54.8 L 78.3 57.3 L 81.4 60.1 L 84.3 63.2 L 87 66.5 L 89.4 70.1 L 89.7 74.7 L 86.8 78.2 L 82.3 78.5 L 78.7 75.6 L 77.3 72.4 L 75.7 69.3 L 74 66.3 L 72 63.4 L 69.8 60.7 L 67.4 58.1 L 64.8 55.5 L 61.9 53.1 L 58.8 50.6 L 58.7 50.6 L 55.2 55.5 L 50.7 61.3 L 46 66.9 L 41 72.4 L 35.7 77.6 L 30 82.6 Z M 111.5 81.7 L 110.1 80.5 L 113.6 74.8 L 116.9 69.3 L 120.1 63.9 L 123.1 58.6 L 125.9 53.3 L 128.5 48 L 130.8 42.8 L 132.9 37.6 L 134.7 32.3 L 136.3 27.1 L 136.8 25.7 L 147.7 31.1 L 149.8 34 L 146.1 34.8 L 145.3 36.6 L 142.7 41.9 L 139.8 47.3 L 139 48.5 L 140.8 49.1 L 145.7 50.8 L 150.3 52.7 L 154.6 54.8 L 158.6 57 L 162.3 59.4 L 165.7 61.9 L 168.9 64.5 L 171.8 67.3 L 174.5 70.3 L 175.3 74.8 L 172.9 78.6 L 168.4 79.5 L 164.6 77.1 L 163 74.4 L 161.2 71.7 L 159 69 L 156.5 66.3 L 153.7 63.5 L 150.6 60.7 L 147.1 57.9 L 143.4 55 L 139.4 52 L 137.6 50.8 L 136.6 52.5 L 133.2 57.7 L 129.5 62.7 L 125.5 67.7 L 121.2 72.5 L 116.5 77.2 Z " />
</g>
</svg>
