<svg xmlns="http://www.w3.org/2000/svg" xmlns:xlink="http://www.w3.org/1999/xlink" version="1.1" baseProfile="full" viewBox="0 0 200 200" width="200" height="200">
<g fill="black">
<path d="M 17.4 113.2 L 13.5 110.8 L 12.6 106.3 L 15 102.4 L 17 101.2 L 19 99.5 L 20.9 97.2 L 22.7 94.3 L 24.4 90.9 L 25.9 86.8 L 27.2 82.1 L 28.3 76.9 L 29.3 71.1 L 30.1 64.8 L 31.9 64.7 L 32.7 71.2 L 33.1 75.6 L 47 75.6 L 47 16 L 59 22 L 141 22 L 147 17 L 158 26 L 153 30 L 153 75.6 L 170 75.6 L 170.6 75.1 L 170.7 74.8 L 170.9 74.9 L 176 70.6 L 187 79.6 L 182 82.6 L 178.5 84.1 L 177.7 85.1 L 175.7 87.5 L 173.5 90.1 L 171.2 92.8 L 168.7 95.6 L 166 98.5 L 163 101.4 L 159.8 104.5 L 156.7 107.8 L 155.2 106.7 L 157.5 102.7 L 159.4 98.8 L 161.3 95.1 L 163.1 91.7 L 164.7 88.4 L 166.2 85.3 L 167.6 82.4 L 168.8 79.7 L 168.8 79.6 L 33.3 79.6 L 33.3 82.9 L 33 88.2 L 32.3 93.2 L 31.1 97.8 L 29.6 102 L 27.5 105.8 L 24.9 109.3 L 21.8 112.3 Z M 59 75.6 L 92 75.6 L 92 39 L 104 45 L 141 45 L 141 26 L 59 26 Z M 104 75.6 L 141 75.6 L 141 49 L 104 49 Z " />
</g>
</svg>
