<svg xmlns="http://www.w3.org/2000/svg" xmlns:xlink="http://www.w3.org/1999/xlink" version="1.1" baseProfile="full" viewBox="0 0 200 200" width="200" height="200">
<g fill="black">
<path d="M 17.1 188.6 L 16.8 186.8 L 33.2 183.1 L 48.6 178.6 L 63.1 173.2 L 76.8 166.9 L 89.6 159.7 L 92.5 157.7 L 87.9 154.3 L 79 145.5 L 71.9 135.9 L 66.7 125.4 L 63.6 114.9 L 42 114.9 L 42 110.9 L 140 110.9 L 141 109.5 L 141.4 109.8 L 146 105.9 L 157 114.9 L 152 117.9 L 148.5 119.4 L 141.1 128.7 L 130.5 140 L 119.1 150.2 L 109.7 157.2 L 114.7 159.6 L 127.7 164.3 L 142.2 168.3 L 158.2 171.4 L 175.7 173.7 L 186 174.9 L 174.2 186.8 L 156 183.7 L 139.3 179.7 L 124.1 174.8 L 110.5 168.9 L 100.3 163.2 L 93.8 167.1 L 80 173.8 L 65.4 179.4 L 50 183.7 L 33.9 186.8 Z M 100.5 152.3 L 101.5 151.6 L 112.6 142.5 L 122.9 132.5 L 132.3 121.5 L 137.1 114.9 L 65.8 114.9 L 70.4 123.5 L 76.8 132.5 L 84.3 140.5 L 93 147.7 Z M 59 103.5 L 59 45.5 L 19 45.5 L 19 41.5 L 59 41.5 L 59 14.5 L 71 16.5 L 74 18.5 L 71 20.3 L 71 41.5 L 127 41.5 L 127 14.5 L 139 16.5 L 142 18.5 L 139 20.3 L 139 41.5 L 160 41.5 L 170 31.5 L 182 41.5 L 182 45.5 L 139 45.5 L 139 94.5 L 127 100.5 L 127 90.5 L 71 90.5 L 71 97.5 Z M 71 86.5 L 127 86.5 L 127 45.5 L 71 45.5 Z " />
</g>
</svg>
