<svg xmlns="http://www.w3.org/2000/svg" xmlns:xlink="http://www.w3.org/1999/xlink" version="1.1" baseProfile="full" viewBox="0 0 200 200" width="200" height="200">
<g fill="black">
<polygon points="80,17.4 75.8,25.1 71.1,32.5 66,39.5 60.3,46.3 54.2,52.8 47.7,58.9 40.6,64.7 33.1,70.2 25,75.2 16.4,79.7 15.5,78.2 22.8,72.1 29.8,66 36.3,59.8 42.4,53.5 48,47.1 53.1,40.5 57.8,33.7 62,26.8 65.8,19.7 69.1,12.3 " />
<polygon points="69.6,11.2 80,17.4 68.7,13.3 " />
<polygon points="80,17.4 81.9,20.4 76.1,21.1 " />
<polygon points="58,38 180,38 180,42 58,42 " />
<polygon points="180,38 156,40 168,28 " />
<polygon points="144.7,40 141.8,43.5 132.8,54.2 122.9,64.1 112.1,73.3 100.4,81.7 87.9,89.3 74.5,96.2 60.2,102.4 45.1,107.8 29,112.2 12.2,115.8 11.7,114.1 28,108.6 43.2,102.7 57.6,96.4 71,89.5 83.5,82.1 95.1,74.1 105.7,65.5 115.4,56.4 124.2,46.7 129.3,40 " />
<polygon points="64.3,40.3 72.1,48.8 80.6,56.7 89.8,64 99.9,70.7 110.9,76.8 122.8,82.4 135.7,87.3 149.5,91.6 164.4,95.3 180.2,98.5 177.7,111.4 161.4,107.5 146,102.9 131.7,97.6 118.5,91.6 106.3,85 95.2,77.6 85.2,69.6 76.4,60.9 68.9,51.4 62.8,41.3 " />
<polygon points="177.7,111.4 180.2,98.5 189.5,100.3 " />
<polygon points="30,131 165,131 165,135 30,135 " />
<polygon points="170.9,133.1 170.6,139.9 170,146.3 169,152.2 167.8,157.7 166.2,162.7 164.3,167.3 162,171.4 159.3,175.1 156.2,178.3 152.6,180.9 146.4,170.6 148.3,169.2 150.2,167.3 151.9,165 153.5,162.1 154.9,158.6 156.2,154.6 157.2,150 158.1,144.8 158.6,139.1 159,132.8 " />
<polygon points="159,131 165,126 176,135 171,138 159,143 " />
<polygon points="152.6,180.9 148.1,181.5 144.4,178.9 143.7,174.3 146.4,170.6 " />
<polygon points="152.6,180.9 150.6,182 148.6,183.1 146.5,184 144.4,184.8 142.2,185.4 140,186 137.8,186.4 135.5,186.7 133.3,186.9 131,187 131,175 132.6,174.9 134.3,174.8 135.9,174.6 137.4,174.3 139,173.9 140.5,173.4 142,172.8 143.5,172.2 144.9,171.5 146.4,170.6 " />
<polygon points="111,178 111,175 131,175 131,181 " />
<polygon points="114.6,108.2 110.8,121.4 105.6,133.6 99.1,144.7 91.3,154.6 82.2,163.3 72,170.9 60.5,177.3 47.9,182.4 34.1,186.3 19.1,188.8 18.8,187.1 33,182.6 45.9,177.4 57.4,171.5 67.6,164.7 76.6,157 84.2,148.6 90.6,139.2 95.9,129 100,117.8 102.9,105.7 " />
<polygon points="103.3,103.9 114.6,108.2 102.7,106.7 " />
<polygon points="114.6,108.2 117.1,110.7 111.6,112.6 " />
</g>
</svg>
