<svg xmlns="http://www.w3.org/2000/svg" xmlns:xlink="http://www.w3.org/1999/xlink" version="1.1" baseProfile="full" viewBox="0 0 200 200" width="200" height="200">
<g fill="black">
<polygon points="112.7,15.8 108.6,22.1 104.1,28.3 99.2,34.5 93.9,40.6 88.3,46.7 82.2,52.7 75.7,58.7 68.8,64.5 61.4,70.2 53.5,75.6 52.4,74.3 58.9,67.3 65.1,60.6 71.1,54 76.7,47.5 81.9,41.1 86.7,34.8 91.2,28.5 95.3,22.2 98.9,16 102.2,9.9 " />
<polygon points="102.2,9.9 112.7,15.8 102.8,8.9 " />
<polygon points="112.7,15.8 114.3,19 107.1,19.5 " />
<polygon points="31.3,61.6 39.4,64.9 47.1,68.5 54.4,72.4 61.3,76.4 67.8,80.6 73.9,85 79.7,89.5 85,94.1 90.1,98.9 94.7,103.8 85.4,111.4 81.6,106.6 77.5,101.7 72.9,96.9 68,92.1 62.6,87.4 56.9,82.6 50.8,77.9 44.3,73.1 37.5,68.2 30.4,63.2 " />
<polygon points="94.7,103.8 96,108.2 93.8,112.3 89.5,113.5 85.4,111.4 " />
<polygon points="160.2,65.3 151,77.2 141.5,88.8 131.6,100.3 121.3,111.5 110.6,122.6 99.6,133.3 88.2,143.9 76.5,154.2 64.2,164.1 51.5,173.6 50.4,172.3 61.7,161.2 72.8,150.2 83.7,139.2 94.2,128 104.5,116.7 114.4,105.3 123.9,93.8 133.1,82.1 142,70.3 150.5,58.3 " />
<polygon points="150.5,58.3 160.2,65.3 151,57.6 " />
<polygon points="160.2,65.3 161.5,68.6 154.3,68.4 " />
<polygon points="20.3,173.9 37.9,172.2 55.2,170.7 72.2,169.2 88.8,167.8 105,166.5 120.9,165.2 136.4,164.1 151.6,163.2 166.4,162.5 180.9,162.1 181,163.8 166.8,166.3 152.1,168.5 137.1,170.7 121.7,172.8 105.9,174.9 89.8,177 73.3,179.2 56.4,181.3 39.2,183.5 21.6,185.8 " />
<polygon points="21.6,185.8 20.3,173.9 18.3,174.1 " />
<polygon points="21.6,185.8 23.9,188.6 27.2,182.2 " />
</g>
</svg>
