<svg xmlns="http://www.w3.org/2000/svg" xmlns:xlink="http://www.w3.org/1999/xlink" version="1.1" baseProfile="full" viewBox="0 0 200 200" width="200" height="200">
<g fill="black">
<polygon points="101.9,27.4 99.6,45.7 96.3,63 91.9,79.5 86.4,95 79.8,109.5 72.1,123.1 63.3,135.6 53.5,147.1 42.5,157.5 30.5,166.7 29.4,165.2 39.9,154.7 49.4,143.6 58,131.8 65.5,119.2 72.1,105.9 77.7,91.7 82.2,76.7 85.8,60.9 88.3,44.1 89.9,26.5 " />
<polygon points="90.1,24.3 101.9,27.4 89.8,27.5 " />
<polygon points="101.9,27.4 104.7,29.6 99.5,32.2 " />
<polygon points="89,74 166,74 166,78 89,78 " />
<polygon points="172,76 171.7,90.1 171.1,103.2 170.1,115.1 168.7,125.9 166.8,135.6 164.5,144.2 161.7,151.7 158.4,158.2 154.3,163.7 149.6,168 142.6,158.3 145.4,155.7 148.1,152 150.7,146.9 153.1,140.6 155.1,132.9 156.8,124 158.2,113.8 159.2,102.4 159.8,89.8 160,76 " />
<polygon points="160,74 166,69 177,78 172,81 160,86 " />
<polygon points="149.6,168 145.1,169 141.2,166.6 140.2,162.2 142.6,158.3 " />
<polygon points="149.6,168 147.6,169.3 145.6,170.5 143.6,171.5 141.5,172.4 139.3,173.2 137.1,173.8 134.9,174.3 132.6,174.7 130.3,174.9 128,175 128,163 129.6,162.9 131.2,162.8 132.7,162.5 134.2,162.2 135.7,161.8 137.1,161.3 138.5,160.7 139.9,160 141.2,159.2 142.6,158.3 " />
<polygon points="108,166 108,163 128,163 128,169 " />
</g>
</svg>
