<svg xmlns="http://www.w3.org/2000/svg" xmlns:xlink="http://www.w3.org/1999/xlink" version="1.1" baseProfile="full" viewBox="0 0 200 200" width="200" height="200">
<g fill="black">
<polygon points="14,54 186,54 186,58 14,58 " />
<polygon points="186,54 162,56 174,44 " />
<polygon points="48,97 48,157 36,163 36,91 " />
<polygon points="42,97 158,97 158,101 42,101 " />
<polygon points="164,99 164,151 152,157 152,99 " />
<polygon points="152,97 158,92 169,101 164,105 152,99 " />
<polygon points="42,141 158,141 158,145 42,145 " />
<polygon points="106,14 106,188 94,188 94,12 " />
<polygon points="106,14 109,16 104,19 " />
</g>
</svg>
