<svg xmlns="http://www.w3.org/2000/svg" xmlns:xlink="http://www.w3.org/1999/xlink" version="1.1" baseProfile="full" viewBox="0 0 200 200" width="200" height="200">
<g fill="black">
<polygon points="53.7,16.9 53.7,65.7 41.7,71.7 41.7,10.9 " />
<polygon points="47.7,16.9 152.2,16.9 152.2,20.9 47.7,20.9 " />
<polygon points="158.2,18.9 158.2,64.7 146.2,70.7 146.2,18.9 " />
<polygon points="146.2,16.9 152.2,11.9 163.2,20.9 158.2,24.9 146.2,18.9 " />
<polygon points="47.7,37.8 152.2,37.8 152.2,41.8 47.7,41.8 " />
<polygon points="47.7,58.7 152.2,58.7 152.2,62.7 47.7,62.7 " />
<polygon points="35.4,78.5 164.6,78.5 164.6,82.5 35.4,82.5 " />
<polygon points="164.6,78.5 144.6,80.5 154.6,69.5 " />
<polygon points="106,16.9 106,103.4 94,103.4 94,16.9 " />
<polygon points="20.2,99.4 179.8,99.4 179.8,103.4 20.2,103.4 " />
<polygon points="179.8,99.4 159.8,101.4 169.8,90.4 " />
<polygon points="83,101 81.9,107.5 79.5,113.5 75.9,119 71,123.8 65.2,128.1 58.3,132 50.4,135.4 41.4,138.4 31.3,140.8 20.2,142.8 19.7,141.1 30.2,137.2 39.6,133.3 47.7,129.4 54.6,125.4 60.2,121.3 64.6,117.1 67.8,113 69.8,109 70.8,105 71,101 " />
<polygon points="130,101 130,120 118,120 118,101 " />
<polygon points="118,120 120.4,123.6 124,126 127.6,123.6 130,120 " />
<polygon points="130,120 129.9,121.2 129.9,122.2 130,122.9 130,123.4 130.2,123.7 130.4,124.1 130.8,124.5 131.5,124.9 132.6,125.2 134,125.5 134,134.5 131.5,134.5 129.2,134.2 126.9,133.6 124.7,132.6 122.7,131.2 121.1,129.3 119.7,127.2 118.8,124.9 118.2,122.5 118,120 " />
<polygon points="134,125.5 137.1,126.8 138.5,130 137.1,133.1 134,134.5 " />
<polygon points="134,125.5 173,125.5 173,134.5 134,134.5 " />
<polygon points="173,125.5 175.7,127.3 177.5,130 175.7,132.7 173,134.5 " />
<polygon points="173,126.5 175,112.5 173,112.5 168.5,126.5 " />
<polygon points="27,149.6 173,149.6 173,153.6 27,153.6 " />
<polygon points="173,149.6 153,151.6 163,140.6 " />
<polygon points="106,133.7 106,179.7 94,179.7 94,131.7 " />
<polygon points="106,133.7 109,135.7 104,138.7 " />
<polygon points="14,175.7 186,175.7 186,179.7 14,179.7 " />
<polygon points="186,175.7 162,177.7 174,165.7 " />
</g>
</svg>
