<svg xmlns="http://www.w3.org/2000/svg" xmlns:xlink="http://www.w3.org/1999/xlink" version="1.1" baseProfile="full" viewBox="0 0 200 200" width="200" height="200">
<g fill="black">
<path d="M 141 190.3 L 141 184.3 L 121 181.3 L 121 178.3 L 141 178.3 L 142.2 178.2 L 143.1 178 L 143.7 177.9 L 144 177.7 L 144.4 177.3 L 144.7 176.4 L 144.9 175.5 L 145 174.3 L 145 133.9 L 137.5 137.7 L 128.7 141.9 L 119.9 145.6 L 111.1 149.1 L 102.4 152.3 L 93.8 155.2 L 85.2 157.9 L 76.8 160.3 L 68.4 162.5 L 64.1 163.5 L 62.6 167.1 L 60 164.5 L 55.9 153.1 L 57.8 152.7 L 66 151.4 L 74.3 149.9 L 82.7 148.2 L 91.3 146.3 L 100 144.1 L 108.8 141.9 L 117.7 139.4 L 126.8 136.8 L 136.1 134.2 L 145 131.7 L 145 102 L 54 102 L 54 133.3 L 53.9 133.5 L 53.2 141.2 L 52.1 148.4 L 50.6 155.2 L 48.7 161.5 L 46.4 167.4 L 43.7 172.7 L 40.5 177.5 L 37 181.7 L 32.9 185.2 L 28.5 187.9 L 27.4 186.5 L 30.2 182.5 L 32.7 178.4 L 34.9 174.1 L 36.8 169.4 L 38.5 164.4 L 39.8 159 L 40.8 153.2 L 41.5 147 L 41.9 140.3 L 42 133.3 L 42 92 L 54 98 L 145 98 L 151 93 L 162 102 L 157 106 L 157 174.3 L 156.8 176.8 L 156.4 179.3 L 155.6 181.7 L 154.3 184 L 152.7 186 L 150.7 187.7 L 148.4 188.9 L 146 189.7 L 143.5 190.1 Z M 110.8 135.6 L 106.3 134.9 L 102.9 132.7 L 99.2 130.6 L 95.1 128.6 L 90.7 126.8 L 85.8 125.1 L 80.6 123.4 L 75 121.9 L 69 120.5 L 62.6 119.1 L 55.9 117.6 L 56 115.8 L 62.9 115.3 L 69.6 115.2 L 76 115.4 L 82 116 L 87.8 116.8 L 93.3 117.9 L 98.5 119.2 L 103.5 120.8 L 108.1 122.6 L 112.5 124.7 L 115.2 128.4 L 114.5 132.9 Z M 14 78.2 L 14 74.2 L 64 74.2 L 64 43 L 28 43 L 28 39 L 64 39 L 64 12.5 L 76 14.5 L 79 16.5 L 76 18.3 L 76 39 L 124 39 L 124 12.5 L 136 14.5 L 139 16.5 L 136 18.3 L 136 39 L 150 39 L 160 29 L 172 39 L 172 43 L 136 43 L 136 74.2 L 164 74.2 L 174 64.2 L 186 74.2 L 186 78.2 Z M 76 74.2 L 124 74.2 L 124 43 L 76 43 Z " />
</g>
</svg>
