<svg xmlns="http://www.w3.org/2000/svg" xmlns:xlink="http://www.w3.org/1999/xlink" version="1.1" baseProfile="full" viewBox="0 0 200 200" width="200" height="200">
<g fill="black">
<path d="M 91 189 L 91 183 L 71 180 L 71 177 L 91 177 L 92.2 176.9 L 93.1 176.7 L 94 176.4 L 94.4 176 L 94.7 175.1 L 94.9 174.2 L 95 173 L 95 110 L 36 110 L 36 106 L 95 106 L 95 68 L 19 68 L 19 64 L 95 64 L 95 28 L 42 28 L 42 24 L 148 24 L 154 19 L 165 28 L 160 32 L 160 64 L 166 64 L 176 54 L 188 64 L 188 68 L 160 68 L 160 116 L 148 122 L 148 110 L 107 110 L 107 173 L 106.8 175.5 L 106.4 178 L 105.6 180.4 L 104.3 182.7 L 102.7 184.7 L 100.7 186.3 L 98.4 187.6 L 96 188.4 L 93.5 188.8 Z M 107 106 L 148 106 L 148 68 L 107 68 Z M 107 64 L 148 64 L 148 28 L 107 28 Z " />
</g>
</svg>
