<svg xmlns="http://www.w3.org/2000/svg" xmlns:xlink="http://www.w3.org/1999/xlink" version="1.1" baseProfile="full" viewBox="0 0 200 200" width="200" height="200">
<g fill="black">
<polygon points="55,21 55,74 43,80 43,15 " />
<polygon points="49,21 151,21 151,25 49,25 " />
<polygon points="157,23 157,73 145,79 145,23 " />
<polygon points="145,21 151,16 162,25 157,29 145,23 " />
<polygon points="49,44 151,44 151,48 49,48 " />
<polygon points="49,67 151,67 151,71 49,71 " />
<polygon points="44,90 44,152 32,158 32,84 " />
<polygon points="38,90 162,90 162,94 38,94 " />
<polygon points="168,92 168,146 156,152 156,92 " />
<polygon points="156,90 162,85 173,94 168,98 156,92 " />
<polygon points="38,113 162,113 162,117 38,117 " />
<polygon points="38,136 162,136 162,140 38,140 " />
<polygon points="106,21 106,165 94,165 94,21 " />
<polygon points="106,165 103.6,168.6 100,171 96.4,168.6 94,165 " />
<polygon points="106,165 106,166.2 106.2,167.1 106.4,167.7 106.5,168 106.7,168.2 106.9,168.4 107.2,168.5 107.8,168.7 108.7,168.9 110,169 110,181 107.4,180.8 104.9,180.4 102.5,179.6 100.2,178.3 98.2,176.7 96.6,174.7 95.3,172.4 94.5,170 94.1,167.5 94,165 " />
<polygon points="110,169 114.2,170.8 116,175 114.2,179.2 110,181 " />
<polygon points="110,169 181,169 181,181 110,181 " />
<polygon points="181,169 184.6,171.4 187,175 184.6,178.6 181,181 " />
<polygon points="175,170 181,144 183,144 181,170 " />
</g>
</svg>
