<svg xmlns="http://www.w3.org/2000/svg" xmlns:xlink="http://www.w3.org/1999/xlink" version="1.1" baseProfile="full" viewBox="0 0 200 200" width="200" height="200">
<g fill="black">
<path d="M 18.2 188.9 L 17.7 187.1 L 30.3 181.8 L 41.8 176.3 L 52.2 170.6 L 61.3 164.6 L 69.3 158.3 L 76.1 151.6 L 81.8 144.7 L 86.3 137.6 L 89.8 130.1 L 90.6 127.4 L 18 127.4 L 18 123.4 L 91.9 123.4 L 92 122.8 L 93.8 85.7 L 56.3 85.7 L 55.3 87.3 L 51.4 92.9 L 47.2 98.4 L 42.6 103.5 L 37.7 108.4 L 32.3 113 L 26.6 117.2 L 25.3 115.8 L 29.6 110.3 L 33.7 104.8 L 37.5 99.4 L 41.1 93.9 L 44.3 88.4 L 47.2 82.7 L 49.9 77 L 52.2 71.1 L 54.2 65.2 L 55.9 59.1 L 56.4 57.5 L 67.4 62.6 L 69.7 65.4 L 66 66.3 L 64.9 69.1 L 62.1 75.4 L 58.9 81.4 L 58.7 81.7 L 146 81.7 L 156 71.7 L 168 81.7 L 168 85.7 L 105.9 85.7 L 103.9 123.4 L 160 123.4 L 170 113.4 L 182 123.4 L 182 127.4 L 105.3 127.4 L 109.6 133.1 L 115.2 139.8 L 121.2 146.1 L 127.7 151.8 L 134.7 157 L 142.1 161.7 L 150.2 165.9 L 158.8 169.6 L 168 172.9 L 177.8 175.7 L 185.8 178 L 174.1 188.4 L 163.8 184.7 L 154 180.5 L 145 175.7 L 136.6 170.3 L 129 164.4 L 122 157.9 L 115.9 150.9 L 110.5 143.4 L 106.1 135.3 L 102.9 127.5 L 100.2 134.6 L 95.5 143.1 L 89.7 151 L 82.7 158.2 L 74.6 164.9 L 65.5 170.9 L 55.3 176.4 L 44 181.2 L 31.6 185.4 Z M 17.5 81.6 L 16.4 80.1 L 23.4 74 L 29.9 67.8 L 36.1 61.6 L 41.8 55.3 L 47.1 48.9 L 52 42.3 L 56.4 35.6 L 60.4 28.7 L 63.9 21.6 L 67.1 14.4 L 67.6 13.1 L 78 19.2 L 80 22.2 L 76.2 22.7 L 74.1 26.8 L 69.6 34.2 L 64.7 41.2 L 59.4 48 L 59.2 48.2 L 159 48.2 L 169 38.2 L 181 48.2 L 181 52.2 L 55.7 52.2 L 53.6 54.5 L 47.3 60.6 L 40.6 66.5 L 33.4 71.9 L 25.7 77 Z " />
</g>
</svg>
