<svg xmlns="http://www.w3.org/2000/svg" xmlns:xlink="http://www.w3.org/1999/xlink" version="1.1" baseProfile="full" viewBox="0 0 200 200" width="200" height="200">
<g fill="black">
<polygon points="110,14 110,39 98,39 98,12 " />
<polygon points="110,14 113,16 108,19 " />
<polygon points="34,35 186,35 186,39 34,39 " />
<polygon points="186,35 162,37 174,25 " />
<polygon points="40,35 40,102 28,102 28,29 " />
<polygon points="28,102 30.4,105.6 34,108 37.6,105.6 40,102 " />
<polygon points="40,102 39.4,113.7 38.3,124.8 36.7,135.3 34.5,145.2 31.8,154.4 28.5,162.9 24.7,170.8 20.3,177.9 15.2,184.2 9.6,189.5 8.3,188.4 12.2,181.9 15.6,175.2 18.7,168 21.4,160.3 23.6,152 25.4,143.2 26.7,133.8 27.6,123.8 28,113.2 28,102 " />
<polygon points="34,64 169,64 169,68 34,68 " />
<polygon points="175,66 175,104 163,110 163,66 " />
<polygon points="163,64 169,59 180,68 175,72 163,66 " />
<polygon points="34,94 169,94 169,98 34,98 " />
<polygon points="87,42 87,98 75,98 75,40 " />
<polygon points="87,42 90,44 85,47 " />
<polygon points="134,42 134,98 122,98 122,40 " />
<polygon points="134,42 137,44 132,47 " />
</g>
</svg>
