<svg xmlns="http://www.w3.org/2000/svg" xmlns:xlink="http://www.w3.org/1999/xlink" version="1.1" baseProfile="full" viewBox="0 0 200 200" width="200" height="200">
<g fill="black">
<polygon points="24,20 155,20 155,24 24,24 " />
<polygon points="161,22 160.8,28.9 160.5,35.4 160,41.5 159.3,47.2 158.4,52.5 157.2,57.3 155.8,61.8 154.1,65.9 152.2,69.6 149.9,72.9 140.5,65.4 141.9,63.4 143.3,60.8 144.5,57.7 145.7,54.2 146.6,50 147.5,45.4 148.1,40.3 148.6,34.7 148.9,28.5 149,22 " />
<polygon points="149,20 155,15 166,24 161,27 149,32 " />
<polygon points="149.9,72.9 145.9,75 141.4,73.8 139.3,69.8 140.5,65.4 " />
<polygon points="149.9,72.9 148.3,74.7 146.5,76.4 144.7,77.9 142.7,79.3 140.6,80.4 138.4,81.3 136.1,82 133.8,82.6 131.4,82.9 129,83 129,71 130.4,70.9 131.8,70.7 133.1,70.4 134.3,70.1 135.4,69.6 136.5,69 137.5,68.3 138.6,67.5 139.5,66.5 140.5,65.4 " />
<polygon points="109,74 109,71 129,71 129,77 " />
<polygon points="95.2,22 94.8,23.3 92,31.6 88.1,39.5 83.2,46.9 77.3,54 70.4,60.5 62.5,66.7 53.7,72.4 43.9,77.7 33.1,82.5 21.3,86.8 20.6,85.1 31.4,79.1 41.2,73.1 50,67 57.8,60.7 64.5,54.4 70.2,47.9 74.9,41.2 78.6,34.5 81.3,27.6 82.7,22 " />
<polygon points="66.3,89.8 63.6,96.2 60.6,102.2 57.3,108.1 53.6,113.7 49.6,119.1 45.3,124.2 40.7,129.1 35.7,133.6 30.3,137.8 24.5,141.6 23.4,140.3 27.7,135.1 31.8,129.9 35.7,124.8 39.3,119.6 42.6,114.3 45.7,108.9 48.4,103.3 50.9,97.7 53.1,91.9 55,85.9 " />
<polygon points="55.5,84.5 66.3,89.8 54.6,86.9 " />
<polygon points="66.3,89.8 68.5,92.7 62.8,93.9 " />
<polygon points="46,111 169,111 169,115 46,115 " />
<polygon points="169,111 145,113 157,101 " />
<polygon points="21,145 179,145 179,149 21,149 " />
<polygon points="179,145 155,147 167,135 " />
<polygon points="106,84 106,182 94,188 94,82 " />
<polygon points="106,84 109,86 104,89 " />
</g>
</svg>
