<svg xmlns="http://www.w3.org/2000/svg" xmlns:xlink="http://www.w3.org/1999/xlink" version="1.1" baseProfile="full" viewBox="0 0 200 200" width="200" height="200">
<g fill="black">
<polygon points="69.1,20.1 65.8,27 62.1,33.7 58,40.2 53.6,46.5 48.7,52.5 43.5,58.3 37.9,63.9 31.9,69.1 25.4,74.1 18.5,78.6 17.4,77.3 22.9,71.3 28.1,65.3 33.1,59.4 37.7,53.4 42,47.4 45.9,41.2 49.5,35 52.7,28.7 55.5,22.2 58,15.7 " />
<polygon points="58,15.7 69.1,20.1 58.5,14.3 " />
<polygon points="69.1,20.1 71.2,23.1 64.1,24.6 " />
<polygon points="45,48 184,48 184,52 45,52 " />
<polygon points="184,48 160,50 172,38 " />
<polygon points="107,48 107,185 95,191 95,48 " />
<polygon points="51,80 51,164 39,170 39,74 " />
<polygon points="45,80 158,80 158,84 45,84 " />
<polygon points="164,82 164,152 152,152 152,82 " />
<polygon points="152,80 158,75 169,84 164,88 152,82 " />
<polygon points="164,152 161.6,155.6 158,158 154.4,155.6 152,152 " />
<polygon points="164,152 163.8,154.5 163.4,157 162.6,159.4 161.3,161.7 159.7,163.7 157.7,165.3 155.4,166.6 153,167.4 150.5,167.8 148,168 148,156 149.2,155.9 150.1,155.7 150.7,155.5 151,155.4 151.2,155.2 151.4,155 151.5,154.7 151.7,154.1 151.9,153.2 152,152 " />
<polygon points="148,162 148,156 128,156 128,159 " />
</g>
</svg>
