<svg xmlns="http://www.w3.org/2000/svg" xmlns:xlink="http://www.w3.org/1999/xlink" version="1.1" baseProfile="full" viewBox="0 0 200 200" width="200" height="200">
<g fill="black">
<path d="M 147 187 L 147 181 L 127 178 L 127 175 L 147 175 L 148.2 174.9 L 149.1 174.7 L 150 174.4 L 150.4 174 L 150.7 173.1 L 150.9 172.2 L 151 171 L 151 141 L 106 141 L 106 176 L 94 182 L 94 141 L 49 141 L 49 182 L 37 188 L 37 62 L 49 68 L 94 68 L 94 43 L 15 43 L 15 39 L 94 39 L 94 13 L 106 15 L 109 17 L 106 18.8 L 106 39 L 163 39 L 173 29 L 185 39 L 185 43 L 106 43 L 106 68 L 151 68 L 157 63 L 168 72 L 163 76 L 163 171 L 162.8 173.5 L 162.4 176 L 161.6 178.4 L 160.3 180.7 L 158.7 182.7 L 156.7 184.3 L 154.4 185.6 L 152 186.4 L 149.5 186.8 Z M 49 137 L 94 137 L 94 106 L 49 106 Z M 106 137 L 151 137 L 151 106 L 106 106 Z M 49 102 L 94 102 L 94 72 L 49 72 Z M 106 102 L 151 102 L 151 72 L 106 72 Z " />
</g>
</svg>
