<svg xmlns="http://www.w3.org/2000/svg" xmlns:xlink="http://www.w3.org/1999/xlink" version="1.1" baseProfile="full" viewBox="0 0 200 200" width="200" height="200">
<g fill="black">
<polygon points="79.7,15.9 77.1,28.1 73.7,39.6 69.7,50.4 65,60.5 59.6,69.8 53.5,78.5 46.8,86.3 39.3,93.4 31.2,99.5 22.4,104.7 21.5,103.2 28.8,96.5 35.6,89.5 41.8,82 47.3,74.1 52.2,65.6 56.6,56.5 60.3,46.8 63.4,36.5 65.9,25.6 67.9,14 " />
<polygon points="68.2,12 79.7,15.9 67.7,15 " />
<polygon points="79.7,15.9 82.4,18.3 76.9,20.5 " />
<polygon points="59,48 176,48 176,52 59,52 " />
<polygon points="182,50 181.6,69.7 180.7,88 179.2,104.6 177.1,119.8 174.3,133.4 170.9,145.5 166.7,156.1 161.9,165.2 156.2,172.8 149.6,178.8 142.4,169.2 147.2,164.8 151.7,158.8 155.8,151.1 159.5,141.7 162.6,130.6 165.2,117.7 167.3,103.3 168.8,87.1 169.7,69.4 170,50 " />
<polygon points="170,48 176,43 187,52 182,55 170,60 " />
<polygon points="149.6,178.8 145.1,179.9 141.2,177.6 140.1,173.1 142.4,169.2 " />
<polygon points="149.6,178.8 147.6,180.2 145.6,181.4 143.6,182.5 141.5,183.4 139.3,184.2 137.1,184.8 134.9,185.3 132.6,185.7 130.3,185.9 128,186 128,174 129.6,173.9 131.1,173.8 132.7,173.5 134.1,173.2 135.6,172.8 137,172.2 138.4,171.6 139.8,170.9 141.1,170.1 142.4,169.2 " />
<polygon points="108,177 108,174 128,174 128,180 " />
<polygon points="124,50 123.9,50.8 120.1,69.2 114.7,86.6 107.6,103.1 98.9,118.4 88.6,132.8 76.7,146 63.2,158.2 48.1,169.3 31.5,179.1 13.3,187.8 12.6,186.1 29.6,175.8 45,164.9 58.9,153.2 71.2,140.8 81.8,127.6 90.9,113.6 98.5,98.8 104.5,83.1 109,66.6 111.8,50 " />
</g>
</svg>
