<svg xmlns="http://www.w3.org/2000/svg" xmlns:xlink="http://www.w3.org/1999/xlink" version="1.1" baseProfile="full" viewBox="0 0 200 200" width="200" height="200">
<g fill="black">
<polygon points="29.8,19.4 33.4,21.6 36.9,23.6 40.1,25.8 43.1,28.2 45.8,30.7 48.3,33.3 50.5,36.1 52.4,38.9 54.1,41.9 55.5,45 44,48.2 43.6,45.8 43,43.4 42.1,40.8 41,38.2 39.7,35.4 38,32.7 36.1,29.8 34,26.8 31.6,23.7 28.7,20.8 " />
<polygon points="55.5,45 54.9,49.6 51.3,52.4 46.8,51.8 44,48.2 " />
<polygon points="13.3,57.8 16.8,60 20.4,62.1 23.6,64.4 26.6,66.9 29.3,69.6 31.8,72.4 34,75.4 36,78.5 37.7,81.8 39.1,85.2 27.4,88.1 27,85.4 26.4,82.7 25.5,79.9 24.4,77.1 23,74.2 21.4,71.3 19.5,68.3 17.4,65.3 15,62.2 12.2,59.2 " />
<polygon points="39.1,85.2 38.4,89.7 34.7,92.5 30.2,91.8 27.4,88.1 " />
<polygon points="15.8,130.6 21.3,131.1 26.5,132.7 31.2,135.5 35.3,139.4 38.8,144.2 41.5,149.9 43.5,156.4 44.9,163.7 45.6,171.7 45.7,180.5 33.7,179.8 34.2,171.8 34.2,164.7 33.7,158.3 32.7,152.8 31.2,148 29.2,143.9 26.8,140.3 23.7,137.3 20,134.7 15.5,132.4 " />
<polygon points="45.7,180.5 43.6,184.6 39.3,186.1 35.2,184.1 33.7,179.8 " />
<polygon points="30.2,142.8 31.7,139.3 33.8,134.1 36.6,127.2 40,118.6 44,108.2 48.7,96.2 54,82.4 60.1,66.9 66.9,49.7 74.5,30.9 76.2,31.4 70.5,50.9 65.2,68.6 60.2,84.5 55.9,98.7 52,111 48.8,121.7 46.1,130.5 44,137.7 42.4,143 41.5,146.7 " />
<polygon points="83.2,30.8 150.2,30.8 150.2,34.8 83.2,34.8 " />
<polygon points="156.1,32.7 156.3,54.6 156.3,74.6 156,92.9 155.6,109.4 154.9,124.1 154,137 152.9,148.3 151.5,157.8 149.9,165.6 147.9,172 136.7,167.6 138.2,162.7 139.7,155.7 141,146.8 142,136 142.9,123.4 143.6,108.9 144,92.6 144.3,74.5 144.3,54.6 144.2,32.9 " />
<polygon points="144.2,30.8 150.2,25.8 161.2,34.8 156.2,37.8 144.2,42.8 " />
<polygon points="147.9,172 144.7,175.2 140.1,175.3 136.9,172.1 136.7,167.6 " />
<polygon points="147.9,172 146.8,174.3 145.6,176.4 144.1,178.4 142.4,180.2 140.4,181.7 138.3,182.9 136,183.9 133.6,184.6 131.2,184.9 128.6,185.1 128.6,173.1 130,173 131.1,172.8 132.1,172.5 132.9,172.2 133.7,171.8 134.3,171.2 135,170.6 135.6,169.8 136.2,168.8 136.7,167.6 " />
<polygon points="128.6,179.1 128.6,173.1 108.6,173.1 108.6,176.1 " />
<polygon points="120.9,32.8 120.9,32.9 119.8,58.1 117.8,81.4 114.8,102.5 110.8,121.7 105.8,138.8 99.8,153.8 92.8,166.7 84.7,177.4 75.6,185.8 65.6,191.8 64.7,190.2 73.1,183 80.5,174.1 87.1,163.4 92.8,150.8 97.7,136.2 101.7,119.6 104.8,101 107.1,80.3 108.4,57.5 108.8,32.8 " />
<polygon points="91.2,63.7 91.6,72.6 91.5,81.2 90.8,89.5 89.7,97.5 88.2,105.2 86.3,112.6 84,119.7 81.3,126.5 78.2,133 74.7,139.1 64.8,132.4 68.4,127.3 71.7,121.8 74.7,115.9 77.5,109.6 80.1,102.9 82.3,95.8 84.4,88.4 86.2,80.5 87.9,72.3 89.4,63.6 " />
<polygon points="74.7,139.1 70.9,141.6 66.4,140.7 63.9,136.9 64.8,132.4 " />
<polygon points="163.7,70.9 167.7,75.5 171.3,80.6 174.4,86.3 177.3,92.4 179.9,99 182.1,105.9 184.1,113.3 185.8,121.1 187.2,129.2 188.3,137.8 176.3,138.7 175.9,130.5 175.2,122.7 174.2,115.2 173.1,108.1 171.7,101.3 170.1,94.9 168.4,88.8 166.4,83 164.4,77.4 162.2,71.9 " />
<polygon points="188.3,137.8 186.8,142.1 182.8,144.2 178.5,142.8 176.3,138.7 " />
</g>
</svg>
