<svg xmlns="http://www.w3.org/2000/svg" xmlns:xlink="http://www.w3.org/1999/xlink" version="1.1" baseProfile="full" viewBox="0 0 200 200" width="200" height="200">
<g fill="black">
<polygon points="26,84 168,84 168,88 26,88 " />
<polygon points="174,86 174,178 162,184 162,86 " />
<polygon points="162,84 168,79 179,88 174,92 162,86 " />
<polygon points="78,21 78,174 66,174 66,19 " />
<polygon points="78,21 81,23 76,26 " />
<polygon points="130,21 130,174 118,174 118,19 " />
<polygon points="130,21 133,23 128,26 " />
<polygon points="26,170 168,170 168,174 26,174 " />
</g>
</svg>
