<svg xmlns="http://www.w3.org/2000/svg" xmlns:xlink="http://www.w3.org/1999/xlink" version="1.1" baseProfile="full" viewBox="0 0 200 200" width="200" height="200">
<g fill="black">
<polygon points="104.7,38.8 97.9,49.5 90.5,60 82.6,70 74.2,79.7 65.2,89.1 55.6,98.1 45.4,106.7 34.7,114.8 23.4,122.5 11.5,129.7 10.4,128.2 21.2,119.5 31.4,110.7 41.1,101.7 50.3,92.6 59,83.2 67.1,73.7 74.7,63.8 81.8,53.8 88.3,43.5 94.2,32.9 " />
<polygon points="94.2,32.9 104.7,38.8 94.8,31.9 " />
<polygon points="104.7,38.8 106.3,42 99.1,42.5 " />
<polygon points="98.3,42.2 106.9,51.6 115.4,60.5 123.8,68.8 132.2,76.5 140.7,83.6 149.2,90.1 157.7,96 166.3,101.3 175,105.9 183.7,110 178.2,121.9 169,116.9 160.1,111.3 151.4,105.1 142.8,98.2 134.5,90.7 126.4,82.5 118.6,73.7 110.9,64.3 103.7,54.2 96.8,43.3 " />
<polygon points="178.2,121.9 183.7,110 189.5,112.7 " />
<polygon points="53,108 146,108 146,112 53,112 " />
<polygon points="146,108 122,110 134,98 " />
</g>
</svg>
