<svg xmlns="http://www.w3.org/2000/svg" xmlns:xlink="http://www.w3.org/1999/xlink" version="1.1" baseProfile="full" viewBox="0 0 200 200" width="200" height="200">
<g fill="black">
<path d="M 140.1 184.7 L 140.1 178.7 L 122.1 175.7 L 122.1 172.7 L 141.3 172.7 L 142.2 172.5 L 142.8 172.3 L 143.1 172.1 L 143.3 172 L 143.5 171.8 L 143.7 171.5 L 143.8 170.9 L 144 170 L 144.1 168.7 L 144.1 152.9 L 58.8 152.9 L 58.8 179.1 L 46.8 185.1 L 46.8 98.9 L 58.8 104.9 L 144.1 104.9 L 150.1 99.9 L 161.1 108.9 L 156.1 112.9 L 156.1 168.7 L 155.9 171.3 L 155.5 173.8 L 154.7 176.2 L 153.5 178.5 L 151.8 180.5 L 149.8 182.1 L 147.5 183.4 L 145.1 184.2 L 142.6 184.6 Z M 58.8 148.9 L 144.1 148.9 L 144.1 130.9 L 58.8 130.9 Z M 58.8 126.9 L 144.1 126.9 L 144.1 108.9 L 58.8 108.9 Z M 15 91.6 L 14.2 90 L 24.9 83.2 L 34.8 76.2 L 43.9 69.2 L 52.3 62.1 L 59.8 54.8 L 66.5 47.3 L 72.4 39.6 L 73.4 38.1 L 22.3 38.1 L 22.3 34.1 L 76 34.1 L 77.5 31.7 L 81.8 23.7 L 85.3 15.4 L 85.8 14.1 L 96.4 20 L 98.4 23 L 94.6 23.5 L 91.8 28.9 L 88.6 34.1 L 155.5 34.1 L 165.5 24.1 L 177.5 34.1 L 177.5 38.1 L 86.1 38.1 L 80.4 45.7 L 73.4 53.5 L 69.1 57.6 L 141 57.6 L 151 47.6 L 163 57.6 L 163 61.6 L 113.7 61.6 L 113.7 87.5 L 158.4 87.5 L 166.6 78.5 L 176.6 87.5 L 176.6 91.5 L 41.7 91.5 L 41.7 87.5 L 101.7 87.5 L 101.7 61.6 L 66.9 61.6 L 66.9 59.7 L 65.7 60.9 L 57.1 67.9 L 47.8 74.5 L 37.7 80.7 L 26.7 86.4 Z " />
</g>
</svg>
