<svg xmlns="http://www.w3.org/2000/svg" xmlns:xlink="http://www.w3.org/1999/xlink" version="1.1" baseProfile="full" viewBox="0 0 200 200" width="200" height="200">
<g fill="black">
<polygon points="53,18 178,18 178,22 53,22 " />
<polygon points="183.3,22.6 171.5,44.1 158.5,64.5 144.3,83.9 129,102.2 112.5,119.4 94.8,135.6 76,150.6 55.9,164.6 34.7,177.3 12.4,188.7 11.5,187.2 32.8,174 52.9,160.1 71.9,145.5 89.7,129.9 106.4,113.5 122,96.1 136.3,77.8 149.6,58.6 161.6,38.4 172.6,17.3 " />
<polygon points="172,18 178,13 189,22 184,25 172,30 " />
<polygon points="40.2,48.6 47.8,51.4 55.1,54.8 62.1,58.8 68.8,63.2 75.1,68 81.2,73.3 87,78.9 92.4,85 97.6,91.4 102.5,98.2 92.3,104.6 88.3,97.9 84,91.6 79.4,85.6 74.6,79.8 69.4,74.3 64,69.1 58.3,64.1 52.3,59.4 46,54.7 39.5,50.2 " />
<polygon points="102.5,98.2 103.2,102.8 100.5,106.5 96,107.2 92.3,104.6 " />
</g>
</svg>
