<svg xmlns="http://www.w3.org/2000/svg" xmlns:xlink="http://www.w3.org/1999/xlink" version="1.1" baseProfile="full" viewBox="0 0 200 200" width="200" height="200">
<g fill="black">
<path d="M 48.1 185.5 L 48.1 105.4 L 60.1 111.4 L 139.9 111.4 L 145.9 106.4 L 156.9 115.4 L 151.9 119.4 L 151.9 176.5 L 139.9 182.5 L 139.9 172.5 L 60.1 172.5 L 60.1 179.5 Z M 60.1 168.5 L 139.9 168.5 L 139.9 143.1 L 60.1 143.1 Z M 60.1 139.1 L 139.9 139.1 L 139.9 115.4 L 60.1 115.4 Z M 28.9 106.7 L 28.9 23.8 L 40.9 29.8 L 159.1 29.8 L 165.1 24.8 L 176.1 33.8 L 171.1 37.8 L 171.1 94.7 L 159.1 100.7 L 159.1 88.7 L 40.9 88.7 L 40.9 100.7 Z M 40.9 84.7 L 94 84.7 L 94 33.8 L 40.9 33.8 Z M 106 84.7 L 159.1 84.7 L 159.1 33.8 L 106 33.8 Z M 116.4 79.9 L 115.1 78.8 L 117.6 74.6 L 120 70.5 L 122.4 66.6 L 124.8 62.8 L 127.1 59.1 L 129.3 55.6 L 131.4 52.1 L 133.4 48.7 L 135.4 45.4 L 137.2 42.1 L 137.7 41.4 L 147.1 49 L 148.4 52.3 L 144.5 52 L 142 54.9 L 139.3 58 L 136.4 61 L 133.5 64.2 L 127.2 70.5 L 123.8 73.6 L 120.1 76.8 Z M 76.9 76.5 L 72.4 76.4 L 69.1 73.3 L 68 70 L 66.8 66.8 L 65.4 63.6 L 63.9 60.6 L 62.1 57.5 L 60.3 54.5 L 58.2 51.6 L 56 48.6 L 53.6 45.6 L 50.9 42.8 L 52 41.4 L 59 45.2 L 62.3 47.5 L 65.4 49.9 L 68.3 52.6 L 71 55.4 L 73.6 58.5 L 76 61.7 L 78.2 65.1 L 80.2 68.6 L 80.1 73.2 Z " />
</g>
</svg>
