<svg xmlns="http://www.w3.org/2000/svg" xmlns:xlink="http://www.w3.org/1999/xlink" version="1.1" baseProfile="full" viewBox="0 0 200 200" width="200" height="200">
<g fill="black">
<polygon points="16,36.3 184,36.3 184,40.3 16,40.3 " />
<polygon points="184,36.3 160,38.3 172,26.3 " />
<polygon points="106,15 106,68.9 94,68.9 94,13 " />
<polygon points="106,15 109,17 104,20 " />
<polygon points="28,64.9 172,64.9 172,68.9 28,68.9 " />
<polygon points="172,64.9 148,66.9 160,54.9 " />
<polygon points="40,90 160,90 160,94 40,94 " />
<polygon points="160,90 136,92 148,80 " />
<polygon points="17,116 183,116 183,120 17,120 " />
<polygon points="183,116 159,118 171,106 " />
<polygon points="106,116 106,172 94,172 94,116 " />
<polygon points="106,172 103.6,175.6 100,178 96.4,175.6 94,172 " />
<polygon points="106,172 105.8,174.5 105.4,177 104.6,179.4 103.3,181.7 101.7,183.7 99.7,185.3 97.4,186.6 95,187.4 92.5,187.8 90,188 90,176 91.2,175.9 92.1,175.7 92.7,175.5 93,175.4 93.2,175.2 93.4,175 93.5,174.7 93.7,174.1 93.9,173.2 94,172 " />
<polygon points="90,182 90,176 70,176 70,179 " />
<polygon points="68.6,137.9 65.1,142.8 61.2,147.6 57,152.3 52.4,156.8 47.5,161.2 42.3,165.5 36.7,169.6 30.7,173.6 24.3,177.3 17.4,180.7 16.5,179.2 22.1,174.2 27.4,169.3 32.5,164.5 37.2,159.8 41.6,155.1 45.7,150.4 49.3,145.8 52.7,141.1 55.7,136.4 58.3,131.7 " />
<polygon points="57.8,132.6 68.6,137.9 58.8,130.8 " />
<polygon points="68.6,137.9 70.1,141.2 64.3,141.2 " />
<polygon points="123.2,132.4 128.6,133.2 133.8,134.2 138.7,135.6 143.4,137.2 148,139.1 152.3,141.2 156.3,143.5 160.2,146 163.8,148.7 167.3,151.7 158.5,159.9 156.1,157 153.5,154.2 150.5,151.5 147.3,148.9 143.9,146.3 140.2,143.8 136.2,141.4 131.9,139 127.4,136.5 122.7,134.1 " />
<polygon points="167.3,151.7 168.8,155.9 167,160.1 162.7,161.7 158.5,159.9 " />
</g>
</svg>
