<svg xmlns="http://www.w3.org/2000/svg" xmlns:xlink="http://www.w3.org/1999/xlink" version="1.1" baseProfile="full" viewBox="0 0 200 200" width="200" height="200">
<g fill="black">
<polygon points="109.3,17.2 107.3,19.4 105.2,21.7 103,23.9 100.8,26.1 98.6,28.2 96.3,30.3 93.9,32.4 91.5,34.5 89,36.4 86.6,38.5 85.3,37.4 86.9,34.7 88.3,31.8 89.7,29 91.1,26.3 92.5,23.6 94,20.9 95.4,18.3 96.7,15.6 98.1,13 99.4,10.4 " />
<polygon points="99.9,9.7 109.3,17.2 98.9,11.2 " />
<polygon points="109.3,17.2 110.6,20.5 104.8,20.2 " />
<polygon points="62,36 62,136 50,142 50,30 " />
<polygon points="56,36 145,36 145,40 56,40 " />
<polygon points="151,38 151,86 139,92 139,38 " />
<polygon points="139,36 145,31 156,40 151,44 139,38 " />
<polygon points="56,58 145,58 145,62 56,62 " />
<polygon points="56,80 145,80 145,84 56,84 " />
<polygon points="56,100 185,100 185,104 56,104 " />
<polygon points="185,100 165,102 175,91 " />
<polygon points="56,120 169,120 169,124 56,124 " />
<polygon points="174.9,121.7 175.2,130.1 175.4,137.8 175.3,145 175,151.5 174.4,157.4 173.7,162.7 172.7,167.5 171.5,171.7 169.9,175.4 167.8,178.7 158.4,171.4 159.2,170 160.2,167.7 161.1,164.6 161.9,160.7 162.5,156.1 163,150.7 163.3,144.6 163.4,137.8 163.3,130.4 163,122.2 " />
<polygon points="163,120 169,115 180,124 175,127 163,132 " />
<polygon points="167.8,178.7 163.8,181 159.4,179.8 157.2,175.8 158.4,171.4 " />
<polygon points="167.8,178.7 166.2,180.6 164.5,182.3 162.7,183.9 160.7,185.2 158.6,186.4 156.4,187.3 154.2,188 151.8,188.5 149.4,188.9 147,189 147,177 148.4,176.9 149.8,176.7 151.1,176.4 152.2,176.1 153.3,175.6 154.4,175 155.4,174.3 156.4,173.5 157.4,172.5 158.4,171.4 " />
<polygon points="127,180 127,177 147,177 147,183 " />
</g>
</svg>
