<svg xmlns="http://www.w3.org/2000/svg" xmlns:xlink="http://www.w3.org/1999/xlink" version="1.1" baseProfile="full" viewBox="0 0 200 200" width="200" height="200">
<g fill="black">
<path d="M 170.1 185.7 L 165.5 185.6 L 162.3 182.4 L 158.9 175.2 L 153.7 167.5 L 146.5 159.3 L 137.4 150.7 L 126.4 141.8 L 113.5 132.6 L 98.8 123 L 82.2 113.2 L 63.7 102.9 L 44.8 92.9 L 34.2 96.3 L 14.2 101.8 L 13.7 100.1 L 33 92.7 L 51.3 85.2 L 68.5 77.4 L 84.6 69.3 L 99.7 60.9 L 113.7 52.2 L 126.6 43 L 138.4 33.6 L 149.2 23.8 L 158.2 14.3 L 159.2 13.2 L 167.7 21.8 L 168.5 25.3 L 164.9 24.5 L 157 32.1 L 145.2 41.9 L 132.5 51.2 L 118.7 60 L 103.8 68.3 L 88 76.1 L 71.1 83.4 L 53.2 90.2 L 47.7 92 L 65.4 99.5 L 84.7 108.4 L 102.1 117.3 L 117.6 126.2 L 131.4 134.9 L 143.3 143.5 L 153.5 152.1 L 161.9 160.6 L 168.6 169.2 L 173.4 177.9 L 173.3 182.5 Z " />
</g>
</svg>
