<svg xmlns="http://www.w3.org/2000/svg" xmlns:xlink="http://www.w3.org/1999/xlink" version="1.1" baseProfile="full" viewBox="0 0 200 200" width="200" height="200">
<g fill="black">
<path d="M 160 186 L 160 180 L 146 177 L 146 174 L 160 174 L 161.2 173.9 L 162.1 173.7 L 163 173.4 L 163.4 173 L 163.7 172.1 L 163.9 171.2 L 164 170 L 164 27 L 106 27 L 106 177 L 94 183 L 94 27 L 36 27 L 36 181 L 24 187 L 24 17 L 36 23 L 164 23 L 170 18 L 181 27 L 176 31 L 176 170 L 175.8 172.5 L 175.4 175 L 174.6 177.4 L 173.3 179.7 L 171.7 181.7 L 169.7 183.3 L 167.4 184.6 L 165 185.4 L 162.5 185.8 Z " />
</g>
</svg>
