<svg xmlns="http://www.w3.org/2000/svg" xmlns:xlink="http://www.w3.org/1999/xlink" version="1.1" baseProfile="full" viewBox="0 0 200 200" width="200" height="200">
<g fill="black">
<polygon points="34,16 177,16 177,20 34,20 " />
<polygon points="182.9,17.6 184.1,44.6 184.5,69.1 184,91.3 182.7,111.2 180.5,128.7 177.5,143.9 173.5,156.8 168.5,167.5 162.3,176.1 154.6,182.2 148.7,171.8 153.5,167.9 158.1,161.5 162.3,152.6 165.9,141 168.7,126.8 170.8,110 172,90.8 172.5,69.1 172.1,44.9 171,18.3 " />
<polygon points="171,16 177,11 188,20 183,23 171,28 " />
<polygon points="154.6,182.2 150.1,182.7 146.4,180 145.9,175.4 148.7,171.8 " />
<polygon points="154.6,182.2 152.6,183.3 150.5,184.3 148.4,185.1 146.3,185.9 144.2,186.5 142,187 139.8,187.4 137.5,187.7 135.2,187.9 133,188 133,176 134.6,175.9 136.3,175.8 137.9,175.6 139.5,175.3 141.1,174.9 142.6,174.5 144.2,173.9 145.7,173.3 147.2,172.6 148.7,171.8 " />
<polygon points="113,179 113,176 133,176 133,182 " />
<polygon points="101,16 101,96 89,96 89,16 " />
<polygon points="101,96 98.6,99.6 95,102 91.4,99.6 89,96 " />
<polygon points="100.9,96.2 99.2,110.7 95.9,124.3 90.9,136.7 84.3,148.1 76.1,158.2 66.5,167.2 55.3,175 42.7,181.5 28.7,186.8 13.2,190.8 12.7,189.1 27.3,183.3 40.3,176.8 51.7,169.5 61.5,161.5 69.8,152.7 76.5,143 81.7,132.6 85.6,121.2 88,109 89,95.7 " />
<polygon points="37,58 177,58 177,62 37,62 " />
<polygon points="29,106 177,106 177,110 29,110 " />
</g>
</svg>
