<svg xmlns="http://www.w3.org/2000/svg" xmlns:xlink="http://www.w3.org/1999/xlink" version="1.1" baseProfile="full" viewBox="0 0 200 200" width="200" height="200">
<g fill="black">
<path d="M 111 188 L 111 102 L 123 108 L 156 108 L 156 33 L 168 35 L 171 37 L 168 38.8 L 168 114 L 156 120 L 156 112 L 123 112 L 123 129 L 163 129 L 173 119 L 185 129 L 185 133 L 164 133 L 164 180 L 152 186 L 152 133 L 123 133 L 123 182 Z M 77 188 L 77 133 L 49 133 L 49 150 L 48.9 150.2 L 48.1 155.3 L 46.7 160.2 L 44.8 164.7 L 42.3 169 L 39.3 172.9 L 35.8 176.4 L 31.9 179.6 L 27.5 182.4 L 22.6 184.7 L 17.4 186.7 L 16.5 185.2 L 20.8 181.8 L 24.5 178.3 L 27.7 174.9 L 30.4 171.5 L 32.6 168 L 34.3 164.5 L 35.6 161 L 36.5 157.3 L 36.9 153.6 L 37 150 L 37 133 L 16 133 L 16 129 L 77 129 L 77 112 L 43 112 L 43 115 L 31 121 L 31 33 L 43 35 L 46 37 L 43 38.8 L 43 108 L 77 108 L 83 103 L 94 112 L 89 116 L 89 182 Z " />
</g>
</svg>
