<svg xmlns="http://www.w3.org/2000/svg" xmlns:xlink="http://www.w3.org/1999/xlink" version="1.1" baseProfile="full" viewBox="0 0 200 200" width="200" height="200">
<g fill="black">
<polygon points="79.9,16.9 75.7,24.3 71.1,31.4 65.9,38.2 60.3,44.7 54.2,50.9 47.6,56.7 40.6,62.3 33,67.5 25,72.3 16.4,76.6 15.5,75 22.9,69.1 29.8,63.2 36.3,57.3 42.4,51.2 48,45 53.2,38.7 57.8,32.2 62.1,25.5 65.8,18.7 69.1,11.7 " />
<polygon points="68.7,12.6 79.9,16.9 69.7,10.6 " />
<polygon points="79.9,16.9 81.8,20 76,20.5 " />
<polygon points="58,36.4 180,36.4 180,40.4 58,40.4 " />
<polygon points="180,36.4 156,38.4 168,26.4 " />
<polygon points="144.8,38.4 141.7,42 132.7,52.2 122.8,61.8 112,70.5 100.4,78.6 87.8,85.9 74.4,92.6 60.2,98.4 45,103.6 29,107.8 12.2,111.2 11.7,109.5 28,104.2 43.3,98.5 57.6,92.4 71.1,85.7 83.6,78.6 95.1,70.9 105.8,62.7 115.5,53.9 124.3,44.6 129.2,38.4 " />
<polygon points="64.3,38.7 72.1,46.7 80.5,54.3 89.7,61.3 99.8,67.7 110.8,73.6 122.7,78.8 135.6,83.6 149.4,87.7 164.3,91.3 180.2,94.3 177.7,107.2 161.4,103.5 146.1,99 131.8,93.9 118.6,88.2 106.4,81.8 95.3,74.7 85.3,67 76.5,58.6 68.9,49.5 62.8,39.7 " />
<polygon points="177.7,107.2 180.2,94.3 189.6,96 " />
<polygon points="17,118.6 181.9,118.6 181.9,122.6 17,122.6 " />
<polygon points="181.9,118.6 157.9,120.6 169.9,108.6 " />
<polygon points="105.5,95.5 105.5,182.4 93.5,188.4 93.5,93.5 " />
<polygon points="105.5,95.5 108.5,97.5 103.5,100.5 " />
<polygon points="100.9,120.6 98.4,123.9 92.2,131.8 85.4,139.2 78.2,146.2 70.3,152.6 62,158.6 53.1,164.1 43.7,169.2 33.8,173.7 23.3,177.5 12.3,180.8 11.7,179.1 21.9,174 31.5,168.8 40.5,163.4 49,157.7 57,151.8 64.4,145.5 71.2,138.9 77.5,132 83.3,124.7 86.1,120.6 " />
<polygon points="105.8,120.7 112.7,126.4 119.6,131.9 126.6,137.2 133.8,142.3 141.2,147 148.9,151.5 156.8,155.7 165,159.7 173.5,163.3 182.3,166.6 177.4,178.9 168.4,174.7 159.7,170.2 151.4,165.4 143.5,160.2 135.9,154.7 128.7,148.9 121.9,142.7 115.6,136.2 109.7,129.3 104.5,121.9 " />
<polygon points="177.4,178.9 182.3,166.6 188.9,169.2 " />
</g>
</svg>
