<svg xmlns="http://www.w3.org/2000/svg" xmlns:xlink="http://www.w3.org/1999/xlink" version="1.1" baseProfile="full" viewBox="0 0 200 200" width="200" height="200">
<g fill="black">
<polygon points="32,19 161,19 161,23 32,23 " />
<polygon points="161,19 137,21 149,9 " />
<polygon points="12,95 187,95 187,99 12,99 " />
<polygon points="187,95 163,97 175,85 " />
<polygon points="76,19 76,92 64,92 64,19 " />
<polygon points="76,92 73.6,95.6 70,98 66.4,95.6 64,92 " />
<polygon points="75.9,92.3 74.3,107.8 71.6,122.2 67.8,135.3 63,147.1 57.1,157.6 50.1,166.8 42.1,174.6 33,180.9 23.1,185.6 12.2,188.8 11.7,187.1 21.4,182.2 30.1,176.4 37.6,169.7 44.2,162 49.8,153.3 54.5,143.3 58.3,132.3 61.1,120 63,106.4 64,91.6 " />
<polygon points="125,19 125,171 113,171 113,19 " />
<polygon points="125,171 122.6,174.6 119,177 115.4,174.6 113,171 " />
<polygon points="125,171 125,172.2 125.2,173.1 125.4,173.7 125.5,174 125.7,174.2 125.9,174.4 126.2,174.5 126.8,174.7 127.7,174.9 129,175 129,187 126.4,186.8 123.9,186.4 121.5,185.6 119.2,184.3 117.2,182.7 115.6,180.7 114.3,178.4 113.5,176 113.1,173.5 113,171 " />
<polygon points="129,175 133.2,176.8 135,181 133.2,185.2 129,187 " />
<polygon points="129,175 182,175 182,187 129,187 " />
<polygon points="182,175 185.6,177.4 188,181 185.6,184.6 182,187 " />
<polygon points="176,176 182,150 184,150 182,176 " />
</g>
</svg>
