<svg xmlns="http://www.w3.org/2000/svg" xmlns:xlink="http://www.w3.org/1999/xlink" version="1.1" baseProfile="full" viewBox="0 0 200 200" width="200" height="200">
<g fill="black">
<polygon points="78.2,15.8 60.9,137.7 48.2,141.9 66.3,14.1 " />
<polygon points="65,57 140,57 140,61 65,61 " />
<polygon points="145.9,59.6 133.7,178.6 121.8,177.3 134,58.3 " />
<polygon points="134,57 140,52 151,61 146,65 134,59 " />
<polygon points="81.2,83.4 85.7,84.5 90.1,85.6 94.2,87.1 98.1,88.9 101.7,91 105,93.4 108,96.1 110.8,99.1 113.2,102.3 115.3,105.9 104.3,110.5 103.3,107.7 102.1,105 100.6,102.3 98.8,99.7 96.6,97.1 94.1,94.6 91.3,92.2 88.1,89.7 84.6,87.3 80.6,85.1 " />
<polygon points="115.3,105.9 115.3,110.4 112.1,113.7 107.5,113.7 104.3,110.5 " />
<polygon points="74.2,120.5 78.1,121.6 82,122.9 85.7,124.6 89.2,126.6 92.6,129 95.8,131.7 98.9,134.8 101.8,138.1 104.5,141.7 107,145.6 96.2,151 94.7,147.3 93,143.9 91.2,140.7 89.2,137.6 87.1,134.7 84.7,132 82.2,129.4 79.6,126.8 76.7,124.3 73.5,122.2 " />
<polygon points="107,145.6 107.2,150.1 104.3,153.6 99.7,153.9 96.2,151 " />
</g>
</svg>
