<svg xmlns="http://www.w3.org/2000/svg" xmlns:xlink="http://www.w3.org/1999/xlink" version="1.1" baseProfile="full" viewBox="0 0 200 200" width="200" height="200">
<g fill="black">
<path d="M 19.2 182.8 L 18.7 181.1 L 38.3 172.9 L 56.8 163.7 L 74.3 153.4 L 90.6 141.9 L 105.9 129.2 L 120.2 115.3 L 133.3 100.2 L 145.4 83.8 L 156.5 66.2 L 164 52 L 91.4 52 L 90.9 52.7 L 82.8 62.2 L 76.7 68.6 L 79.3 69.4 L 85 71.5 L 90.3 73.8 L 95.3 76.2 L 99.9 78.8 L 104.2 81.4 L 108.1 84.1 L 111.7 86.9 L 115 89.9 L 117.9 92.9 L 119 97.4 L 116.8 101.3 L 112.3 102.5 L 108.4 100.2 L 106.5 97.4 L 104.2 94.6 L 101.5 91.7 L 98.5 88.7 L 95 85.7 L 91.2 82.6 L 87.1 79.4 L 82.5 76.2 L 77.7 72.8 L 74.7 70.7 L 74.2 71.3 L 65 80 L 55.2 88.2 L 50.3 91.9 L 51.6 92.3 L 56.8 94.4 L 61.6 96.7 L 66.2 99.2 L 70.6 101.9 L 74.7 104.8 L 78.6 107.8 L 82.3 111 L 85.7 114.4 L 89 117.9 L 79.4 125.2 L 77 121.7 L 74.5 118.4 L 71.7 115.1 L 68.7 111.8 L 65.4 108.5 L 61.8 105.3 L 58.1 102.1 L 54.1 98.9 L 49.9 95.6 L 47.6 93.9 L 44.9 95.9 L 34 103.1 L 22.4 109.7 L 21.5 108.2 L 31.8 100 L 41.6 91.7 L 50.9 83.2 L 59.7 74.5 L 68 65.5 L 75.7 56.2 L 82.9 46.6 L 89.5 36.8 L 95.6 26.6 L 101.2 16 L 101.7 15 L 111.8 21.6 L 113.5 24.8 L 109.8 25 L 105.4 32.4 L 98.4 42.8 L 94.5 48 L 166 48 L 166.3 47.7 L 166.6 47.2 L 166.8 47.3 L 172 43 L 183 52 L 178 55 L 175.4 56.1 L 166.3 72 L 154.2 90 L 141 106.6 L 126.8 121.8 L 111.5 135.7 L 95.1 148.1 L 77.7 159 L 59.2 168.5 L 39.7 176.4 Z M 83.3 127.4 L 79.4 125.2 L 89 118 L 90 122.4 L 87.8 126.4 Z " />
</g>
</svg>
