<svg xmlns="http://www.w3.org/2000/svg" xmlns:xlink="http://www.w3.org/1999/xlink" version="1.1" baseProfile="full" viewBox="0 0 200 200" width="200" height="200">
<g fill="black">
<path d="M 95 191 L 95 140 L 22 140 L 22 136 L 50 136 L 50 94 L 12 94 L 12 90 L 50 90 L 50 47 L 21 47 L 21 43 L 95 43 L 95 11 L 107 13 L 110 15 L 107 16.8 L 107 43 L 156 43 L 166 33 L 178 43 L 178 47 L 150 47 L 150 90 L 166 90 L 176 80 L 188 90 L 188 94 L 150 94 L 150 136 L 156 136 L 166 126 L 178 136 L 178 140 L 107 140 L 107 185 Z M 62 136 L 95 136 L 95 94 L 62 94 Z M 107 136 L 138 136 L 138 94 L 107 94 Z M 62 90 L 95 90 L 95 47 L 62 47 Z M 107 90 L 138 90 L 138 47 L 107 47 Z " />
</g>
</svg>
