<svg xmlns="http://www.w3.org/2000/svg" xmlns:xlink="http://www.w3.org/1999/xlink" version="1.1" baseProfile="full" viewBox="0 0 200 200" width="200" height="200">
<g fill="black">
<path d="M 16 174 L 16 170 L 94 170 L 94 88 L 34 88 L 34 84 L 94 84 L 94 34 L 28 34 L 28 30 L 150 30 L 160 20 L 172 30 L 172 34 L 106 34 L 106 84 L 144 84 L 154 74 L 166 84 L 166 88 L 106 88 L 106 170 L 162 170 L 172 160 L 184 170 L 184 174 Z M 123.8 167.3 L 122.1 166.6 L 124 159.9 L 125.9 153.3 L 127.8 147 L 129.8 140.7 L 131.7 134.7 L 133.5 128.7 L 135.2 122.9 L 136.9 117.2 L 138.5 111.6 L 139.7 107 L 139.6 107 L 140.4 104.5 L 151.4 109.7 L 153.6 112.6 L 149.9 113.4 L 147 120.7 L 144.7 126.3 L 142.2 132 L 139.6 137.7 L 136.8 143.5 L 133.9 149.4 L 130.8 155.4 L 127.4 161.3 Z M 69.4 158.9 L 65 157.8 L 62.5 154 L 61.9 148.8 L 61.1 143.6 L 60.1 138.6 L 59 133.6 L 57.7 128.6 L 56.3 123.7 L 54.8 118.9 L 53.1 114.1 L 49.7 104.3 L 51.2 103.3 L 54.7 107.4 L 57.9 111.6 L 60.7 116.2 L 63.3 120.9 L 65.7 125.7 L 67.8 130.7 L 69.8 135.8 L 71.5 141.1 L 73 146.5 L 74.4 152 L 73.3 156.4 Z " />
</g>
</svg>
