<svg xmlns="http://www.w3.org/2000/svg" xmlns:xlink="http://www.w3.org/1999/xlink" version="1.1" baseProfile="full" viewBox="0 0 200 200" width="200" height="200">
<g fill="black">
<polygon points="56,19.3 56,102.8 44,108.8 44,17.3 " />
<polygon points="56,19.3 59,21.3 54,24.3 " />
<polygon points="106,19.3 106,90.8 94,90.8 94,17.3 " />
<polygon points="106,19.3 109,21.3 104,24.3 " />
<polygon points="156,19.3 156,96.8 144,102.8 144,17.3 " />
<polygon points="156,19.3 159,21.3 154,24.3 " />
<polygon points="19,41.2 186,41.2 186,45.2 19,45.2 " />
<polygon points="186,41.2 162,43.2 174,31.2 " />
<polygon points="50,86.8 150,86.8 150,90.8 50,90.8 " />
<polygon points="18,117.3 182,117.3 182,121.3 18,121.3 " />
<polygon points="182,117.3 158,119.3 170,107.3 " />
<polygon points="106,93.7 106,182.1 94,188.1 94,91.7 " />
<polygon points="106,93.7 109,95.7 104,98.7 " />
<polygon points="101.4,119.3 98.9,122.6 92.8,130.6 86.1,138.1 78.8,145.2 71,151.8 62.7,157.9 53.9,163.5 44.5,168.6 34.7,173.2 24.2,177.2 13.3,180.5 12.6,178.8 22.7,173.7 32.3,168.4 41.3,162.9 49.8,157.1 57.7,151.1 65,144.7 71.8,138 78.1,131 83.8,123.6 86.6,119.3 " />
<polygon points="106.3,119.4 113.1,125.2 120,130.9 127,136.3 134.1,141.4 141.5,146.3 149.2,150.9 157.1,155.1 165.3,159.1 173.7,162.8 182.4,166.2 177.5,178.4 168.5,174.2 159.9,169.6 151.6,164.7 143.7,159.5 136.2,153.9 129,148 122.3,141.8 115.9,135.1 110.1,128.1 104.9,120.6 " />
<polygon points="177.5,178.4 182.4,166.2 188.9,168.9 " />
</g>
</svg>
