<svg xmlns="http://www.w3.org/2000/svg" xmlns:xlink="http://www.w3.org/1999/xlink" version="1.1" baseProfile="full" viewBox="0 0 200 200" width="200" height="200">
<g fill="black">
<polygon points="12,67 180,67 180,71 12,71 " />
<polygon points="186,13 186,183 174,189 174,11 " />
<polygon points="186,13 189,15 186,17 " />
<polygon points="18.9,153.9 36.2,151.2 53.2,148.6 70,145.9 86.5,143.3 102.7,140.7 118.6,138.2 134.3,135.7 149.7,133.3 164.8,131.1 179.8,129.1 180.1,130.8 165.6,134.8 150.7,138.6 135.5,142.2 120,145.7 104.2,149.1 88.1,152.5 71.8,155.8 55.1,159.1 38.2,162.4 20.9,165.7 " />
<polygon points="20.9,165.7 18.9,153.9 17,154.2 " />
<polygon points="20.9,165.7 23.4,168.3 26.4,161.7 " />
</g>
</svg>
