<svg xmlns="http://www.w3.org/2000/svg" xmlns:xlink="http://www.w3.org/1999/xlink" version="1.1" baseProfile="full" viewBox="0 0 200 200" width="200" height="200">
<g fill="black">
<path d="M 12.2 188.8 L 11.7 187.1 L 34 178.4 L 54.3 168.6 L 72.8 157.5 L 89.4 145.1 L 93.3 141.5 L 87.5 135.7 L 76.6 122.3 L 66.9 107.6 L 58.5 91.6 L 51.9 75.2 L 45.3 82.3 L 36.5 90.8 L 26.9 98.9 L 16.5 106.6 L 15.4 105.3 L 24.3 96.1 L 32.7 87 L 40.4 77.9 L 47.5 68.8 L 53.9 59.7 L 59.7 50.5 L 64.7 41.3 L 69.1 31.9 L 72.9 22.5 L 75.9 13.1 L 76.4 11.5 L 87.4 16.7 L 89.6 19.6 L 85.9 20.4 L 83.5 26.7 L 78.8 36.5 L 75.8 42 L 151 42 L 157 37 L 168 46 L 163 49 L 161.5 49.6 L 156 66.9 L 147.3 86.9 L 136.8 105.4 L 124.4 122.2 L 110.2 137.5 L 106.1 141 L 118.5 150 L 132.3 158.1 L 147.1 164.8 L 162.8 170.3 L 179.4 174.5 L 188.3 176.5 L 176.5 187.4 L 158.9 182.2 L 142.4 175.7 L 127 167.7 L 112.7 158.4 L 99.5 147.7 L 98.9 147.1 L 94.1 151.1 L 76.3 163.1 L 56.7 173.4 L 35.3 182 Z M 99.8 135.5 L 104.2 131.4 L 117.2 116.4 L 128.3 100 L 137.7 82.3 L 145.3 63.1 L 150.1 46 L 73.6 46 L 73.5 46.1 L 67.5 55.5 L 60.8 64.7 L 53.4 73.6 L 53.3 73.7 L 62.2 89.6 L 71.9 104.4 L 82.3 117.8 L 93.5 129.9 Z M 114.1 101.4 L 109.6 101.1 L 106.4 97.8 L 105.1 94 L 103.4 90.2 L 101.2 86.5 L 98.7 82.7 L 95.7 79.1 L 92.3 75.5 L 88.4 71.9 L 84.1 68.3 L 79.4 64.6 L 74.3 60.9 L 75 59.3 L 81.2 61.3 L 86.9 63.7 L 92.2 66.5 L 97.1 69.6 L 101.6 72.9 L 105.6 76.6 L 109.3 80.4 L 112.5 84.6 L 115.3 89 L 117.7 93.6 L 117.4 98.2 Z " />
</g>
</svg>
