<svg xmlns="http://www.w3.org/2000/svg" xmlns:xlink="http://www.w3.org/1999/xlink" version="1.1" baseProfile="full" viewBox="0 0 200 200" width="200" height="200">
<g fill="black">
<path d="M 94 187.8 L 94 56.4 L 16 56.4 L 16 52.4 L 162 52.4 L 172 42.4 L 184 52.4 L 184 56.4 L 106 56.4 L 106 181.8 Z M 117.6 52.4 L 116.3 51.1 L 119.2 46.9 L 122.1 42.9 L 125 39 L 127.9 35.2 L 130.7 31.4 L 133.4 27.7 L 136.1 23.9 L 138.7 20.3 L 141.2 16.6 L 143 13.8 L 144 12.4 L 153.1 20.2 L 154.3 23.7 L 150.4 23.2 L 150.1 23.6 L 143.7 30.4 L 140.4 33.7 L 136.9 37 L 129.7 43.4 L 125.8 46.5 L 121.8 49.5 Z M 75.7 49.6 L 72.2 46.5 L 71.1 43.6 L 69.6 40.7 L 67.9 37.8 L 65.7 35 L 63.2 32.1 L 60.4 29.3 L 57.2 26.4 L 53.7 23.6 L 49.8 20.7 L 45.5 17.9 L 46.2 16.2 L 51.2 17.7 L 56 19.4 L 60.5 21.3 L 64.6 23.5 L 68.5 25.9 L 72 28.6 L 75.3 31.4 L 78.2 34.6 L 80.8 37.9 L 83.1 41.4 L 83.3 46 L 80.2 49.4 Z " />
</g>
</svg>
