<svg xmlns="http://www.w3.org/2000/svg" xmlns:xlink="http://www.w3.org/1999/xlink" version="1.1" baseProfile="full" viewBox="0 0 200 200" width="200" height="200">
<g fill="black">
<polygon points="69.3,20.8 66.3,28 62.7,35 58.7,41.7 54.1,48.1 48.9,54.3 43.3,60.3 37.2,65.9 30.5,71.2 23.3,76.2 15.5,80.7 14.4,79.2 20.9,73.2 27,67.2 32.6,61.2 37.7,55.2 42.3,49 46.4,42.8 50,36.5 53.2,30.1 55.8,23.6 57.9,17 " />
<polygon points="57.9,17 69.3,20.8 58.4,15.5 " />
<polygon points="69.3,20.8 71.5,23.6 64.6,25.5 " />
<polygon points="50,47 188,47 188,51 50,51 " />
<polygon points="188,47 164,49 176,37 " />
<polygon points="142.3,63.5 131.9,69.6 120.9,75.6 109.4,81.5 97.2,87.3 84.5,92.9 71.3,98.5 57.4,103.9 43,109.1 27.9,114.1 12.3,118.8 11.6,117.1 26.6,110.5 41,104.1 54.9,97.8 68.2,91.5 80.9,85.2 93.1,78.9 104.7,72.6 115.7,66.3 126.1,59.9 135.9,53.4 " />
<polygon points="135.9,53.4 142.3,63.5 143.4,62.9 " />
<polygon points="143.4,62.9 143.5,66.4 136.5,63.7 " />
<polygon points="73,101 73,185 61,191 61,99 " />
<polygon points="73,101 76,103 73,105 " />
<polygon points="174,98.7 168.5,101.3 162.9,104 157.1,106.7 151.2,109.4 145.2,112.1 139,114.8 132.6,117.4 126.1,120 119.3,122.5 112.3,124.8 111.6,123.1 117.6,119.1 123.7,115.2 129.7,111.5 135.5,108 141.3,104.6 146.9,101.2 152.4,97.8 157.8,94.6 163.1,91.4 168.2,88.2 " />
<polygon points="168.2,88.2 174,98.7 176.1,97.5 " />
<polygon points="176.1,97.5 176.3,100.8 169,98 " />
<polygon points="96.1,81.6 102.6,95.2 109.3,107.7 116.3,119.2 123.8,129.6 131.6,138.9 139.9,147.2 148.6,154.4 157.7,160.5 167.3,165.7 177.3,169.8 172.6,182.1 161.6,176.8 151.3,170.4 141.6,163 132.7,154.5 124.5,145 116.9,134.4 110.1,122.9 104,110.4 98.8,96.8 94.4,82.2 " />
<polygon points="172.6,182.1 177.3,169.8 184.1,172.4 " />
</g>
</svg>
