<svg xmlns="http://www.w3.org/2000/svg" xmlns:xlink="http://www.w3.org/1999/xlink" version="1.1" baseProfile="full" viewBox="0 0 200 200" width="200" height="200">
<g fill="black">
<path d="M 94 188 L 94 149 L 17 149 L 17 145 L 64 145 L 64 116 L 28 116 L 28 112 L 64 112 L 64 83 L 53 83 L 53 95 L 41 101 L 41 18 L 53 24 L 147 24 L 153 19 L 164 28 L 159 32 L 159 89 L 147 95 L 147 83 L 136 83 L 136 112 L 150 112 L 160 102 L 172 112 L 172 116 L 136 116 L 136 145 L 161 145 L 171 135 L 183 145 L 183 149 L 106 149 L 106 182 Z M 76 145 L 94 145 L 94 116 L 76 116 Z M 106 145 L 124 145 L 124 116 L 106 116 Z M 76 112 L 94 112 L 94 83 L 76 83 Z M 106 112 L 124 112 L 124 83 L 106 83 Z M 53 79 L 94 79 L 94 56 L 53 56 Z M 106 79 L 147 79 L 147 56 L 106 56 Z M 53 52 L 94 52 L 94 28 L 53 28 Z M 106 52 L 147 52 L 147 28 L 106 28 Z " />
</g>
</svg>
