<svg xmlns="http://www.w3.org/2000/svg" xmlns:xlink="http://www.w3.org/1999/xlink" version="1.1" baseProfile="full" viewBox="0 0 200 200" width="200" height="200">
<g fill="black">
<polygon points="26,26 179,26 179,30 26,30 " />
<polygon points="179,26 155,28 167,16 " />
<polygon points="104.8,28.2 103.4,32.8 102,37.3 100.4,41.7 98.8,46 97.1,50.2 95.3,54.2 93.4,58.2 91.4,62.1 89.1,65.7 86.8,69.3 85.1,68.6 85.9,64.5 86.7,60.3 87.6,56.2 88.4,52 89.3,47.7 90.1,43.4 90.9,39.1 91.7,34.7 92.4,30.2 93.1,25.7 " />
<polygon points="64,67 64,172 52,172 52,61 " />
<polygon points="58,67 143,67 143,71 58,71 " />
<polygon points="149,69 149,172 137,172 137,69 " />
<polygon points="137,67 143,62 154,71 149,75 137,69 " />
<polygon points="58,97 143,97 143,101 58,101 " />
<polygon points="58,132 143,132 143,136 58,136 " />
<polygon points="19,168 184,168 184,172 19,172 " />
<polygon points="184,168 160,170 172,158 " />
</g>
</svg>
