<svg xmlns="http://www.w3.org/2000/svg" xmlns:xlink="http://www.w3.org/1999/xlink" version="1.1" baseProfile="full" viewBox="0 0 200 200" width="200" height="200">
<g fill="black">
<polygon points="24,38 168,38 168,42 24,42 " />
<polygon points="173,41 170.3,130.2 158.4,129.7 161.9,40 " />
<polygon points="162,38 168,33 179,42 174,45 162,50 " />
<polygon points="170.3,130.2 170.1,132.8 169.6,135.2 168.7,137.6 167.4,139.8 165.7,141.8 163.7,143.4 161.4,144.6 159,145.4 156.5,145.8 154,146 154,134 155.2,133.9 156.1,133.7 156.8,133.5 157.1,133.3 157.4,133.1 157.6,132.9 157.8,132.5 158,131.9 158.2,131 158.4,129.7 " />
<polygon points="134,137 134,134 154,134 154,140 " />
<polygon points="102,38 102,181 90,187 90,38 " />
</g>
</svg>
