<svg xmlns="http://www.w3.org/2000/svg" xmlns:xlink="http://www.w3.org/1999/xlink" version="1.1" baseProfile="full" viewBox="0 0 200 200" width="200" height="200">
<g fill="black">
<path d="M 12.5 188.7 L 11.4 187.2 L 17.4 181.2 L 23 174.9 L 28 168.2 L 32.6 161.1 L 36.7 153.4 L 40.3 145.2 L 43.4 136.5 L 46.1 127.3 L 48.2 117.4 L 49.9 107 L 50.2 105 L 61.7 108.9 L 64.4 111.3 L 60.9 112.7 L 59.3 119.9 L 56.4 130.2 L 54.4 135.7 L 57.3 140.6 L 63.1 148.3 L 69.7 154.8 L 77.6 160.2 L 87.4 164.6 L 94 166.5 L 94 80 L 37 80 L 37 76 L 165 76 L 165.3 75.6 L 166.7 73.7 L 167.2 74.2 L 171 71 L 182 80 L 177 83 L 170.1 85.9 L 168.7 86.9 L 166.1 88.8 L 163.4 90.8 L 160.5 92.9 L 157.3 95.1 L 153.9 97.5 L 150.2 99.9 L 146.6 102.6 L 145.3 101.3 L 148.3 97.8 L 150.9 94.3 L 153.4 91 L 155.8 88 L 158 85.1 L 160.1 82.5 L 162 80 L 106 80 L 106 125 L 149 125 L 159 115 L 171 125 L 171 129 L 106 129 L 106 169.2 L 114.1 170.6 L 131.9 172.2 L 153 172.8 L 177.8 172.4 L 189.4 172.1 L 178.1 185.5 L 152.8 185.3 L 131 184 L 112.5 181.6 L 96.8 178 L 83.8 173.3 L 73.2 167.3 L 64.8 160.1 L 58.3 151.8 L 53.6 142.5 L 52.9 140.1 L 48.8 149 L 44.1 157.5 L 38.9 165.2 L 33.2 172.3 L 26.8 178.6 L 19.9 184.1 Z M 16 81.8 L 14.7 80.6 L 20.4 72.7 L 25.6 65.2 L 30.5 58 L 34.8 51 L 38.6 44.3 L 41.8 37.8 L 44.5 31.6 L 46.6 25.6 L 48.2 19.9 L 49.2 14.4 L 49.6 12.5 L 61 16.8 L 63.5 19.3 L 59.8 20.6 L 59.1 23.1 L 56.6 29.4 L 53.6 35.7 L 50 42.2 L 49.7 42.6 L 163.5 42.6 L 173.5 32.6 L 185.5 42.6 L 185.5 46.6 L 47.2 46.6 L 45.8 48.7 L 41.1 55.2 L 35.8 61.9 L 29.8 68.5 L 23.2 75.2 Z " />
</g>
</svg>
