<svg xmlns="http://www.w3.org/2000/svg" xmlns:xlink="http://www.w3.org/1999/xlink" version="1.1" baseProfile="full" viewBox="0 0 200 200" width="200" height="200">
<g fill="black">
<path d="M 39 188 L 39 111.4 L 35.6 114.6 L 25.8 122.2 L 15.5 128.7 L 14.4 127.2 L 23.4 119.3 L 31.8 110.8 L 39 102.5 L 39 83 L 51 85 L 51.2 85.1 L 53.6 81.4 L 59.6 70.2 L 65.1 58.2 L 67.4 52 L 19 52 L 19 48 L 68.9 48 L 69.9 45.4 L 74.2 31.8 L 77.7 18.4 L 77.6 18.4 L 78.3 15.7 L 89.5 20.4 L 92 23 L 88.4 24.1 L 85.1 35.2 L 80.4 48 L 162 48 L 172 38 L 184 48 L 184 52 L 78.8 52 L 74.2 62.3 L 67.8 74.6 L 60.7 86 L 53 96.5 L 51 98.8 L 51 182 Z " />
</g>
</svg>
