<svg xmlns="http://www.w3.org/2000/svg" xmlns:xlink="http://www.w3.org/1999/xlink" version="1.1" baseProfile="full" viewBox="0 0 200 200" width="200" height="200">
<g fill="black">
<path d="M 158 186 L 158 180 L 138 177 L 138 174 L 158 174 L 159.2 173.9 L 160.1 173.7 L 161 173.4 L 161.4 173 L 161.7 172.1 L 161.9 171.2 L 162 170 L 162 30 L 38 30 L 38 181 L 26 187 L 26 20 L 38 26 L 162 26 L 168 21 L 179 30 L 174 34 L 174 170 L 173.8 172.5 L 173.4 175 L 172.6 177.4 L 171.3 179.7 L 169.7 181.7 L 167.7 183.3 L 165.4 184.6 L 163 185.4 L 160.5 185.8 Z M 93.6 181.8 L 93.6 123.6 L 46.3 123.6 L 46.3 119.6 L 93.6 119.6 L 93.6 84.6 L 55 84.6 L 55 80.6 L 121.5 80.6 L 131.5 70.6 L 143.5 80.6 L 143.5 84.6 L 105.6 84.6 L 105.6 119.6 L 133 119.6 L 143 109.6 L 155 119.6 L 155 123.6 L 105.6 123.6 L 105.6 175.8 Z M 109.1 74.9 L 107.6 73.8 L 109.6 69.6 L 111.5 65.4 L 113.4 61.3 L 115.4 57.4 L 117.2 53.7 L 119.1 50 L 122.6 43 L 124.2 39.6 L 125.4 37.2 L 125.3 37.2 L 126.3 35.5 L 136.1 42.6 L 137.6 45.9 L 133.6 45.9 L 131.5 48.6 L 129.1 51.7 L 126.6 54.8 L 124 58.1 L 121.3 61.3 L 118.5 64.7 L 115.5 68 L 112.3 71.4 Z M 85.8 74.8 L 81.3 73.7 L 78.8 69.9 L 78.4 66.4 L 77.8 63 L 77 59.8 L 75.9 56.8 L 74.6 53.9 L 73.1 51.1 L 71.3 48.4 L 69.2 45.7 L 66.8 43.1 L 64 40.8 L 64.9 39.2 L 68.4 40.6 L 71.9 42.2 L 75.2 44.2 L 78.2 46.6 L 81 49.4 L 83.5 52.5 L 85.7 55.9 L 87.7 59.6 L 89.3 63.5 L 90.6 67.8 L 89.6 72.2 Z " />
</g>
</svg>
