<svg xmlns="http://www.w3.org/2000/svg" xmlns:xlink="http://www.w3.org/1999/xlink" version="1.1" baseProfile="full" viewBox="0 0 200 200" width="200" height="200">
<g fill="black">
<path d="M 147 189 L 147 183 L 127 180 L 127 177 L 147 177 L 148.4 176.9 L 149.8 176.7 L 151.1 176.4 L 152.2 176.1 L 153.3 175.6 L 154.4 175 L 155.4 174.3 L 156.4 173.5 L 157.4 172.5 L 158.4 171.4 L 159.2 170 L 160.2 167.7 L 161.1 164.6 L 161.9 160.7 L 162.5 156.1 L 163 150.7 L 163.3 144.6 L 163.4 137.8 L 163.3 131.9 L 163 132 L 163 124 L 62 124 L 62 136 L 50 142 L 50 32 L 62 38 L 86 38 L 86.8 36.5 L 89.6 30.5 L 93.8 21.8 L 95.3 19 L 96.6 16.2 L 98 13.3 L 98.9 11.5 L 98.8 11.4 L 99.9 9.8 L 109.5 17 L 110.9 20.3 L 106.8 20.2 L 105.3 21.9 L 103.1 24.4 L 100.9 26.8 L 98.7 29.1 L 96.4 31.5 L 94 33.8 L 91.6 36 L 89.2 38 L 139 38 L 145 33 L 156 42 L 151 46 L 151 80 L 139 86 L 139 76 L 62 76 L 62 97 L 166.8 97 L 175 88 L 185 97 L 185 101 L 62 101 L 62 120 L 163 120 L 169 115 L 180 124 L 175.1 126.9 L 175.2 130.1 L 175.4 137.8 L 175.3 145 L 175 151.5 L 174.4 157.4 L 173.7 162.7 L 172.7 167.5 L 171.5 171.7 L 169.9 175.4 L 167.8 178.7 L 166.2 180.6 L 164.5 182.3 L 162.7 183.9 L 160.7 185.2 L 158.6 186.4 L 156.4 187.3 L 154.2 188 L 151.8 188.5 L 149.4 188.9 Z M 62 72 L 139 72 L 139 42 L 62 42 Z " />
</g>
</svg>
