<svg xmlns="http://www.w3.org/2000/svg" xmlns:xlink="http://www.w3.org/1999/xlink" version="1.1" baseProfile="full" viewBox="0 0 200 200" width="200" height="200">
<g fill="black">
<polygon points="48,42 48,120 36,126 36,36 " />
<polygon points="42,42 157,42 157,46 42,46 " />
<polygon points="163,44 163,114 151,120 151,44 " />
<polygon points="151,42 157,37 168,46 163,50 151,44 " />
<polygon points="42,73 157,73 157,77 42,77 " />
<polygon points="42,104 157,104 157,108 42,108 " />
<polygon points="106,19 106,106 94,106 94,17 " />
<polygon points="106,19 109,21 104,24 " />
<polygon points="94,106 96.4,109.6 100,112 103.6,109.6 106,106 " />
<polygon points="106,106 104.8,119.9 101.8,132.7 97.1,144.4 90.6,154.7 82.4,163.7 72.6,171.3 61.3,177.6 48.4,182.4 34,185.8 18.1,187.8 17.8,186.1 33.1,182.1 46.6,177.3 58.3,171.7 68.2,165.1 76.5,157.7 83,149.3 88,140.1 91.5,129.8 93.5,118.4 94,106 " />
<polygon points="51.1,136.3 53.7,133.8 56.2,131.3 58.6,128.9 60.9,126.5 63.2,124.1 65.3,121.8 67.4,119.4 69.4,117.2 71.5,114.9 73.1,112.6 74.8,113.3 73.9,116.2 73.2,119.2 72.2,122.3 71,125.3 69.6,128.4 68,131.5 66.3,134.6 64.4,137.8 62.3,140.9 60.1,144.1 " />
<polygon points="60.1,144.1 51.1,136.3 49.8,137.8 " />
<polygon points="60.1,144.1 63.7,144.6 61.8,137.6 " />
<polygon points="75,113.8 79.3,124.5 84.6,133.9 91.2,142.3 99.1,149.5 108.5,155.7 119.3,161 131.7,165.3 145.6,168.7 161.2,171 178.4,172.4 177.5,185.5 159.5,183.4 143.1,180.2 128.3,175.8 115.1,170.3 103.5,163.7 93.7,155.8 85.7,146.9 79.5,136.9 75.4,125.9 73.3,114.1 " />
<polygon points="177.5,185.5 178.4,172.4 189.4,173.1 " />
</g>
</svg>
