<svg xmlns="http://www.w3.org/2000/svg" xmlns:xlink="http://www.w3.org/1999/xlink" version="1.1" baseProfile="full" viewBox="0 0 200 200" width="200" height="200">
<g fill="black">
<polygon points="50,42 50,92 38,98 38,36 " />
<polygon points="44,42 154,42 154,46 44,46 " />
<polygon points="160,44 160,86 148,92 148,44 " />
<polygon points="148,42 154,37 165,46 160,50 148,44 " />
<polygon points="44,76 154,76 154,80 44,80 " />
<polygon points="105,16 105,179 93,179 93,16 " />
<polygon points="29,109 171,109 171,113 29,113 " />
<polygon points="171,109 147,111 159,99 " />
<polygon points="41,140 158,140 158,144 41,144 " />
<polygon points="158,140 134,142 146,130 " />
<polygon points="20,175 184,175 184,179 20,179 " />
<polygon points="184,175 160,177 172,165 " />
</g>
</svg>
