<svg xmlns="http://www.w3.org/2000/svg" xmlns:xlink="http://www.w3.org/1999/xlink" version="1.1" baseProfile="full" viewBox="0 0 200 200" width="200" height="200">
<g fill="black">
<polygon points="45,60 45,124 33,130 33,54 " />
<polygon points="39,60 156,60 156,64 39,64 " />
<polygon points="162,62 162,112 150,118 150,62 " />
<polygon points="150,60 156,55 167,64 162,68 150,62 " />
<polygon points="39,108 156,108 156,112 39,112 " />
<polygon points="102,18 102,169 90,169 90,16 " />
<polygon points="102,18 105,20 100,23 " />
<polygon points="21.4,169.9 35.3,168.8 49.1,167.6 62.8,166.4 76.4,165.2 89.9,164 103.3,162.7 116.6,161.4 129.7,160.2 142.8,159 155.8,158.1 156.1,159.8 143.4,162.8 130.5,165.5 117.5,167.9 104.3,170.2 91,172.4 77.5,174.4 64,176.4 50.3,178.3 36.5,180.1 22.5,181.8 " />
<polygon points="19.4,170.1 21.4,169.9 22.5,181.8 " />
<polygon points="28.2,178.2 24.8,184.6 22.5,181.8 " />
<polygon points="131.3,132 137.1,136.3 142.6,140.8 147.7,145.5 152.4,150.1 156.8,154.8 161,159.5 164.9,164.2 168.5,169 171.8,173.7 174.8,178.5 164.2,184.2 162,179.5 159.4,174.8 156.6,170 153.6,165.1 150.2,160.1 146.6,155 142.8,149.8 138.7,144.5 134.4,139 130,133.3 " />
<polygon points="174.8,178.5 175.2,183 172.4,186.6 167.8,187 164.2,184.2 " />
<polygon points="183.1,116.4 180,119.8 176.8,123.1 173.4,126.3 169.9,129.5 166.2,132.6 162.5,135.6 158.5,138.6 154.4,141.5 150,144.1 145.5,146.7 144.4,145.2 147.7,141.4 151,137.6 154.2,133.9 157.3,130.3 160.4,126.7 163.3,123.1 166,119.6 168.7,116.1 171.2,112.6 173.6,109.1 " />
<polygon points="174,108.5 183.1,116.4 173,109.8 " />
<polygon points="183.1,116.4 184.2,119.8 178.4,119.1 " />
</g>
</svg>
