<svg xmlns="http://www.w3.org/2000/svg" xmlns:xlink="http://www.w3.org/1999/xlink" version="1.1" baseProfile="full" viewBox="0 0 200 200" width="200" height="200">
<g fill="black">
<polygon points="70.8,26.7 65.9,31.6 60.7,36.3 55.5,40.7 50,45 44.4,49 38.6,52.8 32.6,56.3 26.4,59.5 20,62.3 13.4,64.7 12.5,63.2 18.1,59 23.6,54.9 29,50.8 34.2,46.6 39.2,42.3 44.1,37.9 48.7,33.3 53.3,28.6 57.6,23.7 61.8,18.7 " />
<polygon points="62.2,18.3 70.8,26.7 61.1,19.5 " />
<polygon points="70.8,26.7 71.7,30.2 66,29.1 " />
<polygon points="127.2,20.5 134.8,22.3 142,24.5 148.7,26.9 155.1,29.5 161.1,32.3 166.6,35.3 171.8,38.4 176.7,41.6 181.1,45.1 185.2,48.6 176.5,56.9 173.4,53.4 169.9,50 166,46.5 161.6,43.1 156.8,39.7 151.5,36.2 145.9,32.8 139.8,29.4 133.4,25.8 126.6,22.1 " />
<polygon points="185.2,48.6 186.8,52.9 185,57.1 180.7,58.7 176.5,56.9 " />
<polygon points="106,13 106,179 94,185 94,13 " />
<polygon points="43.9,52.3 43.9,181.6 31.9,187.6 31.9,46.3 " />
<polygon points="37.9,52.3 161,52.3 161,56.3 37.9,56.3 " />
<polygon points="167,54.3 167,171.3 155,171.3 155,54.3 " />
<polygon points="155,52.3 161,47.3 172,56.3 167,60.3 155,54.3 " />
<polygon points="167,171.3 164.6,174.9 161,177.3 157.4,174.9 155,171.3 " />
<polygon points="167,171.3 166.9,173.8 166.4,176.3 165.6,178.7 164.4,181 162.7,183 160.7,184.6 158.5,185.9 156,186.7 153.6,187.1 151,187.3 151,175.3 152.2,175.2 153.1,175 153.7,174.8 154.1,174.7 154.2,174.5 154.4,174.3 154.6,174 154.8,173.4 154.9,172.5 155,171.3 " />
<polygon points="131,178.3 131,175.3 151,175.3 151,181.3 " />
<polygon points="88.1,68.3 85.1,74.4 81.9,80.2 78.5,85.7 74.9,90.9 71,95.7 67,100.2 62.7,104.3 58.2,108.1 53.5,111.3 48.5,114 47.4,112.5 51,108.4 54.5,104.2 57.9,99.9 61.1,95.4 64.2,90.7 67.1,85.8 69.8,80.7 72.4,75.3 74.8,69.6 77,63.7 " />
<polygon points="77.6,62.4 88.1,68.3 76.6,64.7 " />
<polygon points="88.1,68.3 90.1,71.3 84.4,72.1 " />
<polygon points="51.2,75.6 55.9,76.9 60.4,78.4 64.7,80.3 68.8,82.5 72.7,85 76.3,87.7 79.8,90.7 83,93.9 85.9,97.4 88.6,101.1 78.3,107.1 76.5,103.7 74.6,100.4 72.4,97.2 70.1,94.2 67.4,91.2 64.5,88.3 61.4,85.5 58,82.7 54.4,79.9 50.5,77.3 " />
<polygon points="88.6,101.1 89.2,105.6 86.4,109.3 81.9,109.8 78.3,107.1 " />
<polygon points="88.1,120.8 85.3,126.6 82.2,132.1 78.8,137.4 75.2,142.5 71.2,147.3 67.1,151.8 62.6,156 57.9,159.9 52.9,163.4 47.5,166.5 46.4,165.1 50.4,160.6 54.2,156 57.8,151.5 61.3,146.9 64.5,142.1 67.4,137.3 70.2,132.3 72.7,127.1 75,121.8 77,116.3 " />
<polygon points="77.5,115 88.1,120.8 76.6,117.2 " />
<polygon points="88.1,120.8 90.2,123.8 84.4,124.7 " />
<polygon points="53.3,122.9 57.9,124.8 62.3,127 66.5,129.5 70.4,132.3 74.1,135.3 77.6,138.6 80.8,142.1 83.8,145.9 86.6,149.8 89.1,154 78.2,159.1 76.6,155.3 74.8,151.6 72.8,148 70.6,144.4 68.1,141 65.4,137.6 62.4,134.3 59.3,131 56,127.7 52.3,124.4 " />
<polygon points="89.1,154 89.3,158.5 86.2,162 81.7,162.1 78.2,159.1 " />
<polygon points="148.1,68.3 145.1,74.4 142,80.2 138.6,85.7 135.1,90.9 131.3,95.7 127.4,100.2 123.2,104.3 118.9,108 114.3,111.3 109.5,114 108.4,112.6 111.8,108.4 115.1,104.2 118.3,99.9 121.4,95.5 124.4,90.8 127.2,85.9 129.9,80.7 132.4,75.3 134.8,69.7 137,63.7 " />
<polygon points="137.6,62.4 148.1,68.3 136.6,64.7 " />
<polygon points="148.1,68.3 150.1,71.3 144.4,72.1 " />
<polygon points="111.2,75.6 115.9,76.9 120.4,78.4 124.7,80.3 128.8,82.5 132.7,85 136.3,87.7 139.8,90.7 143,93.9 145.9,97.4 148.6,101.1 138.3,107.1 136.5,103.7 134.6,100.4 132.4,97.2 130.1,94.2 127.4,91.2 124.5,88.3 121.4,85.5 118,82.7 114.4,79.9 110.5,77.3 " />
<polygon points="148.6,101.1 149.2,105.6 146.4,109.3 141.9,109.8 138.3,107.1 " />
<polygon points="148.1,120.8 145.3,126.6 142.3,132.1 139,137.3 135.5,142.4 131.8,147.2 127.9,151.7 123.7,155.9 119.3,159.8 114.5,163.4 109.5,166.5 108.4,165.1 111.9,160.6 115.4,156.1 118.7,151.6 121.9,147 124.9,142.2 127.7,137.4 130.3,132.3 132.7,127.2 135,121.8 137,116.3 " />
<polygon points="137.5,115 148.1,120.8 136.6,117.2 " />
<polygon points="148.1,120.8 150.2,123.8 144.4,124.7 " />
<polygon points="113.3,124 117.7,125.9 121.9,128 125.9,130.3 129.8,132.9 133.4,135.6 136.8,138.4 140,141.4 143,144.6 145.9,147.9 148.5,151.4 138.3,157.6 136.5,154.3 134.6,151 132.5,147.8 130.2,144.6 127.7,141.4 125,138.2 122.1,135.1 119,131.9 115.8,128.7 112.3,125.5 " />
<polygon points="148.5,151.4 149.2,155.9 146.5,159.6 142,160.3 138.3,157.6 " />
</g>
</svg>
