<svg xmlns="http://www.w3.org/2000/svg" xmlns:xlink="http://www.w3.org/1999/xlink" version="1.1" baseProfile="full" viewBox="0 0 200 200" width="200" height="200">
<g fill="black">
<polygon points="106,14 106,41 94,41 94,12 " />
<polygon points="106,14 109,16 104,19 " />
<polygon points="16,37 184,37 184,41 16,41 " />
<polygon points="184,37 160,39 172,27 " />
<polygon points="58,56 58,89 46,95 46,50 " />
<polygon points="52,56 148,56 148,60 52,60 " />
<polygon points="154,58 154,88 142,94 142,58 " />
<polygon points="142,56 148,51 159,60 154,64 142,58 " />
<polygon points="52,82 148,82 148,86 52,86 " />
<polygon points="31.9,90.2 32.8,96.9 33.3,103.1 33.4,109 33,114.5 32.3,119.5 31.2,124.3 29.6,128.6 27.5,132.5 25,136.1 21.9,139.2 14.9,129.4 16.9,128.1 18.9,126.3 20.8,123.9 22.7,120.9 24.3,117.3 25.8,113 27.1,108.2 28.2,102.8 29.3,96.8 30.1,90.3 " />
<polygon points="21.9,139.2 17.4,140.1 13.5,137.8 12.5,133.3 14.9,129.4 " />
<polygon points="32,101.6 176,101.6 176,105.6 32,105.6 " />
<polygon points="181.3,106.3 179.6,108.7 177.8,111.1 175.8,113.6 173.6,116.3 171.2,119.1 168.7,122 166,125 163.1,128.1 159.9,131.2 156.7,134.6 155.2,133.6 157.5,129.5 159.4,125.5 161.3,121.7 163,118.1 164.7,114.8 166.2,111.6 167.5,108.6 168.7,105.8 169.8,103.2 170.6,100.8 " />
<polygon points="170,101.6 176,96.6 187,105.6 182,108.6 170,113.6 " />
</g>
</svg>
