<svg xmlns="http://www.w3.org/2000/svg" xmlns:xlink="http://www.w3.org/1999/xlink" version="1.1" baseProfile="full" viewBox="0 0 200 200" width="200" height="200">
<g fill="black">
<path d="M 25.7 187.7 L 23.5 184.8 L 20.4 173.1 L 22.4 172.9 L 38 171.8 L 38 42 L 49.3 47.7 L 60.5 44.7 L 76.3 40.7 L 91.1 36.8 L 105 33.2 L 118 29.7 L 129.9 26.2 L 140.9 22.9 L 150.9 19.7 L 160 16.6 L 167.1 13.9 L 168 13.6 L 168.6 15.2 L 177.6 23 L 177.8 26.1 L 173.8 24.3 L 172 24.9 L 163.4 27.5 L 154 30 L 143.6 32.6 L 132.2 35.2 L 120 37.9 L 106.7 40.6 L 92.5 43.3 L 77.4 45.9 L 61.2 48.4 L 50 50 L 50 101 L 153 101 L 163 91 L 175 101 L 175 105 L 50 105 L 50 171 L 53.6 170.7 L 69.2 169.5 L 84.7 168.4 L 100.3 167.2 L 115.8 166 L 146.8 163.8 L 162.3 162.8 L 177.8 162.1 L 178.1 163.8 L 162.8 166.6 L 147.4 169.1 L 132 171.4 L 116.6 173.6 L 101.1 175.6 L 85.7 177.6 L 70.1 179.5 L 54.6 181.4 L 39.1 183.1 L 27.5 184.4 Z " />
</g>
</svg>
