<svg xmlns="http://www.w3.org/2000/svg" xmlns:xlink="http://www.w3.org/1999/xlink" version="1.1" baseProfile="full" viewBox="0 0 200 200" width="200" height="200">
<g fill="black">
<polygon points="36,59.9 36,144 24,150 24,53.9 " />
<polygon points="30,59.9 170,59.9 170,63.9 30,63.9 " />
<polygon points="176,61.9 176,138 164,144 164,61.9 " />
<polygon points="164,59.9 170,54.9 181,63.9 176,67.9 164,61.9 " />
<polygon points="106,59.9 106,132 94,132 94,59.9 " />
<polygon points="30,128 170,128 170,132 30,132 " />
<polygon points="48.3,73.9 52.2,76.3 56,78.9 59.6,81.9 62.9,85.1 66,88.6 68.9,92.3 71.7,96.2 74.2,100.3 76.5,104.6 78.6,109.1 67.3,113.2 66,108.9 64.6,104.9 63,100.9 61.2,97 59.3,93.2 57.1,89.6 54.9,85.9 52.4,82.4 49.9,78.8 47.1,75.3 " />
<polygon points="78.6,109.1 78.3,113.7 75,116.8 70.4,116.5 67.3,113.2 " />
<polygon points="150.6,81.9 147.9,85.7 145.2,89.5 142.3,93.4 139.2,97.3 136.1,101.3 132.8,105.3 129.3,109.4 125.7,113.5 121.8,117.5 117.7,121.5 116.2,120.4 118.8,115.3 121.3,110.3 124,105.6 126.5,101 129.1,96.5 131.5,92.2 133.8,87.9 136.1,83.8 138.2,79.7 140.3,75.7 " />
<polygon points="140.8,74.8 150.6,81.9 139.8,76.6 " />
<polygon points="150.6,81.9 152.1,85.2 146.3,85.2 " />
</g>
</svg>
