<svg xmlns="http://www.w3.org/2000/svg" xmlns:xlink="http://www.w3.org/1999/xlink" version="1.1" baseProfile="full" viewBox="0 0 200 200" width="200" height="200">
<g fill="black">
<polygon points="15,55 185,55 185,59 15,59 " />
<polygon points="185,55 161,57 173,45 " />
<polygon points="44,93 44,182 32,188 32,87 " />
<polygon points="38,93 162,93 162,97 38,97 " />
<polygon points="168,95 168,179 156,185 156,95 " />
<polygon points="156,93 162,88 173,97 168,101 156,95 " />
<polygon points="85,18 85,175 73,175 73,16 " />
<polygon points="85,18 88,20 83,23 " />
<polygon points="127,18 127,175 115,175 115,16 " />
<polygon points="127,18 130,20 125,23 " />
<polygon points="38,132 162,132 162,136 38,136 " />
<polygon points="38,171 162,171 162,175 38,175 " />
</g>
</svg>
