<svg xmlns="http://www.w3.org/2000/svg" xmlns:xlink="http://www.w3.org/1999/xlink" version="1.1" baseProfile="full" viewBox="0 0 200 200" width="200" height="200">
<g fill="black">
<polygon points="169.1,23 158,24.9 146.9,26.6 135.7,28.3 124.4,29.9 113.2,31.4 101.8,32.8 90.5,34.1 79.1,35.3 67.6,36.2 56.1,36.8 55.8,35.1 67.1,32.4 78.3,30 89.5,27.7 100.6,25.4 111.8,23.1 122.8,20.8 133.9,18.4 144.9,16.1 155.9,13.7 166.8,11.3 " />
<polygon points="177.8,21.3 169.1,23 165.8,11.4 " />
<polygon points="177.8,21.3 178.2,24.3 170.8,20.7 " />
<polygon points="62,32 62,183 50,189 50,30 " />
<polygon points="62,32 65,34 60,37 " />
<polygon points="56,61 160,61 160,65 56,65 " />
<polygon points="160,61 136,63 148,51 " />
<polygon points="56,94 160,94 160,98 56,98 " />
<polygon points="160,94 136,96 148,84 " />
<polygon points="12.2,137.9 27.6,136.2 43.6,134.5 60,132.7 76.8,131 94.2,129.2 112,127.4 130.2,125.7 148.9,124 168.2,122.4 187.8,121.1 188.1,122.8 168.6,126.2 149.6,129.3 131,132.2 112.9,135 95.2,137.6 78,140.2 61.2,142.7 44.9,145.1 29.1,147.5 13.7,149.8 " />
<polygon points="10.2,138.1 12.2,137.9 13.7,149.8 " />
<polygon points="19.3,146 16.1,152.5 13.7,149.8 " />
</g>
</svg>
