<svg xmlns="http://www.w3.org/2000/svg" xmlns:xlink="http://www.w3.org/1999/xlink" version="1.1" baseProfile="full" viewBox="0 0 200 200" width="200" height="200">
<g fill="black">
<polygon points="104.5,20.9 101.1,23.8 97.5,26.8 93.8,29.8 89.9,32.9 85.9,36 81.6,39.2 77.2,42.4 72.6,45.5 67.7,48.6 62.5,51.6 61.4,50.3 65.3,45.7 69.1,41.5 72.9,37.4 76.6,33.5 80.2,29.7 83.6,26.1 87,22.5 90.1,19 93.1,15.7 96,12.4 " />
<polygon points="95.3,13.1 104.5,20.9 96.3,12.1 " />
<polygon points="104.5,20.9 105.2,24.4 99.5,23 " />
<polygon points="40.2,37.5 45.3,38.8 50.2,40.3 54.8,42.2 59.2,44.4 63.4,46.9 67.3,49.7 70.9,52.7 74.4,56 77.6,59.5 80.5,63.2 70.3,69.6 68.4,66.1 66.2,62.8 63.8,59.6 61.2,56.4 58.2,53.4 55,50.4 51.6,47.6 47.8,44.8 43.8,41.9 39.5,39.2 " />
<polygon points="80.5,63.2 81.2,67.8 78.5,71.5 74,72.2 70.3,69.6 " />
<polygon points="148.5,31.9 141.3,38.6 133.8,45.3 126.2,51.9 118.4,58.5 110.3,65.1 102.1,71.6 93.6,78.1 84.9,84.4 75.8,90.6 66.5,96.7 65.4,95.2 73.5,87.7 81.5,80.3 89.4,73 97.1,65.8 104.7,58.7 112.2,51.6 119.4,44.5 126.5,37.5 133.3,30.4 140,23.4 " />
<polygon points="139.3,24.1 148.5,31.9 140.3,23.1 " />
<polygon points="148.5,31.9 149.2,35.4 143.5,34 " />
<polygon points="29.7,90.9 42.7,90.6 55.8,90.3 69,90 82.2,89.7 95.5,89.5 108.8,89.2 122.2,89 135.7,88.8 149.3,88.8 162.9,89.1 163,90.8 149.5,92.6 136,94.2 122.6,95.5 109.2,96.8 95.9,97.9 82.7,99 69.5,100.1 56.3,101 43.2,102 30.2,102.9 " />
<polygon points="30.2,102.9 29.7,90.9 27.7,91 " />
<polygon points="30.2,102.9 32.4,105.8 36.1,99.6 " />
<polygon points="134.3,64.6 140,66.8 145.4,69.2 150.4,72 155.1,75.1 159.3,78.3 163.2,81.8 166.8,85.5 170,89.4 172.8,93.5 175.3,97.8 164.3,102.6 162.8,98.9 161,95.3 158.8,91.6 156.3,88 153.4,84.4 150.1,80.9 146.5,77.3 142.5,73.7 138.1,70 133.4,66.2 " />
<polygon points="175.3,97.8 175.3,102.4 172.1,105.7 167.6,105.7 164.3,102.6 " />
<polygon points="93.6,104.9 88.9,111.4 83.8,117.5 78.3,123.3 72.2,128.8 65.8,133.9 58.8,138.7 51.4,143.1 43.5,147.2 35.2,150.7 26.3,153.8 25.6,152.1 33.5,147.3 40.9,142.5 47.9,137.6 54.4,132.6 60.4,127.4 65.9,122 71,116.5 75.5,110.7 79.7,104.8 83.3,98.7 " />
<polygon points="82.8,99.6 93.6,104.9 83.8,97.8 " />
<polygon points="93.6,104.9 95.1,108.2 89.3,108.2 " />
<polygon points="74,119 141,119 141,123 74,123 " />
<polygon points="145.7,124.7 135.6,135.9 125,146.1 113.7,155.3 101.7,163.4 89.2,170.4 76.1,176.4 62.4,181.2 48.2,185 33.4,187.5 18.1,188.8 17.8,187.1 32.7,183.8 46.8,179.8 60.3,175 73.1,169.4 85.2,163 96.6,155.6 107.5,147.4 117.7,138.2 127.3,128.2 136.2,117.2 " />
<polygon points="135,119 141,114 152,123 147,126 135,131 " />
<polygon points="72.3,125.2 80.6,133.4 89.1,140.9 97.9,147.7 107,153.8 116.4,159.1 126.2,163.6 136.5,167.4 147.1,170.5 158.2,172.8 169.8,174.4 168.1,187.5 155.7,185.1 143.9,181.9 132.7,177.8 121.9,172.9 111.8,167.2 102.3,160.7 93.3,153.3 85.1,145.2 77.5,136.2 70.8,126.3 " />
<polygon points="168.1,187.5 169.8,174.4 180,175.7 " />
</g>
</svg>
