<svg xmlns="http://www.w3.org/2000/svg" xmlns:xlink="http://www.w3.org/1999/xlink" version="1.1" baseProfile="full" viewBox="0 0 200 200" width="200" height="200">
<g fill="black">
<path d="M 124 162.2 L 120.3 159.6 L 117.3 154.5 L 114 149.6 L 110.5 144.9 L 106.6 140.3 L 102.5 135.9 L 98 131.6 L 93.3 127.4 L 88.3 123.3 L 83 119.3 L 77.4 115.2 L 78.2 113.6 L 84.8 116 L 91.1 118.8 L 97.1 122 L 102.7 125.6 L 108.1 129.5 L 113.2 133.7 L 117.9 138.2 L 122.4 142.9 L 126.6 147.9 L 130.5 153.2 L 131.2 157.8 L 128.5 161.5 Z M 26.6 108.6 L 25.3 107.3 L 31.6 98.9 L 37.5 90.6 L 42.9 82.5 L 47.7 74.5 L 52 66.6 L 55.7 58.7 L 58.8 50.9 L 61.4 43.2 L 63.4 35.4 L 64.9 27.8 L 65.2 25.9 L 76.6 30.1 L 79.2 32.6 L 75.6 33.9 L 74.4 38.4 L 71.5 46.6 L 68.1 54.8 L 64 62.8 L 63.9 63 L 154 63 L 164 53 L 176 63 L 176 67 L 61.5 67 L 59.3 70.8 L 54.1 78.6 L 48.2 86.4 L 41.7 94 L 34.5 101.4 Z " />
</g>
</svg>
