<svg xmlns="http://www.w3.org/2000/svg" xmlns:xlink="http://www.w3.org/1999/xlink" version="1.1" baseProfile="full" viewBox="0 0 200 200" width="200" height="200">
<g fill="black">
<path d="M 167.9 182.8 L 157 176 L 146.5 168 L 136.3 158.9 L 126.4 148.6 L 116.7 137.2 L 107.4 124.6 L 98.4 110.8 L 89.7 95.8 L 81.4 79.7 L 73.6 62.2 L 75.2 61.4 L 85 77.7 L 94.7 92.8 L 104.4 106.8 L 114.1 119.6 L 123.9 131.2 L 133.8 141.6 L 143.7 150.7 L 153.8 158.7 L 163.9 165.5 L 174 171.1 L 179.1 173.8 Z M 22.2 182.4 L 19.8 179.7 L 16.1 168.2 L 18.1 167.9 L 30.2 166.4 L 39 165.3 L 39 37 L 51 39 L 51.5 39.3 L 56.1 38.1 L 67.2 35.4 L 78.2 32.8 L 88.9 30.4 L 99.5 28.1 L 109.8 25.8 L 119.9 23.6 L 129.8 21.4 L 139.4 19.3 L 147.9 17.4 L 148.9 17.2 L 149.1 18.4 L 159.9 27.4 L 160.3 30.4 L 155.8 28.1 L 151.1 29 L 141.5 30.5 L 131.7 32 L 121.7 33.5 L 111.4 34.9 L 101 36.4 L 90.3 37.9 L 79.3 39.3 L 68.2 40.6 L 56.8 41.8 L 52 42.2 L 51 42.8 L 51 163.9 L 53.3 163.6 L 64.5 162.3 L 75.3 161 L 85.8 159.7 L 96 158.6 L 105.9 157.5 L 115.5 156.7 L 124.8 156.1 L 125.1 157.8 L 116.1 160.4 L 106.8 162.8 L 97 165.1 L 87 167.2 L 76.6 169.4 L 65.9 171.5 L 54.9 173.5 L 43.5 175.6 L 31.8 177.7 L 23.8 179 Z M 106.5 102.7 L 105.4 101.2 L 110.8 96.2 L 116 91.4 L 121.3 86.7 L 126.4 82.1 L 131.4 77.6 L 136.2 73.1 L 140.9 68.6 L 149.8 59.7 L 154.1 55.3 L 154.3 55.1 L 162.4 64 L 163 67.5 L 159.4 66.5 L 157.6 68.1 L 152.6 72.2 L 147.4 76.2 L 142.1 80.2 L 136.7 84.2 L 131.1 88.1 L 125.2 91.9 L 119.2 95.7 L 113 99.3 Z " />
</g>
</svg>
