<svg xmlns="http://www.w3.org/2000/svg" xmlns:xlink="http://www.w3.org/1999/xlink" version="1.1" baseProfile="full" viewBox="0 0 200 200" width="200" height="200">
<g fill="black">
<polygon points="30,66 149,66 149,70 30,70 " />
<polygon points="155,68 155,182 143,188 143,68 " />
<polygon points="143,66 149,61 160,70 155,74 143,68 " />
<polygon points="29,176 149,176 149,180 29,180 " />
<polygon points="20,120 188,120 188,124 20,124 " />
<polygon points="188,120 164,122 176,110 " />
<polygon points="98,17 98,180 86,180 86,15 " />
<polygon points="98,17 101,19 96,22 " />
</g>
</svg>
