<svg xmlns="http://www.w3.org/2000/svg" xmlns:xlink="http://www.w3.org/1999/xlink" version="1.1" baseProfile="full" viewBox="0 0 200 200" width="200" height="200">
<g fill="black">
<path d="M 27 188 L 27 75 L 39 81 L 72 81 L 72 21 L 84 23 L 87 25 L 84 26.8 L 84 81 L 117 81 L 117 21 L 129 23 L 132 25 L 129 26.8 L 129 81 L 162 81 L 168 76 L 179 85 L 174 89 L 174 176 L 162 182 L 162 170 L 39 170 L 39 182 Z M 39 166 L 72 166 L 72 85 L 39 85 Z M 84 166 L 117 166 L 117 85 L 84 85 Z M 129 166 L 162 166 L 162 85 L 129 85 Z " />
</g>
</svg>
