<svg xmlns="http://www.w3.org/2000/svg" xmlns:xlink="http://www.w3.org/1999/xlink" version="1.1" baseProfile="full" viewBox="0 0 200 200" width="200" height="200">
<g fill="black">
<polygon points="55,41 55,128 43,134 43,39 " />
<polygon points="55,41 58,43 55,45 " />
<polygon points="160,25 160,111 148,111 148,23 " />
<polygon points="160,25 163,27 160,29 " />
<polygon points="160,111 157.6,114.6 154,117 150.4,114.6 148,111 " />
<polygon points="160,111 158.8,122.1 156,132.6 151.6,142.4 145.5,151.5 138,159.7 128.9,167.1 118.4,173.7 106.5,179.6 93.1,184.6 78.2,188.8 77.7,187.1 91.7,181.1 104.1,174.8 115,168.1 124.3,161.1 131.9,153.7 138,146 142.6,137.8 145.8,129.3 147.6,120.4 148,111 " />
</g>
</svg>
