<svg xmlns="http://www.w3.org/2000/svg" xmlns:xlink="http://www.w3.org/1999/xlink" version="1.1" baseProfile="full" viewBox="0 0 200 200" width="200" height="200">
<g fill="black">
<polygon points="61,23 61,157 49,157 49,23 " />
<polygon points="21.6,171.3 29.9,166.4 38.3,161.4 47,156.2 55.9,150.8 65.1,145.3 74.4,139.6 84,133.8 93.8,128 104,122.1 114.4,116.2 115.5,117.7 106.1,125.2 96.8,132.4 87.7,139.3 78.6,145.9 69.7,152.4 61,158.6 52.5,164.6 44.2,170.4 36,176 28,181.5 " />
<polygon points="19.9,172.4 21.6,171.3 28,181.5 " />
<polygon points="31.5,175.7 31.3,182.9 28,181.5 " />
<polygon points="163.6,52.8 160.2,56 156.5,59.4 152.5,63.1 148.2,67 143.6,71.1 138.7,75.4 133.5,80 127.9,84.7 122,89.6 115.6,94.6 114.3,93.3 119.3,86.9 124.1,81 128.8,75.4 133.3,70.1 137.5,65.2 141.5,60.5 145.2,56.1 148.7,52 151.9,48.1 154.9,44.6 " />
<polygon points="155.2,44.2 163.6,52.8 154.2,45.3 " />
<polygon points="163.6,52.8 164.4,56.3 158.8,55.1 " />
<polygon points="92,25.7 98.3,47.2 105.1,66.9 112.5,84.9 120.5,101.2 129.2,115.7 138.6,128.6 148.6,139.7 159.3,149.1 170.7,156.8 182.7,163 177.2,174.9 164,167.4 151.9,158.2 140.7,147.3 130.5,134.8 121.3,120.7 113.1,104.9 105.8,87.6 99.5,68.7 94.3,48.2 90.3,26.1 " />
<polygon points="177.2,174.9 182.7,163 188.6,165.7 " />
</g>
</svg>
