<svg xmlns="http://www.w3.org/2000/svg" xmlns:xlink="http://www.w3.org/1999/xlink" version="1.1" baseProfile="full" viewBox="0 0 200 200" width="200" height="200">
<g fill="black">
<polygon points="106.2,19 104.9,21.5 103.4,24 101.9,26.5 100.3,29.1 98.6,31.8 96.8,34.4 94.8,37.1 92.7,39.9 90.4,42.6 88.4,45.5 86.8,44.6 88.1,41.3 89,37.9 89.9,34.7 90.8,31.6 91.6,28.6 92.4,25.7 93.2,22.8 93.8,20.1 94.4,17.5 94.9,15 " />
<polygon points="94.6,15.9 106.2,19 95.4,13.5 " />
<polygon points="106.2,19 108.4,21.9 102.7,23 " />
<polygon points="50.9,43.1 50.9,123.2 38.9,129.2 38.9,37.1 " />
<polygon points="44.9,43.1 155.1,43.1 155.1,47.1 44.9,47.1 " />
<polygon points="161.1,45.1 161.1,117.2 149.1,123.2 149.1,45.1 " />
<polygon points="149.1,43.1 155.1,38.1 166.1,47.1 161.1,51.1 149.1,45.1 " />
<polygon points="44.9,74.5 155.1,74.5 155.1,78.5 44.9,78.5 " />
<polygon points="44.9,107.2 155.1,107.2 155.1,111.2 44.9,111.2 " />
<polygon points="107,108 107,172 95,172 95,108 " />
<polygon points="107,172 104.6,175.6 101,178 97.4,175.6 95,172 " />
<polygon points="107,172 106.8,174.5 106.4,177 105.6,179.4 104.3,181.7 102.7,183.7 100.7,185.3 98.4,186.6 96,187.4 93.5,187.8 91,188 91,176 92.2,175.9 93.1,175.7 93.7,175.5 94,175.4 94.2,175.2 94.4,175 94.5,174.7 94.7,174.1 94.9,173.2 95,172 " />
<polygon points="91,182 91,176 71,176 71,179 " />
<polygon points="75.8,138.7 70.4,144 64.8,149.1 59.1,154 53.1,158.6 46.9,163 40.4,167.2 33.8,171.1 26.9,174.7 19.8,177.9 12.4,180.8 11.5,179.1 17.9,174.6 24.1,170.1 30.2,165.6 36.1,161 41.7,156.3 47.2,151.4 52.4,146.5 57.4,141.4 62.2,136.1 66.8,130.7 " />
<polygon points="66.1,131.4 75.8,138.7 67.2,130.3 " />
<polygon points="75.8,138.7 76.7,142.2 70.9,141.1 " />
<polygon points="125.2,132.6 133,135.3 140.3,138.3 147.3,141.6 153.9,145.1 160.1,148.8 166.1,152.6 171.7,156.7 176.9,160.9 181.9,165.2 186.5,169.7 177.5,177.7 173.7,173.2 169.6,168.7 165.2,164.4 160.4,160 155.2,155.7 149.7,151.4 143.9,147.2 137.7,143 131.2,138.6 124.5,134.2 " />
<polygon points="186.5,169.7 187.9,174.1 185.9,178.2 181.6,179.6 177.5,177.7 " />
</g>
</svg>
