<svg xmlns="http://www.w3.org/2000/svg" xmlns:xlink="http://www.w3.org/1999/xlink" version="1.1" baseProfile="full" viewBox="0 0 200 200" width="200" height="200">
<g fill="black">
<path d="M 153.4 187.9 L 149 186.8 L 146.6 182.9 L 146.3 180.3 L 145.5 177.3 L 144.1 173.8 L 142.9 171.4 L 129.8 173.2 L 114.1 175.2 L 99.8 177 L 86.9 178.5 L 75.5 179.9 L 65.6 181.1 L 57.2 182.2 L 50.2 183.2 L 44.7 184.1 L 42.9 187.6 L 40.6 184.8 L 37.3 173.1 L 39.3 172.9 L 43.5 172.7 L 49.2 172.5 L 56.3 172.2 L 61.3 172 L 70.1 159.6 L 79.3 146.6 L 88 134.6 L 95.9 123.5 L 99.1 119 L 33.4 119 L 33.4 122.6 L 33.1 128.3 L 32.4 133.6 L 31.2 138.5 L 29.6 143 L 27.6 147.1 L 25 150.8 L 21.9 154 L 17.5 155 L 13.5 152.7 L 12.5 148.3 L 14.8 144.3 L 16.8 142.9 L 18.8 141 L 20.8 138.4 L 22.6 135.2 L 24.3 131.4 L 25.8 126.9 L 27.1 121.8 L 28.2 116.2 L 29.2 109.9 L 30.1 103 L 31.9 102.9 L 32.9 109.9 L 33.3 115 L 101.9 115 L 109.7 103.6 L 115.5 94.9 L 120.5 87 L 124.8 79.9 L 128.3 73.7 L 128.8 72.8 L 138.6 79.9 L 140.1 83.2 L 136.4 83.2 L 134.4 86.1 L 129.4 93 L 123.7 100.7 L 117.2 109.1 L 112.5 115 L 170 115 L 170.5 114.6 L 170.6 114.3 L 170.8 114.4 L 176 110 L 187 119 L 182 122 L 178.7 123.4 L 177.8 124.6 L 175.8 127.3 L 173.7 130.1 L 171.3 133.1 L 168.8 136.1 L 166.1 139.3 L 163.1 142.6 L 159.9 145.9 L 156.7 149.5 L 155.2 148.4 L 157.4 144.2 L 159.3 140 L 161.2 136.1 L 163 132.4 L 164.6 128.8 L 166.1 125.5 L 167.4 122.4 L 168.6 119.5 L 168.8 119 L 109.4 119 L 102 128.1 L 93.2 138.7 L 83.6 150 L 73.1 161.9 L 63.9 171.9 L 64.8 171.9 L 74.8 171.4 L 86.3 171 L 99.3 170.4 L 113.7 169.9 L 129.5 169.4 L 141.7 169.2 L 139.6 165.7 L 136.6 161.1 L 132.9 156.2 L 128.8 151 L 124.2 145.3 L 119.1 139.3 L 120.3 138 L 126.8 142.6 L 132.6 147.2 L 137.8 151.8 L 142.4 156.2 L 146.4 160.6 L 149.9 164.8 L 152.9 168.9 L 155.3 173 L 157.1 177 L 158.4 181.1 L 157.3 185.5 Z M 82.8 115 L 79.2 112.1 L 78.1 109.6 L 76.4 106.9 L 74.3 104 L 71.6 100.9 L 68.4 97.7 L 64.8 94.4 L 60.6 90.9 L 56 87.2 L 50.9 83.3 L 45.4 79.2 L 46.3 77.6 L 52.7 80.1 L 58.7 82.7 L 60.7 83.7 L 64.8 78.1 L 69 72.4 L 73 67.2 L 76.6 62.5 L 79.9 58.3 L 82.8 54.5 L 85.4 51.1 L 87.6 48.2 L 89.4 45.7 L 90.2 44.6 L 90.1 44.5 L 91.2 43.3 L 99.8 51.7 L 100.7 55.2 L 96.7 54.4 L 95.5 55.4 L 92.8 57.9 L 89.7 60.8 L 86.2 64 L 82.2 67.6 L 77.8 71.7 L 72.9 76 L 67.5 80.6 L 62.7 84.7 L 64.2 85.4 L 69.2 88.2 L 73.7 91.1 L 77.8 94 L 81.5 97 L 84.7 100 L 87.5 103.2 L 89.8 106.5 L 90.2 111 L 87.4 114.6 Z M 15.9 41.4 L 15.9 37.4 L 94.5 37.4 L 94.5 11.6 L 106.5 13.6 L 109.5 15.6 L 106.5 17.4 L 106.5 37.4 L 163 37.4 L 173 27.4 L 185 37.4 L 185 41.4 Z " />
</g>
</svg>
