<svg xmlns="http://www.w3.org/2000/svg" xmlns:xlink="http://www.w3.org/1999/xlink" version="1.1" baseProfile="full" viewBox="0 0 200 200" width="200" height="200">
<g fill="black">
<path d="M 150 169 L 150 163 L 136 160 L 136 157 L 150 157 L 151.2 156.9 L 152.1 156.7 L 153 156.4 L 153.4 156 L 153.7 155.1 L 153.9 154.2 L 154 153 L 154 107 L 106 107 L 106 182 L 94 188 L 94 107 L 46 107 L 46 162 L 34 168 L 34 97 L 46 103 L 94 103 L 94 77 L 71 77 L 71 84 L 59 90 L 59 42 L 25 42 L 25 38 L 59 38 L 59 12 L 71 14 L 74 16 L 71 17.8 L 71 38 L 129 38 L 129 12 L 141 14 L 144 16 L 141 17.8 L 141 38 L 153 38 L 163 28 L 175 38 L 175 42 L 141 42 L 141 81 L 129 87 L 129 77 L 106 77 L 106 103 L 154 103 L 160 98 L 171 107 L 166 111 L 166 153 L 165.8 155.5 L 165.4 158 L 164.6 160.4 L 163.3 162.7 L 161.7 164.7 L 159.7 166.3 L 157.4 167.6 L 155 168.4 L 152.5 168.8 Z M 71 73 L 129 73 L 129 42 L 71 42 Z " />
</g>
</svg>
