<svg xmlns="http://www.w3.org/2000/svg" xmlns:xlink="http://www.w3.org/1999/xlink" version="1.1" baseProfile="full" viewBox="0 0 200 200" width="200" height="200">
<g fill="black">
<polygon points="89,15.5 89,52.5 77,52.5 77,13.5 " />
<polygon points="89,15.5 92,17.5 87,20.5 " />
<polygon points="123,15.5 123,52.5 111,52.5 111,13.5 " />
<polygon points="123,15.5 126,17.5 121,20.5 " />
<polygon points="35.3,18.4 38.7,20.3 42.1,22 45.2,23.8 48,25.8 50.6,28 53,30.3 55.2,32.7 57.1,35.3 58.7,38.1 60,41 48.4,44 48.2,41.9 47.7,39.8 47,37.6 46,35.2 44.8,32.8 43.3,30.4 41.5,27.8 39.4,25.2 37.1,22.4 34.3,19.9 " />
<polygon points="60,41 59.3,45.5 55.7,48.3 51.2,47.6 48.4,44 " />
<polygon points="167.3,24.9 164.9,27.6 162.4,30.3 159.7,33.1 156.8,35.8 153.8,38.5 150.5,41.3 147.1,44.1 143.5,46.8 139.6,49.5 135.6,52.2 134.3,50.9 137.4,47.1 140.1,43.4 142.8,39.8 145.4,36.4 147.8,33.1 150.1,29.9 152.2,26.8 154.1,23.8 155.9,20.9 157.5,18.1 " />
<polygon points="157.9,17.4 167.3,24.9 156.9,18.9 " />
<polygon points="167.3,24.9 168.6,28.3 162.8,27.9 " />
<polygon points="14,49.6 186,49.6 186,53.6 14,53.6 " />
<polygon points="186,49.6 162,51.6 174,39.6 " />
<polygon points="58.3,52.9 61.1,54.7 64.1,56.2 66.9,57.9 69.6,59.8 72.1,61.7 74.5,63.7 76.7,65.7 78.8,67.9 80.8,70.1 82.7,72.4 72.3,78.3 71.4,76.1 70.4,73.8 69.2,71.5 67.9,69.1 66.5,66.7 64.9,64.3 63.2,61.8 61.4,59.3 59.5,56.7 57.2,54.3 " />
<polygon points="82.7,72.4 83.2,76.9 80.4,80.6 75.9,81.1 72.3,78.3 " />
<polygon points="143.1,60.4 140.6,63 138,65.4 135.3,67.9 132.5,70.3 129.6,72.6 126.6,75 123.5,77.2 120.3,79.4 116.9,81.4 113.5,83.6 112.4,82.3 114.9,79.2 117.2,76.1 119.5,73 121.8,70.1 124,67.2 126.1,64.3 128.1,61.4 130,58.6 131.9,55.8 133.6,53 " />
<polygon points="134,52.5 143.1,60.4 133,53.8 " />
<polygon points="143.1,60.4 144.2,63.9 138.4,63.1 " />
<polygon points="24,81 179,81 179,85 24,85 " />
<polygon points="179,81 155,83 167,71 " />
<polygon points="14,103 185,103 185,107 14,107 " />
<polygon points="185,103 165,105 175,94 " />
<polygon points="107,81 107,174 95,174 95,81 " />
<polygon points="82.8,125.2 79,125.7 75.1,126.1 71,126.5 66.7,126.8 62.3,127.1 57.7,127.4 52.9,127.6 48,127.7 42.9,127.7 37.7,127.6 37.4,125.8 42.4,124.3 47.3,122.8 52,121.5 56.5,120.2 60.9,119 65.1,117.9 69.2,116.7 73.1,115.6 76.8,114.5 80.4,113.5 " />
<polygon points="91.2,123.5 82.8,125.2 79.4,113.7 " />
<polygon points="91.2,123.5 91.6,126.5 84.3,122.9 " />
<polygon points="43.5,126.3 43.5,181.8 31.5,187.8 31.5,124.3 " />
<polygon points="43.5,126.3 46.5,128.3 41.5,131.3 " />
<polygon points="37.5,147.4 83.4,147.4 83.4,151.4 37.5,151.4 " />
<polygon points="83.4,147.4 63.4,149.4 73.4,138.4 " />
<polygon points="37.5,170.8 160.8,170.8 160.8,174.8 37.5,174.8 " />
<polygon points="166.8,126.7 166.8,178.8 154.8,184.8 154.8,126.7 " />
<polygon points="154.8,124.7 160.8,119.7 171.8,128.7 166.8,132.7 154.8,126.7 " />
<polygon points="116.5,124.7 160.8,124.7 160.8,128.7 116.5,128.7 " />
<polygon points="116.5,147.4 156.8,147.4 156.8,151.4 116.5,151.4 " />
</g>
</svg>
