<svg xmlns="http://www.w3.org/2000/svg" xmlns:xlink="http://www.w3.org/1999/xlink" version="1.1" baseProfile="full" viewBox="0 0 200 200" width="200" height="200">
<g fill="black">
<path d="M 157 188.7 L 157 182.7 L 137 179.7 L 137 176.7 L 157 176.7 L 158.2 176.6 L 159.1 176.4 L 160 176.1 L 160.4 175.7 L 160.7 174.8 L 160.9 173.9 L 161 172.7 L 161 134 L 128 134 L 128 175.1 L 116 181.1 L 116 134 L 84 134 L 84 175.1 L 72 181.1 L 72 134 L 39 134 L 39 181.6 L 27 187.6 L 27 79.1 L 39 85.1 L 161 85.1 L 167 80.1 L 178 89.1 L 173 93.1 L 173 172.7 L 172.8 175.2 L 172.4 177.7 L 171.6 180.1 L 170.3 182.4 L 168.7 184.4 L 166.7 186 L 164.4 187.3 L 162 188.1 L 159.5 188.5 Z M 39 130 L 72 130 L 72 89.1 L 39 89.1 Z M 84 130 L 116 130 L 116 89.1 L 84 89.1 Z M 128 130 L 161 130 L 161 89.1 L 128 89.1 Z M 42.9 75.3 L 42.9 19.6 L 54.9 25.6 L 145 25.6 L 151 20.6 L 162 29.6 L 157 33.6 L 157 68.3 L 145 74.3 L 145 66.3 L 54.9 66.3 L 54.9 69.3 Z M 54.9 62.3 L 145 62.3 L 145 29.6 L 54.9 29.6 Z " />
</g>
</svg>
