<svg xmlns="http://www.w3.org/2000/svg" xmlns:xlink="http://www.w3.org/1999/xlink" version="1.1" baseProfile="full" viewBox="0 0 200 200" width="200" height="200">
<g fill="black">
<polygon points="97.5,25.3 92.5,27.1 87.4,28.8 82.1,30.4 76.7,32 71.1,33.5 65.3,34.9 59.3,36.3 53.1,37.4 46.8,38.4 40.2,39.1 39.7,37.4 45.8,34.7 51.7,32.3 57.4,30 63,27.7 68.4,25.5 73.6,23.3 78.6,21 83.5,18.8 88.1,16.5 92.6,14.3 " />
<polygon points="101.4,23.5 97.5,25.3 91.7,14.7 " />
<polygon points="101.4,23.5 101.6,26.7 95.2,24.1 " />
<polygon points="46,36.3 46,116 34,122 34,30.3 " />
<polygon points="40,65.8 97,65.8 97,69.8 40,69.8 " />
<polygon points="97,65.8 73,67.8 85,55.8 " />
<polygon points="110,31.5 160,31.5 160,35.5 110,35.5 " />
<polygon points="166,33.5 166,110 154,116 154,33.5 " />
<polygon points="154,31.5 160,26.5 171,35.5 166,39.5 154,33.5 " />
<polygon points="109,65.8 160,65.8 160,69.8 109,69.8 " />
<polygon points="40,100 160,100 160,104 40,104 " />
<polygon points="27,135.5 173,135.5 173,139.5 27,139.5 " />
<polygon points="173,135.5 149,137.5 161,125.5 " />
<polygon points="106,112.1 106,175.8 94,175.8 94,110.1 " />
<polygon points="106,112.1 109,114.1 104,117.1 " />
<polygon points="14,171.8 186,171.8 186,175.8 14,175.8 " />
<polygon points="186,171.8 162,173.8 174,161.8 " />
</g>
</svg>
