<svg xmlns="http://www.w3.org/2000/svg" xmlns:xlink="http://www.w3.org/1999/xlink" version="1.1" baseProfile="full" viewBox="0 0 200 200" width="200" height="200">
<g fill="black">
<polygon points="25,41 160,41 160,45 25,45 " />
<polygon points="164.9,46.3 156,58.6 146.8,70.5 137.4,81.9 127.6,92.7 117.5,103.1 107.2,113 96.5,122.3 85.5,131.1 74.2,139.2 62.5,146.7 61.4,145.2 71.8,136.2 82.1,127 92.1,117.4 101.9,107.6 111.4,97.3 120.6,86.6 129.6,75.5 138.3,64 146.8,52 155,39.6 " />
<polygon points="154,41 160,36 171,45 166,48 154,53 " />
<polygon points="18.3,168.1 21,165.4 23.8,162 26.8,157.9 29.7,153.1 32.8,147.8 35.8,141.8 39,135.1 42.2,127.9 45.5,120.1 49.1,111.7 50.8,112.2 49.1,121.2 47.2,129.6 45.1,137.4 42.9,144.6 40.5,151.3 38,157.4 35.5,162.9 32.8,167.9 30,172.4 27,176.3 " />
<polygon points="16.9,169.6 18.3,168.1 27,176.3 " />
<polygon points="28.9,169.9 30.6,176.9 27,176.3 " />
<polygon points="49,112.8 52.9,124 57.4,133.6 63,141.7 70.1,148.2 79.2,153.5 91,157.7 106.1,160.6 125,162.2 148,162.5 175.6,161.4 176.3,174.5 148.1,175 124.2,174 104.4,171.5 88.1,167.5 75,161.9 64.8,154.7 57.2,146 52.1,136.1 48.9,125.2 47.3,113.1 " />
<polygon points="176.3,174.5 175.6,161.4 186.9,160.8 " />
</g>
</svg>
