<svg xmlns="http://www.w3.org/2000/svg" xmlns:xlink="http://www.w3.org/1999/xlink" version="1.1" baseProfile="full" viewBox="0 0 200 200" width="200" height="200">
<g fill="black">
<polygon points="40,30 152,30 152,34 40,34 " />
<polygon points="158,32 158,78 146,84 146,32 " />
<polygon points="146,30 152,25 163,34 158,38 146,32 " />
<polygon points="14,51 186,51 186,55 14,55 " />
<polygon points="186,51 166,53 176,42 " />
<polygon points="40,72 152,72 152,76 40,76 " />
<polygon points="31,94 169,94 169,98 31,98 " />
<polygon points="169,94 149,96 159,85 " />
<polygon points="17,114 183,114 183,118 17,118 " />
<polygon points="183,114 159,116 171,104 " />
<polygon points="106,14 106,118 94,118 94,12 " />
<polygon points="106,14 109,16 104,19 " />
</g>
</svg>
