<svg xmlns="http://www.w3.org/2000/svg" xmlns:xlink="http://www.w3.org/1999/xlink" version="1.1" baseProfile="full" viewBox="0 0 200 200" width="200" height="200">
<g fill="black">
<polygon points="25,49 174,49 174,53 25,53 " />
<polygon points="174,49 150,51 162,39 " />
<polygon points="37,91 148,91 148,95 37,95 " />
<polygon points="154,93 154,181 142,187 142,93 " />
<polygon points="142,91 148,86 159,95 154,99 142,93 " />
<polygon points="9,132 191,132 191,136 9,136 " />
<polygon points="191,132 167,134 179,122 " />
<polygon points="36,173 148,173 148,177 36,177 " />
<polygon points="101,19 101,174 89,174 89,17 " />
<polygon points="101,19 104,21 101,23 " />
</g>
</svg>
