<svg xmlns="http://www.w3.org/2000/svg" xmlns:xlink="http://www.w3.org/1999/xlink" version="1.1" baseProfile="full" viewBox="0 0 200 200" width="200" height="200">
<g fill="black">
<polygon points="106.8,22.4 99.5,35.3 91.6,47.4 83.3,58.8 74.5,69.5 65.2,79.5 55.4,88.7 45.1,97.1 34.4,104.7 23.1,111.4 11.4,117.2 10.5,115.6 21.1,108.2 31.2,100.4 40.9,92 50.2,83.1 59,73.7 67.3,63.6 75.2,52.9 82.6,41.6 89.6,29.6 96.2,17 " />
<polygon points="96.7,15.9 106.8,22.4 95.7,17.9 " />
<polygon points="106.8,22.4 108.6,25.6 102.8,26 " />
<polygon points="96.3,25.8 107.5,32.3 118.1,39.3 128.3,46.7 137.9,54.5 147,62.6 155.7,71.1 163.8,79.9 171.5,89.1 178.7,98.5 185.5,108.3 175.3,114.6 169.4,105 163,95.5 156.1,86.3 148.8,77.4 141,68.6 132.8,60.1 124,51.7 114.9,43.5 105.3,35.4 95.3,27.3 " />
<polygon points="185.5,108.3 186.2,112.8 183.5,116.6 179,117.2 175.3,114.6 " />
<polygon points="106,31 106,182 94,188 94,31 " />
</g>
</svg>
