<svg xmlns="http://www.w3.org/2000/svg" xmlns:xlink="http://www.w3.org/1999/xlink" version="1.1" baseProfile="full" viewBox="0 0 200 200" width="200" height="200">
<g fill="black">
<path d="M 17.3 187.8 L 16.6 186.1 L 27.2 180.6 L 36.5 174.8 L 44.7 168.8 L 51.7 162.5 L 57.5 155.9 L 62.1 149 L 65.6 141.8 L 68.1 134.2 L 69.5 126.3 L 69.9 118.8 L 70 117 L 17 117 L 17 113 L 91 113 L 91 89.2 L 49.4 89.2 L 49.4 96.2 L 37.4 102.2 L 37.4 28.9 L 49.4 34.9 L 85.8 34.9 L 86.4 33.8 L 87.3 31 L 88.2 28.3 L 89.1 25.8 L 90 23.4 L 90.7 21 L 91.4 18.8 L 92 16.6 L 92.6 14.5 L 92.8 13.5 L 92.6 13.4 L 93.6 11.3 L 104 17.4 L 105.9 20.5 L 101.3 21.1 L 101.2 21.2 L 99.7 23.2 L 98 25.1 L 96.3 27.1 L 94.5 29.1 L 92.6 31.1 L 90.6 33.1 L 88.6 34.9 L 146.5 34.9 L 152.5 29.9 L 163.5 38.9 L 158.5 42.9 L 158.5 93.2 L 146.5 99.2 L 146.5 89.2 L 92.2 89.2 L 103 91 L 106 93 L 103 94.8 L 103 113 L 158 113 L 168 103 L 180 113 L 180 117 L 76.9 117 L 81.9 118.1 L 84.9 120.1 L 81.5 122.1 L 80.8 127.9 L 78.5 137 L 143 137 L 149 132 L 160 141 L 155 144 L 154.8 144.1 L 154.8 145.6 L 154.3 151.7 L 153.6 157.3 L 152.4 162.4 L 150.9 167.1 L 149 171.3 L 146.6 175 L 143.7 178.2 L 140.2 180.7 L 136.3 182.5 L 134.2 183.1 L 132.2 183.7 L 130 184.2 L 127.9 184.7 L 125.8 185.1 L 123.6 185.4 L 121.5 185.6 L 119.3 185.8 L 117.1 185.9 L 115 186 L 115 180 L 95 177 L 95 174 L 115 174 L 116.8 173.9 L 118.5 173.8 L 120.3 173.7 L 122.1 173.5 L 123.9 173.2 L 125.6 172.9 L 127.4 172.6 L 132.5 171.1 L 134.2 170.4 L 135.6 169.3 L 137.1 167.7 L 138.4 165.6 L 139.7 162.8 L 140.8 159.3 L 141.7 155.2 L 142.4 150.4 L 142.8 145 L 142.9 141 L 76.9 141 L 74.8 146 L 69.9 154.1 L 63.9 161.5 L 56.8 168.2 L 48.5 174.2 L 39.2 179.5 L 28.8 184 Z M 49.4 85.2 L 146.5 85.2 L 146.5 63.6 L 49.4 63.6 Z M 49.4 59.6 L 146.5 59.6 L 146.5 38.9 L 49.4 38.9 Z " />
</g>
</svg>
