<svg xmlns="http://www.w3.org/2000/svg" xmlns:xlink="http://www.w3.org/1999/xlink" version="1.1" baseProfile="full" viewBox="0 0 200 200" width="200" height="200">
<g fill="black">
<polygon points="117.4,31.1 112.8,37.3 107.9,43.3 102.7,49.2 97.2,55 91.4,60.6 85.3,66.1 78.8,71.3 72.1,76.4 65,81.2 57.5,85.7 56.4,84.2 62.6,78.2 68.6,72.3 74.4,66.4 80,60.6 85.3,54.7 90.3,48.8 95,42.8 99.4,36.8 103.5,30.7 107.4,24.5 " />
<polygon points="106.8,25.3 117.4,31.1 107.9,23.7 " />
<polygon points="117.4,31.1 118.8,34.4 113,34.2 " />
<polygon points="28.1,26.6 37.5,45.8 47.5,64.1 58.4,81.5 70.1,97.9 82.9,113.4 96.6,128 111.3,141.7 126.9,154.5 143.6,166.3 161.3,177.3 154.6,188.6 136.5,176.6 119.6,163.7 103.8,149.9 89.2,135.1 75.7,119.4 63.4,102.8 52.2,85.3 42.3,66.9 33.7,47.5 26.5,27.2 " />
<polygon points="154.6,188.6 161.3,177.3 165.7,179.9 " />
<polygon points="167,75.4 161.5,81.8 155.6,88.2 149.5,94.5 143,100.7 136.3,106.9 129.2,113.1 121.8,119.2 114.1,125.2 106,131 97.5,136.7 96.4,135.2 103.6,128.1 110.6,121.1 117.4,114.3 124,107.6 130.3,100.9 136.4,94.2 142.1,87.6 147.6,81.1 152.7,74.5 157.6,68 " />
<polygon points="157,68.8 167,75.4 158.1,67.5 " />
<polygon points="167,75.4 168.2,78.9 162.4,78.1 " />
</g>
</svg>
