<svg xmlns="http://www.w3.org/2000/svg" xmlns:xlink="http://www.w3.org/1999/xlink" version="1.1" baseProfile="full" viewBox="0 0 200 200" width="200" height="200">
<g fill="black">
<polygon points="84,14 84,78 72,78 72,14 " />
<polygon points="84,78 81.6,81.6 78,84 74.4,81.6 72,78 " />
<polygon points="84,78 83.2,94.3 81.6,109.5 79.1,123.5 75.7,136.3 71.4,148 66.2,158.4 60.1,167.6 53,175.4 45.1,181.8 36.4,186.7 35.5,185.2 42.7,178.9 49.1,171.8 54.7,163.9 59.5,154.9 63.5,144.9 66.8,133.8 69.2,121.6 70.9,108.2 71.8,93.7 72,78 " />
<polygon points="131,14 131,169 119,169 119,14 " />
<polygon points="131,169 128.6,172.6 125,175 121.4,172.6 119,169 " />
<polygon points="131,169 130.8,171.5 130.4,174 129.6,176.4 128.3,178.7 126.7,180.7 124.7,182.3 122.4,183.6 120,184.4 117.5,184.8 115,185 115,173 116.2,172.9 117.1,172.7 117.7,172.5 118,172.4 118.2,172.2 118.4,172 118.5,171.7 118.7,171.1 118.9,170.2 119,169 " />
<polygon points="115,179 115,173 95,173 95,176 " />
<polygon points="58.6,51.3 55.9,60.8 53,70.2 49.8,79.6 46.2,88.9 42.4,98.2 38.2,107.4 33.7,116.6 28.8,125.7 23.5,134.6 17.7,143.4 16.2,142.5 20.1,132.9 24,123.3 27.7,113.9 31.2,104.5 34.4,95.2 37.4,85.8 40.2,76.5 42.7,67.2 44.9,57.9 46.9,48.6 " />
<polygon points="46.9,48.6 58.6,51.3 47.3,46.8 " />
<polygon points="58.6,51.3 61.1,53.9 54.3,56.4 " />
<polygon points="146.3,48.2 151.3,53.2 155.9,58.6 160.1,64.4 164.1,70.5 167.8,76.9 171.2,83.5 174.3,90.4 177.1,97.6 179.7,105 182.1,112.6 170.4,115.5 168.8,108.1 166.9,100.9 164.9,93.9 162.6,87.1 160.1,80.5 157.4,74 154.5,67.7 151.4,61.5 148.2,55.4 144.9,49.3 " />
<polygon points="182.1,112.6 181.3,117.1 177.7,119.9 173.2,119.1 170.4,115.5 " />
</g>
</svg>
