<svg xmlns="http://www.w3.org/2000/svg" xmlns:xlink="http://www.w3.org/1999/xlink" version="1.1" baseProfile="full" viewBox="0 0 200 200" width="200" height="200">
<g fill="black">
<path d="M 91 188 L 91 182 L 71 179 L 71 176 L 91 176 L 92.2 175.9 L 93.1 175.7 L 94 175.4 L 94.4 175 L 94.7 174.1 L 94.9 173.2 L 95 172 L 95 53 L 17 53 L 17 49 L 95 49 L 95 12 L 107 14 L 110 16 L 107 17.8 L 107 49 L 163 49 L 173 39 L 185 49 L 185 53 L 107 53 L 107 172 L 106.8 174.5 L 106.4 177 L 105.6 179.4 L 104.3 181.7 L 102.7 183.7 L 100.7 185.3 L 98.4 186.6 L 96 187.4 L 93.5 187.8 Z M 168.9 160.8 L 164.6 159.2 L 161.1 155.6 L 157.2 152 L 153 148.4 L 148.4 144.8 L 143.4 141.2 L 138.1 137.5 L 132.4 133.8 L 126.4 130.1 L 120.1 126.2 L 113.5 122.2 L 114.2 120.5 L 121.7 122.8 L 128.8 125.3 L 135.5 128 L 141.8 130.9 L 147.8 133.9 L 153.5 137 L 158.9 140.3 L 163.9 143.6 L 168.6 147 L 172.9 150.5 L 174.7 154.7 L 173.1 159 Z M 29.5 157.3 L 27 154.7 L 22.9 143.2 L 24.9 142.9 L 31.2 141.9 L 37.4 140.7 L 43.6 139.2 L 49.6 137.5 L 55.5 135.5 L 61.3 133.3 L 67.1 130.8 L 72.8 128.1 L 78.6 125.3 L 84.4 122.2 L 85.5 123.7 L 80.8 128.4 L 75.7 132.7 L 70.3 136.5 L 64.7 140.1 L 58.9 143.3 L 52.9 146.2 L 46.7 148.8 L 40.3 151.1 L 33.7 153 L 31.1 153.7 Z M 113.2 106.8 L 112.7 105.1 L 117.6 102.2 L 122.6 99.3 L 127.6 96.2 L 132.5 92.9 L 137.5 89.3 L 142.4 85.5 L 147.3 81.4 L 152.3 77 L 157.2 72.3 L 161.4 68.1 L 161.3 68 L 162.3 67.1 L 170.4 76 L 171 79.5 L 167.4 78.5 L 164.8 80.8 L 159.1 85.2 L 153.5 89.3 L 147.8 93.1 L 142.1 96.4 L 136.3 99.4 L 130.6 102 L 124.8 104.1 L 119 105.8 Z M 73.7 103.7 L 69.5 101.9 L 67.2 99.1 L 64.6 96.3 L 61.6 93.5 L 58.3 90.5 L 54.6 87.6 L 50.6 84.5 L 46.2 81.4 L 41.6 78.2 L 36.7 74.8 L 31.5 71.2 L 32.2 69.6 L 38.4 71.4 L 44.1 73.4 L 49.5 75.7 L 54.5 78 L 59.2 80.5 L 63.6 83 L 67.7 85.5 L 71.6 88.2 L 75.1 90.9 L 78.3 93.7 L 79.8 98 L 78 102.1 Z " />
</g>
</svg>
