<svg xmlns="http://www.w3.org/2000/svg" xmlns:xlink="http://www.w3.org/1999/xlink" version="1.1" baseProfile="full" viewBox="0 0 200 200" width="200" height="200">
<g fill="black">
<path d="M 19.4 178.7 L 18.5 177.2 L 24 172 L 29 166.7 L 33.2 161.2 L 36.9 155.4 L 39.9 149.3 L 42.3 142.8 L 44.1 136 L 45.3 128.7 L 45.9 121.1 L 46 113 L 46 25 L 58 27 L 61 29 L 58 30.8 L 58 113 L 57.3 122 L 55.9 130.5 L 53.8 138.6 L 51 146.1 L 47.5 153.1 L 43.2 159.6 L 38.3 165.4 L 32.7 170.6 L 26.4 175 Z M 149 178 L 146.4 177.8 L 143.9 177.4 L 141.5 176.6 L 139.2 175.3 L 137.2 173.7 L 135.6 171.7 L 134.3 169.4 L 133.5 167 L 133.1 164.5 L 133 162 L 133 23 L 145 25 L 148 27 L 145 28.8 L 145 163.2 L 145.2 164.1 L 145.5 165 L 145.9 165.4 L 146.8 165.7 L 147.7 165.9 L 149 166 L 174.2 166 L 180 141 L 182 141 L 180.1 166 L 183.6 168.4 L 186 172 L 183.6 175.6 L 180 178 Z M 89 163 L 89 28 L 101 30 L 104 32 L 101 33.8 L 101 157 Z " />
</g>
</svg>
