<svg xmlns="http://www.w3.org/2000/svg" xmlns:xlink="http://www.w3.org/1999/xlink" version="1.1" baseProfile="full" viewBox="0 0 200 200" width="200" height="200">
<g fill="black">
<path d="M 144.7 183.4 L 143.2 182.5 L 145.1 176.4 L 147.1 170.4 L 148.9 164.6 L 150.6 158.9 L 152.2 153.3 L 153.5 147.9 L 154.7 142.5 L 155.7 137.3 L 156.5 132.1 L 156.7 130 L 43.9 130 L 43.9 132.9 L 43.5 139.9 L 42.8 146.7 L 41.6 153.3 L 39.9 159.7 L 37.9 165.8 L 35.5 171.8 L 32.6 177.5 L 28.9 180.2 L 24.4 179.5 L 21.7 175.8 L 22.4 171.3 L 25.4 166.6 L 28.1 161.6 L 30.5 156.3 L 32.6 150.8 L 34.5 144.9 L 36 138.8 L 37.3 132.3 L 38.4 125.5 L 39.3 118.4 L 40.1 111 L 41.9 110.9 L 43.1 118.4 L 43.8 125.8 L 43.8 126 L 157 126 L 163 121 L 174 130 L 169 133 L 167.8 133.5 L 167.6 134.3 L 166.1 139.7 L 164.4 145.1 L 162.4 150.6 L 160.2 156.1 L 157.7 161.6 L 155 167.1 L 152 172.6 L 148.5 178 Z M 56 170 L 56 166 L 117 166 L 127 156 L 139 166 L 139 170 Z M 40 98 L 40 94 L 89 94 L 89 51 L 22 51 L 22 47 L 89 47 L 89 11 L 101 13 L 104 15 L 101 16.8 L 101 47 L 156 47 L 166 37 L 178 47 L 178 51 L 101 51 L 101 94 L 135 94 L 145 84 L 157 94 L 157 98 Z " />
</g>
</svg>
