<svg xmlns="http://www.w3.org/2000/svg" xmlns:xlink="http://www.w3.org/1999/xlink" version="1.1" baseProfile="full" viewBox="0 0 200 200" width="200" height="200">
<g fill="black">
<polygon points="53,52 166,52 166,56 53,56 " />
<polygon points="166,52 142,54 154,42 " />
<polygon points="62.8,16.5 55.4,93.5 42.9,98.3 51.1,13.4 " />
<polygon points="62.8,16.5 65.6,18.8 60.5,20.6 " />
<polygon points="50,86 170,86 170,90 50,90 " />
<polygon points="176,88 175.8,99.2 175.5,109.8 174.9,119.8 174.1,129.3 173.1,138.2 171.8,146.5 170.3,154.2 168.6,161.4 166.6,168 164.3,174 153.3,169.4 155.2,164.1 157,158.2 158.6,151.7 160,144.4 161.2,136.6 162.2,128.1 163,119 163.5,109.3 163.8,98.9 164,88 " />
<polygon points="164,86 170,81 181,90 176,93 164,98 " />
<polygon points="164.3,174 161.1,177.2 156.5,177.3 153.3,174 153.3,169.4 " />
<polygon points="164.3,174 163.3,176.3 162,178.4 160.4,180.4 158.7,182.1 156.7,183.6 154.6,184.9 152.3,185.8 149.9,186.5 147.5,186.8 145,187 145,175 146.3,174.9 147.5,174.7 148.5,174.4 149.3,174.1 150.1,173.7 150.8,173.1 151.4,172.5 152.1,171.6 152.7,170.6 153.3,169.4 " />
<polygon points="125,178 125,175 145,175 145,181 " />
<polygon points="40.9,109.7 41.9,119 42.4,127.8 42.3,136 41.8,143.7 40.9,150.8 39.5,157.4 37.7,163.5 35.4,169 32.7,174.1 29.4,178.6 20.7,170.3 23.4,167.5 26,163.9 28.4,159.6 30.6,154.6 32.6,148.9 34.3,142.5 35.8,135.3 37,127.5 38.1,118.9 39.1,109.7 " />
<polygon points="29.4,178.6 25.2,180.4 20.9,178.8 19.1,174.6 20.7,170.3 " />
<polygon points="62.1,110.9 64.9,116.1 67.2,121.5 69.2,127 70.8,132.5 72.1,138 73.1,143.6 73.8,149.3 74.2,154.9 74.3,160.6 74.2,166.3 62.3,165.1 63,160 63.5,154.8 63.7,149.6 63.8,144.4 63.6,139.1 63.3,133.8 62.8,128.3 62.1,122.9 61.3,117.2 60.4,111.5 " />
<polygon points="74.2,166.3 72,170.3 67.7,171.7 63.7,169.5 62.3,165.1 " />
<polygon points="86.3,108.9 89.9,112.1 93.2,115.8 96.1,119.8 98.7,124.2 101,128.8 103.1,133.7 104.9,138.8 106.4,144.2 107.6,149.8 108.6,155.7 96.7,156.8 96.4,151.4 95.8,146.2 95.1,141.2 94.2,136.4 93.1,131.7 91.7,127.2 90.2,122.8 88.6,118.5 86.8,114.3 84.9,110 " />
<polygon points="108.6,155.7 107.2,160 103.2,162.2 98.9,160.8 96.7,156.8 " />
<polygon points="114.3,103.9 118,106.2 121.6,108.8 125,111.7 128.1,115 131,118.6 133.6,122.5 136.1,126.7 138.3,131.1 140.2,135.7 142,140.6 130.4,143.6 129.4,139.1 128.3,134.8 127,130.7 125.6,126.7 123.9,122.9 122.1,119.2 120.1,115.6 118,112.1 115.7,108.6 113.1,105.3 " />
<polygon points="142,140.6 141.3,145.1 137.7,147.9 133.2,147.2 130.4,143.6 " />
</g>
</svg>
