<svg xmlns="http://www.w3.org/2000/svg" xmlns:xlink="http://www.w3.org/1999/xlink" version="1.1" baseProfile="full" viewBox="0 0 200 200" width="200" height="200">
<g fill="black">
<path d="M 94 188.6 L 94 182.6 L 74 179.6 L 74 176.6 L 95.2 176.6 L 96.1 176.4 L 96.7 176.2 L 97 176 L 97.2 175.9 L 97.4 175.7 L 97.7 174.8 L 97.9 173.9 L 98 172.6 L 98 129.8 L 24.8 129.8 L 24.8 125.8 L 98 125.8 L 98 106.3 L 108.9 108.1 L 110.8 106.5 L 116 102 L 120.9 97.8 L 125.5 93.9 L 129.7 90.2 L 133.5 86.7 L 136.9 83.5 L 139.1 81.2 L 48.8 81.2 L 48.8 77.2 L 142.8 77.2 L 144.7 75 L 145.1 75.4 L 149 72.2 L 160 81.2 L 155 84.2 L 149.8 86.4 L 147 88.5 L 143.3 91.2 L 139.3 94 L 134.8 96.9 L 130 100 L 124.7 103.2 L 119.1 106.4 L 112.9 109.6 L 112.4 109.9 L 113 110.3 L 110 112.1 L 110 125.8 L 161.1 125.8 L 171.1 115.8 L 183.1 125.8 L 183.1 129.8 L 110 129.8 L 110 172.6 L 109.8 175.2 L 109.4 177.7 L 108.6 180.1 L 107.3 182.3 L 105.7 184.4 L 103.7 186 L 101.4 187.2 L 99 188 L 96.5 188.5 Z M 17.4 81.7 L 16.5 80.2 L 23.4 74.3 L 30 68.3 L 36.2 62.4 L 41.9 56.3 L 47.2 50.2 L 52.1 43.8 L 56.5 37.4 L 60.4 30.8 L 64 24 L 67.1 17.1 L 67.6 15.9 L 78 22.1 L 79.9 25.1 L 76.1 25.6 L 74 29.4 L 69.6 36.4 L 64.7 43.2 L 59.4 49.6 L 159 49.6 L 169 39.6 L 181 49.6 L 181 53.6 L 55.6 53.6 L 53.5 55.8 L 47.2 61.7 L 40.5 67.3 L 33.3 72.5 L 25.6 77.3 Z " />
</g>
</svg>
