<svg xmlns="http://www.w3.org/2000/svg" xmlns:xlink="http://www.w3.org/1999/xlink" version="1.1" baseProfile="full" viewBox="0 0 200 200" width="200" height="200">
<g fill="black">
<polygon points="106.6,19.3 99.2,30.2 91.4,40.5 83,50.2 74.2,59.2 64.9,67.6 55.2,75.4 44.9,82.5 34.2,88.8 23,94.4 11.3,99.2 10.6,97.6 21.2,91.1 31.4,84.3 41.1,77.1 50.4,69.5 59.2,61.4 67.6,52.8 75.4,43.6 82.8,34 89.8,23.8 96.3,13.1 " />
<polygon points="96.8,12.2 106.6,19.3 95.8,14 " />
<polygon points="106.6,19.3 108.1,22.6 102.3,22.6 " />
<polygon points="99.3,18.7 107.2,27.1 115,35.1 122.8,42.6 130.8,49.6 138.8,56 147,61.9 155.4,67.3 164,72 172.7,76.3 181.5,80 176.4,92.2 167.1,87.5 158.1,82.3 149.4,76.5 141,70.1 132.9,63.2 125.1,55.7 117.6,47.7 110.5,39 103.9,29.7 97.8,19.8 " />
<polygon points="176.4,92.2 181.5,80 187.8,82.7 " />
<polygon points="106,59.9 106,172.1 94,172.1 94,57.9 " />
<polygon points="106,59.9 109,61.9 104,64.9 " />
<polygon points="106,172.1 103.6,175.7 100,178.1 96.4,175.7 94,172.1 " />
<polygon points="106,172.1 105.8,174.6 105.4,177.1 104.6,179.5 103.3,181.8 101.7,183.8 99.7,185.5 97.4,186.7 95,187.5 92.5,187.9 90,188.1 90,176.1 91.2,176 92.1,175.8 92.7,175.6 93,175.5 93.2,175.3 93.4,175.1 93.5,174.8 93.7,174.2 93.9,173.3 94,172.1 " />
<polygon points="70,179.1 70,176.1 90,176.1 90,182.1 " />
<polygon points="47.3,86.4 51.1,88.6 54.9,91 58.5,93.6 61.8,96.4 65,99.4 67.9,102.5 70.7,105.8 73.4,109.3 75.8,112.8 78.1,116.5 67.2,121.7 65.9,118.2 64.3,114.7 62.6,111.3 60.7,107.9 58.7,104.5 56.5,101.2 54.1,97.8 51.6,94.5 49,91.1 46.2,87.8 " />
<polygon points="78.1,116.5 78.3,121.1 75.2,124.5 70.7,124.7 67.2,121.7 " />
<polygon points="23.6,166 29.5,162.6 35.8,158.8 42.4,154.8 49.4,150.4 56.7,145.7 64.4,140.7 72.5,135.5 81,130 90,124.3 99.4,118.5 100.5,119.9 92.3,127.3 84.2,134.3 76.4,140.8 68.9,146.9 61.6,152.6 54.7,158 48,163 41.7,167.7 35.7,172.1 30,176.1 " />
<polygon points="21.9,167 23.6,166 30,176.1 " />
<polygon points="33.5,170.4 33.3,177.6 30,176.1 " />
<polygon points="150.5,93 147.9,96.7 145,100.4 142,104.1 138.9,107.8 135.7,111.5 132.2,115.1 128.7,118.7 124.9,122.2 120.9,125.7 116.6,129 115.3,127.7 118.1,123.2 120.9,118.8 123.7,114.6 126.4,110.4 129,106.4 131.5,102.3 133.9,98.4 136.1,94.5 138.3,90.6 140.3,86.8 " />
<polygon points="140.8,85.9 150.5,93 139.8,87.6 " />
<polygon points="150.5,93 152.1,96.3 146.2,96.3 " />
<polygon points="101.2,122.7 110.1,125.8 118.7,129.3 126.8,133.3 134.5,137.5 141.9,142.1 149,147 155.7,152.2 162,157.6 168,163.4 173.7,169.4 164.4,177 159.6,171.1 154.5,165.3 149,159.7 143.2,154.3 137,149 130.4,143.9 123.4,138.9 116.1,134 108.5,129.2 100.5,124.3 " />
<polygon points="173.7,169.4 175,173.8 172.9,177.8 168.5,179.1 164.4,177 " />
</g>
</svg>
