<svg xmlns="http://www.w3.org/2000/svg" xmlns:xlink="http://www.w3.org/1999/xlink" version="1.1" baseProfile="full" viewBox="0 0 200 200" width="200" height="200">
<g fill="black">
<polygon points="35,21 180,21 180,25 35,25 " />
<polygon points="41,21 41,110 29,110 29,15 " />
<polygon points="41,110 38.6,113.6 35,116 31.4,113.6 29,110 " />
<polygon points="41,110 40.4,120.7 39.4,130.8 37.8,140.3 35.8,149.2 33.3,157.4 30.2,165 26.6,171.8 22.5,177.9 17.8,183.2 12.6,187.6 11.3,186.3 14.8,180.9 18,175.1 20.7,168.9 23.1,162.2 25.1,155 26.7,147.2 27.9,138.8 28.7,129.8 29,120.2 29,110 " />
<polygon points="185.5,25.3 183.8,28.1 182.1,30.9 180.3,33.7 178.4,36.5 176.4,39.3 174.3,42.1 172,44.9 169.7,47.7 167.1,50.5 164.7,53.4 163.2,52.5 164.7,49 165.9,45.5 167.1,42.1 168.4,38.8 169.5,35.6 170.6,32.5 171.7,29.4 172.7,26.4 173.6,23.5 174.4,20.6 " />
<polygon points="174,21 180,16 191,25 186,29 180,29 " />
</g>
</svg>
