<svg xmlns="http://www.w3.org/2000/svg" xmlns:xlink="http://www.w3.org/1999/xlink" version="1.1" baseProfile="full" viewBox="0 0 200 200" width="200" height="200">
<g fill="black">
<polygon points="18,57 182,57 182,61 18,61 " />
<polygon points="182,57 158,59 170,47 " />
<polygon points="67,17 67,179 55,179 55,15 " />
<polygon points="67,17 70,19 65,22 " />
<polygon points="145,17 145,179 133,179 133,15 " />
<polygon points="145,17 148,19 143,22 " />
<polygon points="61,96 139,96 139,100 61,100 " />
<polygon points="61,135 139,135 139,139 61,139 " />
<polygon points="13,175 187,175 187,179 13,179 " />
<polygon points="187,175 163,177 175,165 " />
</g>
</svg>
