<svg xmlns="http://www.w3.org/2000/svg" xmlns:xlink="http://www.w3.org/1999/xlink" version="1.1" baseProfile="full" viewBox="0 0 200 200" width="200" height="200">
<g fill="black">
<path d="M 19 186 L 19 182 L 45 182 L 45 121 L 16 121 L 16 117 L 45 117 L 45 62.7 L 42.2 67 L 36.4 75.2 L 30.3 83.4 L 23.7 91.5 L 16.7 99.5 L 15.2 98.4 L 20.6 89.3 L 25.9 80.4 L 30.9 71.6 L 35.7 63 L 40.2 54.6 L 44.4 46.2 L 48.2 37.9 L 51.8 29.8 L 55.1 21.7 L 57.7 14.6 L 57.6 14.6 L 58.5 12.3 L 69.2 18.1 L 71.2 21 L 67.6 21.6 L 65.5 26.2 L 61.5 34.3 L 57.2 42.4 L 52.9 50 L 155 50 L 165 40 L 177 50 L 177 54 L 150 54 L 150 117 L 161 117 L 171 107 L 183 117 L 183 121 L 150 121 L 150 182 L 159 182 L 169 172 L 181 182 L 181 186 Z M 57 182 L 76 182 L 76 121 L 57 121 Z M 88 182 L 107 182 L 107 121 L 88 121 Z M 119 182 L 138 182 L 138 121 L 119 121 Z M 57 117 L 76 117 L 76 54 L 57 54 Z M 88 117 L 107 117 L 107 54 L 88 54 Z M 119 117 L 138 117 L 138 54 L 119 54 Z " />
</g>
</svg>
