<svg xmlns="http://www.w3.org/2000/svg" xmlns:xlink="http://www.w3.org/1999/xlink" version="1.1" baseProfile="full" viewBox="0 0 200 200" width="200" height="200">
<g fill="black">
<path d="M 19 185.7 L 19 181.7 L 94 181.7 L 94 151.9 L 33 151.9 L 33 147.9 L 94 147.9 L 94 133.6 L 57 133.6 L 57 129.6 L 121 129.6 L 129.8 120.8 L 126.1 118.7 L 118.5 113.9 L 111.3 108.8 L 104.5 103.2 L 103.2 101.9 L 102.3 101.7 L 97.9 105.2 L 90.1 110.8 L 81.8 116 L 73.1 120.9 L 63.9 125.3 L 54.3 129.4 L 44.2 133.1 L 33.7 136.4 L 22.7 139.1 L 11.2 141.3 L 10.7 139.5 L 21.6 135.5 L 31.9 131.3 L 41.8 127 L 51.2 122.5 L 60.1 117.8 L 68.5 112.8 L 76.4 107.6 L 83.8 102.1 L 90.7 96.4 L 96.4 91 L 96.8 90.7 L 97.1 90.4 L 97.4 90.2 L 104.9 98.7 L 106.9 99.8 L 114.5 103.8 L 122.1 107.7 L 129.9 111.3 L 137.9 114.6 L 146 117.7 L 154.3 120.4 L 162.8 123 L 171.5 125.2 L 180.5 127.1 L 189.2 129.2 L 177.4 140 L 168.2 137.2 L 159.2 134.2 L 150.5 130.8 L 142.1 127.1 L 137 124.6 L 143 129.6 L 143 133.6 L 106 133.6 L 106 147.9 L 145 147.9 L 155 137.9 L 167 147.9 L 167 151.9 L 106 151.9 L 106 181.7 L 159 181.7 L 169 171.7 L 181 181.7 L 181 185.7 Z M 121.5 181.1 L 120.4 179.7 L 123.3 177.1 L 125.8 174.3 L 128.2 171.6 L 130.6 169 L 132.8 166.5 L 134.9 164.1 L 136.8 161.7 L 138.6 159.4 L 140.3 157.1 L 141.2 155.7 L 141.8 154.9 L 142.2 154.5 L 150.7 163 L 151.6 166.5 L 147.4 165.6 L 145.9 166.8 L 143.3 168.7 L 140.6 170.6 L 137.8 172.4 L 134.8 174.3 L 131.7 176 L 128.4 177.7 L 124.9 179.3 Z M 65.8 179.6 L 62.2 176.7 L 61.9 175.3 L 61.2 173.8 L 60.3 172.1 L 59.2 170.2 L 57.7 168.3 L 56 166.3 L 54 164.2 L 51.8 162.1 L 49.3 159.8 L 46.4 157.8 L 47.3 156.2 L 50.5 157.6 L 53.9 158.7 L 56.9 159.9 L 59.8 161.2 L 62.4 162.5 L 64.9 164 L 67.1 165.6 L 69.2 167.3 L 71.1 169.1 L 72.8 171 L 73.2 175.6 L 70.4 179.2 Z M 79.2 94 L 78.7 92.3 L 87.7 87.9 L 95.8 83.1 L 102.9 77.8 L 109 72 L 114.1 65.8 L 118.4 58.9 L 121.8 51.5 L 124.4 43.5 L 126.1 34.9 L 126.7 28 L 101 28 L 101 24 L 166 24 L 172 19 L 183 28 L 178 31 L 178.1 33.1 L 178 39.9 L 177.8 46.2 L 177.5 52 L 176.9 57.3 L 176.2 62.2 L 175.3 66.7 L 174.2 70.7 L 172.9 74.3 L 171.2 77.6 L 169.9 79.7 L 168.3 81.6 L 166.6 83.3 L 164.7 84.9 L 162.7 86.2 L 160.5 87.3 L 158.2 88.1 L 155.9 88.7 L 153.4 89 L 151 89.1 L 151 83.1 L 131 80.1 L 131 77.1 L 151 77.1 L 152.4 77 L 153.6 76.9 L 154.8 76.6 L 155.8 76.2 L 156.8 75.7 L 157.7 75.2 L 158.5 74.5 L 159.3 73.6 L 160.1 72.6 L 160.9 71.4 L 161.9 69.6 L 162.8 67.1 L 163.6 63.9 L 164.4 60.2 L 165 55.9 L 165.5 51 L 165.8 45.6 L 166 39.6 L 166.1 36 L 166 36 L 166 28 L 138.7 28 L 137.3 36.9 L 134.7 46.6 L 131 55.6 L 126.4 63.7 L 120.8 71.1 L 114.2 77.5 L 106.8 83.1 L 98.4 87.7 L 89.2 91.4 Z M 20.4 93.4 L 17.6 91.1 L 12.3 80.2 L 14.2 79.6 L 19.8 78.2 L 25.7 76.7 L 29 75.8 L 29 25.6 L 39.4 30.8 L 41 30.2 L 46.9 27.9 L 52.6 25.8 L 58.1 23.8 L 63.3 21.8 L 68.1 19.9 L 72.7 18 L 77 16.1 L 81 14.3 L 83.8 12.8 L 84.7 12.4 L 85.5 14.3 L 93.7 21.7 L 93.9 24.9 L 90 23.2 L 89.4 23.5 L 85.1 24.9 L 80.7 26.2 L 75.9 27.5 L 70.9 28.7 L 65.7 29.9 L 60.2 31.1 L 54.3 32.1 L 48.3 33.1 L 41.9 33.9 L 41 34 L 41 72.6 L 45.1 71.5 L 52.1 69.5 L 59.5 67.5 L 67.2 65.4 L 75.2 63.3 L 79.1 62.4 L 78.2 61 L 75.8 58 L 73.1 54.9 L 70 51.8 L 66.5 48.7 L 62.7 45.5 L 58.4 42.4 L 59.2 40.8 L 64.3 42.6 L 69.1 44.6 L 73.6 46.8 L 77.7 49.3 L 81.5 52.1 L 84.9 55 L 88.1 58.1 L 90.9 61.5 L 93.3 65.1 L 95.4 68.9 L 95.3 73.4 L 92.1 76.7 L 87.5 76.5 L 84.3 73.3 L 83.3 70.2 L 81.9 67.2 L 80.6 64.8 L 76.5 66.8 L 69 70.4 L 61.7 73.6 L 54.6 76.7 L 47.8 79.5 L 41.2 82.1 L 34.9 84.6 L 28.9 86.9 L 23.1 89.1 L 21.5 89.7 Z " />
</g>
</svg>
