<svg xmlns="http://www.w3.org/2000/svg" xmlns:xlink="http://www.w3.org/1999/xlink" version="1.1" baseProfile="full" viewBox="0 0 200 200" width="200" height="200">
<g fill="black">
<path d="M 19.3 186.8 L 18.6 185.1 L 23.6 181.2 L 28 176.9 L 31.7 172.1 L 34.9 166.8 L 37.6 160.9 L 39.7 154.4 L 41.4 147.1 L 42.4 139.1 L 43 130.4 L 43 14 L 55 16 L 58 18 L 55 19.8 L 55 67 L 82 67 L 82 14 L 94 16 L 97 18 L 94 19.8 L 94 77 L 82 83 L 82 71 L 55 71 L 55 118 L 82 118 L 88 113 L 99 122 L 94 126 L 94 175 L 82 181 L 82 122 L 54.9 122 L 54.3 131.1 L 53.1 140.6 L 51.1 149.3 L 48.6 157.3 L 45.3 164.5 L 41.4 170.8 L 36.8 176.3 L 31.5 180.9 L 25.7 184.4 Z M 162 183 L 162 123 L 130 123 L 130 175 L 118 181 L 118 113 L 130 119 L 162 119 L 162 70 L 130 70 L 130 82 L 118 88 L 118 14 L 130 16 L 133 18 L 130 19.8 L 130 66 L 162 66 L 162 14 L 174 16 L 177 18 L 174 19.8 L 174 177 Z " />
</g>
</svg>
