<svg xmlns="http://www.w3.org/2000/svg" xmlns:xlink="http://www.w3.org/1999/xlink" version="1.1" baseProfile="full" viewBox="0 0 200 200" width="200" height="200">
<g fill="black">
<polygon points="52,24 172,24 172,28 52,28 " />
<polygon points="178,26 178,103 166,109 166,26 " />
<polygon points="166,24 172,19 183,28 178,32 166,26 " />
<polygon points="52,57 172,57 172,61 52,61 " />
<polygon points="52,93 172,93 172,97 52,97 " />
<polygon points="58,24 58,85 46,85 46,18 " />
<polygon points="58,85 55.6,88.6 52,91 48.4,88.6 46,85 " />
<polygon points="57.9,84.9 57.5,99 56.2,112.3 54.1,124.7 51.2,136.4 47.4,147.1 42.9,157 37.5,166 31.4,173.9 24.3,180.9 16.5,186.6 15.4,185.3 21.6,178.2 27.1,170.7 31.9,162.6 36,153.8 39.5,144.3 42.2,134 44.2,123 45.5,111.1 46.1,98.5 46,85 " />
</g>
</svg>
