<svg xmlns="http://www.w3.org/2000/svg" xmlns:xlink="http://www.w3.org/1999/xlink" version="1.1" baseProfile="full" viewBox="0 0 200 200" width="200" height="200">
<g fill="black">
<path d="M 64.3 186.8 L 63.6 185.1 L 74.2 179.3 L 83.9 173.6 L 92.5 167.9 L 100.1 162.1 L 106.6 156.3 L 112.2 150.4 L 116.6 144.5 L 120.1 138.5 L 122.6 132.6 L 123.2 130 L 94.7 130 L 94.2 130.8 L 90.2 136.9 L 85.7 142.8 L 80.5 148.3 L 74.9 153.6 L 68.6 158.5 L 61.9 163.1 L 54.6 167.3 L 46.7 171.3 L 38.3 174.7 L 29.3 177.8 L 28.6 176.1 L 36.6 171.3 L 44.1 166.6 L 51.1 161.8 L 57.5 156.9 L 63.3 151.9 L 68.5 146.8 L 73.1 141.6 L 77.2 136.2 L 80.7 130.7 L 81.1 130 L 57.3 130 L 56.9 130.5 L 51.8 135.8 L 46.4 140.8 L 40.4 145.4 L 34.1 149.6 L 27.3 153.5 L 20.1 156.9 L 12.3 159.8 L 11.6 158.1 L 18.2 153.6 L 24.4 149 L 30.2 144.3 L 35.6 139.5 L 40.5 134.6 L 45 129.5 L 49 124.3 L 52.6 118.8 L 55.8 113.2 L 56.3 112 L 26 112 L 26 108 L 169.8 108 L 178 99 L 188 108 L 188 112 L 69.7 112 L 69.4 112.6 L 65.7 118.9 L 61.5 124.9 L 60.6 126 L 163 126 L 169 121 L 180 130 L 175 133 L 174.4 133.2 L 174.2 135.8 L 173.2 142.7 L 172 149.1 L 170.6 155 L 168.8 160.4 L 166.8 165.4 L 164.5 169.9 L 161.9 174 L 158.9 177.6 L 155.5 180.6 L 153.6 182 L 151.7 183.2 L 149.6 184.3 L 147.5 185.3 L 145.4 186.1 L 143.2 186.8 L 140.9 187.3 L 138.6 187.7 L 136.3 187.9 L 134 188 L 134 182 L 114 179 L 114 176 L 134 176 L 135.6 175.9 L 137.1 175.8 L 140.1 175.2 L 142.9 174.2 L 144.2 173.6 L 145.6 172.9 L 148.2 171.1 L 150.2 169.2 L 152.2 166.9 L 154.1 164 L 155.9 160.5 L 157.5 156.4 L 159 151.8 L 160.3 146.5 L 161.4 140.7 L 162.3 134.4 L 162.7 130 L 135.5 130 L 133.1 136.7 L 129.4 143.8 L 124.7 150.4 L 118.9 156.7 L 112.3 162.6 L 104.6 168.2 L 96 173.4 L 86.4 178.3 L 75.9 182.8 Z M 49 102 L 49 45 L 61 51 L 150 51 L 156 46 L 167 55 L 162 59 L 162 96 L 150 102 L 150 96 L 61 96 Z M 61 92 L 150 92 L 150 75 L 61 75 Z M 61 71 L 150 71 L 150 55 L 61 55 Z M 15.5 68.7 L 14.4 67.2 L 24.4 56.8 L 33.8 46.4 L 38.2 41.1 L 42.4 35.6 L 46.4 30.1 L 50.3 24.4 L 53.9 18.6 L 57.3 12.7 L 57.8 11.8 L 67.5 18.9 L 69.1 22.2 L 65.2 22.2 L 63.4 24.9 L 59 30.7 L 55.4 35 L 163 35 L 173 25 L 185 35 L 185 39 L 51.9 39 L 49.5 41.6 L 44.5 46.8 L 39.2 51.7 L 33.7 56.4 L 27.9 60.8 L 21.8 64.9 Z " />
</g>
</svg>
