<svg xmlns="http://www.w3.org/2000/svg" xmlns:xlink="http://www.w3.org/1999/xlink" version="1.1" baseProfile="full" viewBox="0 0 200 200" width="200" height="200">
<g fill="black">
<path d="M 48.7 190 L 48.7 102 L 14 102 L 14 98 L 48.7 98 L 48.7 16.9 L 60.7 22.9 L 139.2 22.9 L 145.2 17.9 L 156.2 26.9 L 151.2 30.9 L 151.2 98 L 164 98 L 174 88 L 186 98 L 186 102 L 151.2 102 L 151.2 181 L 139.2 187 L 139.2 177 L 60.7 177 L 60.7 184 Z M 60.7 173 L 139.2 173 L 139.2 102 L 60.7 102 Z M 60.7 98 L 139.2 98 L 139.2 26.9 L 60.7 26.9 Z " />
</g>
</svg>
