<svg xmlns="http://www.w3.org/2000/svg" xmlns:xlink="http://www.w3.org/1999/xlink" version="1.1" baseProfile="full" viewBox="0 0 200 200" width="200" height="200">
<g fill="black">
<polygon points="95.1,16.2 89.5,27.5 83.6,38.1 77.3,48 70.5,57.3 63.4,65.9 55.8,73.8 47.8,81 39.5,87.4 30.6,93 21.4,97.7 20.5,96.2 28.5,89.9 36.1,83.2 43.4,76.1 50.3,68.6 56.8,60.5 63,51.8 68.8,42.6 74.3,32.8 79.3,22.5 84,11.5 " />
<polygon points="84.6,10.2 95.1,16.2 83.6,12.4 " />
<polygon points="95.1,16.2 97,19.3 91.2,20 " />
<polygon points="79,41 160,41 160,45 79,45 " />
<polygon points="165.6,45.1 157.1,64.4 147.3,82.5 136.3,99.3 124,114.9 110.5,129.2 95.7,142.2 79.7,153.9 62.4,164.3 44,173.3 24.3,180.8 23.6,179.1 42.3,169.9 59.7,159.7 75.9,148.6 90.8,136.4 104.4,123.2 116.9,108.9 128,93.6 138,77.1 146.8,59.5 154.3,40.8 " />
<polygon points="154,41 160,36 171,45 166,48 154,53 " />
<polygon points="70.3,58.6 75.7,60.6 81,63.1 85.9,65.9 90.7,69.1 95.2,72.6 99.5,76.4 103.6,80.5 107.5,84.8 111.2,89.4 114.6,94.3 104.3,100.4 101.7,95.7 98.9,91.2 95.9,86.9 92.7,82.7 89.4,78.7 85.8,74.9 81.9,71.1 77.9,67.5 73.8,63.9 69.4,60.2 " />
<polygon points="114.6,94.3 115.2,98.8 112.5,102.5 107.9,103.1 104.3,100.4 " />
<polygon points="32.9,120.9 41.3,119.6 49.4,118.4 57.1,117.3 64.4,116.2 71.3,115.3 77.9,114.3 84.1,113.5 90,112.8 95.5,112.3 100.7,112.1 101.2,113.8 96.4,116 91.2,118 85.5,119.9 79.5,121.8 73.1,123.6 66.2,125.4 59,127.2 51.4,129 43.4,130.8 35,132.7 " />
<polygon points="30.9,121.2 32.9,120.9 35,132.7 " />
<polygon points="40.4,128.6 37.5,135.3 35,132.7 " />
</g>
</svg>
