<svg xmlns="http://www.w3.org/2000/svg" xmlns:xlink="http://www.w3.org/1999/xlink" version="1.1" baseProfile="full" viewBox="0 0 200 200" width="200" height="200">
<g fill="black">
<path d="M 74 189 L 74 128.7 L 72.5 131.4 L 67 140 L 61 148.1 L 54.7 155.4 L 48 162.2 L 40.9 168.2 L 33.4 173.5 L 25.6 178.1 L 17.4 181.7 L 16.5 180.2 L 23.5 174.9 L 30.2 169.3 L 36.6 163.3 L 42.6 156.9 L 48.2 150 L 53.5 142.6 L 58.5 134.6 L 63.1 126.2 L 67.4 117.2 L 69.6 112 L 41 112 L 41 108 L 74 108 L 74 80 L 16 80 L 16 76 L 74 76 L 74 46 L 41 46 L 41 42 L 74 42 L 74 12 L 86 14 L 89 16 L 86 17.8 L 86 42 L 114 42 L 114 12 L 126 14 L 129 16 L 126 17.8 L 126 42 L 145 42 L 151 37 L 162 46 L 157 50 L 157 76 L 164 76 L 174 66 L 186 76 L 186 80 L 157 80 L 157 118 L 145 124 L 145 112 L 126 112 L 126 112.2 L 129.2 117.9 L 133.3 124.7 L 137.7 131.1 L 142.3 137.1 L 147.3 142.6 L 152.7 147.8 L 158.4 152.4 L 164.5 156.7 L 171 160.6 L 178 164.1 L 183.2 166.8 L 171.9 175.8 L 164.5 171.3 L 157.6 166.3 L 151.3 160.9 L 145.5 155 L 140.2 148.7 L 135.6 142 L 131.5 134.9 L 128 127.4 L 126 121.5 L 126 183 L 114 189 L 114 112 L 86 112 L 86 183 Z M 86 108 L 114 108 L 114 80 L 86 80 Z M 126 108 L 145 108 L 145 80 L 126 80 Z M 86 76 L 114 76 L 114 46 L 86 46 Z M 126 76 L 145 76 L 145 46 L 126 46 Z " />
</g>
</svg>
