<svg xmlns="http://www.w3.org/2000/svg" xmlns:xlink="http://www.w3.org/1999/xlink" version="1.1" baseProfile="full" viewBox="0 0 200 200" width="200" height="200">
<g fill="black">
<path d="M 171.9 188.4 L 155.9 184.7 L 141 180 L 127 174.2 L 114.1 167.4 L 102.3 159.5 L 101.3 160.2 L 87.5 167.7 L 72.4 174.1 L 56.2 179.3 L 38.7 183.3 L 20.1 186.1 L 19.8 184.3 L 37.9 179.6 L 54.6 174.2 L 69.9 168 L 84 160.9 L 95.4 153.8 L 91.3 150.4 L 81.6 140.3 L 73 129.2 L 65.6 117 L 60.1 105 L 35 105 L 35 101 L 140 101 L 140.5 100.5 L 140.6 100.5 L 146 96 L 157 105 L 152 108 L 149.4 109.1 L 144 118.7 L 135.2 130.8 L 125.2 141.7 L 113.8 151.5 L 110.8 153.6 L 119 158.4 L 131.4 164.1 L 144.7 168.9 L 158.9 172.6 L 174 175.3 L 183.7 176.9 Z M 102.8 148.3 L 108 144.3 L 118 134.7 L 126.8 124.2 L 134.3 112.8 L 138.2 105 L 62.6 105 L 69.2 114.8 L 77.7 125.6 L 86.8 135.3 L 96.8 144 Z M 144 87 L 144 77 L 40 77 L 40 73 L 144 73 L 144 28 L 41 28 L 41 24 L 144 24 L 150 19 L 161 28 L 156 32 L 156 81 Z " />
</g>
</svg>
