<svg xmlns="http://www.w3.org/2000/svg" xmlns:xlink="http://www.w3.org/1999/xlink" version="1.1" baseProfile="full" viewBox="0 0 200 200" width="200" height="200">
<g fill="black">
<polygon points="28,19 173,19 173,23 28,23 " />
<polygon points="173,19 149,21 161,9 " />
<polygon points="39,54 161,54 161,58 39,58 " />
<polygon points="161,54 137,56 149,44 " />
<polygon points="34,89 166,89 166,93 34,93 " />
<polygon points="166,89 142,91 154,79 " />
<polygon points="12,124 188,124 188,128 12,128 " />
<polygon points="188,124 164,126 176,114 " />
<polygon points="104,19 104,184 92,190 92,19 " />
</g>
</svg>
