<svg xmlns="http://www.w3.org/2000/svg" xmlns:xlink="http://www.w3.org/1999/xlink" version="1.1" baseProfile="full" viewBox="0 0 200 200" width="200" height="200">
<g fill="black">
<polygon points="188.3,23 172.2,26.2 156.1,29.4 140,32.4 123.9,35.3 107.8,38.2 91.7,40.9 75.6,43.4 59.4,45.8 43.3,48 27.1,49.8 26.8,48.1 42.6,44.2 58.5,40.6 74.3,37 90.2,33.4 106.1,29.8 122,26.2 137.9,22.6 153.8,18.9 169.8,15.1 185.7,11.3 " />
<polygon points="196.4,21.2 188.3,23 184.7,11.5 " />
<polygon points="196.4,21.2 196.7,24.2 189.5,20.7 " />
<polygon points="33,47 33,173 21,179 21,41 " />
<polygon points="12.9,174.9 29.4,172.2 46.1,169.4 63.1,166.5 80.2,163.5 97.6,160.5 115.2,157.4 133,154.3 151,151.1 169.3,148 187.8,145.1 188.1,146.8 170,151.8 152.1,156.4 134.3,160.7 116.7,164.8 99.3,168.8 82,172.6 65,176.3 48.1,179.9 31.5,183.4 15,186.7 " />
<polygon points="10.9,175.2 12.9,174.9 15,186.7 " />
<polygon points="20.4,182.7 17.5,189.3 15,186.7 " />
</g>
</svg>
