<svg xmlns="http://www.w3.org/2000/svg" xmlns:xlink="http://www.w3.org/1999/xlink" version="1.1" baseProfile="full" viewBox="0 0 200 200" width="200" height="200">
<g fill="black">
<polygon points="168.3,25.1 154.5,27.6 140.6,29.8 126.5,31.7 112.2,33.3 97.6,34.5 82.9,35.4 68,35.9 52.8,36 37.5,35.7 22,34.9 22,33.1 37.4,31.9 52.6,30.7 67.6,29.3 82.3,27.8 96.8,26 111,24 125,21.8 138.8,19.2 152.4,16.4 165.7,13.4 " />
<polygon points="176.5,23.3 168.3,25.1 164.7,13.6 " />
<polygon points="176.5,23.3 176.8,26.3 169.5,22.8 " />
<polygon points="36.3,39.5 39.8,41.2 43.4,42.6 46.7,44.3 49.8,46.1 52.6,48.1 55.2,50.2 57.6,52.4 59.8,54.8 61.7,57.4 63.4,60.1 52.3,64.6 51.7,62.5 51,60.3 50,58.1 48.7,55.8 47.2,53.5 45.4,51.1 43.3,48.6 41,46.1 38.4,43.4 35.4,41.1 " />
<polygon points="63.4,60.1 63.3,64.7 60.1,67.9 55.5,67.8 52.3,64.6 " />
<polygon points="88.3,37 90.7,38.4 93.2,39.6 95.7,40.9 98,42.4 100.2,44 102.2,45.8 104.2,47.7 106,49.7 107.7,51.9 109.2,54.1 98.3,59 97.8,56.9 97.2,54.9 96.4,52.9 95.5,50.8 94.5,48.8 93.4,46.7 92.1,44.6 90.7,42.5 89.2,40.3 87.2,38.5 " />
<polygon points="109.2,54.1 109.3,58.7 106.2,62 101.6,62.1 98.3,59 " />
<polygon points="163,41.3 160.8,45 158.4,48.6 155.8,52 153.1,55.3 150.3,58.4 147.2,61.3 144.1,64.1 140.7,66.6 137.1,68.9 133.5,71 132.4,69.7 135,66.5 137.4,63.2 139.7,60 141.9,56.8 143.9,53.5 145.8,50.2 147.6,46.8 149.2,43.3 150.7,39.8 152.1,36.2 " />
<polygon points="152.6,35.1 163,41.3 151.7,37.2 " />
<polygon points="163,41.3 164.9,44.3 159.1,45 " />
<polygon points="31.9,60.3 32.7,66.6 33.2,72.5 33.3,78.1 33,83.2 32.2,88 31.1,92.5 29.5,96.7 27.5,100.4 24.9,103.8 21.8,106.7 15.1,96.8 17.1,95.6 19.1,94 21,91.8 22.8,89 24.4,85.7 25.9,81.7 27.2,77.2 28.3,72.2 29.4,66.6 30.1,60.4 " />
<polygon points="21.8,106.7 17.3,107.6 13.5,105.1 12.6,100.6 15.1,96.8 " />
<polygon points="32,70.9 176,70.9 176,74.9 32,74.9 " />
<polygon points="181.2,75.8 179.5,77.9 177.7,80.2 175.7,82.6 173.5,85.1 171.2,87.7 168.6,90.4 165.9,93.2 163,96.1 159.8,99 156.7,102.2 155.2,101.1 157.5,97.2 159.5,93.4 161.3,89.8 163.1,86.4 164.7,83.2 166.2,80.2 167.6,77.4 168.8,74.7 169.8,72.2 170.7,69.9 " />
<polygon points="170,70.9 176,65.9 187,74.9 182,77.9 170,82.9 " />
</g>
</svg>
