<svg xmlns="http://www.w3.org/2000/svg" xmlns:xlink="http://www.w3.org/1999/xlink" version="1.1" baseProfile="full" viewBox="0 0 200 200" width="200" height="200">
<g fill="black">
<polygon points="16,80 55,80 55,84 16,84 " />
<polygon points="61,57 61,137 49,143 49,55 " />
<polygon points="61,57 64,59 59,62 " />
<polygon points="13.8,125 16.9,124.1 20.3,123.2 23.9,122.2 27.6,121.1 31.6,119.9 35.8,118.6 40.1,117.3 44.7,115.9 49.6,114.6 54.6,113.1 55.3,114.8 50.9,117.6 46.7,120.4 42.6,122.9 38.6,125.2 34.8,127.4 31.1,129.4 27.6,131.3 24.2,133 21,134.7 18,136.2 " />
<polygon points="11.9,125.7 13.8,125 18,136.2 " />
<polygon points="22.6,131.3 20.9,138.3 18,136.2 " />
<polygon points="181.7,81.8 178.8,82.8 175.7,83.8 172.4,84.8 169,85.8 165.4,86.7 161.7,87.6 157.8,88.5 153.8,89.3 149.6,90 145.2,90.8 144.7,89.1 148.6,87.2 152.3,85 155.8,83.1 159.3,81.2 162.5,79.4 165.6,77.6 168.6,75.9 171.3,74.3 173.9,72.6 176.4,71 " />
<polygon points="184.7,80.3 181.7,81.8 175.5,71.5 " />
<polygon points="184.7,80.3 184.9,83.5 178.8,81 " />
<polygon points="151,57 151,118 139,118 139,55 " />
<polygon points="151,57 154,59 149,62 " />
<polygon points="151,118 148.6,121.6 145,124 141.4,121.6 139,118 " />
<polygon points="151,118 151,119.2 151.2,120.1 151.4,120.7 151.5,121 151.7,121.2 151.9,121.4 152.2,121.5 152.8,121.7 153.7,121.9 155,122 155,134 152.4,133.8 149.9,133.4 147.5,132.6 145.2,131.3 143.2,129.7 141.6,127.7 140.3,125.4 139.5,123 139.1,120.5 139,118 " />
<polygon points="155,122 159.2,123.8 161,128 159.2,132.2 155,134 " />
<polygon points="155,122 183,122 183,134 155,134 " />
<polygon points="183,122 186.6,124.4 189,128 186.6,131.6 183,134 " />
<polygon points="177,123 183,97 185,97 183,123 " />
<polygon points="87.4,67.6 87.4,134.3 75.4,140.3 75.4,61.6 " />
<polygon points="81.4,67.6 118.5,67.6 118.5,71.6 81.4,71.6 " />
<polygon points="124.5,69.6 124.5,128.3 112.5,134.3 112.5,69.6 " />
<polygon points="112.5,67.6 118.5,62.6 129.5,71.6 124.5,75.6 112.5,69.6 " />
<polygon points="81.4,118.3 118.5,118.3 118.5,122.3 81.4,122.3 " />
</g>
</svg>
