<svg xmlns="http://www.w3.org/2000/svg" xmlns:xlink="http://www.w3.org/1999/xlink" version="1.1" baseProfile="full" viewBox="0 0 200 200" width="200" height="200">
<g fill="black">
<polygon points="18,62 185,62 185,66 18,66 " />
<polygon points="185,62 161,64 173,52 " />
<polygon points="136.2,19.6 140.2,21.1 144.1,22.5 147.7,24.1 151,25.8 154.2,27.7 157,29.8 159.7,32 162.1,34.4 164.2,37 166.1,39.7 155.2,44.8 154.6,42.6 153.6,40.5 152.4,38.2 150.9,35.9 149.1,33.5 146.9,31.1 144.5,28.7 141.8,26.2 138.9,23.6 135.4,21.2 " />
<polygon points="166.1,39.7 166.3,44.3 163.2,47.7 158.7,47.8 155.2,44.8 " />
<polygon points="127.9,16.1 127.6,45.1 128.6,71.1 130.9,94.3 134.5,114.6 139.4,132 145.4,146.4 152.5,157.9 160.7,166.6 169.9,172.6 180.2,176.1 177.7,187.8 164.6,183.3 153,175.7 143,165.2 134.7,151.9 128,135.9 122.8,117.3 119,96 116.6,72 115.6,45.2 115.9,15.8 " />
<polygon points="115.9,16.8 127.9,16.1 116,13.4 " />
<polygon points="127.9,16.1 130.8,18.2 125.8,21.1 " />
<polygon points="180.2,176.1 183.9,178.7 184.8,183.2 182.2,186.9 177.7,187.8 " />
<polygon points="179,177 181,151 179,151 173,177 " />
<polygon points="30,36 99,36 99,40 30,40 " />
<polygon points="99,36 75,38 87,26 " />
</g>
</svg>
