<svg xmlns="http://www.w3.org/2000/svg" xmlns:xlink="http://www.w3.org/1999/xlink" version="1.1" baseProfile="full" viewBox="0 0 200 200" width="200" height="200">
<g fill="black">
<polygon points="53,43 53,109 41,115 41,37 " />
<polygon points="47,43 158,43 158,47 47,47 " />
<polygon points="164,45 164,103 152,109 152,45 " />
<polygon points="152,43 158,38 169,47 164,51 152,45 " />
<polygon points="47,93 158,93 158,97 47,97 " />
<polygon points="109,11 109,97 97,97 97,11 " />
<polygon points="120,100 120,165 108,165 108,98 " />
<polygon points="120,100 123,102 120,104 " />
<polygon points="120,165 117.6,168.6 114,171 110.4,168.6 108,165 " />
<polygon points="120,165 120,166.2 120.2,167.1 120.4,167.7 120.5,168 120.7,168.2 120.9,168.4 121.2,168.5 121.8,168.7 122.7,168.9 124,169 124,181 121.4,180.8 118.9,180.4 116.5,179.6 114.2,178.3 112.2,176.7 110.6,174.7 109.3,172.4 108.5,170 108.1,167.5 108,165 " />
<polygon points="124,169 128.2,170.8 130,175 128.2,179.2 124,181 " />
<polygon points="124,169 181,169 181,181 124,181 " />
<polygon points="181,169 184.6,171.4 187,175 184.6,178.6 181,181 " />
<polygon points="175,170 181,144 183,144 181,170 " />
<polygon points="98.7,99.8 95.6,114.5 91.3,128 85.7,140.3 79,151.3 71.1,161 62.1,169.4 51.9,176.4 40.7,182 28.4,186.2 15.1,188.8 14.8,187.1 27.2,182.6 38.3,177.2 48.3,170.9 57.1,163.6 64.7,155.4 71.3,146.1 76.7,135.8 81.2,124.4 84.5,111.8 86.9,98.1 " />
<polygon points="86.9,98.1 98.7,99.8 87.2,96.1 " />
<polygon points="98.7,99.8 101.4,102.2 94.9,105.3 " />
</g>
</svg>
