<svg xmlns="http://www.w3.org/2000/svg" xmlns:xlink="http://www.w3.org/1999/xlink" version="1.1" baseProfile="full" viewBox="0 0 200 200" width="200" height="200">
<g fill="black">
<path d="M 153 188 L 153 13 L 165 15 L 168 17 L 165 18.8 L 165 182 Z M 19.4 187.7 L 18.5 186.2 L 25.4 180.6 L 31.6 174.4 L 37 167.6 L 41.6 160 L 45.6 151.7 L 48.9 142.5 L 51.5 132.4 L 53.3 121.4 L 54.5 109.6 L 55 97 L 55 13 L 67 15 L 70 17 L 67 18.8 L 67 97 L 66.9 97.1 L 65.8 110.6 L 63.9 123.2 L 61.2 134.8 L 57.7 145.5 L 53.3 155.2 L 48.1 164 L 42.1 171.7 L 35.3 178.2 L 27.7 183.6 Z " />
</g>
</svg>
