<svg xmlns="http://www.w3.org/2000/svg" xmlns:xlink="http://www.w3.org/1999/xlink" version="1.1" baseProfile="full" viewBox="0 0 200 200" width="200" height="200">
<g fill="black">
<polygon points="21,56 179,56 179,60 21,60 " />
<polygon points="179,56 155,58 167,46 " />
<polygon points="70,18 70,186 58,186 58,16 " />
<polygon points="70,18 73,20 68,23 " />
<polygon points="142,18 142,186 130,186 130,16 " />
<polygon points="142,18 145,20 140,23 " />
<polygon points="64,95 136,95 136,99 64,99 " />
<polygon points="64,138 136,138 136,142 64,142 " />
</g>
</svg>
