<svg xmlns="http://www.w3.org/2000/svg" xmlns:xlink="http://www.w3.org/1999/xlink" version="1.1" baseProfile="full" viewBox="0 0 200 200" width="200" height="200">
<g fill="black">
<polygon points="78.8,18 74.8,25.8 70.3,33.4 65.4,40.6 60,47.6 54.1,54.2 47.8,60.6 41,66.6 33.7,72.2 25.9,77.4 17.6,82.2 16.6,80.7 23.6,74.4 30.2,68.1 36.5,61.8 42.3,55.3 47.6,48.7 52.5,42 57,35.1 61,28 64.6,20.7 67.8,13.2 " />
<polygon points="68.3,12 78.8,18 67.4,14.2 " />
<polygon points="78.8,18 80.8,21 75,21.8 " />
<polygon points="51.5,48 182.8,48 182.8,52 51.5,52 " />
<polygon points="182.8,48 158.8,50 170.8,38 " />
<polygon points="66.6,69.3 66.6,114.5 54.6,120.5 54.6,63.3 " />
<polygon points="60.6,69.3 143.2,69.3 143.2,73.3 60.6,73.3 " />
<polygon points="149.2,71.3 149.2,113.5 137.2,119.5 137.2,71.3 " />
<polygon points="137.2,69.3 143.2,64.3 154.2,73.3 149.2,77.3 137.2,71.3 " />
<polygon points="60.6,107.5 143.2,107.5 143.2,111.5 60.6,111.5 " />
<polygon points="39.7,128.8 39.7,181.7 27.7,187.7 27.7,122.8 " />
<polygon points="33.7,128.8 87.5,128.8 87.5,132.8 33.7,132.8 " />
<polygon points="93.5,130.8 93.5,178.7 81.5,184.7 81.5,130.8 " />
<polygon points="81.5,128.8 87.5,123.8 98.5,132.8 93.5,136.8 81.5,130.8 " />
<polygon points="33.7,170.7 87.5,170.7 87.5,174.7 33.7,174.7 " />
<polygon points="119.4,128.8 119.4,181.7 107.4,187.7 107.4,122.8 " />
<polygon points="113.4,128.8 167.2,128.8 167.2,132.8 113.4,132.8 " />
<polygon points="173.2,130.8 173.2,178.7 161.2,184.7 161.2,130.8 " />
<polygon points="161.2,128.8 167.2,123.8 178.2,132.8 173.2,136.8 161.2,130.8 " />
<polygon points="113.4,170.7 167.2,170.7 167.2,174.7 113.4,174.7 " />
</g>
</svg>
