<svg xmlns="http://www.w3.org/2000/svg" xmlns:xlink="http://www.w3.org/1999/xlink" version="1.1" baseProfile="full" viewBox="0 0 200 200" width="200" height="200">
<g fill="black">
<path d="M 60 182.5 L 57.4 182.4 L 55 182 L 52.6 181.2 L 50.4 180.1 L 48.4 178.5 L 46.7 176.6 L 45.5 174.4 L 44.6 172 L 44.1 169.5 L 44 167 L 44 76 L 56 82 L 134 82 L 134 61 L 56 61 L 56 68 L 44 74 L 44 13 L 56 15 L 59 17 L 56 18.8 L 56 34 L 141 34 L 151 24 L 163 34 L 163 38 L 56 38 L 56 57 L 134 57 L 140 52 L 151 61 L 146 65 L 146 88 L 134 94 L 134 86 L 56 86 L 56 105 L 127.8 105 L 136 96 L 146 105 L 146 109 L 56 109 L 56 126 L 127.8 126 L 136 117 L 146 126 L 146 130 L 56 130 L 56 147 L 127.8 147 L 136 138 L 146 147 L 146 151 L 56 151 L 56 168.2 L 56.1 169.1 L 56.2 169.7 L 56.4 170.1 L 56.5 170.4 L 56.7 170.6 L 57.1 170.9 L 57.7 171.1 L 58.7 171.3 L 60 171.5 L 153.8 171.5 L 159 150.5 L 161 150.5 L 159.1 171.6 L 162.3 173.7 L 164.5 177 L 162.3 180.3 L 159 182.5 Z " />
</g>
</svg>
