<svg xmlns="http://www.w3.org/2000/svg" xmlns:xlink="http://www.w3.org/1999/xlink" version="1.1" baseProfile="full" viewBox="0 0 200 200" width="200" height="200">
<g fill="black">
<polygon points="50,76 50,138 38,144 38,70 " />
<polygon points="44,76 155,76 155,80 44,80 " />
<polygon points="161,78 161,132 149,138 149,78 " />
<polygon points="149,76 155,71 166,80 161,84 149,78 " />
<polygon points="44,122 155,122 155,126 44,126 " />
<polygon points="19,173 182,173 182,177 19,177 " />
<polygon points="182,173 158,175 170,163 " />
<polygon points="87,31 87,177 75,177 75,31 " />
<polygon points="124,31 124,177 112,177 112,31 " />
<polygon points="35.3,22.3 36.1,28.1 36.6,33.6 36.7,38.7 36.4,43.5 35.8,48 34.7,52.2 33.3,56.1 31.3,59.6 28.9,62.8 26,65.6 19.4,55.6 21.2,54.5 23,53.1 24.8,51.2 26.5,48.7 28.1,45.6 29.5,42 30.8,37.9 31.9,33.2 32.9,28 33.5,22.3 " />
<polygon points="26,65.6 21.5,66.4 17.6,63.9 16.8,59.4 19.4,55.6 " />
<polygon points="35.4,31.8 172.2,31.8 172.2,35.8 35.4,35.8 " />
<polygon points="177.4,36.8 175.7,38.8 174,40.9 172,43.1 169.9,45.4 167.7,47.8 165.3,50.2 162.7,52.8 159.9,55.5 156.8,58.1 153.9,61.1 152.4,60 154.6,56.4 156.5,52.8 158.2,49.5 159.9,46.3 161.4,43.3 162.8,40.5 164.1,37.8 165.2,35.3 166.1,33 166.9,30.9 " />
<polygon points="166.2,31.8 172.2,26.8 183.2,35.8 178.2,38.8 166.2,43.8 " />
</g>
</svg>
