<svg xmlns="http://www.w3.org/2000/svg" xmlns:xlink="http://www.w3.org/1999/xlink" version="1.1" baseProfile="full" viewBox="0 0 200 200" width="200" height="200">
<g fill="black">
<polygon points="69,22.4 65.7,28.3 62.1,34 58.3,39.6 54.1,45 49.7,50.3 44.9,55.4 39.9,60.3 34.5,65 28.7,69.5 22.5,73.6 21.4,72.3 26.1,66.7 30.7,61.2 35,55.9 39.2,50.5 43,45.1 46.6,39.6 49.9,34.1 52.9,28.6 55.6,23 58.1,17.3 " />
<polygon points="58.6,16.2 69,22.4 57.7,18.2 " />
<polygon points="69,22.4 70.8,25.5 65,26.1 " />
<polygon points="45,44 169,44 169,48 45,48 " />
<polygon points="169,44 145,46 157,34 " />
<polygon points="106,17 106,183 94,189 94,15 " />
<polygon points="106,17 109,19 104,22 " />
<polygon points="19,76 181,76 181,80 19,80 " />
<polygon points="181,76 157,78 169,66 " />
<polygon points="49,102 49,158 37,164 37,96 " />
<polygon points="43,102 158,102 158,106 43,106 " />
<polygon points="164,104 164,147 152,147 152,104 " />
<polygon points="152,102 158,97 169,106 164,110 152,104 " />
<polygon points="164,147 161.6,150.6 158,153 154.4,150.6 152,147 " />
<polygon points="164,147 163.8,149.5 163.4,152 162.6,154.4 161.3,156.7 159.7,158.7 157.7,160.3 155.4,161.6 153,162.4 150.5,162.8 148,163 148,151 149.2,150.9 150.1,150.7 150.7,150.5 151,150.4 151.2,150.2 151.4,150 151.5,149.7 151.7,149.1 151.9,148.2 152,147 " />
<polygon points="128,154 128,151 148,151 148,157 " />
</g>
</svg>
