<svg xmlns="http://www.w3.org/2000/svg" xmlns:xlink="http://www.w3.org/1999/xlink" version="1.1" baseProfile="full" viewBox="0 0 200 200" width="200" height="200">
<g fill="black">
<polygon points="106,17 106,55 94,55 94,15 " />
<polygon points="106,17 109,19 104,22 " />
<polygon points="15,51 185,51 185,55 15,55 " />
<polygon points="185,51 161,53 173,41 " />
<polygon points="33.3,70.1 40.1,77.3 46.3,85 51.8,93.4 56.7,102.3 61,111.7 64.8,121.5 67.9,131.9 70.4,142.7 72.4,153.9 73.7,165.6 61.8,166.3 61.1,155.2 59.8,144.5 58.1,134.2 55.8,124.2 53.1,114.6 49.8,105.4 46,96.5 41.8,87.9 37.1,79.5 31.9,71.3 " />
<polygon points="73.7,165.6 72.2,169.9 68.1,171.9 63.8,170.4 61.8,166.3 " />
<polygon points="157.5,72.5 153.8,84.8 150,96.9 146.2,108.8 142.2,120.5 138.2,132 134,143.3 129.8,154.4 125.3,165.3 120.7,175.9 115.8,186.3 114.1,185.6 117.1,174.6 120.3,163.5 123.5,152.3 126.8,140.9 130.1,129.4 133.3,117.7 136.5,105.9 139.7,93.9 142.8,81.7 145.9,69.4 " />
<polygon points="146.3,67.7 157.5,72.5 145.6,70.3 " />
<polygon points="157.5,72.5 159.9,75.2 154.2,76.8 " />
</g>
</svg>
