<svg xmlns="http://www.w3.org/2000/svg" xmlns:xlink="http://www.w3.org/1999/xlink" version="1.1" baseProfile="full" viewBox="0 0 200 200" width="200" height="200">
<g fill="black">
<polygon points="30,27 159,27 159,31 30,31 " />
<polygon points="165,29 165,79 153,85 153,29 " />
<polygon points="153,27 159,22 170,31 165,35 153,29 " />
<polygon points="30,69 159,69 159,73 30,73 " />
<polygon points="36,27 36,182 24,188 24,21 " />
<polygon points="30,102 165,102 165,106 30,106 " />
<polygon points="165,102 141,104 153,92 " />
<polygon points="30,134 173,134 173,138 30,138 " />
<polygon points="173,134 149,136 161,124 " />
</g>
</svg>
