<svg xmlns="http://www.w3.org/2000/svg" xmlns:xlink="http://www.w3.org/1999/xlink" version="1.1" baseProfile="full" viewBox="0 0 200 200" width="200" height="200">
<g fill="black">
<path d="M 16.8 114.2 L 13.3 111.3 L 13 106.7 L 16 103.2 L 17.9 102.5 L 19.8 101.5 L 21.5 100.2 L 23.2 98.4 L 24.8 96.2 L 26.2 93.5 L 27.5 90.3 L 28.7 86.7 L 29.7 82.5 L 30.1 78 L 31.9 77.9 L 32.4 82.6 L 32.7 85 L 49 85 L 49 34 L 61 40 L 82.2 40 L 82.5 39.6 L 83.2 37.5 L 84 35.5 L 84.7 33.5 L 85.4 31.4 L 86.8 27.4 L 87.2 26 L 20 26 L 20 22 L 158 22 L 168 12 L 180 22 L 180 26 L 99.8 26 L 99.3 26.6 L 96.3 30.4 L 91.5 35.5 L 89.7 37 L 88 38.5 L 86.1 39.8 L 85.8 40 L 139 40 L 145 35 L 156 44 L 151 48 L 151 85 L 172 85 L 172.6 84.5 L 173.2 83.4 L 173.6 83.7 L 178 80 L 189 89 L 184 92 L 178.4 94.3 L 177.2 95.3 L 175 97 L 172.7 98.8 L 170.2 100.6 L 167.5 102.5 L 164.7 104.4 L 161.6 106.3 L 158.6 108.6 L 157.3 107.3 L 159.8 104.5 L 161.8 101.5 L 163.7 98.7 L 165.5 96.1 L 167.2 93.6 L 168.7 91.3 L 170.1 89.1 L 170.2 89 L 33 89 L 33 91.3 L 32.7 95.3 L 32 99.1 L 30.8 102.6 L 29.1 106 L 27 109 L 24.4 111.7 L 21.3 114 Z M 61 85 L 139 85 L 139 74 L 61 74 Z M 61 70 L 139 70 L 139 59 L 61 59 Z M 61 55 L 139 55 L 139 44 L 61 44 Z " />
</g>
</svg>
