<svg xmlns="http://www.w3.org/2000/svg" xmlns:xlink="http://www.w3.org/1999/xlink" version="1.1" baseProfile="full" viewBox="0 0 200 200" width="200" height="200">
<g fill="black">
<path d="M 38.3 188.8 L 37.6 187.1 L 54 177.2 L 69 166.3 L 82.5 154.7 L 94.5 142 L 105 128.4 L 114 113.9 L 119.8 102 L 61.6 102 L 55.4 108.1 L 47.6 114.6 L 46.3 113.3 L 52.6 105.6 L 58.5 97.5 L 64.2 89 L 69.6 80.1 L 74.7 70.6 L 79.4 60.7 L 83.8 50.1 L 87.8 39.1 L 91.5 27.5 L 94.9 15.3 L 95.4 13.6 L 106.5 18.5 L 108.8 21.3 L 105.3 22.2 L 102.4 31 L 97.9 42.8 L 93 54.1 L 87.8 64.7 L 82.1 74.7 L 76 84.1 L 69.6 92.8 L 65.2 98 L 121.7 98 L 127.8 81.6 L 132.6 63.9 L 135.9 45 L 136.2 43.1 L 147.7 46.8 L 150.4 49.3 L 146.9 50.7 L 143.6 66.5 L 138 85 L 130.8 102.4 L 122.1 118.5 L 111.8 133.5 L 100.1 147.1 L 86.9 159.6 L 72.2 170.7 L 56 180.4 Z " />
</g>
</svg>
