<svg xmlns="http://www.w3.org/2000/svg" xmlns:xlink="http://www.w3.org/1999/xlink" version="1.1" baseProfile="full" viewBox="0 0 200 200" width="200" height="200">
<g fill="black">
<polygon points="28,34 172,34 172,38 28,38 " />
<polygon points="172,34 152,36 162,25 " />
<polygon points="106,15 106,99 94,99 94,13 " />
<polygon points="106,15 109,17 104,20 " />
<polygon points="41.4,52.5 41.4,84.4 29.4,90.4 29.4,46.5 " />
<polygon points="35.4,52.5 72.5,52.5 72.5,56.5 35.4,56.5 " />
<polygon points="78.5,54.5 78.5,83.4 66.5,89.4 66.5,54.5 " />
<polygon points="66.5,52.5 72.5,47.5 83.5,56.5 78.5,60.5 66.5,54.5 " />
<polygon points="35.4,77.4 72.5,77.4 72.5,81.4 35.4,81.4 " />
<polygon points="132.6,52.5 132.6,84.4 120.6,90.4 120.6,46.5 " />
<polygon points="126.6,52.5 161.4,52.5 161.4,56.5 126.6,56.5 " />
<polygon points="167.4,54.5 167.4,83.4 155.4,89.4 155.4,54.5 " />
<polygon points="155.4,52.5 161.4,47.5 172.4,56.5 167.4,60.5 155.4,54.5 " />
<polygon points="126.6,77.4 161.4,77.4 161.4,81.4 126.6,81.4 " />
<polygon points="14,98 186,98 186,102 14,102 " />
<polygon points="186,98 166,100 176,89 " />
</g>
</svg>
