<svg xmlns="http://www.w3.org/2000/svg" xmlns:xlink="http://www.w3.org/1999/xlink" version="1.1" baseProfile="full" viewBox="0 0 200 200" width="200" height="200">
<g fill="black">
<path d="M 94 189 L 94 133.5 L 39.6 133.5 L 39.6 145.5 L 27.6 151.5 L 27.6 43.4 L 36.3 44.9 L 38.6 43.9 L 43.7 41.8 L 48.6 39.9 L 53.4 38.1 L 58 36.3 L 62.5 34.5 L 66.7 32.8 L 70.8 31.2 L 74.8 29.5 L 78.5 27.8 L 79.1 29.5 L 88 37.2 L 88.2 40.3 L 84.2 38.6 L 82.6 39.1 L 74.2 41.3 L 69.7 42.4 L 65.1 43.4 L 60.4 44.4 L 55.4 45.3 L 50.3 46.2 L 45 46.9 L 42.3 47.2 L 42.6 47.4 L 39.6 49.2 L 39.6 86.6 L 64.1 86.6 L 72.3 77.6 L 82.3 86.6 L 82.3 90.6 L 39.6 90.6 L 39.6 129.5 L 94 129.5 L 94 13 L 106 15 L 109 17 L 106 18.8 L 106 129.5 L 158.6 129.5 L 158.6 90.6 L 117.6 90.6 L 117.6 86.6 L 158.6 86.6 L 158.6 49 L 117.6 49 L 117.6 45 L 158.6 45 L 164.6 40 L 175.6 49 L 170.6 53 L 170.6 139.5 L 158.6 145.5 L 158.6 133.5 L 106 133.5 L 106 183 Z " />
</g>
</svg>
