<svg xmlns="http://www.w3.org/2000/svg" xmlns:xlink="http://www.w3.org/1999/xlink" version="1.1" baseProfile="full" viewBox="0 0 200 200" width="200" height="200">
<g fill="black">
<polygon points="33,50 175,50 175,54 33,54 " />
<polygon points="175,50 151,52 163,40 " />
<polygon points="80,21 80,102 68,102 68,19 " />
<polygon points="80,21 83,23 78,26 " />
<polygon points="132,21 132,102 120,102 120,19 " />
<polygon points="132,21 135,23 130,26 " />
<polygon points="26,98 180,98 180,102 26,102 " />
<polygon points="180,98 156,100 168,88 " />
<polygon points="69,98 69,167 57,167 57,98 " />
<polygon points="23.2,172.9 32.2,170.7 41.1,168.5 50.1,166.4 59.1,164.3 68.1,162.3 77.1,160.4 86.2,158.5 95.3,156.8 104.5,155.3 113.7,154.1 114.2,155.8 105.4,159 96.6,162 87.9,164.9 79.1,167.7 70.3,170.5 61.5,173.3 52.8,176 44,178.8 35.3,181.6 26.6,184.4 " />
<polygon points="21.3,173.5 23.2,172.9 26.6,184.4 " />
<polygon points="31.5,179.9 29.3,186.8 26.6,184.4 " />
<polygon points="166.3,121 163,123.6 159.6,126.2 156.2,128.8 152.7,131.3 149.1,133.7 145.6,136.1 141.9,138.4 138.2,140.6 134.3,142.6 130.5,144.7 129.4,143.2 132.3,140 135.2,136.8 138.1,133.7 141,130.6 143.9,127.5 146.8,124.5 149.7,121.4 152.5,118.4 155.3,115.3 158.1,112.3 " />
<polygon points="158.3,112 166.3,121 157.4,112.9 " />
<polygon points="166.3,121 166.9,124.6 161.3,123 " />
<polygon points="99.2,100.6 104.8,110.7 110.8,120.2 117.2,129.2 124.1,137.5 131.4,145.2 139.4,152.3 147.8,158.9 156.9,164.8 166.5,170.2 176.7,175 171.2,186.9 160.4,181.1 150.4,174.7 141.1,167.6 132.5,159.9 124.6,151.6 117.5,142.7 111.2,133.3 105.7,123.2 101.1,112.5 97.5,101.2 " />
<polygon points="171.2,186.9 176.7,175 182.5,177.7 " />
</g>
</svg>
