<svg xmlns="http://www.w3.org/2000/svg" xmlns:xlink="http://www.w3.org/1999/xlink" version="1.1" baseProfile="full" viewBox="0 0 200 200" width="200" height="200">
<g fill="black">
<polygon points="77.5,14.4 73.4,28.5 68.8,42 63.6,54.9 58,67.3 51.9,79.1 45.3,90.3 38.2,100.9 30.6,110.9 22.4,120.1 13.6,128.6 12.3,127.3 19.5,117.7 26.3,107.7 32.7,97.3 38.7,86.5 44.4,75.3 49.5,63.5 54.3,51.3 58.6,38.5 62.5,25.3 65.9,11.5 " />
<polygon points="65.9,11.5 77.5,14.4 66.3,9.7 " />
<polygon points="77.5,14.4 80,17 73.2,19.5 " />
<polygon points="47,72 187,72 187,76 47,76 " />
<polygon points="187,72 163,74 175,62 " />
<polygon points="23,158 180,158 180,162 23,162 " />
<polygon points="180,158 156,160 168,148 " />
</g>
</svg>
