<svg xmlns="http://www.w3.org/2000/svg" xmlns:xlink="http://www.w3.org/1999/xlink" version="1.1" baseProfile="full" viewBox="0 0 200 200" width="200" height="200">
<g fill="black">
<polygon points="42,46 143,46 143,50 42,50 " />
<polygon points="148.5,50.3 145.2,56.7 141.5,63.4 137.2,70.3 132.5,77.3 127.2,84.6 121.4,92.1 115.1,99.7 108.2,107.5 100.8,115.5 92.6,123.5 91.3,122.4 97.8,113.1 104.1,104.2 109.9,95.7 115.3,87.6 120.2,79.8 124.6,72.3 128.6,65.2 132,58.3 135,51.8 137.4,45.6 " />
<polygon points="137,46 143,41 154,50 149,54 143,54 " />
<polygon points="31.1,12.6 40.6,35.7 50.9,57.3 62.3,77.6 74.8,96.5 88.4,114 103.2,130.1 119.1,144.9 136.2,158.3 154.5,170.4 174,181.1 167.9,192.8 147.9,181 129.2,167.8 111.8,153.2 95.8,137.2 81.1,119.9 67.9,101.2 56,81.2 45.6,59.9 36.7,37.2 29.4,13.2 " />
<polygon points="167.9,192.8 174,181.1 179.2,183.8 " />
</g>
</svg>
