<svg xmlns="http://www.w3.org/2000/svg" xmlns:xlink="http://www.w3.org/1999/xlink" version="1.1" baseProfile="full" viewBox="0 0 200 200" width="200" height="200">
<g fill="black">
<polygon points="30,30 170,30 170,34 30,34 " />
<polygon points="170,30 146,32 158,20 " />
<polygon points="66,30 66,116 54,116 54,30 " />
<polygon points="146,30 146,116 134,116 134,30 " />
<polygon points="15,71 185,71 185,75 15,75 " />
<polygon points="185,71 161,73 173,61 " />
<polygon points="25,112 175,112 175,116 25,116 " />
<polygon points="175,112 151,114 163,102 " />
<polygon points="106,30 106,183 94,189 94,30 " />
<polygon points="16,148 184,148 184,152 16,152 " />
<polygon points="184,148 160,150 172,138 " />
</g>
</svg>
