<svg xmlns="http://www.w3.org/2000/svg" xmlns:xlink="http://www.w3.org/1999/xlink" version="1.1" baseProfile="full" viewBox="0 0 200 200" width="200" height="200">
<g fill="black">
<polygon points="38,49 38,183 26,189 26,43 " />
<polygon points="32,49 168,49 168,53 32,53 " />
<polygon points="174,51 174,171 162,171 162,51 " />
<polygon points="162,49 168,44 179,53 174,57 162,51 " />
<polygon points="174,171 171.6,174.6 168,177 164.4,174.6 162,171 " />
<polygon points="174,171 173.8,173.5 173.4,176 172.6,178.4 171.3,180.7 169.7,182.7 167.7,184.3 165.4,185.6 163,186.4 160.5,186.8 158,187 158,175 159.2,174.9 160.1,174.7 160.7,174.5 161,174.4 161.2,174.2 161.4,174 161.5,173.7 161.7,173.1 161.9,172.2 162,171 " />
<polygon points="138,178 138,175 158,175 158,181 " />
<polygon points="106,13 106,144 94,144 94,13 " />
<polygon points="71,75 71,156 59,162 59,73 " />
<polygon points="71,75 74,77 69,80 " />
<polygon points="65,140 135,140 135,144 65,144 " />
<polygon points="141,75 141,150 129,156 129,73 " />
<polygon points="141,75 144,77 139,80 " />
</g>
</svg>
