<svg xmlns="http://www.w3.org/2000/svg" xmlns:xlink="http://www.w3.org/1999/xlink" version="1.1" baseProfile="full" viewBox="0 0 200 200" width="200" height="200">
<g fill="black">
<polygon points="26.2,21.5 32.9,23.2 39.2,25.4 45.1,28 50.6,31 55.7,34.3 60.5,37.9 64.9,41.9 69,46.1 72.6,50.6 75.8,55.5 65.2,61.2 63,56.9 60.5,52.7 57.5,48.6 54.2,44.7 50.4,40.9 46.2,37.3 41.7,33.7 36.7,30.2 31.3,26.7 25.6,23.2 " />
<polygon points="75.8,55.5 76.2,60 73.4,63.6 68.8,64 65.2,61.2 " />
<polygon points="12.9,114.2 19.1,111.1 25.5,107.8 32.1,104.3 38.9,100.6 45.9,96.7 53.1,92.7 60.5,88.5 68.2,84.1 76.2,79.7 84.4,75.2 85.5,76.7 78.3,82.8 71.2,88.6 64.2,94 57.2,99.1 50.4,103.9 43.8,108.5 37.3,112.9 30.9,117.1 24.7,121 18.7,124.7 " />
<polygon points="11.2,115.2 12.9,114.2 18.7,124.7 " />
<polygon points="22.5,119.2 21.9,126.4 18.7,124.7 " />
<polygon points="179.1,27.2 173.6,31.4 168,35.6 162.4,39.7 156.8,43.7 151.1,47.7 145.4,51.6 139.6,55.4 133.7,59 127.6,62.5 121.5,65.7 120.4,64.2 125.4,59.4 130.5,54.7 135.6,50.1 140.8,45.6 145.9,41 151,36.5 156.1,31.9 161.2,27.3 166.3,22.7 171.3,18 " />
<polygon points="171.4,17.9 179.1,27.2 170.5,18.7 " />
<polygon points="179.1,27.2 179.5,30.7 174,28.9 " />
<polygon points="120.2,75.5 127.7,77.6 135,80.1 141.9,83 148.6,86.2 155,89.7 161.1,93.4 167,97.4 172.7,101.6 178.1,106 183.2,110.6 174.5,118.9 170.2,114.2 165.7,109.7 160.8,105.3 155.7,101 150.3,96.8 144.7,92.8 138.8,88.8 132.6,85 126.2,81.1 119.5,77.2 " />
<polygon points="183.2,110.6 184.8,114.9 183,119.1 178.8,120.7 174.5,118.9 " />
<polygon points="105.5,17.5 104.3,43.3 101.5,67.3 96.9,89.3 90.6,109.4 82.6,127.6 72.8,143.7 61.4,157.9 48.2,169.9 33.4,179.7 17.1,187.3 16.3,185.6 31.4,176.5 44.8,165.8 56.4,153.5 66.5,139.5 75,123.8 81.8,106.3 87.1,86.9 90.8,65.7 92.9,42.6 93.5,17.5 " />
<polygon points="93.5,15.1 105.5,17.5 93.5,18.5 " />
<polygon points="105.5,17.5 108.5,19.5 103.5,22.5 " />
<polygon points="105.3,18.6 107,42.1 109.9,63.9 114.1,83.8 119.7,102 126.6,118.3 134.9,132.9 144.4,145.8 155.4,157 167.6,166.5 181.3,174.4 175.2,186.1 160.4,176.7 147.3,165.6 135.9,152.8 126.1,138.3 118.1,122.2 111.8,104.6 107.1,85.4 104.1,64.6 102.8,42.4 103.5,18.5 " />
<polygon points="175.2,186.1 181.3,174.4 186.5,177.1 " />
</g>
</svg>
