<svg xmlns="http://www.w3.org/2000/svg" xmlns:xlink="http://www.w3.org/1999/xlink" version="1.1" baseProfile="full" viewBox="0 0 200 200" width="200" height="200">
<g fill="black">
<path d="M 14.6 162.4 L 14.6 158.4 L 37.7 158.4 L 37.7 60 L 49.7 66 L 76 66 L 76 34 L 88 36 L 91 38 L 88 39.8 L 88 66 L 113 66 L 113 34 L 125 36 L 128 38 L 125 39.8 L 125 66 L 150.2 66 L 156.2 61 L 167.2 70 L 162.2 74 L 162.2 158.4 L 167.1 158.4 L 175.3 149.4 L 185.3 158.4 L 185.3 162.4 Z M 49.7 158.4 L 76 158.4 L 76 114 L 49.7 114 Z M 88 158.4 L 113 158.4 L 113 114 L 88 114 Z M 125 158.4 L 150.2 158.4 L 150.2 114 L 125 114 Z M 49.7 110 L 76 110 L 76 70 L 49.7 70 Z M 88 110 L 113 110 L 113 70 L 88 70 Z M 125 110 L 150.2 110 L 150.2 70 L 125 70 Z " />
</g>
</svg>
