<svg xmlns="http://www.w3.org/2000/svg" xmlns:xlink="http://www.w3.org/1999/xlink" version="1.1" baseProfile="full" viewBox="0 0 200 200" width="200" height="200">
<g fill="black">
<path d="M 105 181 L 102.4 180.8 L 99.9 180.4 L 97.5 179.6 L 95.2 178.3 L 93.2 176.7 L 91.6 174.7 L 90.3 172.4 L 89.5 170 L 89.1 167.5 L 89 165 L 89 120 L 47 120 L 47 132 L 35 138 L 35 24 L 47 30 L 145 30 L 151 25 L 162 34 L 157 38 L 157 126 L 145 132 L 145 120 L 101 120 L 101 166.2 L 101.2 167.1 L 101.5 168 L 101.9 168.4 L 102.8 168.7 L 103.7 168.9 L 105 169 L 166.2 169 L 172 144 L 174 144 L 172.1 169 L 175.6 171.4 L 178 175 L 175.6 178.6 L 172 181 Z M 47 116 L 89 116 L 89 75 L 47 75 Z M 101 116 L 145 116 L 145 75 L 101 75 Z M 47 71 L 89 71 L 89 34 L 47 34 Z M 101 71 L 145 71 L 145 34 L 101 34 Z " />
</g>
</svg>
