<svg xmlns="http://www.w3.org/2000/svg" xmlns:xlink="http://www.w3.org/1999/xlink" version="1.1" baseProfile="full" viewBox="0 0 200 200" width="200" height="200">
<g fill="black">
<path d="M 23.6 190 L 23.6 23 L 35.6 29 L 79.7 29 L 89.7 19 L 101.7 29 L 101.7 33 L 68.5 33 L 68.5 72 L 84.4 72 L 90.4 67 L 101.4 76 L 96.4 80 L 96.4 131 L 84.4 137 L 84.4 125 L 68.5 125 L 68.5 168 L 82.1 168 L 92.1 158 L 104.1 168 L 104.1 172 L 35.6 172 L 35.6 184 Z M 35.6 168 L 56.5 168 L 56.5 125 L 35.6 125 Z M 110 153 L 110 149 L 160 149 L 170 139 L 182 149 L 182 153 Z M 35.6 121 L 84.4 121 L 84.4 76 L 35.6 76 Z M 104.7 99.4 L 103.2 98.5 L 105.8 91.5 L 108.3 84.4 L 110.8 77.1 L 113.2 69.5 L 115.4 61.6 L 117.4 53.5 L 119.3 45.1 L 121 36.3 L 122.5 27.3 L 123.9 18 L 124.2 16 L 135.7 19.9 L 138.3 22.4 L 134.9 23.7 L 133.7 29.4 L 131.5 38.7 L 129 47.5 L 126.7 55 L 160 55 L 170 45 L 182 55 L 182 59 L 125.3 59 L 123.4 64.3 L 120.3 72.1 L 116.9 79.5 L 113.2 86.6 L 109.1 93.2 Z M 35.6 72 L 56.5 72 L 56.5 33 L 35.6 33 Z " />
</g>
</svg>
