<svg xmlns="http://www.w3.org/2000/svg" xmlns:xlink="http://www.w3.org/1999/xlink" version="1.1" baseProfile="full" viewBox="0 0 200 200" width="200" height="200">
<g fill="black">
<path d="M 12.2 182.2 L 12.2 178.2 L 38.9 178.2 L 38.9 112.1 L 50.9 118.1 L 149 118.1 L 155 113.1 L 166 122.1 L 161 126.1 L 161 178.2 L 165.7 178.2 L 175.7 168.2 L 187.7 178.2 L 187.7 182.2 Z M 50.9 178.2 L 75.6 178.2 L 75.6 122.1 L 50.9 122.1 Z M 87.6 178.2 L 112.3 178.2 L 112.3 122.1 L 87.6 122.1 Z M 124.3 178.2 L 149 178.2 L 149 122.1 L 124.3 122.1 Z M 40.4 107.5 L 40.4 19.5 L 52.4 25.5 L 147.6 25.5 L 153.6 20.5 L 164.6 29.5 L 159.6 33.5 L 159.6 98.5 L 147.6 104.5 L 147.6 94.5 L 52.4 94.5 L 52.4 101.5 Z M 52.4 90.5 L 94 90.5 L 94 61.5 L 52.4 61.5 Z M 106 90.5 L 147.6 90.5 L 147.6 61.5 L 106 61.5 Z M 52.4 57.5 L 94 57.5 L 94 29.5 L 52.4 29.5 Z M 106 57.5 L 147.6 57.5 L 147.6 29.5 L 106 29.5 Z " />
</g>
</svg>
