<svg xmlns="http://www.w3.org/2000/svg" xmlns:xlink="http://www.w3.org/1999/xlink" version="1.1" baseProfile="full" viewBox="0 0 200 200" width="200" height="200">
<g fill="black">
<polygon points="106,13 106,184 94,190 94,11 " />
<polygon points="106,13 109,15 106,17 " />
<polygon points="47,102 47,168 35,174 35,96 " />
<polygon points="41,102 161,102 161,106 41,106 " />
<polygon points="167,104 167,157 155,157 155,104 " />
<polygon points="155,102 161,97 172,106 167,110 155,104 " />
<polygon points="167,157 164.6,160.6 161,163 157.4,160.6 155,157 " />
<polygon points="167,157 166.8,159.5 166.4,162 165.6,164.4 164.3,166.7 162.7,168.7 160.7,170.3 158.4,171.6 156,172.4 153.5,172.8 151,173 151,161 152.2,160.9 153.1,160.7 153.7,160.5 154,160.4 154.2,160.2 154.4,160 154.5,159.7 154.7,159.1 154.9,158.2 155,157 " />
<polygon points="151,167 151,161 131,161 131,164 " />
<polygon points="20,40 180,40 180,44 20,44 " />
<polygon points="180,40 156,42 168,30 " />
<polygon points="12,70 190,70 190,74 12,74 " />
<polygon points="190,70 166,72 178,60 " />
</g>
</svg>
