<svg xmlns="http://www.w3.org/2000/svg" xmlns:xlink="http://www.w3.org/1999/xlink" version="1.1" baseProfile="full" viewBox="0 0 200 200" width="200" height="200">
<g fill="black">
<polygon points="51,25 51,70 39,70 39,19 " />
<polygon points="51,70 48.6,73.6 45,76 41.4,73.6 39,70 " />
<polygon points="51,70 50.3,85.9 49,100.8 47,114.6 44.4,127.4 41,139.1 37,149.8 32.2,159.3 26.7,167.7 20.5,174.9 13.6,180.6 12.3,179.3 17.6,172.4 22.2,164.8 26.3,156.4 29.9,147.1 32.9,136.8 35.3,125.5 37.1,113.1 38.3,99.8 38.9,85.4 39,70 " />
<polygon points="45,25 165,25 165,29 45,29 " />
<polygon points="171,27 171,64 159,70 159,27 " />
<polygon points="159,25 165,20 176,29 171,33 159,27 " />
<polygon points="45,56 165,56 165,60 45,60 " />
<polygon points="67,85 170,85 170,89 67,89 " />
<polygon points="170,85 146,87 158,75 " />
<polygon points="47,111 187,111 187,115 47,115 " />
<polygon points="187,111 163,113 175,101 " />
<polygon points="125,111 125,172 113,172 113,111 " />
<polygon points="125,172 122.6,175.6 119,178 115.4,175.6 113,172 " />
<polygon points="125,172 124.8,174.5 124.4,177 123.6,179.4 122.3,181.7 120.7,183.7 118.7,185.3 116.4,186.6 114,187.4 111.5,187.8 109,188 109,176 110.2,175.9 111.1,175.7 111.7,175.5 112,175.4 112.2,175.2 112.4,175 112.5,174.7 112.7,174.1 112.9,173.2 113,172 " />
<polygon points="109,182 109,176 89,176 89,179 " />
<polygon points="82.6,134.3 80.7,139.7 78.3,144.9 75.3,149.8 71.8,154.4 67.8,158.7 63.4,162.8 58.4,166.6 52.9,170 46.9,173.1 40.4,175.7 39.5,174.2 44.9,169.9 49.8,165.6 54.2,161.5 58.1,157.3 61.5,153.1 64.3,148.9 66.7,144.7 68.5,140.4 69.9,136 70.9,131.6 " />
<polygon points="70.9,131.6 82.6,134.3 71.3,129.8 " />
<polygon points="82.6,134.3 85,136.9 78.3,139.4 " />
<polygon points="144.2,127.5 149.7,129.2 154.8,131.2 159.5,133.5 163.8,136.2 167.7,139.2 171.2,142.5 174.3,146 177,149.9 179.2,154.1 181,158.5 169.4,161.6 168.6,158.1 167.5,154.8 166,151.5 164.1,148.2 161.8,145 159,141.8 155.8,138.6 152.2,135.5 148.1,132.3 143.5,129.2 " />
<polygon points="181,158.5 180.3,163.1 176.7,165.9 172.2,165.2 169.4,161.6 " />
</g>
</svg>
