<svg xmlns="http://www.w3.org/2000/svg" xmlns:xlink="http://www.w3.org/1999/xlink" version="1.1" baseProfile="full" viewBox="0 0 200 200" width="200" height="200">
<g fill="black">
<polygon points="27,17 163,17 163,21 27,21 " />
<polygon points="169,19 169,63 157,69 157,19 " />
<polygon points="157,17 163,12 174,21 169,25 157,19 " />
<polygon points="48,53 163,53 163,57 48,57 " />
<polygon points="54.2,53.8 46.9,104.7 34.2,108.9 43.1,46.2 " />
<polygon points="43,88 170,88 170,92 43,92 " />
<polygon points="176,90 175.7,102 175.1,113.3 174,123.9 172.5,133.7 170.5,142.8 168,151.3 165.1,159 161.6,166 157.7,172.2 153.2,177.7 144.4,169.5 147.9,165.2 151.2,160.1 154.1,154.2 156.6,147.5 158.8,139.9 160.7,131.5 162.1,122.3 163.1,112.3 163.7,101.5 164,90 " />
<polygon points="164,88 170,83 181,92 176,95 164,100 " />
<polygon points="153.2,177.7 149,179.6 144.7,178 142.8,173.8 144.4,169.5 " />
<polygon points="153.2,177.7 151.4,179.4 149.6,181 147.7,182.4 145.7,183.6 143.5,184.6 141.3,185.5 139.1,186.1 136.7,186.6 134.4,186.9 132,187 132,175 133.5,174.9 134.9,174.7 136.3,174.5 137.5,174.1 138.8,173.6 139.9,173 141.1,172.4 142.2,171.5 143.3,170.6 144.4,169.5 " />
<polygon points="132,181 132,175 112,175 112,178 " />
<polygon points="55.2,97.4 61.2,98.5 66.9,99.8 72.3,101.4 77.5,103.1 82.3,105 86.9,107.1 91.2,109.2 95.3,111.5 99.1,113.9 102.7,116.5 94.7,125.5 92.1,122.9 89.2,120.3 85.9,117.7 82.3,115.1 78.4,112.5 74.2,110 69.7,107.4 65,104.7 59.9,102 54.6,99.1 " />
<polygon points="102.7,116.5 104.6,120.6 103.2,124.9 99.1,126.9 94.7,125.5 " />
<polygon points="25,147.9 34.6,146.5 44.8,145.1 55.4,143.5 66.5,141.8 78.1,140 90.3,138.1 102.9,136.1 116,134 129.6,132 143.8,130.1 144.1,131.8 130.4,135.7 117,139.3 104.2,142.5 91.7,145.5 79.8,148.3 68.2,150.9 57.2,153.4 46.6,155.6 36.5,157.8 26.9,159.7 " />
<polygon points="26.9,159.7 25,147.9 23,148.2 " />
<polygon points="26.9,159.7 29.4,162.3 32.3,155.8 " />
</g>
</svg>
