<svg xmlns="http://www.w3.org/2000/svg" xmlns:xlink="http://www.w3.org/1999/xlink" version="1.1" baseProfile="full" viewBox="0 0 200 200" width="200" height="200">
<g fill="black">
<path d="M 164.5 187 L 164.5 182 L 152.9 179.5 L 152.9 177 L 164.5 177 L 165.1 176.9 L 165.6 176.8 L 165.8 176.7 L 165.9 176.6 L 166.1 176.5 L 166.3 176.1 L 166.5 175.5 L 166.7 174.6 L 166.9 173.4 L 167 172 L 167 32 L 105 32 L 105 179.5 L 95 184.5 L 95 32 L 34 32 L 34 182 L 22 188 L 22 22 L 34 28 L 167 28 L 172 23 L 182 32 L 177 35 L 177 172 L 176.9 174.3 L 176.6 176.5 L 176 178.6 L 175.2 180.6 L 174.1 182.5 L 172.6 184.1 L 170.8 185.4 L 168.7 186.3 L 166.6 186.8 Z M 59.1 182.4 L 59.1 135.3 L 57 136.3 L 56.9 136.9 L 55.8 141.4 L 54.5 145.9 L 53 150.3 L 51.4 154.7 L 49.5 158.9 L 47.4 163.1 L 45 167.2 L 42.3 171.1 L 39.4 174.9 L 37.9 174 L 39.2 169.6 L 40.4 165.1 L 42.6 156.5 L 43.5 152.2 L 44.9 143.8 L 45.3 139.6 L 45.6 135.4 L 45.8 132.1 L 45.7 132.1 L 46 129 L 57.7 132.3 L 59.1 133.5 L 59.1 120.4 L 54.8 121.7 L 50.4 122.9 L 46 124 L 45.7 124.1 L 44 127.7 L 41.6 125 L 37.9 113.4 L 39.9 113.1 L 44.3 112.8 L 50.7 112.2 L 51.6 110.1 L 54.5 104 L 57.4 98 L 60.4 92.1 L 63.3 86.1 L 69.1 74.3 L 74.7 62.3 L 77 57.2 L 76.9 57.2 L 77.9 55.2 L 88.1 61.7 L 89.9 64.9 L 86.1 65.2 L 84.8 67.5 L 81.4 73.3 L 77.9 79.1 L 74.3 84.7 L 70.7 90.4 L 63.1 101.4 L 59.1 106.8 L 55.2 111.7 L 65.8 110.5 L 70 109.9 L 78.4 108.9 L 78 107 L 76.4 101.6 L 75.4 99.1 L 74.4 96.5 L 73.3 93.9 L 71.7 91.6 L 73 90.4 L 75.2 92.2 L 77.6 94 L 79.9 96.1 L 82 98.3 L 84 100.8 L 85.8 103.5 L 87.5 106.3 L 89 109.3 L 90.4 112.4 L 91.7 115.7 L 90.9 120.2 L 87.2 122.9 L 82.7 122.1 L 80 118.4 L 79.6 115.4 L 79.2 112.5 L 79.2 112.4 L 75.7 114.2 L 71.6 115.9 L 71.1 116.1 L 71.1 176.4 Z M 115.9 180.3 L 113 178.2 L 106.7 167.8 L 108.6 167.1 L 113.1 165.6 L 122.1 162.4 L 130.6 159.1 L 130.6 121.5 L 121 121.5 L 121 133.5 L 112 138 L 112 66.2 L 121 70.7 L 130.6 70.7 L 130.6 36.9 L 140.6 38.9 L 143.1 40.9 L 140.6 42.6 L 140.6 70.7 L 150.2 70.7 L 154.7 65.7 L 164.2 74.7 L 159.2 77.2 L 159.2 121.5 L 150.2 126 L 150.2 121.5 L 140.6 121.5 L 140.6 155 L 144 153.6 L 148.5 151.9 L 150.6 151 L 150.5 150.4 L 149.7 147.1 L 148.7 143.8 L 147.6 140.4 L 146.4 136.9 L 144.7 133.5 L 146.1 132.5 L 151.5 138.1 L 153.8 141.2 L 156 144.4 L 157.9 147.7 L 159.5 151.2 L 160.9 154.8 L 162.1 158.5 L 163.1 162.3 L 163.8 166.2 L 162.3 170.5 L 158.2 172.6 L 153.9 171.1 L 151.9 167 L 151.9 163.7 L 151.8 160.3 L 151.6 157 L 151.2 154.3 L 150.4 155 L 146.7 158.1 L 142.8 161 L 138.8 163.8 L 134.8 166.4 L 130.6 169 L 126.3 171.4 L 121.9 173.8 L 117.5 176 L 116.8 176.3 Z M 86.5 161.7 L 82 160.7 L 79.5 156.9 L 79.2 153.6 L 78.8 150.4 L 78.4 147.3 L 77.8 144.3 L 77.1 141.4 L 76.4 138.6 L 75.5 135.8 L 74.6 133.1 L 73.6 130.4 L 72.2 127.9 L 73.5 126.8 L 75.7 128.8 L 78.1 130.8 L 80.2 133.1 L 82.2 135.6 L 84.1 138.3 L 85.8 141.3 L 87.4 144.4 L 88.8 147.7 L 90.1 151.1 L 91.3 154.7 L 90.3 159.2 Z M 121 117.5 L 130.6 117.5 L 130.6 74.7 L 121 74.7 Z M 140.6 117.5 L 150.2 117.5 L 150.2 74.7 L 140.6 74.7 Z M 58.3 91.5 L 53.7 91.1 L 50.7 87.7 L 50.2 85.2 L 49.6 82.8 L 48.9 80.4 L 48 78 L 46.9 75.7 L 45.7 73.4 L 44.3 71.1 L 42.8 68.8 L 41.1 66.4 L 39 64.4 L 40 62.9 L 42.6 64.4 L 45.4 65.7 L 48.1 67.3 L 50.5 69 L 50.8 68.3 L 51.9 64.7 L 55.5 54.5 L 56.8 51.1 L 57.9 47.7 L 59.1 44.4 L 60.3 41 L 61.1 38.5 L 61 38.5 L 61.9 36.4 L 72.3 42.5 L 74.3 45.5 L 70.3 46.1 L 68.6 48.8 L 66.6 52 L 64.6 55.1 L 60.4 61.1 L 58.1 64.1 L 55.8 67 L 53.3 69.7 L 52.4 70.8 L 52.9 71.2 L 55 73.4 L 57.1 75.7 L 58.9 78.3 L 60.6 81 L 62.1 83.9 L 61.7 88.5 Z " />
</g>
</svg>
