<svg xmlns="http://www.w3.org/2000/svg" xmlns:xlink="http://www.w3.org/1999/xlink" version="1.1" baseProfile="full" viewBox="0 0 200 200" width="200" height="200">
<g fill="black">
<polygon points="64.6,19.8 62.9,22.1 60.9,24.3 58.9,26.7 56.6,29.2 54.2,31.7 51.7,34.3 48.9,37 46,39.8 42.8,42.5 39.6,45.5 38.3,44.4 40.6,40.7 42.5,37 44.4,33.5 46.2,30.3 47.9,27.1 49.5,24.1 50.9,21.3 52.2,18.7 53.3,16.1 54.3,13.8 " />
<polygon points="54.8,12.9 64.6,19.8 53.8,14.7 " />
<polygon points="64.6,19.8 66.2,23.1 60.4,23.1 " />
<polygon points="21.2,33.6 24.6,34.7 28,35.7 31.3,37 34.4,38.4 37.3,39.9 40.2,41.7 42.9,43.5 45.4,45.5 47.8,47.7 50.1,50 40.3,57 39.1,54.8 37.8,52.5 36.2,50.3 34.5,48.1 32.6,45.9 30.6,43.8 28.3,41.6 25.9,39.4 23.4,37.1 20.5,35.2 " />
<polygon points="50.1,50 51.1,54.5 48.7,58.4 44.2,59.4 40.3,57 " />
<polygon points="84,38.5 80.5,42.3 76.8,46.3 72.8,50.4 68.5,54.7 63.9,59.2 59.1,63.9 54,68.7 48.6,73.6 42.8,78.6 36.6,83.6 35.3,82.3 40.1,75.9 44.7,69.9 49.2,64.2 53.5,58.8 57.6,53.6 61.5,48.6 65.2,43.9 68.6,39.3 71.7,35.1 74.6,31 " />
<polygon points="75.1,30.5 84,38.5 74,31.8 " />
<polygon points="84,38.5 85.1,41.9 79.3,41.1 " />
<polygon points="21.7,78.9 25.7,79 30.1,78.9 34.9,78.8 40.1,78.6 45.6,78.2 51.5,77.8 57.8,77.4 64.4,76.9 71.4,76.4 78.8,76.1 79.1,77.8 72.1,80.2 65.3,82.2 58.8,83.8 52.6,85.3 46.8,86.6 41.2,87.8 36,88.8 31.1,89.6 26.5,90.3 22.2,90.9 " />
<polygon points="19.7,79 21.7,78.9 22.2,90.9 " />
<polygon points="28.1,87.6 24.4,93.8 22.2,90.9 " />
<polygon points="67.3,60 70.4,62.4 73.5,64.5 76.3,66.8 78.8,69.1 81.2,71.5 83.3,74 85.1,76.6 86.8,79.3 88.1,82 89.2,84.8 77.5,87.2 77.4,85.2 77.1,83 76.6,80.7 75.8,78.3 74.8,75.7 73.6,73 72.1,70.2 70.4,67.3 68.5,64.2 66.1,61.3 " />
<polygon points="89.2,84.8 88.3,89.3 84.5,91.9 80.1,91 77.5,87.2 " />
<polygon points="152.6,19.8 150.8,22.1 148.9,24.4 146.7,26.8 144.4,29.3 141.9,31.8 139.3,34.4 136.4,37.1 133.3,39.8 130,42.6 126.6,45.5 125.3,44.4 127.8,40.7 129.9,37 132,33.5 133.9,30.2 135.7,27 137.4,24.1 138.8,21.3 140.2,18.6 141.3,16.1 142.3,13.8 " />
<polygon points="142.8,12.9 152.6,19.8 141.8,14.7 " />
<polygon points="152.6,19.8 154.2,23.1 148.4,23.1 " />
<polygon points="111.2,33.6 114.4,34.8 117.7,35.8 120.8,37 123.8,38.4 126.6,40 129.4,41.7 132,43.6 134.5,45.6 136.9,47.7 139.1,50 129.3,57 128.1,54.7 126.8,52.5 125.3,50.3 123.6,48.1 121.8,45.9 119.9,43.7 117.8,41.5 115.5,39.4 113.2,37.1 110.4,35.2 " />
<polygon points="139.1,50 140.1,54.5 137.7,58.4 133.2,59.4 129.3,57 " />
<polygon points="174.9,37.6 171.6,41 167.8,44.7 163.8,48.6 159.4,52.8 154.6,57.1 149.4,61.7 143.9,66.4 137.9,71.4 131.5,76.5 124.6,81.6 123.3,80.3 128.9,73.7 134.2,67.5 139.3,61.8 144,56.3 148.5,51.2 152.6,46.3 156.4,41.8 159.9,37.5 163,33.6 165.7,29.9 " />
<polygon points="166.1,29.4 174.9,37.6 165.1,30.6 " />
<polygon points="174.9,37.6 175.9,41 170.2,40.1 " />
<polygon points="114.6,75.9 117.9,76 121.7,75.9 125.9,75.8 130.6,75.6 135.8,75.2 141.5,74.8 147.6,74.4 154.2,73.9 161.2,73.4 168.8,73.1 169.1,74.8 161.9,77.2 155.1,79.2 148.7,80.8 142.7,82.3 137.1,83.6 131.9,84.8 127.1,85.8 122.8,86.6 118.9,87.3 115.3,87.9 " />
<polygon points="112.6,76 114.6,75.9 115.3,87.9 " />
<polygon points="121.1,84.5 117.5,90.8 115.3,87.9 " />
<polygon points="158.3,57.8 161.2,59.4 164.2,61 167,62.8 169.6,64.8 172.2,67.1 174.5,69.5 176.7,72.1 178.8,74.9 180.7,77.9 182.5,81 171.3,85.3 170.5,82.5 169.6,79.7 168.6,77 167.4,74.3 166.1,71.7 164.7,69.2 163.1,66.6 161.3,64.1 159.5,61.5 157.2,59.3 " />
<polygon points="182.5,81 182.3,85.5 179,88.7 174.5,88.6 171.3,85.3 " />
<polygon points="14,101 186,101 186,105 14,105 " />
<polygon points="186,101 162,103 174,91 " />
<polygon points="102,14 104,53.4 109.5,85.8 117.6,111.8 127.5,132.1 138.4,147.4 149.5,158.5 160,166.1 169.3,170.8 176.4,173.2 180.5,174 179.4,185.9 173.4,184.8 164.7,181.9 153.9,176.4 141.8,167.7 129.3,155.2 117.2,138.2 106.4,116.2 97.8,88.6 92,54.7 90,14 " />
<polygon points="90,15 102,14 90,11.6 " />
<polygon points="102,14 105,16 100,19 " />
<polygon points="180.5,174 184.5,176.1 185.9,180.5 183.8,184.5 179.4,185.9 " />
<polygon points="180,175 182,149 180,149 174,175 " />
<polygon points="167.5,122.9 160.3,133.4 152.6,143 144.3,151.8 135.5,159.8 126.1,167 116.3,173.4 106,178.9 95.2,183.5 83.9,187.2 72.2,189.8 71.7,188.1 82.7,183.6 93,178.6 102.9,173.1 112.2,167 121,160.3 129.3,152.9 137,144.9 144.3,136.2 151,126.8 157.3,116.7 " />
<polygon points="157.8,115.8 167.5,122.9 156.8,117.5 " />
<polygon points="167.5,122.9 169.1,126.2 163.2,126.2 " />
<polygon points="131.2,80.5 133.9,81.4 136.7,82.1 139.4,82.9 141.9,83.9 144.4,85 146.7,86.4 148.9,87.9 150.9,89.5 152.8,91.3 154.6,93.3 144.3,99.4 143.7,97.7 143,96 142.1,94.2 141,92.5 139.7,90.8 138.3,89 136.7,87.2 134.9,85.4 132.9,83.6 130.5,82.2 " />
<polygon points="154.6,93.3 155.2,97.9 152.5,101.5 147.9,102.1 144.3,99.4 " />
</g>
</svg>
