<svg xmlns="http://www.w3.org/2000/svg" xmlns:xlink="http://www.w3.org/1999/xlink" version="1.1" baseProfile="full" viewBox="0 0 200 200" width="200" height="200">
<g fill="black">
<polygon points="88,59.7 90.1,66.1 91.6,72.4 92.3,78.4 92.4,84.4 91.9,90.1 90.8,95.6 89.1,100.9 86.8,105.9 83.9,110.6 80.3,115.1 71.8,106.6 74.9,103.6 77.7,100.2 80,96.6 82,92.6 83.6,88.3 84.9,83.5 85.7,78.3 86.2,72.7 86.4,66.6 86.3,60.1 " />
<polygon points="80.3,115.1 76.1,116.8 71.8,115.1 70.1,110.8 71.8,106.6 " />
<polygon points="130,16 130,111 118,111 118,14 " />
<polygon points="130,16 133,18 130,20 " />
<polygon points="130,111 127.6,114.6 124,117 120.4,114.6 118,111 " />
<polygon points="129.9,111.4 128.4,122.7 126,133.2 122.8,143.1 118.7,152.3 113.8,160.6 108.1,168.2 101.6,175 94.3,180.9 86.2,185.8 77.4,189.8 76.5,188.1 84.1,182.6 90.9,176.7 96.9,170.4 102.1,163.6 106.6,156.3 110.3,148.4 113.3,139.9 115.6,130.7 117.1,121 118,110.5 " />
</g>
</svg>
