<svg xmlns="http://www.w3.org/2000/svg" xmlns:xlink="http://www.w3.org/1999/xlink" version="1.1" baseProfile="full" viewBox="0 0 200 200" width="200" height="200">
<g fill="black">
<polygon points="53,27 53,115 41,121 41,21 " />
<polygon points="47,27 153,27 153,31 47,31 " />
<polygon points="159,29 159,109 147,115 147,29 " />
<polygon points="147,27 153,22 164,31 159,35 147,29 " />
<polygon points="47,63 153,63 153,67 47,67 " />
<polygon points="47,99 153,99 153,103 47,103 " />
<polygon points="14,133 186,133 186,137 14,137 " />
<polygon points="186,133 162,135 174,123 " />
<polygon points="106,27 106,183 94,189 94,27 " />
</g>
</svg>
