<svg xmlns="http://www.w3.org/2000/svg" xmlns:xlink="http://www.w3.org/1999/xlink" version="1.1" baseProfile="full" viewBox="0 0 200 200" width="200" height="200">
<g fill="black">
<polygon points="20.4,31.1 94.8,31.1 94.8,35.1 20.4,35.1 " />
<polygon points="94.8,31.1 70.8,33.1 82.8,21.1 " />
<polygon points="60,31.1 60,161.3 48,161.3 48,31.1 " />
<polygon points="17.9,170.7 24.7,168.4 31.8,165.9 39.3,163.3 47.1,160.6 55.3,157.8 63.8,154.8 72.7,151.8 81.9,148.6 91.6,145.5 101.6,142.5 102.3,144.1 93,149 83.9,153.6 75.2,157.8 66.7,161.8 58.5,165.6 50.6,169.2 43,172.7 35.8,175.9 28.9,179 22.3,181.9 " />
<polygon points="22.3,181.9 17.9,170.7 16,171.4 " />
<polygon points="22.3,181.9 25.2,184 26.8,176.9 " />
<polygon points="118.6,27.5 118.6,165.7 106.6,171.7 106.6,21.5 " />
<polygon points="112.6,27.5 175.3,27.5 175.3,31.5 112.6,31.5 " />
<polygon points="181.3,29.5 181.3,159.7 169.3,165.7 169.3,29.5 " />
<polygon points="169.3,27.5 175.3,22.5 186.3,31.5 181.3,35.5 169.3,29.5 " />
<polygon points="112.6,149.7 175.3,149.7 175.3,153.7 112.6,153.7 " />
</g>
</svg>
