<svg xmlns="http://www.w3.org/2000/svg" xmlns:xlink="http://www.w3.org/1999/xlink" version="1.1" baseProfile="full" viewBox="0 0 200 200" width="200" height="200">
<g fill="black">
<path d="M 164.5 188.7 L 160.2 187.2 L 157 184 L 153.4 180.9 L 149.5 177.8 L 145.2 174.8 L 140.7 171.8 L 135.8 168.9 L 130.5 166 L 125 163.1 L 119.1 160.1 L 113 157.1 L 113.5 155.3 L 120.4 156.5 L 126.9 158.1 L 133.1 159.9 L 139 162 L 144.6 164.3 L 149.9 166.7 L 154.9 169.3 L 159.7 172.2 L 164.1 175.2 L 168.3 178.3 L 170.2 182.5 L 168.7 186.8 Z M 20.5 188.7 L 19.8 187 L 26.4 183.4 L 32.7 180 L 38.8 176.7 L 44.7 173.4 L 50.3 170.1 L 55.7 166.8 L 60.8 163.5 L 65.7 160.1 L 70.3 156.7 L 74.7 153.2 L 81.8 162.9 L 82 166.5 L 78.5 165 L 76.7 166.1 L 71.5 169.2 L 65.9 172.1 L 60.2 175 L 54.2 177.7 L 48 180.3 L 41.5 182.7 L 34.8 185 L 27.8 187 Z M 17.3 149.4 L 17.3 145.4 L 56.9 145.4 L 56.9 82.6 L 22.1 82.6 L 22.1 78.6 L 56.9 78.6 L 56.9 55.3 L 68.9 57.3 L 71.9 59.3 L 68.9 61.1 L 68.9 78.6 L 131 78.6 L 131 55.3 L 143 57.3 L 146 59.3 L 143 61.1 L 143 78.6 L 155.9 78.6 L 165.9 68.6 L 177.9 78.6 L 177.9 82.6 L 143 82.6 L 143 145.4 L 160.6 145.4 L 170.6 135.4 L 182.6 145.4 L 182.6 149.4 Z M 68.9 145.4 L 131 145.4 L 131 126.8 L 68.9 126.8 Z M 68.9 122.8 L 131 122.8 L 131 104.7 L 68.9 104.7 Z M 68.9 100.7 L 131 100.7 L 131 82.6 L 68.9 82.6 Z M 15.6 75.6 L 14.3 74.3 L 19.9 67.1 L 25 60.3 L 29.7 53.7 L 33.9 47.4 L 37.6 41.4 L 40.7 35.5 L 43.3 29.9 L 45.4 24.6 L 46.9 19.5 L 47.9 14.6 L 48.3 12.8 L 59.6 17.2 L 62.1 19.8 L 58.3 21.1 L 57.7 22.9 L 55.3 28.6 L 52.3 34.4 L 48.9 40 L 159 40 L 169 30 L 181 40 L 181 44 L 46.1 44 L 44.7 46 L 40.1 51.9 L 34.9 57.8 L 29.1 63.8 L 22.7 69.7 Z " />
</g>
</svg>
